<svg width="926" height="771" viewBox="0 0 926 771" fill="none" xmlns="http://www.w3.org/2000/svg">
<g id="blast-off">
<g clip-path="url(#clip0)">
<g id="spaceshuttle">
<g id="spaceshuttle-shadow" opacity="0.7">
<path id="Vector" opacity="0.7" d="M584.59 346.63C584.67 322.265 578.837 298.244 567.59 276.63C562.25 266.48 557.38 260.17 553.59 256.3C552.161 254.784 550.294 253.753 548.25 253.349C546.207 252.946 544.088 253.191 542.19 254.05C540.673 254.585 539.303 255.469 538.19 256.63C533.12 261.88 528.54 268.82 524.54 276.21C512.708 298.329 506.566 323.045 506.67 348.13V363.19H497.01V188.19C497.01 151.51 488.8 115.32 472.72 83.19C465.1 67.98 458.15 58.53 452.8 52.72C451.504 51.243 449.907 50.0597 448.117 49.249C446.327 48.4383 444.385 48.0189 442.42 48.0189C440.455 48.0189 438.513 48.4383 436.723 49.249C434.932 50.0597 433.336 51.243 432.04 52.72C424.8 60.59 418.27 70.99 412.56 82.05C395.65 114.84 387.06 152.05 387.06 189.82V363.19H378.71V347.41C378.814 322.325 372.672 297.609 360.84 275.49C356.84 268.11 352.26 261.17 347.19 255.91C345.731 254.373 343.821 253.339 341.736 252.958C339.651 252.577 337.499 252.868 335.59 253.79L335.94 253.98C334.716 254.521 333.608 255.296 332.68 256.26C328.93 260.13 324.06 266.44 318.68 276.59C307.433 298.204 301.599 322.225 301.68 346.59V608.23H331.48L328.23 629.74V694.05H352.59V629.74L349.34 608.23H378.71V369.96H387.06V607.16H410.86L407.44 629.73V694.05H431.81V629.74L428.39 607.17H460.46L457.04 629.74V694.05H481.41V629.74L477.99 607.17H496.99V369.96H506.65V608.59H514.48V608.23H540.37L537.12 629.74V694.05H561.49V629.74L558.24 608.23H584.59V346.63Z" fill="url(#paint0_linear)"/>
</g>
<g id="side-thrusters">
<path id="Vector_2" d="M357.44 617.2H334.37L338.49 589.19H353.32L357.44 617.2Z" fill="#535461"/>
<g id="Group" opacity="0.1">
<path id="Vector_3" opacity="0.1" d="M337.34 600.31H354.47L353.32 592.48H338.49L337.34 600.31Z" fill="black"/>
</g>
<path id="Vector_4" d="M555.2 617.2H532.13L536.25 589.19H551.08L555.2 617.2Z" fill="#535461"/>
<g id="Group_2" opacity="0.1">
<path id="Vector_5" opacity="0.1" d="M535.1 600.31H552.23L551.08 592.48H536.25L535.1 600.31Z" fill="black"/>
</g>
</g>
<g id="spaceshuttle-side-sections">
<path id="Vector_6" d="M547.72 253.51C546.849 252.549 545.787 251.78 544.601 251.255C543.415 250.729 542.132 250.457 540.835 250.457C539.538 250.457 538.255 250.729 537.069 251.255C535.883 251.78 534.821 252.549 533.95 253.51C529.15 258.62 524.82 265.38 521.03 272.57C509.815 294.192 504.012 318.212 504.12 342.57V596.26H577.05V341.52C577.142 317.83 571.621 294.456 560.94 273.31C555.88 263.43 551.27 257.28 547.72 253.51Z" fill="url(#paint1_linear)"/>
<path id="Vector_7" d="M338.59 253.51C339.461 252.549 340.523 251.78 341.709 251.255C342.895 250.729 344.178 250.457 345.475 250.457C346.772 250.457 348.055 250.729 349.241 251.255C350.427 251.78 351.489 252.549 352.36 253.51C357.16 258.62 361.49 265.38 365.28 272.57C376.495 294.192 382.298 318.212 382.19 342.57V596.26H309.24V341.52C309.148 317.83 314.669 294.456 325.35 273.31C330.4 263.43 335.01 257.28 338.59 253.51Z" fill="url(#paint2_linear)"/>
</g>
<g id="hardware">
<path id="Vector_8" d="M432.43 617.2H409.35L413.47 589.19H428.31L432.43 617.2Z" fill="#535461"/>
<g id="Group_3" opacity="0.1">
<path id="Vector_9" opacity="0.1" d="M412.32 600.31H429.46L428.31 592.48H413.47L412.32 600.31Z" fill="black"/>
</g>
<path id="Vector_10" d="M479.39 617.2H456.32L460.44 589.19H475.27L479.39 617.2Z" fill="#535461"/>
<g id="Group_4" opacity="0.1">
<path id="Vector_11" opacity="0.1" d="M459.29 600.31H476.43L475.27 592.48H460.44L459.29 600.31Z" fill="black"/>
</g>
<path id="Vector_12" d="M522.24 357.64H357.44V364.23H522.24V357.64Z" fill="#535461"/>
<path id="Vector_13" d="M309.65 355.93L326.95 356.01V377.35H309.65V355.93Z" fill="#535461"/>
<path id="Vector_14" d="M364.86 346.93L382.16 347.01V368.35H364.86V346.93Z" fill="#535461"/>
<path id="Vector_15" d="M504.11 346.93L521.42 347.01V368.35H504.11V346.93Z" fill="#535461"/>
<path id="Vector_16" d="M559.32 346.93L576.63 347.01V368.35H559.32V346.93Z" fill="#535461"/>
</g>
<g id="flames">
<path id="Vector_17" d="M357.44 617.2H334.37V679.82H357.44V617.2Z" fill="url(#paint3_linear)"/>
<path id="Vector_18" d="M432.42 617.2H409.35V679.82H432.42V617.2Z" fill="url(#paint4_linear)"/>
<path id="Vector_19" d="M479.39 617.2H456.32V679.82H479.39V617.2Z" fill="url(#paint5_linear)"/>
<path id="Vector_20" d="M555.2 617.2H532.13V679.82H555.2V617.2Z" fill="url(#paint6_linear)"/>
</g>
<g id="spaceshuttle-mid-section">
<path id="Vector_21" d="M452.29 54.61C451.085 53.1775 449.581 52.0259 447.884 51.2359C446.186 50.4459 444.337 50.0365 442.465 50.0365C440.593 50.0365 438.744 50.4459 437.046 51.2359C435.349 52.0259 433.845 53.1775 432.64 54.61C425.79 62.27 419.64 72.4 414.2 83.18C398.2 115.12 390.06 151.37 390.06 188.13V595.22H494.15V186.49C494.15 150.77 486.38 115.49 471.15 84.28C463.94 69.47 457.36 60.27 452.29 54.61Z" fill="url(#paint7_linear)"/>
<path id="Vector_22" d="M457.54 99.83H425.23C419.155 99.83 414.23 104.755 414.23 110.83V113.72C414.23 119.795 419.155 124.72 425.23 124.72H457.54C463.615 124.72 468.54 119.795 468.54 113.72V110.83C468.54 104.755 463.615 99.83 457.54 99.83Z" fill="#E0E0E0"/>
</g>
<g id="spaceshuttle-line" opacity="0.1">
<path id="Vector_23" opacity="0.6" d="M493.59 202.05H390.59V206.05H493.59V202.05Z" fill="black"/>
</g>
</g>
<g id="smoke-back">
<path id="Vector_24" d="M272.71 732.18C312.933 732.18 345.54 699.573 345.54 659.35C345.54 619.127 312.933 586.52 272.71 586.52C232.487 586.52 199.88 619.127 199.88 659.35C199.88 699.573 232.487 732.18 272.71 732.18Z" fill="url(#paint8_linear)"/>
<path id="Vector_25" d="M272.35 766.41C316.395 766.41 352.1 730.705 352.1 686.66C352.1 642.615 316.395 606.91 272.35 606.91C228.305 606.91 192.6 642.615 192.6 686.66C192.6 730.705 228.305 766.41 272.35 766.41Z" fill="url(#paint9_linear)"/>
<path id="Vector_26" d="M510.14 707.42C510.152 718.937 507.427 730.292 502.19 740.55C496.954 750.808 489.355 759.674 480.02 766.42H394.59C384.478 759.112 376.413 749.329 371.166 738.01C365.919 726.691 363.667 714.214 364.625 701.775C365.583 689.336 369.719 677.351 376.637 666.968C383.555 656.586 393.023 648.154 404.135 642.48C415.246 636.806 427.628 634.08 440.095 634.564C452.561 635.048 464.695 638.724 475.333 645.242C485.972 651.76 494.758 660.9 500.851 671.787C506.944 682.675 510.139 694.944 510.13 707.42H510.14Z" fill="url(#paint10_linear)"/>
<g id="Group 1">
<path id="Vector_27" d="M592.44 766.41C632.663 766.41 665.27 733.803 665.27 693.58C665.27 653.357 632.663 620.75 592.44 620.75C552.217 620.75 519.61 653.357 519.61 693.58C519.61 733.803 552.217 766.41 592.44 766.41Z" fill="url(#paint11_linear)"/>
<path id="Vector_28" d="M596.45 766.41C640.495 766.41 676.2 730.705 676.2 686.66C676.2 642.615 640.495 606.91 596.45 606.91C552.405 606.91 516.7 642.615 516.7 686.66C516.7 730.705 552.405 766.41 596.45 766.41Z" fill="url(#paint12_linear)"/>
</g>
</g>
<g id="smoke-front">
<path id="Vector_29" d="M600.46 759.86C600.46 762.04 600.363 764.197 600.17 766.33C600.178 766.36 600.178 766.39 600.17 766.42H455.09C454.89 764.26 454.79 762.07 454.79 759.87C454.778 742.442 461.021 725.589 472.384 712.376C483.748 699.162 499.477 690.466 516.71 687.87C520.311 687.328 523.948 687.054 527.59 687.05C529.45 687.05 531.3 687.12 533.13 687.25C546.184 688.248 558.728 692.744 569.444 700.265C580.16 707.785 588.653 718.053 594.03 729.99C594.33 730.65 594.62 731.32 594.89 731.99C598.568 740.821 600.461 750.293 600.46 759.86V759.86Z" fill="url(#paint13_linear)"/>
<path id="Vector_30" d="M738.11 745.29C738.118 752.445 737.067 759.563 734.99 766.41H595.59C592.22 755.211 591.579 743.368 593.72 731.87C593.84 731.24 593.96 730.6 594.1 729.98C597.609 713.697 606.592 699.108 619.551 688.644C632.51 678.179 648.663 672.471 665.32 672.47C667.61 672.47 669.86 672.57 672.09 672.79C673.09 672.87 674.09 672.99 675.09 673.12C692.546 675.495 708.549 684.116 720.136 697.385C731.723 710.654 738.109 727.674 738.11 745.29V745.29Z" fill="url(#paint14_linear)"/>
<path id="Vector_31" d="M290.72 766.42C290.96 765.66 291.17 764.9 291.38 764.13C294.695 751.73 294.677 738.674 291.327 726.284C287.977 713.893 281.414 702.607 272.302 693.567C263.19 684.527 251.852 678.054 239.435 674.802C227.019 671.551 213.963 671.636 201.59 675.05C198.693 675.845 195.85 676.827 193.08 677.99C176.401 684.929 162.892 697.814 155.172 714.147C147.453 730.48 146.073 749.097 151.3 766.39H290.72V766.42Z" fill="url(#paint15_linear)"/>
</g>
<g id="smoke-bubble-2" opacity="0.7">
<path id="Vector_32" opacity="0.7" d="M710.43 616.63C717.809 616.63 723.79 610.649 723.79 603.27C723.79 595.891 717.809 589.91 710.43 589.91C703.051 589.91 697.07 595.891 697.07 603.27C697.07 610.649 703.051 616.63 710.43 616.63Z" fill="#CCCCCC"/>
</g>
<g id="smoke-bubble-1" opacity="0.7">
<path id="Vector_33" opacity="0.7" d="M771.61 746.75C779.657 746.75 786.18 740.227 786.18 732.18C786.18 724.133 779.657 717.61 771.61 717.61C763.563 717.61 757.04 724.133 757.04 732.18C757.04 740.227 763.563 746.75 771.61 746.75Z" fill="#CCCCCC"/>
</g>
<g id="smoke-bubble-3" opacity="0.7">
<path id="Vector_34" opacity="0.7" d="M148.17 665.16C157.012 665.16 164.18 657.992 164.18 649.15C164.18 640.308 157.012 633.14 148.17 633.14C139.328 633.14 132.16 640.308 132.16 649.15C132.16 657.992 139.328 665.16 148.17 665.16Z" fill="#CCCCCC"/>
</g>
<g id="moon-large">
<path id="Vector_35" opacity="0.5" d="M757.77 43.92C757.771 54.4744 753.751 64.6329 746.529 72.3291C739.306 80.0253 729.423 84.6813 718.89 85.35C718.02 85.41 717.14 85.44 716.26 85.44C709.895 85.4362 703.616 83.9687 697.908 81.1509C692.201 78.3331 687.218 74.2405 683.345 69.1895C679.471 64.1385 676.812 58.2645 675.571 52.0214C674.33 45.7784 674.542 39.3337 676.189 33.1855C677.837 27.0373 680.876 21.3503 685.073 16.5642C689.269 11.7782 694.509 8.02125 700.389 5.58389C706.269 3.14653 712.631 2.09403 718.983 2.50778C725.334 2.92152 731.506 4.79042 737.02 7.96998V7.96998C741.829 10.7629 746.034 14.4852 749.39 18.92V18.92C754.84 26.1138 757.783 34.8949 757.77 43.92V43.92Z" fill="url(#paint16_radial)"/>
<path id="Vector_36" opacity="0.05" d="M706.04 17.59C703.896 18.5151 701.826 19.605 699.85 20.85C698.53 21.5818 697.398 22.6085 696.54 23.85C696.121 24.4726 695.891 25.2029 695.877 25.9532C695.862 26.7035 696.065 27.4419 696.46 28.08C697.46 29.46 699.46 29.68 701.13 29.77C702.665 30.0959 704.259 30.0085 705.749 29.5165C707.239 29.0246 708.571 28.1458 709.61 26.97L713.18 23.73C714.42 22.61 715.78 21.06 715.24 19.48C714.83 18.27 713.47 17.68 712.24 17.48C709.172 16.8761 705.988 17.4358 703.31 19.05" fill="#F55F44"/>
<path id="Vector_37" opacity="0.05" d="M691.13 62.49C692.334 62.49 693.31 61.514 693.31 60.31C693.31 59.106 692.334 58.13 691.13 58.13C689.926 58.13 688.95 59.106 688.95 60.31C688.95 61.514 689.926 62.49 691.13 62.49Z" fill="#F55F44"/>
<path id="Vector_38" opacity="0.05" d="M735.56 54.48C739.984 54.48 743.57 50.8938 743.57 46.47C743.57 42.0462 739.984 38.46 735.56 38.46C731.136 38.46 727.55 42.0462 727.55 46.47C727.55 50.8938 731.136 54.48 735.56 54.48Z" fill="#F55F44"/>
<path id="Vector_39" opacity="0.05" d="M749.4 18.91C749.368 21.0029 748.736 23.0428 747.579 24.787C746.422 26.5313 744.788 27.9065 742.872 28.7494C740.956 29.5922 738.838 29.8671 736.771 29.5414C734.703 29.2158 732.772 28.3032 731.208 26.9123C729.644 25.5213 728.512 23.7104 727.947 21.6949C727.382 19.6795 727.408 17.5441 728.021 15.5427C728.634 13.5414 729.809 11.7581 731.406 10.4051C733.003 9.052 734.955 8.18599 737.03 7.90997V7.90997C741.844 10.7175 746.049 14.4572 749.4 18.91V18.91Z" fill="#F55F44"/>
<path id="Vector_40" opacity="0.05" d="M750.2 67.83C746.629 72.9113 741.961 77.1243 736.541 80.157C731.121 83.1897 725.089 84.9645 718.89 85.35C718.84 84.78 718.81 84.2 718.81 83.62C718.811 79.9763 719.825 76.4047 721.737 73.3032C723.65 70.2018 726.386 67.6925 729.641 66.0551C732.896 64.4177 736.542 63.7167 740.172 64.0301C743.802 64.3434 747.274 65.659 750.2 67.83V67.83Z" fill="#F55F44"/>
</g>
<g id="stars">
<path id="Vector_41" opacity="0.25" d="M722.81 349.82C725.627 349.82 727.91 347.537 727.91 344.72C727.91 341.903 725.627 339.62 722.81 339.62C719.993 339.62 717.71 341.903 717.71 344.72C717.71 347.537 719.993 349.82 722.81 349.82Z" fill="#5CDB95"/>
<path id="Vector_42" opacity="0.25" d="M42.81 483.82C45.6267 483.82 47.91 481.537 47.91 478.72C47.91 475.903 45.6267 473.62 42.81 473.62C39.9934 473.62 37.71 475.903 37.71 478.72C37.71 481.537 39.9934 483.82 42.81 483.82Z" fill="#5CDB95"/>
<path id="Vector_43" opacity="0.25" d="M919.81 512.82C922.627 512.82 924.91 510.537 924.91 507.72C924.91 504.903 922.627 502.62 919.81 502.62C916.993 502.62 914.71 504.903 914.71 507.72C914.71 510.537 916.993 512.82 919.81 512.82Z" fill="#5CDB95"/>
<path id="Vector_44" opacity="0.25" d="M288.73 271.16C291.547 271.16 293.83 268.877 293.83 266.06C293.83 263.243 291.547 260.96 288.73 260.96C285.913 260.96 283.63 263.243 283.63 266.06C283.63 268.877 285.913 271.16 288.73 271.16Z" fill="#5CDB95"/>
<path id="Vector_45" opacity="0.25" d="M271.98 153.9C274.797 153.9 277.08 151.617 277.08 148.8C277.08 145.983 274.797 143.7 271.98 143.7C269.163 143.7 266.88 145.983 266.88 148.8C266.88 151.617 269.163 153.9 271.98 153.9Z" fill="#5CDB95"/>
<path id="Vector_46" opacity="0.25" d="M127.77 386.23C130.587 386.23 132.87 383.947 132.87 381.13C132.87 378.313 130.587 376.03 127.77 376.03C124.953 376.03 122.67 378.313 122.67 381.13C122.67 383.947 124.953 386.23 127.77 386.23Z" fill="#5CDB95"/>
<path id="Vector_47" opacity="0.25" d="M849.18 387.12H844.64V382.59H842.79V387.12H838.25V388.98H842.79V393.51H844.64V388.98H849.18V387.12Z" fill="#5CDB95"/>
<path id="Vector_48" opacity="0.25" d="M925.18 230.12H920.64V225.59H918.79V230.12H914.25V231.98H918.79V236.51H920.64V231.98H925.18V230.12Z" fill="#5CDB95"/>
<path id="Vector_49" opacity="0.25" d="M601.55 142.41H597.01V137.87H595.16V142.41H590.62V144.26H595.16V148.8H597.01V144.26H601.55V142.41Z" fill="#5CDB95"/>
<path id="Vector_50" opacity="0.25" d="M799.65 361.63H795.11V357.1H793.26V361.63H788.73V363.49H793.26V368.02H795.11V363.49H799.65V361.63Z" fill="#5CDB95"/>
<path id="Vector_51" opacity="0.25" d="M633.59 512.39H629.06V507.86H627.21V512.39H622.67V514.25H627.21V518.78H629.06V514.25H633.59V512.39Z" fill="#5CDB95"/>
<path id="Vector_52" opacity="0.25" d="M168.93 201.4H164.39V196.87H162.54V201.4H158V203.25H162.54V207.79H164.39V203.25H168.93V201.4Z" fill="#5CDB95"/>
<path id="Vector_53" opacity="0.25" d="M10.93 260.4H6.39V255.87H4.54V260.4H0V262.25H4.54V266.79H6.39V262.25H10.93V260.4Z" fill="#5CDB95"/>
<path id="Vector_54" opacity="0.25" d="M231.56 446.12H227.02V441.58H225.17V446.12H220.64V447.97H225.17V452.51H227.02V447.97H231.56V446.12Z" fill="#5CDB95"/>
</g>
<g id="moon-small">
<path id="Vector_55" opacity="0.5" d="M272.03 360.92C272.03 365.947 270.115 370.785 266.675 374.45C263.234 378.115 258.527 380.332 253.51 380.65C253.1 380.65 252.68 380.65 252.26 380.65C249.229 380.647 246.24 379.947 243.522 378.604C240.805 377.262 238.433 375.312 236.589 372.907C234.745 370.501 233.479 367.704 232.889 364.731C232.298 361.758 232.399 358.689 233.184 355.762C233.969 352.834 235.416 350.126 237.414 347.847C239.412 345.568 241.907 343.779 244.707 342.618C247.507 341.457 250.536 340.955 253.56 341.151C256.585 341.348 259.524 342.237 262.15 343.75V343.75C264.439 345.08 266.441 346.851 268.04 348.96V348.96C270.646 352.401 272.048 356.604 272.03 360.92V360.92Z" fill="url(#paint17_radial)"/>
<path id="Vector_56" opacity="0.1" d="M247.39 348.38C246.351 348.817 245.348 349.336 244.39 349.93C243.762 350.273 243.222 350.755 242.81 351.34C242.62 351.639 242.518 351.986 242.518 352.34C242.518 352.694 242.62 353.041 242.81 353.34C243.101 353.625 243.45 353.844 243.833 353.982C244.216 354.12 244.624 354.174 245.03 354.14C245.755 354.288 246.506 354.244 247.208 354.01C247.91 353.777 248.538 353.363 249.03 352.81L250.73 351.27C251.32 350.73 251.97 350 251.73 349.27C251.596 348.994 251.393 348.757 251.141 348.582C250.889 348.407 250.596 348.299 250.29 348.27C248.829 347.984 247.315 348.252 246.04 349.02" fill="#F55F44"/>
<path id="Vector_57" opacity="0.1" d="M240.29 369.76C240.864 369.76 241.33 369.294 241.33 368.72C241.33 368.146 240.864 367.68 240.29 367.68C239.716 367.68 239.25 368.146 239.25 368.72C239.25 369.294 239.716 369.76 240.29 369.76Z" fill="#F55F44"/>
<path id="Vector_58" opacity="0.1" d="M261.45 365.95C263.56 365.95 265.27 364.24 265.27 362.13C265.27 360.02 263.56 358.31 261.45 358.31C259.34 358.31 257.63 360.02 257.63 362.13C257.63 364.24 259.34 365.95 261.45 365.95Z" fill="#F55F44"/>
<path id="Vector_59" opacity="0.1" d="M268.04 349.05C268.027 350.046 267.729 351.018 267.18 351.849C266.631 352.68 265.855 353.336 264.944 353.739C264.033 354.142 263.025 354.275 262.041 354.122C261.057 353.969 260.137 353.536 259.391 352.876C258.646 352.215 258.106 351.354 257.836 350.395C257.565 349.436 257.576 348.42 257.867 347.467C258.157 346.514 258.715 345.665 259.475 345.02C260.234 344.375 261.163 343.962 262.15 343.83V343.83C264.44 345.163 266.442 346.937 268.04 349.05V349.05Z" fill="#F55F44"/>
<path id="Vector_60" opacity="0.1" d="M268.43 372.31C266.73 374.731 264.507 376.739 261.926 378.184C259.345 379.629 256.472 380.476 253.52 380.66C253.52 380.39 253.52 380.11 253.52 379.83C253.514 378.086 253.995 376.376 254.909 374.891C255.822 373.406 257.132 372.205 258.691 371.424C260.249 370.642 261.995 370.311 263.731 370.468C265.468 370.624 267.126 371.262 268.52 372.31H268.43Z" fill="#F55F44"/>
</g>
</g>
</g>
<defs>
<linearGradient id="paint0_linear" x1="443.14" y1="694.05" x2="443.14" y2="48.05" gradientUnits="userSpaceOnUse">
<stop stop-color="#808080" stop-opacity="0.25"/>
<stop offset="0.54" stop-color="#808080" stop-opacity="0.12"/>
<stop offset="1" stop-color="#808080" stop-opacity="0.1"/>
</linearGradient>
<linearGradient id="paint1_linear" x1="577" y1="468.5" x2="504" y2="468.5" gradientUnits="userSpaceOnUse">
<stop stop-color="#ACACAC"/>
<stop offset="0.489292" stop-color="white"/>
<stop offset="1" stop-color="#ACACAC"/>
</linearGradient>
<linearGradient id="paint2_linear" x1="382.14" y1="468.5" x2="309.12" y2="468.5" gradientUnits="userSpaceOnUse">
<stop stop-color="#ACACAC"/>
<stop offset="0.489292" stop-color="white"/>
<stop offset="1" stop-color="#ACACAC"/>
</linearGradient>
<linearGradient id="paint3_linear" x1="345.9" y1="617.2" x2="345.9" y2="679.83" gradientUnits="userSpaceOnUse">
<stop stop-color="#E0E0E0"/>
<stop offset="0.31" stop-color="#FCCC63"/>
<stop offset="0.77" stop-color="#F55F44"/>
</linearGradient>
<linearGradient id="paint4_linear" x1="420.88" y1="617.2" x2="420.88" y2="679.83" gradientUnits="userSpaceOnUse">
<stop stop-color="#E0E0E0"/>
<stop offset="0.31" stop-color="#FCCC63"/>
<stop offset="0.77" stop-color="#F55F44"/>
</linearGradient>
<linearGradient id="paint5_linear" x1="467.85" y1="617.2" x2="467.85" y2="679.83" gradientUnits="userSpaceOnUse">
<stop stop-color="#E0E0E0"/>
<stop offset="0.31" stop-color="#FCCC63"/>
<stop offset="0.77" stop-color="#F55F44"/>
</linearGradient>
<linearGradient id="paint6_linear" x1="543.66" y1="617.2" x2="543.66" y2="679.83" gradientUnits="userSpaceOnUse">
<stop stop-color="#E0E0E0"/>
<stop offset="0.31" stop-color="#FCCC63"/>
<stop offset="0.77" stop-color="#F55F44"/>
</linearGradient>
<linearGradient id="paint7_linear" x1="494.077" y1="393.797" x2="389.891" y2="393.797" gradientUnits="userSpaceOnUse">
<stop stop-color="#543B5F"/>
<stop offset="0.489292" stop-color="#765285"/>
<stop offset="1" stop-color="#543B5F"/>
</linearGradient>
<linearGradient id="paint8_linear" x1="272.71" y1="586.52" x2="272.71" y2="732.18" gradientUnits="userSpaceOnUse">
<stop stop-color="#F2F2F2"/>
<stop offset="0.31" stop-color="#E6E6E6"/>
<stop offset="0.77" stop-color="#CCCCCC"/>
</linearGradient>
<linearGradient id="paint9_linear" x1="272.35" y1="606.91" x2="272.35" y2="766.41" gradientUnits="userSpaceOnUse">
<stop stop-color="#F2F2F2"/>
<stop offset="0.31" stop-color="#E6E6E6"/>
<stop offset="0.77" stop-color="#CCCCCC"/>
</linearGradient>
<linearGradient id="paint10_linear" x1="437.275" y1="634.509" x2="437.275" y2="766.42" gradientUnits="userSpaceOnUse">
<stop stop-color="#F2F2F2"/>
<stop offset="0.31" stop-color="#E6E6E6"/>
<stop offset="0.77" stop-color="#CCCCCC"/>
</linearGradient>
<linearGradient id="paint11_linear" x1="592.44" y1="620.75" x2="592.44" y2="766.41" gradientUnits="userSpaceOnUse">
<stop stop-color="#F2F2F2"/>
<stop offset="0.31" stop-color="#E6E6E6"/>
<stop offset="0.77" stop-color="#CCCCCC"/>
</linearGradient>
<linearGradient id="paint12_linear" x1="95650.5" y1="97409.1" x2="95650.5" y2="122849" gradientUnits="userSpaceOnUse">
<stop stop-color="#F2F2F2"/>
<stop offset="0.31" stop-color="#E6E6E6"/>
<stop offset="0.77" stop-color="#CCCCCC"/>
</linearGradient>
<linearGradient id="paint13_linear" x1="527.625" y1="687.05" x2="527.625" y2="766.42" gradientUnits="userSpaceOnUse">
<stop offset="0.291375" stop-color="white"/>
<stop offset="0.661167" stop-color="#E6E6E6"/>
<stop offset="1" stop-color="#CCCCCC"/>
</linearGradient>
<linearGradient id="paint14_linear" x1="665.296" y1="672.47" x2="665.296" y2="766.41" gradientUnits="userSpaceOnUse">
<stop offset="0.291375" stop-color="white"/>
<stop offset="0.661167" stop-color="#E6E6E6"/>
<stop offset="1" stop-color="#CCCCCC"/>
</linearGradient>
<linearGradient id="paint15_linear" x1="221.018" y1="672.425" x2="221.018" y2="766.42" gradientUnits="userSpaceOnUse">
<stop offset="0.291375" stop-color="white"/>
<stop offset="0.661167" stop-color="#E6E6E6"/>
<stop offset="1" stop-color="#CCCCCC"/>
</linearGradient>
<radialGradient id="paint16_radial" cx="0" cy="0" r="1" gradientUnits="userSpaceOnUse" gradientTransform="translate(716.272 43.93) rotate(90) scale(41.51 41.4977)">
<stop stop-color="#765285"/>
<stop offset="1" stop-color="#765285" stop-opacity="0.2"/>
</radialGradient>
<radialGradient id="paint17_radial" cx="0" cy="0" r="1" gradientUnits="userSpaceOnUse" gradientTransform="translate(252.27 360.88) rotate(90) scale(19.77 19.7601)">
<stop stop-color="#765285"/>
<stop offset="1" stop-color="#765285" stop-opacity="0.4"/>
</radialGradient>
<clipPath id="clip0">
<rect width="925.18" height="770.09" fill="white"/>
</clipPath>
</defs>
</svg>
