<svg xmlns="http://www.w3.org/2000/svg" xmlns:xlink="http://www.w3.org/1999/xlink" viewBox="0 0 1173.89 570.85"><defs><clipPath id="ad0657a2-e900-47f9-95b8-8b4ce66d84bd" transform="translate(0 -14.91)"><path d="M301.21,152.43c3.64-10.13,6.13-17.46,6.12-18.17,0-2.51,13.76-76.31-24.74-116.43s-158.42,0-158.42,0l26.39,158.39L23.07,196.34,227.63,553.1,403.1,136.35Z" style="fill:none"/></clipPath><linearGradient id="b7147d7c-6f0c-4f19-b3bb-5f5262ad766f" x1="193.02" y1="148.95" x2="230.25" y2="148.95" gradientUnits="userSpaceOnUse"><stop offset="0" stop-color="#be746d"/><stop offset="1" stop-color="#e0978d"/></linearGradient><linearGradient id="a3af472f-207f-46dd-ae97-da8540fe1d96" x1="213.89" y1="134.74" x2="209.47" y2="127.58" xlink:href="#b7147d7c-6f0c-4f19-b3bb-5f5262ad766f"/><linearGradient id="a7846e60-ff8e-494c-ad86-e5803634ca99" x1="266.31" y1="142.46" x2="227.26" y2="113.26" xlink:href="#b7147d7c-6f0c-4f19-b3bb-5f5262ad766f"/><linearGradient id="aab2bc35-9fc7-49c5-8dd1-fb4058985009" x1="194.46" y1="191.21" x2="194.05" y2="169.92" gradientUnits="userSpaceOnUse"><stop offset="0" stop-color="#be746d"/><stop offset="1" stop-color="#ffc5b2"/></linearGradient><linearGradient id="b0ab84b5-d095-4f9d-910c-4253bab9b7cb" x1="177.45" y1="148.37" x2="178.73" y2="117.05" xlink:href="#aab2bc35-9fc7-49c5-8dd1-fb4058985009"/><linearGradient id="f0e28d25-9710-467a-82a8-58421986f9c1" x1="217.67" y1="104.25" x2="203.17" y2="80.8" xlink:href="#b7147d7c-6f0c-4f19-b3bb-5f5262ad766f"/><linearGradient id="a6a2728b-1f1d-40e8-8e6b-5accf02ddb00" x1="218.04" y1="379.84" x2="202.07" y2="112.06" gradientUnits="userSpaceOnUse"><stop offset="0" stop-color="#351c4d"/><stop offset="1" stop-color="#765285"/></linearGradient><linearGradient id="a044b937-4aaf-4bd2-8e2d-fe0f46e99ab5" x1="213.05" y1="179.56" x2="213.05" y2="117.01" gradientUnits="userSpaceOnUse"><stop offset="0" stop-color="#7a4747"/><stop offset="1" stop-color="#7a4747" stop-opacity="0"/></linearGradient><linearGradient id="aaf13eca-87a0-4258-ae05-abb2b4a7419b" x1="214.64" y1="155.64" x2="214.64" y2="149.6" xlink:href="#a044b937-4aaf-4bd2-8e2d-fe0f46e99ab5"/><linearGradient id="fb156c22-635a-4e0e-847e-b464f7e9b19d" x1="304.61" y1="328.23" x2="295.96" y2="314.23" xlink:href="#b7147d7c-6f0c-4f19-b3bb-5f5262ad766f"/><linearGradient id="ef91deb5-75c1-47ab-9f7e-e17cc7a90759" x1="147.16" y1="370.46" x2="135.4" y2="351.44" xlink:href="#b7147d7c-6f0c-4f19-b3bb-5f5262ad766f"/><linearGradient id="ece30f42-503c-49d7-b0b4-9673a833063d" x1="214.16" y1="146.45" x2="215" y2="154.62" xlink:href="#aab2bc35-9fc7-49c5-8dd1-fb4058985009"/><linearGradient id="b287e98e-43d7-4d0b-9173-cf5db25ae51d" x1="192.58" y1="100.58" x2="191.67" y2="95.74" gradientUnits="userSpaceOnUse"><stop offset="0" stop-color="#ff9d7b"/><stop offset="0.37" stop-color="#9f5252"/><stop offset="1" stop-color="#001730"/></linearGradient><linearGradient id="a0782f27-ba7e-4e1c-9f71-57daa15dd735" x1="233.93" y1="99.54" x2="234.26" y2="95.95" xlink:href="#b287e98e-43d7-4d0b-9173-cf5db25ae51d"/><linearGradient id="bbe99033-cee8-4e18-9632-6c441c4ec0b7" x1="744.95" y1="188.65" x2="744.95" y2="388.38" gradientUnits="userSpaceOnUse"><stop offset="0" stop-color="#5cdb95"/><stop offset="1" stop-color="#790faa"/></linearGradient><linearGradient id="bfeed1be-c6c9-45bd-b8bd-0733bb5f69ef" x1="985.74" y1="187.88" x2="985.74" y2="220.37" gradientUnits="userSpaceOnUse"><stop offset="0" stop-color="#4a4e69"/><stop offset="0.69" stop-color="#fff"/></linearGradient><linearGradient id="eb1bc438-d893-43ba-80bc-94c0f1be12ba" x1="936.24" y1="231.17" x2="936.24" y2="310.76" gradientUnits="userSpaceOnUse"><stop offset="0" stop-color="#351c4d"/><stop offset="0.36" stop-color="#790faa"/><stop offset="0.72" stop-color="#5cdb95"/><stop offset="1" stop-color="#fff"/></linearGradient><linearGradient id="bfcb9612-993b-43ef-903f-797cd2a17582" x1="666.4" y1="216.26" x2="666.4" y2="295.85" xlink:href="#eb1bc438-d893-43ba-80bc-94c0f1be12ba"/><linearGradient id="aac26c69-21c7-4938-bbec-8e39a0e559a0" x1="770.69" y1="231.17" x2="770.69" y2="310.76" xlink:href="#eb1bc438-d893-43ba-80bc-94c0f1be12ba"/><linearGradient id="efd409ca-db61-46a6-96f6-3a308fd36410" x1="494.41" y1="216.26" x2="494.41" y2="295.85" xlink:href="#eb1bc438-d893-43ba-80bc-94c0f1be12ba"/><linearGradient id="ac9d6d26-b8bd-4479-86c8-5a826f51ee02" x1="580.22" y1="231.17" x2="580.22" y2="310.76" xlink:href="#eb1bc438-d893-43ba-80bc-94c0f1be12ba"/><linearGradient id="bdc22f52-9d0e-4009-a4b1-422ff6a5f4bf" x1="423.53" y1="216.26" x2="423.53" y2="295.85" xlink:href="#eb1bc438-d893-43ba-80bc-94c0f1be12ba"/><linearGradient id="a45646b8-3949-4a14-9588-f34b7c4b7f76" x1="721.19" y1="187.88" x2="721.19" y2="220.37" xlink:href="#bfeed1be-c6c9-45bd-b8bd-0733bb5f69ef"/><linearGradient id="be9d76b5-5fda-4f1a-985e-1aab9a1190e1" x1="666.4" y1="172.96" x2="666.4" y2="205.45" xlink:href="#bfeed1be-c6c9-45bd-b8bd-0733bb5f69ef"/><linearGradient id="ac50df80-4233-4b15-875e-0c10e99542ba" x1="439.16" y1="172.96" x2="439.16" y2="205.45" xlink:href="#bfeed1be-c6c9-45bd-b8bd-0733bb5f69ef"/><linearGradient id="b11c942b-a9ef-4ada-8da3-8712443835fc" x1="820.2" y1="187.88" x2="820.2" y2="220.37" xlink:href="#bfeed1be-c6c9-45bd-b8bd-0733bb5f69ef"/><linearGradient id="a8d90d8f-d0bd-4b91-8a6a-13e959fc7316" x1="886.74" y1="187.88" x2="886.74" y2="220.37" xlink:href="#bfeed1be-c6c9-45bd-b8bd-0733bb5f69ef"/><linearGradient id="bf90177b-11a2-47a5-9fcb-62c4f73d67b3" x1="580.22" y1="187.88" x2="580.22" y2="220.37" xlink:href="#bfeed1be-c6c9-45bd-b8bd-0733bb5f69ef"/><linearGradient id="ecce31be-fe33-41fa-8be1-e42cbf6bf4ef" x1="357.21" y1="172.96" x2="357.21" y2="205.45" xlink:href="#bfeed1be-c6c9-45bd-b8bd-0733bb5f69ef"/><linearGradient id="bbf562c2-f146-4670-96be-7d65d0541ae8" x1="729.47" y1="253.9" x2="729.47" y2="243.68" gradientUnits="userSpaceOnUse"><stop offset="0.06" stop-color="#001730" stop-opacity="0"/><stop offset="1" stop-color="#001730"/></linearGradient><linearGradient id="f1deb6d2-0e17-4d70-87af-1369eda725e6" x1="666.4" y1="193.86" x2="666.4" y2="399.69" gradientUnits="userSpaceOnUse"><stop offset="0" stop-color="#fff"/><stop offset="0.22" stop-color="#005caf"/><stop offset="0.23" stop-color="#001730"/><stop offset="0.32" stop-color="#5cdb95"/><stop offset="0.42" stop-color="#005caf"/><stop offset="0.53" stop-color="#5cdb95"/><stop offset="0.63" stop-color="#001730"/><stop offset="0.7" stop-color="#005caf"/><stop offset="0.78" stop-color="#fff"/><stop offset="0.87" stop-color="#005caf"/><stop offset="1" stop-color="#001730"/></linearGradient><linearGradient id="ab96bae1-ba83-4aa6-84bc-df82a27dd1dc" x1="936.24" y1="193.86" x2="936.24" y2="399.69" xlink:href="#f1deb6d2-0e17-4d70-87af-1369eda725e6"/><linearGradient id="bef48020-2ff4-4573-84ba-3b88b171df61" x1="770.69" y1="193.86" x2="770.69" y2="399.69" xlink:href="#f1deb6d2-0e17-4d70-87af-1369eda725e6"/><linearGradient id="a1454ad1-a75d-4220-9206-47ad7bba8356" x1="494.41" y1="193.86" x2="494.41" y2="399.69" xlink:href="#f1deb6d2-0e17-4d70-87af-1369eda725e6"/><linearGradient id="abd18551-4462-44c5-b25c-0241844b72f9" x1="580.22" y1="193.86" x2="580.22" y2="399.69" xlink:href="#f1deb6d2-0e17-4d70-87af-1369eda725e6"/><linearGradient id="a8730546-3ea0-4315-aeba-97507cc722a3" x1="424.04" y1="193.86" x2="424.04" y2="399.69" xlink:href="#f1deb6d2-0e17-4d70-87af-1369eda725e6"/><linearGradient id="bdd153e5-e0e5-4d92-8978-1f9028af88c0" x1="721.52" y1="193.86" x2="721.52" y2="399.69" xlink:href="#f1deb6d2-0e17-4d70-87af-1369eda725e6"/><linearGradient id="e2a89767-4c1e-49a8-9c76-a197049e9837" x1="439.15" y1="193.86" x2="439.15" y2="399.69" xlink:href="#f1deb6d2-0e17-4d70-87af-1369eda725e6"/><linearGradient id="b810296e-b99e-4026-a295-3e30583e8139" x1="819.86" y1="193.86" x2="819.86" y2="399.69" xlink:href="#f1deb6d2-0e17-4d70-87af-1369eda725e6"/><linearGradient id="b2d88202-d907-4fc2-8d57-541ebf4ddde1" x1="985.41" y1="193.86" x2="985.41" y2="399.69" xlink:href="#f1deb6d2-0e17-4d70-87af-1369eda725e6"/><linearGradient id="a7df1c07-f171-45b2-8000-6e7f8aac2390" x1="887.07" y1="193.86" x2="887.07" y2="399.69" xlink:href="#f1deb6d2-0e17-4d70-87af-1369eda725e6"/><linearGradient id="bd3caff8-90a2-48b8-b5b5-107fc9d2ba2e" x1="357.21" y1="193.86" x2="357.21" y2="399.69" xlink:href="#f1deb6d2-0e17-4d70-87af-1369eda725e6"/><linearGradient id="bd0d252a-332d-451c-922f-9e67dbfb1345" x1="1085.36" y1="188.21" x2="1085.36" y2="215.53" gradientUnits="userSpaceOnUse"><stop offset="0" stop-color="#4a4e69"/><stop offset="0.77" stop-color="#fff"/></linearGradient><linearGradient id="a83e448f-8db6-450c-b51d-3988447f8dc4" x1="1085.29" y1="236.18" x2="1085.66" y2="314.04" xlink:href="#eb1bc438-d893-43ba-80bc-94c0f1be12ba"/><linearGradient id="ac45b066-f10f-4c91-bc91-9a57a21b8258" x1="1084" y1="254.25" x2="1084.48" y2="240.5" xlink:href="#bbf562c2-f146-4670-96be-7d65d0541ae8"/><linearGradient id="ff4507ed-7cff-4555-92a9-882239d788bd" x1="1085.36" y1="191.82" x2="1085.36" y2="396.67" xlink:href="#f1deb6d2-0e17-4d70-87af-1369eda725e6"/></defs><g id="bc367312-554b-49ba-a49b-5264d74a34c5" data-name="Layer 2"><g id="efc6e2bc-6c3b-4c67-908b-54ae15fe50e5" data-name="Layer 5"><path d="M401.79,128.07,9.76,190l219,382L416.66,125.73ZM228.25,563.15,16,192.94l394.36-62.26ZM0,185.29,229.63,585.77l197-467.83ZM229.09,577l-10.66-18.59L6.21,188.27,420.27,122.9l-7.39,17.56Z" transform="translate(0 -14.91)" style="fill:#5cdb95"/><polygon points="23.07 181.43 403.1 121.43 227.63 538.19 23.07 181.43" style="fill:#001730"/><path d="M348.86,181.11l-105.75,108,59.77-128.66-1.48.23L234.9,283l21.74-115.29-3.08.49L225.63,280l-5.51-106.48-3.5.55-.57,106.15L185.69,178.94l-3.45.55,24.69,104.19L147.22,185l-2.87.46L199,290.12,94.94,193.27l-.74.12L192.93,299,63,237.56l126.2,72.06L91.4,299.09,93.62,303,188.1,321.1l-73.88,17.78,2.81,4.9,72.7-11.26-58,36.82,2.94,5.11L194,343,147.7,397.27l2.94,5.13,49.79-50.86-35.34,76.07,2.83,4.93,40.72-74.93-26.29,99.78,2.29,4,33.27-100.73,7.7,162.13,1.89-162.36,30.1,100.44,2.33-5.53L236.62,357l38.17,63.09,2.7-6.42-33-63.11,42.76,39.81,2.74-6.51-39.43-42.18,47.69,22.55,2.74-6.5L254.35,331l55.41,6,2.73-6.49-57-11,68.6-16.5,2.61-6.2-72.84,11.29,92.9-58.93,1.67-4-98.8,52.46Zm-93.15-21.49h0l2.53-.4ZM307,151.51l-.72.12h0l.72-.12ZM183.32,171l-3,.47,3-.47Z" transform="translate(0 -14.91)" style="fill:#5cdb95"/><g style="clip-path:url(#ad0657a2-e900-47f9-95b8-8b4ce66d84bd)"><path d="M373.5,297.74h0c-.13-.6-.29-1.3-.49-2.13-1.21-5.16-3.42-14.54-3.21-23.45l.54-1a13,13,0,0,0-1.36-14.3c-1.79-13.42-7.69-21.42-15.79-31-1.53-3.36-5.47-7.54-12.3-10-4.42-4.19-10.09-4.19-13.08-3.82l-4.6-1.82c-2-.78-3.66-1.62-5.14-2.36-3.8-1.9-7.72-3.87-13.9-3.3-7.81-5.08-21.29-7.14-26.89-7.8a9.48,9.48,0,0,0-4.38-6.43c-6.57-18.06-9.3-20-12.42-20.71a27.81,27.81,0,0,0-2.81-.45l.51-8.34a65.25,65.25,0,0,0,4.6-10.19,12.34,12.34,0,0,0,7-8.59l.28-.33c3.42-3.78,9.24-25.51,9.78-30.86.62-6-1.45-11-5.51-13.27a9.61,9.61,0,0,0-2.93-1.05c-.12-6-.32-13.95-.42-17.79l2.09-2.17.24-1.45c.13-.79,1.22-7.86-1.09-14.32l-.16-.39c-6.61-14.3-20.57-28.21-30.25-33.41-6.79-3.65-15.47-6.24-20.51-7.56l0-4.6-5.74,1.34c-.3.05-3.93.58-14.53-.48-15.63-1.56-21,5.62-24.17,13.9-8.49,6-10.78,11.51-11.38,14.36l-1.68,1-.08,2.62a15,15,0,0,0,.5,4.17l-1.66.29.35,3.94c-.16.86-.79,3.32-1.22,5-.73,2.83-1.64,6.35-2.46,10.08l-.07.35c-1,7.29-.4,24.07-.13,30.06a10.59,10.59,0,0,0-3.5,2.22,12,12,0,0,0-3.34,11.12,11.38,11.38,0,0,0,2.66,5c.33,5.67.87,14.25,1.18,16.27a26.46,26.46,0,0,0,2.44,6.82,29.81,29.81,0,0,1,1.26,2.92,8.75,8.75,0,0,0,4.39,5.33l.41.19c.11.3.23.61.34.94,1.26,3.49,2.38,7.66,2.43,7.84l2.7,10.15,2.17-3.26.34.34v4.34a9.88,9.88,0,0,0-3,1.47,7.25,7.25,0,0,0-2.94,4.22c-.23.65-.54,1.59-.9,2.71-.63,1.92-1.47,4.59-2.52,7.94-.84,2.68-1.68,5.37-2.33,7.47a86.24,86.24,0,0,0-11.11,5.53c-4.15,2.34-6.91,3.9-10.26,4.15-5-.36-7.12-.19-8.79.73-5.85,2.45-15.74,6.66-17.78,7.94q-.78.5-1.65,1.14a10.15,10.15,0,0,0-4.5-1.63,12.2,12.2,0,0,0-6.53,1.36c-2,1.19-7.84,8.42-10.39,13A17,17,0,0,0,87,229.5c-3.25,2.44-12.93,16.71-18.24,30.41a13.24,13.24,0,0,0-8.35,9.57,15.55,15.55,0,0,0,2.38,12.27c-.16,2.38-.48,6.6-.95,12.37-7.24,5.34-7.9,14.4-6.12,21-.26,8.6-1.26,46.11,1,62.05,3.91,27.93,9,57.83,17.18,67.78,4.11,5,10.58,7.52,19.23,7.52a58.33,58.33,0,0,0,12.8-1.58c7.72.2,97.51,2.64,115.27,3.49,1.67.08,3.29.12,4.82.12,7.32,0,13.13-.95,17.31-2.82,70.72-.46,82-3.85,83.08-4.24l2.84-1,2.2-25.81a53,53,0,0,0,7.59-6.06c20.19-19.58,29.44-58.94,31.5-77,1.62-14.15,1.41-21.15,1-24.34C372.9,309.35,374.64,302.84,373.5,297.74Z" transform="translate(0 -14.91)" style="fill:#001730"/><path d="M179.11,186V161.63s-9-7.4-10-17c-4.34-1.41-4.78-4.79-4.78-4.79s-2.18-19-2.68-22.28c-2.84-4.63-5-10.45,5.47-12.1,3.35-13.44,1.21-19.26,1.21-19.26s2.35-16.13,6.49-26.88,7.55-17.45,7.55-17.45,25.57-17.2,46.78-7.35,32.79,27.94,35.4,36.89,0,32.23,0,32.23,8.59-3.63,9.71,3.23-4.49,25.92-9.12,31.75c-2.67,7-7.73,6.48-7.73,6.48l-4.66,13.68-1.3,20.52s4.43,22.17-9.53,35.62-36.81,3-36.81,3Z" transform="translate(0 -14.91)" style="fill:#ffc5b2"/><path d="M223.32,98.12A15.18,15.18,0,0,1,235.08,95c4.92.58,6.84,3.71,6.84,3.71l-.87.75s-2.23,1.58-6.47.58C230,98.86,224,98.59,223.32,98.12Z" transform="translate(0 -14.91)" style="fill:#fff"/><path d="M211,121.26s-1.1-9.37-5.09-8.42C205.87,112.84,205.16,120.8,211,121.26Z" transform="translate(0 -14.91)" style="fill:#ffe2de"/><path d="M227.38,98.79c-2-1-.62-2.81.14-3.06a10.24,10.24,0,0,0-4.2,2.19A9.93,9.93,0,0,0,227.38,98.79Z" transform="translate(0 -14.91)" style="fill:#9b4e55"/><path d="M225,98.55c3.89-2.45,9-3.28,13.66-.34,1.22,1.11.66,1.78.66,1.78s3.09-.41,2.63-1.33a10.26,10.26,0,0,0-1.09-1.52c0-.13-4-2.87-10.16-2.18s-7.19,3-7.19,3Z" transform="translate(0 -14.91)" style="fill:#474747;opacity:0.8200000000000001"/><path d="M197.4,141.82c3.87-1.75,16.17-1.43,21.87-1.25a45.34,45.34,0,0,1,8.34.84l-.34,1.19s-10.1,6.26-15.76,5.61S197.6,144.76,197.4,141.82Z" transform="translate(0 -14.91)" style="fill:#c9c9c9"/><path d="M224.39,158.21c-5.07-2-19.27.25-19.27.25-4.49-4.86-12.1-17.4-12.1-17.4l2.37-1.62s2.69,7.84,7.49,12.06c0,0,12.41,4.37,20.39.77,7.17-3.66,7-4.91,7-4.91s-.87,5.26-1.37,6.09S224.39,158.21,224.39,158.21Z" transform="translate(0 -14.91)" style="fill:url(#b7147d7c-6f0c-4f19-b3bb-5f5262ad766f)"/><path d="M203.13,141.45c.93,2.89,7.74,4,7.74,4s8.7,0,8.79-.16l2.58-4s5.41-.29,6.06,0,0,1.24,0,1.24a35,35,0,0,1-8,2.89c-5.34,1.35-12.22.63-16.19,0a17.39,17.39,0,0,1-6.2-2.06c-.22-.09-1-1-.93-1S203.13,141.45,203.13,141.45Z" transform="translate(0 -14.91)" style="fill:#6b6b6b"/><path d="M221.88,109.83c5.26,8.52,7.13,12.36,7.13,12.36-3.39,6-7.95,2.24-7.95,2.24S224,115.55,221.88,109.83Z" transform="translate(0 -14.91)" style="fill:#e0978d"/><path d="M214.64,124.83c2.3.77,1.07,4.3-1.59,4.28,5.22,4.68,13.72,4.63,13.62,4s-5-7.34-3.24-10.62C220.22,122.22,218.63,121.31,214.64,124.83Z" transform="translate(0 -14.91)" style="fill:#be746d"/><path d="M203.86,136c4.73-2.12,6.7-.43,9.19-.27s6.35-2.79,10.22,0c-1.16-6.11-3.16-8.42-3.16-8.42l-2.68-.7s-4,2.93-5.1,2.47-4.59-2.14-4.59-2.14Z" transform="translate(0 -14.91)" style="fill:url(#a3af472f-207f-46dd-ae97-da8540fe1d96)"/><path d="M240.12,42.21c8.29,26.11,0,41.1,0,41.1a9.81,9.81,0,0,1,1.95,12.14l-.16,3.35s7.9,5.45,5.33,25.08-8,18-8,18l-5-5.53-3.9-.53s7,3.4,6.51,7.72-7.73,1.95-7.73,1.95.55,6.5-8.07,8c6.79,7.12-3.63,22.86-3.63,22.86l9.84-1.79-5.6,15.22,22.84-8.16.62-18.91s11.21-5.67,13.81-20.84,4.23-72.18,2.8-74.93S240.12,42.21,240.12,42.21Z" transform="translate(0 -14.91)" style="fill:url(#a7846e60-ff8e-494c-ad86-e5803634ca99)"/><path d="M183.29,166.87s.05,22,.34,21.29,14.82,10,14.82,10l7.29,12.62c-10.3-29.34-15.08-38.61-15.08-38.61Z" transform="translate(0 -14.91)" style="fill:url(#aab2bc35-9fc7-49c5-8dd1-fb4058985009)"/><path d="M185.3,164.12c-16.07-17.93-12.69-50.18-12.69-50.18-6.68,22.8-.3,40.45-.3,40.45S177.1,162.45,185.3,164.12Z" transform="translate(0 -14.91)" style="fill:url(#b0ab84b5-d095-4f9d-910c-4253bab9b7cb)"/><path d="M225.53,99l-2.11-1.66s-.95-4.24,1.67-5.44a14.57,14.57,0,0,1,9.16-6.36s-9.14-1.88-11.48-1.87c-.55.22-4.83,7.14-4.83,7.14l-1.1,21.08a13.75,13.75,0,0,1,1.32,5.82c-.11,3-13.07,6.48-11.2-5.38.44-19.87.55-22.62.55-22.62L201.11,83s-5.35,2.44-5.79,2.22-8.67.33-8.67.33,9.82,2.4,12.72,5.52l2.89,3.12s.39,3.51-.19,4.49l-.15-.51a4.61,4.61,0,0,1-.93.76h-.37l0,.2a14.55,14.55,0,0,1-5.44,1.46,5.25,5.25,0,0,0,6,2.22l1.57,10.52s-3.84,4.39-2.57,8c1.17,3.34,5.39,3.28,7.89,2.7l-.9-.15s-2.57-1.92-2-6.32c0,0,.86,3.66,5.27,7a4.25,4.25,0,0,0-1.14-.32c3.9,2.06,7.68-.38,7.68-.38a4.58,4.58,0,0,0,6.44-1.35c2.86-3.84-.11-9.55-.77-10.21,1.28-4.79,2.17-7.92,2.75-9.88a8.44,8.44,0,0,0,5.06-1c-3.35-1.84-4.53-2.46-4.53-2.46Zm-23.45,20.73c-1.12-.28-1-3.2,1.9-6.45C206.12,112,203.2,120,202.08,119.72Z" transform="translate(0 -14.91)" style="fill:url(#f0e28d25-9710-467a-82a8-58421986f9c1)"/><path d="M70.53,385.58c-7.9-18.15-7.52-22.51-8-22.74s-.3-47.9,0-49.38c-2.62-7,1.23-13.49,5.1-15.58,1.3-16.06,1.13-17.35,1.13-17.35S61.51,267,72.91,265.12c6.26-18,19.44-31.81,19.44-31.81h2.08s6-12.37,9.8-13.49,7.55,3.21,7.55,3.21,16-11.95,24.9-11.72c10-.23,28.59-11.25,28.59-11.25l7.87-21.45,5.94-2.3v9l18.31,11.57s11.26,19,16.25,22.48c5.76-7.87,10.26-7.55,10.26-7.55s1.22-2.07-4.85-14.93c1.47-9.17,7-9.31,10.81-8.27a180.69,180.69,0,0,1,20.56-8.28l1.1-5.79,8.33,1.79L269,193.63l2.1,4-.88,2.73,20.64,6.3A53.51,53.51,0,0,1,303.24,211c7.55.64,8.68.8,8.68.8l14.94,6.74s6.71-3.3,12.83,5c7.79,2.16,9,6.23,9,6.23s12.89,14.14,14.62,29.39c4.17,2.09,1.12,8.84,0,10,1.12,12.53,4,27.47,4.49,30.52s-1.47,10.6-1.47,10.6-1.26,23.45-2.06,30.2-15.1,58-27.95,65.85-18,11.09-18,11.09-5.62,5.62-5.46,6.74-2.57,13-2.41,13.49-49.79.81-50.27.65-15.69,5.3-15.69,5.3-5.37,6.18-20.45,4.49c-21.53-.8-111.64-3.13-111.64-3.13l-2.57-1.68s-17.18,6.26-27.62.32-15.74-39.36-16.71-49.31C64.4,386.23,70.53,385.58,70.53,385.58Z" transform="translate(0 -14.91)" style="fill:url(#a6a2728b-1f1d-40e8-8e6b-5accf02ddb00)"/><path d="M269,193.63l-9.17-17.32-8.33-1.79-1,5.13a11.49,11.49,0,0,0,4.19.88S257.8,196,267.47,196c3.65,1.65,2.77,4.38,2.77,4.38l.88-2.73Zm98.79,106c-.48-3-3.37-18-4.49-30.52,1.12-1.12,4.17-7.87,0-10-1.73-15.25-14.62-29.39-14.62-29.39s-1.22-4.07-9-6.23c-6.12-8.32-12.83-5-12.83-5l-14.94-6.74s-1.13-.16-8.68-.8a53.51,53.51,0,0,0-12.36-4.31l-20.64-6.3-4.11,4.13,1.9,4.15h6.83s61,19.18,64.5,21.35-1.77,11.53-1.77,11.53-2,2.28-1,2,11.63,3.29,12.39,3.29,6.92,14.84,6.87,20.07c2.06-9.8.84-13.94-.12-15.57a23.64,23.64,0,0,1,4.39,17.88,19.08,19.08,0,0,1-3.05,5.44L362.83,308c-7,7.13-7,8.61-7,8.61s5.55,23,5,37.91a125.25,125.25,0,0,0,3.48-14.08c.8-6.75,2.06-30.2,2.06-30.2S368.3,302.7,367.81,299.65Z" transform="translate(0 -14.91)" style="fill:#5cdb95"/><path d="M278.53,213.63l-1.13,1.43-10.7,13.47s20.68-7.19,23.44-13.22" transform="translate(0 -14.91)" style="fill:#765285"/><path d="M104.2,374.34a30.25,30.25,0,0,0-8.55,6.43l-.42,1.93s4.3-.54,4.48-.63,28.48-4.24,36.83-2.91c10.68,3.17,19.82,10.52,19.82,10.52l5.21-4.17s-16.19-9.52-22.36-12.19S104.2,374.34,104.2,374.34Z" transform="translate(0 -14.91)" style="fill:#765285"/><path d="M120.91,233.1c1.49-.56,12.55-5,15-7.78s14.63-6.09,14.92-7,15.49-9.24,15.49-9.24l5.48,9.24s-.6-22.37,7.32-36.54c-.71-1.79-1.27-3.38-1.73-4.77l-4.21,1.63-7.87,21.45s-18.54,11-28.59,11.25c-8.87-.23-24.9,11.72-24.9,11.72s-3.79-4.33-7.55-3.21-9.8,13.49-9.8,13.49H92.35s-13.18,13.82-19.44,31.81c-11.4,1.92-4.18,15.41-4.18,15.41s.17,1.29-1.13,17.35c-3.87,2.09-7.72,8.58-5.1,15.58-.3,1.48-.51,49.15,0,49.38s.13,4.59,8,22.74a6.05,6.05,0,0,0-5.1,5.87c6.85,5.34,13.44,10.39,13.44,10.39a426.72,426.72,0,0,1-9.57-94.39l7.17-7.08,2.4-11.51,2.41-15.49s7.26-6.62,8-9,6.57-9.28,6.22-14,2.67-11.53,2.67-11.53l6.08,6.5L109.82,230l6.36,2.55S119.41,233.65,120.91,233.1Z" transform="translate(0 -14.91)" style="fill:#5cdb95"/><path d="M92.79,407.8a51.2,51.2,0,0,0,29,6s-12.38-4.35-14.5-8.56c13.61,7,38.64-11.61,44.65-14.94-16.75,22.42-11.62,24.39-26.95,31.55,0,0,10.65-1.15,19.63-12.65C173,407.42,179,407,179,407s-3.15,6.75-15.31,7.25c-14.85,1.52-29.8,11.88-29.42,12.13s16.36-1.8,31.18-4.86S200.37,409,200.37,409s-3.62,9.17-20.47,14.74c17.32-5.79,33.76-3.69,41-.14,6.26-.16,6.9-1.05,6.9-1.05-15.59-9.07-21.72-17.25-21.72-17.25l33.48,13.93s1.21,8.69-.51,14.56-38.72,4.86-38.72,4.86l-15,7.67-66.58-1.92-9.71-.51S87.41,451.12,78.84,441s-13.16-44.22-13.16-44.22V377.39s-3.87-15.21-4-15.72,0-28.88,0-28.88L74,354.39s-1.53-5.88-1.53-6.26-10.82-27.35-10.82-27.35l.86-5.62,10.21,22.12s1.66,34.62,4.86,48,5,23.52,5,23.52l10.24-1" transform="translate(0 -14.91)" style="fill:#181844"/><path d="M98.12,382.92c16.16-9.26,39.21-3.76,39.21-3.76C121.17,396.23,98.12,382.92,98.12,382.92Z" transform="translate(0 -14.91)" style="fill:#181844"/><path d="M77.23,316.79c24.5,27.08,36.1,41.91,36.1,41.91l6.45-1L108,341.63c12.46,4.82,24,17.07,24,17.07s-18.72,1.07-33.81,0c-.05,11.39,0,12.89,0,12.89l21.44-5.15C91,377.83,84.32,400,84.32,400S73.57,341.08,77.23,316.79Z" transform="translate(0 -14.91)" style="fill:#181844"/><path d="M127.82,347.5s-16.46-12.28-26.68-16.42c9.71-1.8,14.38,0,14.38,0s-9.81-25-13.7-29.76c19.36,8,17.75,13.84,17.75,13.84Z" transform="translate(0 -14.91)" style="fill:#181844"/><path d="M134.57,347.5c-5-29.3-5-31.71-5-31.71s-2.42-5.18-4.43-7a8.91,8.91,0,0,0-4.78-2s-8.16-40.62-10.56-50.1c6.94,21.28,10.69,25,10.69,25l9.83,24.47c2.42-20.53,14.34-30.18,14.34-30.18l-4.13,35.34,23.75,28.49,7.81,2.58-8.27-30s7.4,3.35,10.72,9.45,11.92,23.21,11.92,23.21-16.07-6.26-19.27-6.18-8,10.64-8,10.64Z" transform="translate(0 -14.91)" style="fill:#181844"/><path d="M68.69,303.18s1,1.49-1.09.85a40.8,40.8,0,0,0,10.49-17l-4.45-11.43,5.19,2S88.34,241.32,96.46,235c5.8,6,8.12,8.19,7.59,7.83s-2.91-12-2.91-12,6.71-9.33,8.68-8.59,7.56,7.05,7.56,7.05l1.87-6.15s12.88-7.87,19.31-6.8,19.46-10.73,28.33-11.62l7.32,20.34-2.38,6.48s-11.8-14.84-18.78-11.8-27.92,49-27.92,49l-5.87-4.95s-4.13-24.41-3.36-24.91c-5.41,7.92-6.08,14.53-6.08,14.53s-8.81-7.87-10.42-7.87-14.81,30.47-3.11,43c-8.57-2.55-11.38-5.34-11.38-5.34s3.4,18.26,8.23,24c-12.88.54-16.67-1.07-16.67-1.07l-5.15,9,.89,12.47Z" transform="translate(0 -14.91)" style="fill:#181844"/><path d="M158.3,228.64c-5.11,8.94-7.51,21.47-7.51,21.47,9,18.91,12.62,22,12.62,22C160.34,239.12,158.3,228.64,158.3,228.64Z" transform="translate(0 -14.91)" style="fill:#181844"/><path d="M185.53,222.12c.06-4.72,7.77-23.94,8.78-25.26s1.92-.73,1.92-.73,2.3.06,5,8.42c-5.22,1.08-4.08,9.08-4.08,9.08s9.31,8.47,9.78,25.19c-.64,10.93-2.29,15.83-2.29,15.83s-12.07-18.75-16.19-22.59" transform="translate(0 -14.91)" style="fill:#181844"/><path d="M221.67,231.74c3.79-7.23,4.72,0,4.72,0s-.8,23.57-1.85,41.63c14.42-38.49,35.25-59.48,35-63s-7.26,5.11-7.26,5.11l-11.7,5.1s3.76-25.78-11.13-28.79c5.94,12.49.83,14.93.83,14.93l-6.48,14.85-8.23,5.4S220.67,224.47,221.67,231.74Z" transform="translate(0 -14.91)" style="fill:#181844"/><path d="M272.05,208.09c-13.09,17.81-24.44,43.12-24.44,43.12,21.65-27.23,30.73-34.39,30.73-34.39,23.39.17,39.27,8.9,39.27,8.9s-7.85,8.56-10.3,19.73c9.08-17.11,25.18-17.88,25.07-13.74s-6.88,13.84-6.88,13.84l2.06,5.66s10.92-6.73,17.25-4.59c5.27,9.48,3.35,20.82-2.58,25.36,7.68.52,13.61-4.36,13.61-5.06s0-18.16-6.81-28.46c-7.5-2.44-8.9,1.6-8.9,1.6s1.92-9.45-.7-12.59-10.12-6.64-16.06-5.24c-31.07-11.17-49.59-16.58-49.59-16.58Z" transform="translate(0 -14.91)" style="fill:#181844"/><path d="M296.94,262.84c-12.77,31.83-12.77,35.94-12.77,35.94S260.9,280.54,296.94,262.84Z" transform="translate(0 -14.91)" style="fill:#181844"/><path d="M264.32,340.39s7.62-28.57,25.82-32.07a84.85,84.85,0,0,0-10.84,28.52S267.12,341.94,264.32,340.39Z" transform="translate(0 -14.91)" style="fill:#181844"/><path d="M345.87,361.32c-27.72,24.08-36,30.24-36,30.24-11.18,15.23-25.38,20.19-25.38,20.19l-7.13,1.37L264.32,409s-7.5,16-13.77,16.76c5.36,8.91,8.32,8.91,9.45,9.13s22.49.91,26.35.91,32-18.51,41-24,18.74-13.54,24.47-31c.17-21.32,0-29.28,0-29.28s3.35-5.35,3.81-6.42,0,25.54,0,25.54l4.47-13.82V321.34l-5.61-4.72s-16.74,23.58-29.72,26.53C327.92,367,345.87,361.32,345.87,361.32Z" transform="translate(0 -14.91)" style="fill:#181844"/><path d="M347.91,313.61c13.32-8.17,14-12.29,14-12.29s-3.87-16.72-2.79-21.45c-6.88,13.75-8.82,22.68-10.32,23.05,5.37-2.42,7.07-4.14,7.07-4.14Z" transform="translate(0 -14.91)" style="fill:#181844"/><path d="M297.88,306.58c17.2-24.45,27.15-29.17,33.56-29.67-15.18,19.22-17.88,21.87-17.88,21.87s.52-1.13-2.1-1.13S297.88,306.58,297.88,306.58Z" transform="translate(0 -14.91)" style="fill:#181844"/><path d="M104.2,296.88c1,0,17.53,9.18,17.53,9.18C117.45,290.85,106.58,292.44,104.2,296.88Z" transform="translate(0 -14.91)" style="fill:#765285"/><path d="M160.2,347.5c.16-.31,35.47,6.41,35.47,6.41s9-4,13.78-3.43c-43.16-9.89-45.15-10.55-45.15-10.55S158.84,344.59,160.2,347.5Z" transform="translate(0 -14.91)" style="fill:#765285"/><path d="M123.21,310.41c-6.86,8.46,8.72,24.48,8.72,24.48l-6.66-23.45Z" transform="translate(0 -14.91)" style="fill:#765285"/><path d="M209.45,348.06c-10.92,3.56-13.78,5.85-13.78,5.85l-5.55,12.6s5.16-9.34,21.2-12.6c6.88-.58,8.79-.77,8.79-.77s-19.1,7.32-23.69,11.68c33.24-11.49,73-20.08,79.09-19.51,7.45,20.44,19.93,23.35,19.93,23.35s-10.12-14.4-10.83-21.74c11.91-3.14,26.52,3.74,26.85,4.31-.81-5.54-8.45-8.59-8.45-8.59a33,33,0,0,1,13.37-2s10.7-13.32,11.85-14.28a96.91,96.91,0,0,0-9.17,5.35l-2.29,2.71s-2.68-2.14-7.26-1a10.43,10.43,0,0,0-6.5,5.16l-8.59-1.79-13.76,5-1.12-6.44L265,342.83l-7.26-1.2s-33.43,8.46-34,8.84S209.45,348.06,209.45,348.06Z" transform="translate(0 -14.91)" style="fill:#765285"/><path d="M248,361l-20.42,12.16-33.44,3.05s6.73,5.91,25,7.83,49.08-2,49.95-2.19,16.72,2,18.67,2.73c-16.5-14.46-30.61-11.54-31.27-12.24C268,360.36,271,356.23,270,356S248,361,248,361Z" transform="translate(0 -14.91)" style="fill:#181844"/><path d="M151.93,390.31c-14.17,8.6-18,10.6-18,10.6S139.34,386.86,151.93,390.31Z" transform="translate(0 -14.91)" style="fill:#765285"/><path d="M150.79,250.11l12.62,22S144.36,269.54,150.79,250.11Z" transform="translate(0 -14.91)" style="fill:#765285"/><path d="M205.76,276.91c-.44,3,4.77-39.12,8.88-47.66s9.2-7.72,9.2-7.72,5.7-9.86,5.26-12.06-8.45-17.79-2-21.31c-5.73.36-10.25,7.75-5.45,14.64a11.65,11.65,0,0,1,1.27,10.83s-13.49,6.41-16,22.26" transform="translate(0 -14.91)" style="fill:#765285"/><path d="M294.06,373.31a82.59,82.59,0,0,1,8.72,7.6C293.21,381.43,292.87,375.61,294.06,373.31Z" transform="translate(0 -14.91)" style="fill:#765285"/><path d="M297.88,306.58c1.46-2.34,6.3-6.74,6.3-6.74,12.25-21.13,10.66-39.36,9.06-44.6-14.81,36.92-19.37,51.34-19.37,51.34S293.78,309.79,297.88,306.58Z" transform="translate(0 -14.91)" style="fill:#765285"/><path d="M223.85,277.06l-14.4,47.27s8.65-7.17,12.22-25.55c-3.34,36.8,2.18,42.85,2.18,42.85Z" transform="translate(0 -14.91)" style="fill:#765285"/><path d="M250.55,179.65A39.09,39.09,0,0,1,238,183.08s15,1,17.45,0,0-3.43,0-3.43Z" transform="translate(0 -14.91)" style="fill:#5cdb95"/><path d="M166.66,356a28.48,28.48,0,0,0-5.09,17.3l5.09-5.47c10.15,3.51,13.24,5.47,13.24,5.47C173.67,358.43,166.66,356,166.66,356Z" transform="translate(0 -14.91)" style="fill:#181844"/><path d="M130.31,358.37c.39-.92,2.57-6.24,2.57-6.24l27.32-4.63s-8.81,25.91-4.15,34.19c-16.84-8.37-19.75-8.38-19.75-8.38l-1-1Z" transform="translate(0 -14.91)" style="fill:#ffc5b2"/><path d="M279.79,336.84c0-.13.7-5.54.7-5.54s6.1-8.32,8.29-13.66,5.36-8.32,5.09-8.41,11.44-9.87,14.82-10.45,3.82,0,4.35,0h.52L307,309.05s16.47-8.45,20.67-7.73c3.77,1.6,2,8.43.57,9.75,4.16-1.58,5.39-.09,5.39-.09s1.83,5.6-.84,7.44a77.78,77.78,0,0,1-8,4.38l1,3.6s-5.34,6-5.78,6-2.59,1.3-2.59,1.3-6.92-1.37-10.4.81-5.41,4.5-5.49,3.86-2.67-2.87-3.26-2.89a51.47,51.47,0,0,0-5.06,1.41l-11,5Z" transform="translate(0 -14.91)" style="fill:#ffc5b2"/><path d="M166.22,123.88l7.26,11.89h1v2l1.33-.88s6.61.85,7.27,3.29a15.22,15.22,0,0,1,.55,3.76l.88-2.86s4.12.35,5.64-3.18c-1.07,3.24-.57,3.93-.57,3.93l8.7-6.92c-4.38,5.35-3.74,12.45-3.74,12.45h-1.86l2.63,3.3c-.55,5.73,7.27,12.37,8.92,13.46a5.68,5.68,0,0,0,.4,2.26l1.59-1.5a25.88,25.88,0,0,0,4,2c1,1.65,6.83,1.1,9.81,0a6.21,6.21,0,0,0,2.75-2.74l2.1,1.09-1.55-2s11.35-10.1,11-17.34c2.1,1.91,2.1,2.46,2.1,1.91a76.07,76.07,0,0,0-4.61-10.14c-.9-1.21,1.3-1.89,1.3-1.89l5,2.27s2.2,3.11,2.75,3.79a18.05,18.05,0,0,0,2.1-4.5s1.32,2.54,1.21,2.21,8.59-5.95,9.25-7.5c.33,2.54.55,3.73.55,3.73l1.22-4.39c4.34-5.94,4.74-10.57,4.74-10.57s.33,20.05-2.43,29a39,39,0,0,1-9,15s-11.24,19.94-11.57,19.83S224,188.79,224,188.79L218.66,193s-19.95-3.08-23.36-5.5c-13.37-17.9-16.22-22.59-16.22-22.59s-9-14.6-10.6-18.26-1.59-4.22-1.59-4.22Z" transform="translate(0 -14.91)" style="opacity:0.56;fill:url(#a044b937-4aaf-4bd2-8e2d-fe0f46e99ab5)"/><path d="M202,151.13c2.83,5,3.41,5.24,3.41,5.24l1.58-.66s.34,1.36.59,1.18,2.58-1.1,2.58-1.1,1,.82,4.26,1.12a15.62,15.62,0,0,0,6.89-1.45l.74.66.34-1.33s4.68-2.08,4.87-4.82C219.12,156.28,207.17,153.46,202,151.13Z" transform="translate(0 -14.91)" style="fill:url(#aaf13eca-87a0-4258-ae05-abb2b4a7419b)"/><path d="M213.64,123.7a4.88,4.88,0,0,0,2.57-4,4.45,4.45,0,0,0,1.41-5.79c3.16,2.64,2.66,7.21,2.66,7.21a2.31,2.31,0,0,0,2.61-.74c-.32,3.08-5.42,2.79-5.83,2.6A2.45,2.45,0,0,1,213.64,123.7Z" transform="translate(0 -14.91)" style="fill:#7a4747"/><path d="M208.07,124.3c-2.31-1.44-2.58-3-2.58-3l-2.4,1.52A9.2,9.2,0,0,0,208.07,124.3Z" transform="translate(0 -14.91)" style="fill:#7a4747"/><path d="M223.64,97.51c-2.08.4-2.33,1.21-2.33,1.21,1.62,2.43,3.76.78,3.66-.17-1.8-.26-1.55-1.22-1.55-1.22" transform="translate(0 -14.91)" style="fill:#e0978d"/><path d="M241.91,98.8c-5.42,2.47-7.66,2.11-7.66,2.11a10.26,10.26,0,0,0,8.84,1.53,5.56,5.56,0,0,1-2,2.07c4.82-.89,6.76-2.47,6.76-2.47-4.94-2.79-5.18-3.52-5.18-3.52Z" transform="translate(0 -14.91)" style="fill:#be746d"/><path d="M224.65,94.89c4-2.4,11.41-1.75,11.41-1.75-2.57-2.35-5.84-2.26-6.34-2.52S226.27,91.35,224.65,94.89Z" transform="translate(0 -14.91)" style="fill:#be746d"/><path d="M198.93,90.63l5.19,5.59C206.43,93.06,203.29,89.22,198.93,90.63Z" transform="translate(0 -14.91)" style="fill:#be746d"/><path d="M184.51,98.82s1,1.84,7.12,2.41c0,0-8.35,2.56-11,.57a14.22,14.22,0,0,1,2.61-2.46" transform="translate(0 -14.91)" style="fill:#7a4747"/><path d="M187,93.27a6.26,6.26,0,0,0-2,4.4l-3.54,3C181.44,97.44,182.15,96,187,93.27Z" transform="translate(0 -14.91)" style="fill:#7a4747"/><path d="M279.54,335.43a42.69,42.69,0,0,1,14.33-23.18s11-.67,10.23-.81c-11.37,5.79-12.94,7.79-12.94,7.79l-5.57,12.2s14-7.51,19.74-10.09c-7.78,4.17-9.85,7.4-9.85,7.4s3.36-.74,8.7-2.34,24.15-9.44,24.92-9.78c-1.15,2.9-5.44,5-5.44,5l-1.84,2.73s4.21.59,4,2.07-2.93,2.9-2.93,2.9l-5.44,4.35s-9.1-1.41-11.77,1.78l-2.67,3.2-6.07-2.9-15.61,6.08-2.49-6.16" transform="translate(0 -14.91)" style="fill:url(#fb156c22-635a-4e0e-847e-b464f7e9b19d)"/><path d="M139.69,350.48c-7.76,8.22,7.29,17.69,14.61,12.84.49,17.81,2.43,19.38,2.43,19.38s-19-8.69-19.2-9.12-5.6-14.88-5.6-14.88l2.64-11.2Z" transform="translate(0 -14.91)" style="fill:url(#ef91deb5-75c1-47ab-9f7e-e17cc7a90759)"/><path d="M188.68,92.91c3.82-1.25,12.19.75,14.41,3-5-4.53-8.37-5.21-8.37-5.21Z" transform="translate(0 -14.91)" style="fill:#7a4747"/><path d="M181.48,86.75c-6,3.73-7,7.75-7,7.75l-.91,4c6.55-4.19,11.07-5.23,11.07-5.23-4.72-2.36-7.4-1.25-7.4-1.25S179.25,88.12,181.48,86.75Z" transform="translate(0 -14.91)" style="fill:#be746d"/><path d="M206.7,133.15c-.09.28-3.61,5.88-3.61,5.88l-6.83,2.8a11.61,11.61,0,0,0-6,.74S200.18,133.34,206.7,133.15Z" transform="translate(0 -14.91)" style="fill:#7a4747"/><path d="M219.66,132.31c3.8,4.4,3.23,6.72,3.23,6.72,6.37,1.74,7.21,2.23,7.21,2.23l-.08,1-.89,3.21a17.36,17.36,0,0,0,5.91-6.56Z" transform="translate(0 -14.91)" style="fill:#7a4747"/><path d="M179.08,48.46c-.69,27.35,2.4,33.93,2.4,33.93s-5.25,5.5-7,12.11S166.22,119,166.22,119s-.47-42.71,3.34-50.29S179.08,48.46,179.08,48.46Z" transform="translate(0 -14.91)" style="fill:#e0978d"/><path d="M244.51,182.4l.48-15.53,4.43-8.23s7.15-16.7,6.09-47.63-1.75-33.93-1.75-33.93l3.69-6.5s5.13,24.26,4.82,24.87,0,12.39,0,12.39L261,110.65s-.3,28.86-3.51,37.62-5.79,12.13-5.79,12.13v22Z" transform="translate(0 -14.91)" style="fill:#5cdb95"/><path d="M196.06,141.14l11.58-2.94a14.74,14.74,0,0,1,7.36.49c2.16.59,3.46-.87,5.21-.83s11.58,2.95,11.58,2.95-2.72.85-2.83.78a111.76,111.76,0,0,0-11.53-.41c-2.58.22-6.11-.52-7.71-.6s-11.91,1.49-11.91,1.49S196.14,141.85,196.06,141.14Z" transform="translate(0 -14.91)" style="fill:#7a4747"/><path d="M197.87,143.38c10,2.4,17.2,2,22.88.43s6.52-2.36,6.52-2.36h3.67s-1.44,5.29-4.23,7.4-13.26,4.72-20,1.83c-9-3.16-10.22-8.11-10.22-8.11A1,1,0,0,1,197.87,143.38Z" transform="translate(0 -14.91)" style="fill:url(#ece30f42-503c-49d7-b0b4-9673a833063d)"/><path d="M196.48,142.57c1.79,3.63,11,7.7,11,7.7-3-3.53-2.29-3.88-2.16-3.85a45,45,0,0,0,10.61.28,20.44,20.44,0,0,0,9.14-3.21c1.24,1.59-.42,5.29-.42,5.29,3.45-2,5.39-6.76,5-7.33h-2a75.06,75.06,0,0,1-12.06,3.39c-5.36.86-17.35-1.09-18.12-2.47C196.9,141.42,196.48,142.57,196.48,142.57Z" transform="translate(0 -14.91)" style="fill:#7a4747"/><path d="M206.7,148c2,2.66,8.63,2.82,8.63,2.82C212.74,147.53,207.59,147.86,206.7,148Z" transform="translate(0 -14.91)" style="fill:#ffc5b2"/><path d="M202.56,143c7.52-1.74,10.2-1.48,10.2-1.48l-1.94-1-8.44.87" transform="translate(0 -14.91)" style="fill:#6b6b6b"/><path d="M184,98.82c3.35-4.49,9.51-4.95,12.58-4.07a12.39,12.39,0,0,1,5.46,2.92.47.47,0,0,1-.13.64s-.5-.59-4.87.7-9.28,2.83-12.43.6C182,98.91,184,98.82,184,98.82Z" transform="translate(0 -14.91)" style="fill:#fff"/><path d="M198.37,95.11c.95.69,1.6,3.12.31,3.46,2.88-.63,3.44-.13,3.44-.13a1.45,1.45,0,0,0,.13-.88A8.25,8.25,0,0,0,198.37,95.11Z" transform="translate(0 -14.91)" style="fill:#9b4e55"/><path d="M186.69,100.51c1.48-4.12,9-4.67,11.72-3.85s3,1.94,3,1.77.18-.63.15-.76-1.36-2.5-5.16-3.17-9.06.8-11.49,3.77c-1.33,1.43-.91,1.3-.91,1.3" transform="translate(0 -14.91)" style="fill:#474747;opacity:0.8200000000000001"/><path d="M193.94,99.9a4.29,4.29,0,0,0,1.26-5.42h0A26.11,26.11,0,0,0,187.59,96c0,.14,0,.28,0,.42a4.17,4.17,0,0,0,3.26,4.11A28,28,0,0,0,193.94,99.9Z" transform="translate(0 -14.91)" style="fill:#001730"/><path d="M195.13,96.68a3.44,3.44,0,0,0-.26-1.31,23.81,23.81,0,0,0-6.3,1.28v0a3.38,3.38,0,0,0,2.54,3.32,26.6,26.6,0,0,0,2.67-.57A3.48,3.48,0,0,0,195.13,96.68Z" transform="translate(0 -14.91)" style="fill:url(#b287e98e-43d7-4d0b-9173-cf5db25ae51d)"/><path d="M230.76,94.8a3.79,3.79,0,0,0,.65,4.54,12.21,12.21,0,0,0,4.65.9A3.46,3.46,0,0,0,238,98a6.44,6.44,0,0,0,.32-2.24S232.43,94,230.76,94.8Z" transform="translate(0 -14.91)" style="fill:#001730"/><path d="M237.34,97.86a6,6,0,0,0,.28-1.61,26.08,26.08,0,0,0-5.57-1,3,3,0,0,0-.92.1,3.25,3.25,0,0,0,.52,3.5,13.18,13.18,0,0,0,4,.83h.15A3,3,0,0,0,237.34,97.86Z" transform="translate(0 -14.91)" style="fill:url(#a0782f27-ba7e-4e1c-9f71-57daa15dd735)"/><circle cx="192.12" cy="81.92" r="1.8" style="fill:#001730"/><circle cx="233.85" cy="81.79" r="1.66" style="fill:#001730"/><circle cx="193.58" cy="82.14" r="0.69" style="fill:#fff"/><circle cx="192.05" cy="81.45" r="0.42" style="fill:#fff"/><ellipse cx="235.05" cy="82.21" rx="0.69" ry="0.67" style="fill:#fff"/><ellipse cx="233.52" cy="81.54" rx="0.42" ry="0.41" style="fill:#fff"/><path d="M173.93,71.78c-4.33,47.86-8.17,79,9.36,92.34-12.57-5.74-17.87-19.5-16.9-35.51s1-38.28,1-38.28S169.93,72.42,173.93,71.78Z" transform="translate(0 -14.91)" style="fill:#ffe2de"/><path d="M167.8,108.25c-7.3-1.7-7.06,4.47-5,5.69,1,2.34.88,1.14.88,1.14s1.66,21.14,3.74,23.69c-1.42,4.79-2.06,4.92-2.06,4.92s-4.77-21.5-4.46-27.36C155.64,111.65,159.46,102.22,167.8,108.25Z" transform="translate(0 -14.91)" style="fill:#ffe2de"/><path d="M159.69,107.68c5.26-1,7.3,7.81,7.2,10.27.32-11.17,0-13.5,0-13.5Z" transform="translate(0 -14.91)" style="fill:#be746d"/><path d="M268,103.47c-3.85,3.88-3.49,7.93-3.49,7.93,4-4,8.18-6.21,8.86-2.22s-4.07,16.95-4.44,16.61,1.23-13.29-.42-14.91-5,1.37-4.77,7.59c.43,10.39-3.66,13.29-3.66,13.29s.25-21,.42-21.47S262.23,103.46,268,103.47Z" transform="translate(0 -14.91)" style="fill:#7a4747"/><path d="M259.94,132.86c6.12.19,4.36,9.85-.09,8.59C260.51,134.57,259.94,132.86,259.94,132.86Z" transform="translate(0 -14.91)" style="fill:#001730"/><path d="M257.4,142.62c7.37-6.43,12.05-27.69,12.38-35.17-1.77-4-5-1.09-5-1.09s6.26-9,8.63.85a58.49,58.49,0,0,1-2.18,17.88l-8.47,17.53s-1.32,1.79-2.7,2S256.33,146.06,257.4,142.62Z" transform="translate(0 -14.91)" style="fill:#5cdb95"/><path d="M198.45,406.05l1.92.91S199.69,406.58,198.45,406.05Z" transform="translate(0 -14.91)" style="fill:#001730"/><path d="M234.48,354.79l21.32-2.86s-28.36,20.56-28.36,21.32c0,0,11.23,1.91,43-17.32,0,0,3.23-2.28,5.14-10.66C275.6,345.27,259.8,343.21,234.48,354.79Z" transform="translate(0 -14.91)" style="fill:#001730"/><path d="M244.37,98.58a5.25,5.25,0,0,1,.21.56,1.85,1.85,0,0,0,.09-.71l.38-.2-.41-.15a6.57,6.57,0,0,0-.93-2.49C239.26,90.76,230,90.33,230,90.33s-4.57-.26-8.9,5.26c3.29-2.54,7.92-5.81,15.14-3.44,4.79,1.57,6.91,4.13,7.79,5.68-1.09-.44-3-1.22-5.27-2.34h0a12.24,12.24,0,0,0-1.26-.56c-3.41-1.25-8.53-1.48-14.54,2.74h-.31a.59.59,0,0,0,.28.46h0c2,1.33,5.05.44,8.4,1.32a7.79,7.79,0,0,0-4.2-1c-1.73,0-2.4-.33-2.66-.57,3.54-2,7.4-3.63,12.19-2a7.78,7.78,0,0,1,4.28,2.86,6.9,6.9,0,0,1-2.82,1.74,13.72,13.72,0,0,0,3.31-.54,1.36,1.36,0,0,1,0,.33c-.44-.1.63.47,3.71.32A24,24,0,0,1,243.28,99,5.22,5.22,0,0,0,244.37,98.58Z" transform="translate(0 -14.91)" style="fill:#001730"/><path d="M251.66,93.44a9.43,9.43,0,0,0-3.36-.64A3.47,3.47,0,0,0,251.66,93.44Z" transform="translate(0 -14.91)" style="fill:#001730"/><path d="M229.93,131.89c1.28,1.65,2,2.45,2,2.45s-8.86-5.81-11.79-7-3.47-.53-3.47-.53a16.11,16.11,0,0,0-.53,4.34c-1.6-.52-1.47-.82-1.47-.82-1.1,1.92,2.53,4.43,2.53,4.43v-1.71s9.23,5.12,9.93,6.19l.16-2.19s6.35,2.14,7.68,6.41a4.78,4.78,0,0,0,0-2.73,8.75,8.75,0,0,0,5.18,4.7,46,46,0,0,0-3.21-10.19S230.83,132.42,229.93,131.89Z" transform="translate(0 -14.91)" style="fill:#001730"/><path d="M222.11,140.73c-7.67-.07-5.43.79-10.34-.27s-8.14,1.3-15.46.75c-.86-.48-.86,1.61,1.93,2.28-.59-.83,2.87-1.66,11.56-2.52,5.7,1.14,5.78.75,9.95.59a74.5,74.5,0,0,1,10.27.67l1.77-1.5S229.78,140.81,222.11,140.73Z" transform="translate(0 -14.91)" style="fill:#001730"/><path d="M368.86,298.77c-.13-.59-.29-1.28-.47-2.07-1.4-5.92-3.95-16.81-3.23-27l.6-.36.29-.18.17-.3a8.26,8.26,0,0,0-1.78-9.9c-1.4-13.17-6.77-20.42-15.37-30.59-1-2.86-4.87-6.49-10.79-8.3-3.66-4.24-9.29-3.43-11-3.06l-.54-.22-5.26-2.08c-2.18-.86-3.95-1.75-5.52-2.53-4-2-7.16-3.59-13-2.61-7.34-5.95-25.1-7.93-27.65-8.19a19.45,19.45,0,0,0-3.56-1.38c.76-.85.81-1.19.86-1.48.41-2.65-2.27-4.26-3.55-4.88-6.66-18.64-8.88-19.15-9.61-19.32a58.23,58.23,0,0,0-6.76-.79l.85-14a60.6,60.6,0,0,0,5.55-12.68,7.37,7.37,0,0,0,6.2-6.45v-.06a6.89,6.89,0,0,1,1.25-1.71c2.15-2.38,8-22.22,8.58-28.16.42-4.1-.74-7.33-3.09-8.64a5.7,5.7,0,0,0-5.27,0c-.1-6.81-.57-24.9-.57-24.9l2.45-2.54s1.07-6.46-.88-11.94c-6-12.92-18.89-26.23-28.19-31.22s-23-8-23-8V20.88s-3.33.88-16.05-.39-16.73,3.62-19.77,12.23c-10.66,7.14-10.76,13-10.76,13a3.85,3.85,0,0,1-1.57,2.06,13.48,13.48,0,0,0,1.57,6s-.69,2-2.35,2.25c.1,1.08-2.06,8.22-3.82,16.15-1.17,8.22,0,30.92,0,30.92a10.54,10.54,0,0,1-1,2.41,6.44,6.44,0,0,0-4.1,1.71,6.8,6.8,0,0,0,.69,10.53c.17,3.08.89,15.48,1.23,17.7a23.39,23.39,0,0,0,2.06,5.52,31.94,31.94,0,0,1,1.48,3.51,3.94,3.94,0,0,0,2,2.5,3.67,3.67,0,0,0,1.65.38h.11c.31.71.75,1.76,1.34,3.4,1.37,3.82,2.55,8.22,2.55,8.22l.58-.88c.43.43,1.92,2.12,3.64,4.11a7.14,7.14,0,0,1,.41,2.5l.74.71v10.43c-3,.1-4.33.74-5.1,1.37-.55.26-.78.91-1.09,1.8-.22.63-.51,1.54-.87,2.62-.61,1.91-1.46,4.57-2.5,7.9-1.18,3.76-2.34,7.51-3,9.66A77.9,77.9,0,0,0,152,205.22c-4.48,2.53-8,4.53-12.62,4.77-4.7-.35-6.07-.16-6.62.23-2.51,1.05-15.44,6.49-17.4,7.72a30.9,30.9,0,0,0-3.89,3.05c-3.26-2.42-4.35-2.77-5.17-2.84a7.65,7.65,0,0,0-3.69.7c-.83.5-7.23,7.9-9.21,12.3l-.19.41v0a8.88,8.88,0,0,0-3.33,1.71c-2.61,1.95-12.67,16.81-17.48,30.5a8.85,8.85,0,0,0-7.33,6.69,10.82,10.82,0,0,0,2.58,9.73c-.08,1.95-.62,8.95-1.25,16.65-7.73,4.08-7.3,13.12-5.89,17.66-.12,4-1.4,45.56.9,62s7.7,55.17,16.14,65.42c3.69,4.49,9.76,5.79,15.57,5.79a53.58,53.58,0,0,0,12.3-1.6c5.19.14,97.95,2.66,116,3.52,1.6.07,3.14.11,4.6.11q10.86,0,16.21-2.81c72.92-.44,82.55-4,82.55-4l2.13-25.14h0a48.63,48.63,0,0,0,8.82-6.72C355,392.49,363.82,354.48,365.82,337c1.88-16.44,1.2-22.61.9-24.29C367.39,310.9,369.93,303.55,368.86,298.77Zm-95.08-95a31.63,31.63,0,0,0-2.47,2.93l-4.61-2.18c1-.84,1.86-1.55,2.55-2.16A15,15,0,0,1,273.78,203.75Zm-13.3-63.66c.35-3.69.56-5.93.69-7.25h0c.05-.3.1-.89.15-1.67h0c.34-5.13.63-18.88.63-18.88s.09-2.12,3.47-6.77l.2.26c2.1-1.62,3.88-2.16,5-1.53,1.31.73,2,3.05,1.68,5.92-.65,6.4-6.53,25-7.88,26.57-1.27,1.41-1.92,2.5-2,3.34a4.89,4.89,0,0,1-2.61,3.66A31,31,0,0,0,260.48,140.09Zm-94.33-1.3a16.35,16.35,0,0,0-.54,1.77l-.36-.79a21.56,21.56,0,0,1-1.83-4.76c-.29-1.89-.94-12.67-1.24-18.11l0-.75-.65-.38a4.8,4.8,0,0,1-2-2.6,4.69,4.69,0,0,1,1.19-4c1-1,2.62-1.21,4.74-.72a4.5,4.5,0,0,1,.75,2.21C166.54,114.72,165.08,131.55,166.15,138.79Zm9.28,18.29a35.6,35.6,0,0,1-7-16.92c-1.17-10.47-1.37-29.84-.1-35.81s1.08-15.56,2.45-22.31a18.4,18.4,0,0,0,5.68-12.43c.49-7.34.78-10,.78-10L175,61.1s1-1.57,8.61-11.84c1.57.58,4.8-.1,4.8-.1a3,3,0,0,1-2-2.06c5,1.28,17.81-7.63,31.12-3.32.19-.39,3.42-1.57,3.42-1.57s-.39,1.37,1.27,1.76c1.18-2,12.92-3.13,16.34,6.07S251.68,65.4,251.68,65.4l.1,3.43,2.83,5.28-2.83-3.52s.19,5.19.58,7.63c.3,2,7.05,8.91,7.05,8.91l-1.47-1.37s.39,6.75,1.27,12.52c1.43,14,.09,31.16-.47,37.1h0s-2.31,11.12-5.61,16.67-5.27,6.22-5.27,6.22l.28,1.13-1.32-.85a15.28,15.28,0,0,1-14,3.53,33.81,33.81,0,0,1-12.52,6.84l-1.13,1.6-.1-1.42s-6.12,4.53-8.94.1a28.12,28.12,0,0,1-.76,3l-1.88-4.71s-9.33-3.29-10.46-6.21c-3.77,3.1-4.33,5.18-4.33,5.18l.28-3.11S183.71,165.4,175.43,157.08Zm45.37,46.2c1.79,2.77,3.23,5,1.47,8.35a18.85,18.85,0,0,0-8.59,6.38c-3.68-2.78-7.4-9.87-10-14.76a39.57,39.57,0,0,0-3.58-6.09c-2.27-2.58-4.12-3.12-5-3.21L180,185.14V167.92a92,92,0,0,0,12.94,9.66c8.29,4.9,27.41,6.88,36.36,3s13.57-7.82,19.59-14.6c.52-.59,1-1.23,1.53-1.88L249.51,179l-19.24,6.84c-1.84-.42-8-1.15-11.43,6.73C216.83,197.16,218.94,200.41,220.8,203.28Zm-47-23.91a6.52,6.52,0,0,1,3.36-.76v8.13l15.47,9a43.43,43.43,0,0,0-7.1,22.52l-16.25-11-2.43-5.95C169.3,193.5,173.06,181.45,173.84,179.37Zm-110.52,135v-.25l-.08-.24c-.13-.4-2.83-9,2.87-13.53a35.36,35.36,0,0,0,.59,9c.87,22.41,2,44.88,3.82,64.85a77.69,77.69,0,0,1-7.59-19.94C62.63,335.68,63.31,314.69,63.32,314.39Zm16.4,125.78c-5-6.09-9-24.05-11.88-40.22A149.15,149.15,0,0,0,77,418.38c.22.93.44,1.83.67,2.71,4.8,18.42,14.85,22.7,28.78,21.9C101.68,444.27,86,447.81,79.72,440.17Zm164.41,1.18c-1,2.41-5.24,6.34-22.58,5.51-14-.67-73-2.33-101.17-3.11,5.77-.86,13.08-2.11,20.71-3.79,18.66.54,85.49,2.37,92.86,1.21,8.57-1.35,6.09-14.83,6.09-14.83s-1.8,7.61-22.11,6.48c-15.43-.85-38.71-1.19-49-1.3,5.45-2.19,10.71-4.57,15.47-6.88,18.44-5.79,26.34-3.41,26.41-3.39S206.48,417,195.42,419a22.86,22.86,0,0,0,8.87-8.25c-.22.13-21.66,13.28-43.87,21-9.79.79-38.1,3.09-39.22,3.47h0c7-2.51,13-6.25,18.71-10.07,10.29-6.91,23.67-10.88,23.81-10.92s-6.42-2.6-25.37,8.6l-1.7,1S106,440.71,93.85,420c-.48-.82-.95-1.74-1.4-2.72a42.58,42.58,0,0,0,20.44-3.3c-12.06-1.54-19.9-5.55-24.62-9-7.87-30-10.65-83-10.65-83l16.23,13.22c-14.43-21.43-15.33-48.72-15.33-48.72a85.52,85.52,0,0,0-9.89,17.51c.21-2.51.45-5.43.69-8.35.37-4.58.65-8.23.85-10.86.41-5.63.42-5.76-.3-6.24a7.86,7.86,0,0,1-2.06-7.39A5.59,5.59,0,0,1,71.38,267,41.71,41.71,0,0,0,70,273.39l-.09.79.63.49c1.43,1.23,2.83,2.35,4.18,3.38h0c13.41,10.22,22.31,11,22.31,11-12.31-6.81-16.45-18.87-6.22-45.7,0,0-10.71,15.81-15.29,31.61l-2.65-2c2.21-14.84,16.3-35.64,18.67-37.42,2.15-1.62,5.73-.33,8.66.54,0,0-3.3-4.32-3.94-4.45,2-3.84,6.9-9.5,7.82-10.4a5.86,5.86,0,0,1,2-.29c.56,0,2.79,1.21,11.31,8.41,0,0-2.18-5.45-3.66-6.62a26.43,26.43,0,0,1,3.11-2.41c1.41-.89,11.11-5.05,17.28-7.63l0,0a28.34,28.34,0,0,1,5.1.12h.17c5.3-.26,9.31-2.52,13.95-5.14a79.58,79.58,0,0,1,10.89-5.37l2.45,6c-1.46,10-1.18,13-1.18,13s10.36,27.2,17.11,37.54c-9.51-24.77-8.57-38.45-8.57-38.45s16.68,11.09,20.94,20.36a34.94,34.94,0,0,0,0-17.32s-4.67-5.17-6.14-10.54A39.69,39.69,0,0,1,190.7,206c10.7,12.12,13.86,17.77,13.89,17.82s-1-7.58-12.72-20.71a41.13,41.13,0,0,1,3.44-6.27A7.5,7.5,0,0,1,198,199a41.69,41.69,0,0,1,3.2,5.54c2.83,5.39,6.56,12.49,10.78,15.69A42,42,0,0,0,204.94,242c-.05,4.75-.55,22.58-1.19,42.34C203.12,304.54,194,335,194,335s-1.24-4.78-9-19.83-7.08-19.11-14.16-19.82l21,48.79-2.75-.65c-14.56-3.48-22.93-5.4-25.59-4.31l-.07,0c-1.23.59-2.8,3-4.32,6.45-3.38-1.18-14.71-6.42-23.25-25.36,0,0-.32,5.86,1.27,19.42,0,0-2.53-2.26-4.61-9.1-.16-1-.34-2-.52-3-3.45-19.49,3.88-44.82,12.33-50.63,0,0-13.35,5.72-15.92,36.27a8.71,8.71,0,0,0-1.84-3.14c-1.32-1.15-2.86-2.51-4.3-3.79-6.22-15.33-13.49-59.19-14.41-71.8,0,0-4.2,18.24,10.08,68-.4-.36-15.39-6.75-15.41-6.76s18.47,13.24,22.2,16.5c3.08,2.69,7.43,32.47,7.17,36.12a26.14,26.14,0,0,1-1.52,5.78l-2-7.58-.12-.18c-19.89-15.25-27.17-15.25-27.17-15.25,19.72,12.29,24,15.93,24.73,16.68l2.53,9.77c-3.42.17-12.88.43-34.55-.11,0,0,5.33,3.12,22.57,3.12,8.2,0,11.92-.19,13.27-.29.62,2.06,1.84,5.64,4.27,11.49-29.27-.94-36.23,5.52-36.23,5.52,13.31-4.09,37.35-3.1,41.26-2.21,2.74.63,13.5,6.48,19.84,10.05-6.26,2.83-11.62,10.64-16.85,18.26-2.34,3.42-4.55,6.64-6.8,9.37-8.31,10.09-24,13.71-24.17,13.74,0,0,17.39-1.12,26.33-12,2.32-2.82,4.57-6.09,6.94-9.56,3.25-4.73,6.54-9.55,10-13,12.21,1,24.33,11.16,24.33,11.16a42.78,42.78,0,0,1,19.87,3C173.76,394.43,164,389,161,387.24a8.38,8.38,0,0,1,3.21-.44c3,1.39,6.31,2.91,7.58,3.55l.08.55h2.37v0c2.37,0,8.55.25,11.9,3.75.07.36.14.72.22,1.07l.55-.13a7.44,7.44,0,0,1,.9,1.7l.22.57.56.23c4.15,1.71,9.93,4.42,16.62,7.57,11.54,5.43,26,12.22,38.85,16.92C244.57,430.83,244.72,439.91,244.13,441.35Zm-120.57-.91ZM163.36,384l-.71,0c-1-.55-3.11-1.77-5.74-3.22-2.69-17.11,5.24-37.69,7.71-39.09,2.08-.74,14.14,2.14,23.83,4.46l4.78,1.14h0c3.41.81,6.86,1.61,10.21,2.33a24.75,24.75,0,0,0-7.59,3.37l-.12.09c-3.26,2.84-8.08,16.1-9.59,28.37l-25-5.45A24.79,24.79,0,0,0,163.36,384Zm-9.49-4.85c-5.54-3-11.93-6.3-14.26-6.83a22.2,22.2,0,0,0-2.53-.35c-3.85-9.15-4.9-13.05-5.15-14.14.35-.82,1.13-2.78,1.78-4.87,3.56-.26,15.95-1.21,23.59-2.49C154.69,358.38,152.77,369.22,153.87,379.16ZM246.93,430c-.06-1.54.06-5.36,0-6.48,1.48.51,2.94,1,4.35,1.44C250.23,425.79,248.61,429.2,246.93,430Zm119-124.66a43,43,0,0,1-1.93,6.7l-.16.45.12.44c0,.05,1.26,5-.88,23.71-1.67,14.57-8.16,43.62-21.52,63.12-3.12,1.2-6,2.23-8.68,3.12,15.94-17.36,25.49-49,27.42-70.37,1.86-22.64,5.63-27.16,5.63-27.17s-18.42,16.23-23.21,16c6.12,8.8,10.92,6,10.92,6s-3.09,11.14-7.7,24.78a115.26,115.26,0,0,1-28.58,21.23l-16.89-17.94c2.5,30.57,9.47,36.19,9.47,36.19a138.6,138.6,0,0,0,28.06-18c-3.18,7.71-6.58,14.87-9.94,20-12.52,19.18-76.19,20.25-111.89-4.8,49.82,1.6,69.8,6.67,69.8,6.67-13.32-16.26-21.31-14.66-21.31-14.66l-73.8,4c25.79,16.08,49.27,26.54,71.31,31a88.59,88.59,0,0,0,31.91,9.66,107.47,107.47,0,0,1-33-.8c-14.87-2.87-37.84-13.67-54.62-21.56-6.44-3-12-5.66-16.2-7.4a10.53,10.53,0,0,0-1.43-2.34c-1.94-12.92,5.28-34.91,8.73-38.06,4.9-3.39,12.44-4,13.46-4.1,2.76.5,5.33.9,7.62,1.14-4.46,1.6-12.18,7.56-12.18,7.56,23.32-9.23,49.07-16.71,51.72-16.71h.05c2.83.12,6.27,0,6.41,0h.19l14.44-4.37c0,.21.11.45.18.7l.6,3.79.31-.54C287,366.16,298,372.47,298,372.47c-7.79-9.43-12.58-22.59-14.84-30,5.79-2.11,11-4.17,12.42-4.75l8.18,1.76.54-.49c6.65-6.15,12.62-4,12.86-3.9l.73.29,9.8-7.46,2.34-5.28-2.92,2.22a3.71,3.71,0,0,0-.67-1c-.11-.12-.24-.23-.36-.34,1.61-.77,3-1.47,4.13-2.05,4-2.11,6-6.92,5.17-9.82a3.54,3.54,0,0,0-3.92-2.63l-.47,0a8.89,8.89,0,0,0,.84-4.87c-.18-1.58-.93-3.57-2.42-4s-4.37.36-8.78,1.68l-1.79.53a61.44,61.44,0,0,0-8.22,4l13.45-19.82-10.58,10c-3.61-2-6.43.57-13.65,7.07-.73.66-1.48,1.36-2.23,2.09h0c17.19-47.5,21.75-64.44,21.75-64.44-18.67,23.45-36.67,83.38-36.21,82.58h0a32.85,32.85,0,0,0-4.31,11.74l0,.19,0,.16-14.52,4.39c-.74,0-3.66.09-6,0h-.09c-1.65,0-7.82,1.59-16.06,4.1,1-2.79,3.35-9.42,7.3-18.87-8.37,3.62-24.7,21.73-24.7,21.73h0c.18-18.64-.36-101.2-.36-101.2.09,14.2-2.14,92.29-2.46,103.63a68.66,68.66,0,0,1-8.78-1,27.48,27.48,0,0,1,.77-2.65c2-.73,4.49-4.13,1.59-6.37.65,1.08,1.45,3.69-1.09,4.77s-6.07-.72-5.06-4.27a4.2,4.2,0,0,0,2,6.3s.06,1,.1,1.91c-2.35-.43-4.85-.94-7.42-1.49,1.17-14.67,3.64-94,3.75-104.88s7.19-25.71,15.82-27.89l.56-.14.3-.5c3-5.14.65-8.82-1.27-11.77-1.69-2.61-3.15-4.86-1.74-8.11,2.92-6.73,7.91-5.25,8.46-5.06l.47.17,18.51-6.59a32,32,0,0,1,4.27,1.1l-15.47,4.34s2.35,4.22,3.75,4.33,9.51-4.33,9.51-4.33,3.15-.35,11.23,8c.59.35-6.21-15.94-6.21-15.94h-3.65l.2-3.33c2,.15,4.78.4,6.16.68,1.37,1.23,5.17,10.28,8,18.15l.22.61.6.23c.87.32,2.32,1.23,2.4,2a47.93,47.93,0,0,1-5.93,5.26l-1.82,1.46c-5.33,4.24-12.7,9.83-20,15.19a39.38,39.38,0,0,0,.26-10.48,49.59,49.59,0,0,0-1.8-8.76h0c-4.29-12-11.06-8.85-11.06-8.85,4,.18,6.68,4.25,8.34,9.44h0c1.6,7.37-5.21,15.3-17.78,20.69l-.12.06c-5.44,3-6.52,12.44-6.52,12.44s.27-.61.73-1.5a4.33,4.33,0,0,0,6.71,3.8c2.39-1.56,2.34-6.84.5-9.4A15.85,15.85,0,0,1,233,223.13l-1.52,13.37s31-25.72,31.81-26.22c.61-.37,3.34.59,4.81,1.15A139.52,139.52,0,0,0,260,227.06s10.8-17.84,17.16-22.65c5.58.73,19.13,2.93,24.38,7.68l.52.47.68-.14c5.36-1,7.83.2,11.91,2.24,1.62.81,3.46,1.73,5.75,2.64l2.41.95-.16.05,3.95,1.48a1.48,1.48,0,0,0,1.45-.1c1.54-.3,5.76-.75,8.29,2.46l.27.36.44.12c6.14,1.76,9,5.39,9.37,6.77l.08.31.21.24c9.26,10.94,13.76,17.44,15,29.81l.05.54.41.36c3,2.74,2.18,5.58,1.77,6.52a57.37,57.37,0,0,1-11.16,5.05s7.32.16,9.5-1c-.37,10.07,2,20.34,3.39,26.07l.47,2A15.63,15.63,0,0,1,365.9,305.37ZM318.45,324c-4.38,2-8.52,4-10.82,5.22a27.51,27.51,0,0,0-7.56,6.55l-4.74-1-.4.16s-1.93.77-4.79,1.88l.93-1.48c3.83-6.1,4.53-7.21,6.6-8.51,2.62-1.66,29.09-14.66,34-15,.78-.05.94.26,1,.62.46,1.6-.94,5.06-3.8,6.58C326.54,320.28,322.43,322.19,318.45,324Zm6.33,2.57-7.38,5.62c-2-.51-7.31-1.26-13.22,3.2a21.58,21.58,0,0,1,4.79-3.72c2.22-1.21,6.51-3.21,10.66-5.14l2.67-1.25a2.83,2.83,0,0,1,2.11.47A1.52,1.52,0,0,1,324.78,326.61ZM329.06,306a6.24,6.24,0,0,1-3.48,4.79,297.35,297.35,0,0,0-29.4,13.75c-2.61,1.64-3.45,3-7.48,9.39-.81,1.3-1.77,2.83-2.91,4.61-1.09.42-2.24.84-3.42,1.27,0-.14-.07-.27-.11-.4,4.52-7.87,11.17-19,12.34-20.06,1.88-1.69,21.22-13,25-14.15l1.81-.53c2.55-.77,6-1.8,7.12-1.69A4.8,4.8,0,0,1,329.06,306Zm-36.33,11.28c-1.51,1.36-7.38,11.25-10.86,17.23,1.95-9.22,11.17-20.88,19.84-28.7,7.22-6.52,8.83-7.49,10.3-6.79l-6.46,10.3C299.64,312.64,293.87,316.2,292.73,317.23Zm-72.25-89a5.86,5.86,0,0,1,1,4.91c0-4.84-5.08-5-5.08-5a2.1,2.1,0,0,1,3.27-.66Z" transform="translate(0 -14.91)" style="fill:#001730"/><path d="M218.75,91.59s2-4.4,6.1-6.18L223.79,87a11.85,11.85,0,0,1,4.11-1.11c5.79,2.92,13.8,2.39,13.8,2.39l-.88.88a35.63,35.63,0,0,1,5.08.29,12.65,12.65,0,0,0-2.8.71,18.29,18.29,0,0,1,5.64.59,7.26,7.26,0,0,0-2.27,1.09s1.78-.45,5.19,1l-1.76-3.27h0c-.69-1.34-2.58-4-7.12-5.51-6.19-2-19.38-2.62-19.38-2.62l-2,1.27V81.39s-.54,1.27-.94,2.28a2.85,2.85,0,0,0-1.35-2.28,15.46,15.46,0,0,1-.33,5.25,2.7,2.7,0,0,0,.59.09c-2.7,3.61-2.5,4.32-2.5,4.32v15.31C218.05,94.66,218.75,91.59,218.75,91.59Z" transform="translate(0 -14.91)" style="fill:#001730"/><path d="M181.92,97.67a20.88,20.88,0,0,1,15.87-6.51L203,95c-3.47-3.86-4.28-4.59-4.28-4.59S187.16,89.16,181.92,97.67Z" transform="translate(0 -14.91)" style="fill:#001730"/><path d="M194.14,139.94c-1.79,2.21-1.58,2.5-1.58,2.5s3.78-2.66,6.49-4.91l-1,1.91s4-2.24,6.69-3.36a23.93,23.93,0,0,0,4.82-2.83s-.54,1.66-.37,1.54,2.66-1.87,2.33-4.37a1.92,1.92,0,0,0-1,.34s-2.25-3.66-3.33-4.2c-5.78,3-7.52,5.9-7.52,5.9l1.5-3.16s-4.16,3.08-6.86,5.57a16,16,0,0,0-3.21,3.74,24.32,24.32,0,0,1,2-3.9,9.16,9.16,0,0,0-3.37,4.11A12.1,12.1,0,0,0,189,145S192.93,140.82,194.14,139.94Z" transform="translate(0 -14.91)" style="fill:#001730"/><path d="M218.79,121.85c-3.19,2.66-8.81,3.76-12.92.53C209.63,127.52,215.34,126.81,218.79,121.85Z" transform="translate(0 -14.91)" style="fill:#001730"/><path d="M185.55,99.69a6.86,6.86,0,0,1,.83-1.72,10.91,10.91,0,0,1,4.94-2.82c5.13-1.53,10.48,2,10.06,2.87A2.67,2.67,0,0,1,200,99.26s2.92-.18,2.79-1.43-5-4.4-10.06-4-9.43,4.2-10.42,4.36c.19.77,1.06.45,1.06.45l-1.86,2.18a4.17,4.17,0,0,0,2.79-.44,14.4,14.4,0,0,0,5.57.37A12.39,12.39,0,0,1,185.55,99.69Z" transform="translate(0 -14.91)" style="fill:#001730"/><path d="M178.9,90.74a47.91,47.91,0,0,1,13.55-3.82,40.45,40.45,0,0,1,11,.29l-.89-1.78a7.07,7.07,0,0,0,1,.48l1,.77-.3-.46h0a22.63,22.63,0,0,0-1.34-1.85,11.75,11.75,0,0,1-1.14-3,2.34,2.34,0,0,0-.68,1.59c-2.09-.24-15.78-1.79-19.63-.59,0,0-5.53,4.78-7.55,8.2,1.88-1.69,2.12-2,2.12-2s-2.17,3.57-1.59,5.89c6.66-3.81,7.86-4.17,7.86-4.17Z" transform="translate(0 -14.91)" style="fill:#001730"/><path d="M211.45,281.59c-2,3.77,3,6.37,3,6.37a27.07,27.07,0,0,0,0,5,10.07,10.07,0,0,0,1.45-5.68c2.68-1,1.38-4.46,1.38-4.46C217.31,286.15,211.81,286.37,211.45,281.59Z" transform="translate(0 -14.91)" style="fill:#001730"/><path d="M178.47,195.2c-1.09,5.7-3.28,14,4.31,18.43,0,0-3.34-4.85.79-16.77,2.42,1.18,5.58-.81,5.58-.81l-12.74-6.31S175.07,192.89,178.47,195.2Z" transform="translate(0 -14.91)" style="fill:#001730"/><path d="M132.83,252.78c-6.71,1.72-11.53,7.74-11.53,7.74,1.55-17-5.17-11.74-4.65-25.49a81.75,81.75,0,0,0,4.48,48.22A88.72,88.72,0,0,1,132.83,252.78Z" transform="translate(0 -14.91)" style="fill:#001730"/><path d="M331.71,244s3-4.67,1.07-13.09c0,0-17.16,34.42-17.35,35.17,0,0,15-18,29.38-19.46C344.81,246.62,340.88,241.76,331.71,244Z" transform="translate(0 -14.91)" style="fill:#001730"/><path d="M239.44,169.9c3.76-5.47,5.48-8.3,5.48-8.3v2.52a64.57,64.57,0,0,0,6.36-7.18l-1.4,5.42S242,169.6,239.44,169.9Z" transform="translate(0 -14.91)" style="fill:#5cdb95"/><path d="M253,156.18c0-.27.41-2.76.41-2.76l1.32-1.46S254.07,155.63,253,156.18Z" transform="translate(0 -14.91)" style="fill:#5cdb95"/><path d="M238.59,167.4l-1.78,5.68C235,171,235.57,168.08,238.59,167.4Z" transform="translate(0 -14.91)" style="fill:#5cdb95"/><path d="M184.68,44.18c-3.26-6.71,2.89-13.61,2.89-13.61-3.08,1-5.41,5.5-5.41,5.5,1.87-10.16,8.67-12.68,13-13.42s10.53,5.5,10.53,5.5c-7.27-3.45-13.61-3.55-16.87,8.67,3.17-8.11,9.42-8.39,9.79-8.39-5.22,2.42-1.31,14.35-1.31,14.35a8.39,8.39,0,0,1-4.66-7.55c-3.26,4.57-1.86,7.92-1.86,7.92a6.49,6.49,0,0,1-3-8C183.88,38.22,184.68,44.18,184.68,44.18Z" transform="translate(0 -14.91)" style="fill:#6b2f48"/><path d="M197.42,37.71A8.9,8.9,0,0,1,202,29.15C201.14,32.87,197.42,37.71,197.42,37.71Z" transform="translate(0 -14.91)" style="fill:#6b2f48"/><path d="M199,38.45c2.52-7.6,10.53-9.62,10.53-9.62a21.09,21.09,0,0,1-2.18,2.87c5.26-2.39,7.76-1.43,7.76-1.43a72.31,72.31,0,0,1-10.31,6.59,12,12,0,0,1,1.17-4.68A55.12,55.12,0,0,0,199,38.45Z" transform="translate(0 -14.91)" style="fill:#6b2f48"/><path d="M209.73,36.55c3.83-6,12.48-5.63,12.48-5.63a9.18,9.18,0,0,0-2.89,2.31,26.55,26.55,0,0,1,15.22.88c7.79,2.66,12.26,13.69,14.71,14.41-8.65-3.82-12.33-11.12-20.19-9.6,4.4-3,7-1.22,7-1.22s-7.06-4-12.62,1.22c.07-2.52,4.11-4.81,4.11-4.81-4.25.35-7.57,5.25-7.57,7.34-1.88-3.39,1.08-6.7,1.08-6.7a11.41,11.41,0,0,0-6.2,2.66,4.33,4.33,0,0,1,1.58-3.3C213.33,34.31,209.73,36.55,209.73,36.55Z" transform="translate(0 -14.91)" style="fill:#6b2f48"/><path d="M232.18,40.44c6.38,1.76,8,8.38,12.2,10.77a27.21,27.21,0,0,1-6.1-3.19s4.82,8.77,12.8,13.56c-4.63-5.9-5.58-7.26-5.58-7.26s8.53,4.55,13.08,10.53c-3.27-8.7-9.09-11-14.68-16.33S239.2,41.08,232.18,40.44Z" transform="translate(0 -14.91)" style="fill:#5cdb95"/><path d="M252.47,53.35c8.62,6.21,9.75,17.08,9.75,17.08a11.39,11.39,0,0,0,1.45-5.15,15.64,15.64,0,0,1,1.69,6c1.69-7.9-1.52-10.76-3.69-12.94a7.42,7.42,0,0,1,.79,4.64C259,54.8,252.47,53.35,252.47,53.35Z" transform="translate(0 -14.91)" style="fill:#5cdb95"/><path d="M200.46,22.91c9.7-.32,19.08,6.24,19.08,6.24C217.71,22.83,209.6,21.24,200.46,22.91Z" transform="translate(0 -14.91)" style="fill:#6b2f48"/><path d="M180,37c-1,7,.7,10.25.7,10.25a9.8,9.8,0,0,1-3.19-3.06,12.56,12.56,0,0,0-2.74,6.75c-3.33-3.59,1.35-10.36,1.35-10.36l1.59,1.64S177.86,37.91,180,37Z" transform="translate(0 -14.91)" style="fill:#e0978d"/><path d="M251.66,44.41c9.44,9.35,10,11,10,11C252.22,51.51,251.66,44.41,251.66,44.41Z" transform="translate(0 -14.91)" style="fill:#5cdb95"/><path d="M248.91,48.36c-2.52-1.55-6.93-11.72-14.37-14.25a29,29,0,0,0-5.94-1.37c5.94,1.37,10.91,6.43,11.25,7a27.6,27.6,0,0,0-5.09-1.27s8.66,5.37,12.82,9.26c.43.23.87.44,1.33.65Z" transform="translate(0 -14.91)" style="fill:#5cdb95"/><path d="M264.5,75.29l-.57,9.2s-3.43-9.25-3-9.2c1.33.19,2.31,3.18,2.31,3.18S262.22,75.48,264.5,75.29Z" transform="translate(0 -14.91)" style="fill:#5cdb95"/><path d="M193,25.72c-2.72,0-5.89,3.43-5.89,3.43a14.46,14.46,0,0,1,8-6.5h0c-4.29.74-11.09,3.26-13,13.42,0,0,2.33-4.47,5.41-5.5,0,0-3.92,4.4-3.84,9.59a15.21,15.21,0,0,0,.25,2v0C185.26,32,193,25.72,193,25.72Z" transform="translate(0 -14.91)" style="fill:#e0978d"/><path d="M171.21,58,167,68.38C174,65,170.51,58,171.21,58Z" transform="translate(0 -14.91)" style="fill:#e0978d"/></g><polygon points="165.49 429.8 227.63 538.19 275.34 424.87 257.9 431.88 196.84 433.86 165.49 429.8" style="fill:#001730"/><path d="M1161.68,159.75h-122a37.18,37.18,0,0,0-19.54,5.65c-.64.39-1.27.79-1.89,1.22a44.85,44.85,0,0,0-5.58-3.05,41.57,41.57,0,0,0-17.44-3.82h-9l-.56.05-.62.06-.2,0-.58.05-.54,0-.52.1-.58.1a50.19,50.19,0,0,0-22.5,10.47,55.86,55.86,0,0,0-15.48,19.65l-8.38,17.29-8.42-17.37A55.13,55.13,0,0,0,912,170.47a51.26,51.26,0,0,0-22.4-10.29l-1.17-.21-1.07-.19h-2.28l-8.05,0h0a41.27,41.27,0,0,0-17.94,4,47.17,47.17,0,0,0-5.75,3.28,45.65,45.65,0,0,0-6.21-3.45,41.54,41.54,0,0,0-17.44-3.82h-9l-.56.05-.62.06-.19,0-.59.05-.53,0-.53.1-.58.1a50.28,50.28,0,0,0-22.5,10.47,55.84,55.84,0,0,0-15.47,19.65l-8.39,17.29-8.42-17.37a55.13,55.13,0,0,0-15.79-19.75,51.27,51.27,0,0,0-22.39-10.29l-1.17-.21-1.08-.19h-2.28l-8,0h-.06c-1.26,0-2.5.05-3.73.16v-.16H419.15L415.5,165l-4,5.68-13.11,18.74V159.75H316V375.39h82.4V345.88l48.27,69.21,4,5.7L454.3,426h89.91V375.39H750.76V371a37.9,37.9,0,0,0,17.65,4.35H773a38.06,38.06,0,0,0,17.65-4.73v4.73H916.31V371A37.9,37.9,0,0,0,934,375.39h4.56c5.72,0,11.49-1.55,17.65-4.73v4.73h174.88a37.18,37.18,0,0,0,19.54-5.65,46.06,46.06,0,0,0,12.32-11,54.68,54.68,0,0,0,7.44-12.83,45.89,45.89,0,0,0,3.54-17.65V159.75ZM479.86,252.9l12.49-18.08,3.88-5.63V252.9Z" transform="translate(0 -14.91)" style="fill:url(#bbe99033-cee8-4e18-9632-6c441c4ec0b7)"/><path d="M1148.36,172H1039.67a25.19,25.19,0,0,0-13.2,3.87,33.73,33.73,0,0,0-8,6.91c-.45-.51-.89-1-1.37-1.5a32.68,32.68,0,0,0-9.51-6.58,29.36,29.36,0,0,0-12.34-2.7h-8.46l-.61.05-.2,0-.59.05-.57.11a38,38,0,0,0-17.06,8,43.61,43.61,0,0,0-12.1,15.4l-9.83,20.28-2.28,4.7h0l-3.64,7.51-3.64,7.5L936,235h0l-5.72-11.8L929,220.57h0l-2.28-4.7-9.85-20.32a43.05,43.05,0,0,0-12.33-15.46,39,39,0,0,0-17.06-7.89l-1.17-.21H877a29.16,29.16,0,0,0-12.68,2.8,33.11,33.11,0,0,0-9.17,6.49c-.64.63-1.24,1.3-1.81,2-.59-.69-1.19-1.35-1.83-2a32.77,32.77,0,0,0-9.5-6.58,29.44,29.44,0,0,0-12.35-2.7h-8.46l-.61.05-.2,0-.58.05-.58.11a38.07,38.07,0,0,0-17.06,8,43.73,43.73,0,0,0-12.1,15.4l-9.83,20.28-2.28,4.7h0l-1.16,2.4L771,235h0l-.28.57-3.64-7.5-3.64-7.51h0l-2.28-4.7-9.85-20.32A43,43,0,0,0,739,180.09a39.14,39.14,0,0,0-17.05-7.89l-1.17-.21h-9.27a29.19,29.19,0,0,0-12.68,2.8,32.35,32.35,0,0,0-3.26,1.82V172H508.45v93.15h-43v17.73l-10.57-15.22,2.32-3.36,25.13-36.39L496.73,207V172H425.51l-4,5.68L396.06,214l-4.57,6.53H386.2V172h-58V363.18h58v-48.1h5.62l64.88,93,4,5.7H532v-35l-10.83-15.6H738.55V338c1.65,2.94,3.08,5.43,4.26,7.45l.05.09,0,.08c4.25,7,7.75,11.06,11.7,13.56a25.71,25.71,0,0,0,13.8,4H773c3.79,0,7.63-1.08,12.09-3.4,4.77-2.46,9-7,13.42-14.19l0-.09.06-.09q1.75-3,4.25-7.44v25.21H904.1V338c1.65,2.95,3.08,5.44,4.26,7.45l0,.09.05.08c4.25,7,7.74,11.06,11.69,13.56a25.74,25.74,0,0,0,13.81,4h4.56c3.78,0,7.62-1.08,12.09-3.4,4.76-2.46,9-7,13.41-14.19l.06-.09,0-.09q1.77-3,4.25-7.44v25.21h162.67a25.15,25.15,0,0,0,13.19-3.88,34,34,0,0,0,9.06-8.11,42.8,42.8,0,0,0,5.77-10,33.8,33.8,0,0,0,2.61-13V172ZM636.55,265.12l.74-.84v.84Zm-113.16,5.11V270h.19Z" transform="translate(0 -14.91)" style="fill:#001730"/><path d="M1006.86,191.46a18.19,18.19,0,0,0-5.31-3.67,15.18,15.18,0,0,0-6.33-1.39h-7.85a23.79,23.79,0,0,0-10.63,5.06,29.26,29.26,0,0,0-8.1,10.38l-9.08,18.73h52.37V202.35a13.14,13.14,0,0,0-1.4-5.7A18.73,18.73,0,0,0,1006.86,191.46Z" transform="translate(0 -14.91)" style="fill:url(#bfeed1be-c6c9-45bd-b8bd-0733bb5f69ef)"/><path d="M936.24,268.67,919.92,235H860.55v78.72h29.11V242.59q9.62,21.53,18.23,37.34t12.91,23.16q4.31,7.1,7.09,8.86a11.08,11.08,0,0,0,6.07,1.77h4.56A12.89,12.89,0,0,0,944,312q3.42-1.77,7.72-8.86,4.3-7.33,12.91-23.16t18.23-37.34v71.13h29.11V235H952.56Z" transform="translate(0 -14.91)" style="fill:url(#eb1bc438-d893-43ba-80bc-94c0f1be12ba)"/><rect x="651.72" y="220.09" width="29.36" height="78.72" style="fill:url(#bfcb9612-993b-43ef-903f-797cd2a17582)"/><path d="M770.69,268.67,754.37,235H695v78.72h29.11V242.59q9.61,21.53,18.22,37.34t12.91,23.16q4.31,7.1,7.09,8.86a11.08,11.08,0,0,0,6.07,1.77H773a12.89,12.89,0,0,0,5.44-1.77q3.42-1.77,7.72-8.86,4.3-7.33,12.91-23.16t18.23-37.34v71.13h29.11V235H787Z" transform="translate(0 -14.91)" style="fill:url(#aac26c69-21c7-4938-bbec-8e39a0e559a0)"/><rect x="479.85" y="264.64" width="29.11" height="34.17" style="fill:url(#efd409ca-db61-46a6-96f6-3a308fd36410)"/><path d="M613.06,235H573.7L528,286.89a15.73,15.73,0,0,0-3.8,7.09,29.22,29.22,0,0,0-1.27,7.59v12.15H637.55V279.55H574Z" transform="translate(0 -14.91)" style="fill:url(#ac9d6d26-b8bd-4479-86c8-5a826f51ee02)"/><polygon points="435.66 220.09 342.65 220.09 342.65 298.81 371.76 298.81 371.76 250.72 399.36 250.72 468.21 349.44 504.41 349.44 425.18 235.28 435.66 220.09" style="fill:url(#bdc22f52-9d0e-4009-a4b1-422ff6a5f4bf)"/><path d="M730.06,191.46a24.65,24.65,0,0,0-10.75-5.06h-7.85a14.88,14.88,0,0,0-6.46,1.39,18.54,18.54,0,0,0-5.18,3.67,16.66,16.66,0,0,0-3.55,5.19,14.28,14.28,0,0,0-1.26,5.7v18.22h52.36l-9.08-18.73A28.6,28.6,0,0,0,730.06,191.46Z" transform="translate(0 -14.91)" style="fill:url(#a45646b8-3949-4a14-9588-f34b7c4b7f76)"/><rect x="651.72" y="171.49" width="29.36" height="34.17" style="fill:url(#be9d76b5-5fda-4f1a-985e-1aab9a1190e1)"/><polygon points="409.1 205.66 445.63 205.66 469.22 171.49 433.02 171.49 409.1 205.66" style="fill:url(#ac50df80-4233-4b15-875e-0c10e99542ba)"/><path d="M841.32,191.46a18.1,18.1,0,0,0-5.32-3.67,15.15,15.15,0,0,0-6.33-1.39h-7.84a23.83,23.83,0,0,0-10.64,5.06,29.26,29.26,0,0,0-8.1,10.38L794,220.57h52.37V202.35a13.26,13.26,0,0,0-1.39-5.7A18.73,18.73,0,0,0,841.32,191.46Z" transform="translate(0 -14.91)" style="fill:url(#b11c942b-a9ef-4ada-8da3-8712443835fc)"/><path d="M895.61,191.46a24.69,24.69,0,0,0-10.76-5.06H877a14.88,14.88,0,0,0-6.46,1.39,18.73,18.73,0,0,0-5.19,3.67,16.63,16.63,0,0,0-3.54,5.19,14.13,14.13,0,0,0-1.27,5.7v18.22h52.37l-9.08-18.73A28.71,28.71,0,0,0,895.61,191.46Z" transform="translate(0 -14.91)" style="fill:url(#a8d90d8f-d0bd-4b91-8a6a-13e959fc7316)"/><path d="M522.88,220.57H625.71l5.77-6.58a17.31,17.31,0,0,0,4.43-7.72,30.11,30.11,0,0,0,1.64-8.73V186.4H522.88Z" transform="translate(0 -14.91)" style="fill:url(#bf90177b-11a2-47a5-9fcb-62c4f73d67b3)"/><rect x="342.65" y="171.49" width="29.11" height="34.17" style="fill:url(#ecce31be-fe33-41fa-8be1-e42cbf6bf4ef)"/><path d="M651.72,252s2.27-9.41,18.44-9.17a15.55,15.55,0,0,1,10.93,4.62V235H651.72Zm94.34-8.69a23.82,23.82,0,0,1,10.53-3.74L754.37,235H695v19.27c.68-1.48,5.22-9.78,22.74-13.4,19.27-4,24.5,8.63,31.64,6s11.89.71,14.51,8.32c0-.14,0-.27.07-.41l-4.55-9.39C756.38,244.39,750.65,242.77,746.06,243.32Zm165.82-2.62a51.46,51.46,0,0,1,10.92.25L919.92,235H860.55v17.43s9.93-13.34,31.82-13.13,37.35,16.15,37.35,16.15l-4-8.57S917.35,241.89,911.88,240.7Zm31.42,13.41c5-4.1,14.5-10.78,24-11.27,13.66-.7,8.85,14.12,8.75,14.43q3.32-7,6.76-14.68v9.78s6.38-14.52,24.23-8.81a33.5,33.5,0,0,1,4.88,2V235H952.56ZM558.7,252h0s11.54-9.88,27.72-10.12c8-.12,12.46,3.11,15,6.41L613.06,235H573.7Zm219.87.42s19.2-12.75,42-11.05,25.81,22.16,25.81,22.16v-10s-2.07-8.33-9.2-11a23.71,23.71,0,0,1,9.2,3.88V235H787ZM1116.28,235h-39.37l-12,13.62,2.09-.78s17.13-7.14,28.55-6.19c7.54.63,8.23,5.1,7.83,8.06Zm-685.72,7.39,5.1-7.39h-93v21.22c13-16.82,63.75-21.45,91.52,6.93l-4.49-6.48h0s-9.54-11.43-18.82-13.93C416.62,240.05,423.76,240.59,430.56,242.39Z" transform="translate(0 -14.91)" style="fill:url(#bbf562c2-f146-4670-96be-7d65d0541ae8)"/><path d="M650.61,314.83H682.2V233.89H650.61Zm27.15-76.5v72.06H655.05V238.33Z" transform="translate(0 -14.91)" style="fill:url(#f1deb6d2-0e17-4d70-87af-1369eda725e6)"/><path d="M936.24,266.12l-15.63-32.23H859.44v80.94h31.33V247.76c5.64,12.37,11.06,23.36,16.14,32.7,5.72,10.51,10.07,18.32,12.94,23.21s5.42,7.94,7.44,9.22a12.24,12.24,0,0,0,6.67,1.94h4.56a13.8,13.8,0,0,0,6-1.89c2.48-1.28,5.15-4.32,8.17-9.29,2.86-4.87,7.21-12.68,12.93-23.19,5.08-9.34,10.5-20.33,16.13-32.71v67.08H1013V233.89H951.87Zm72.35-27.79v72.06H986.15V238.33Zm-27.52,0-1.3,2.9c-6.35,14.21-12.44,26.69-18.11,37.11s-10,18.2-12.83,23c-3.33,5.48-5.44,7.14-6.41,7.64-2.49,1.29-3.62,1.39-3.9,1.39H934a7.78,7.78,0,0,1-4.29-1.25c-.79-.5-2.63-2.18-6-7.73-2.84-4.85-7.17-12.61-12.86-23.07s-11.75-22.89-18.11-37.1l-1.29-2.91h26.42l18.41,38,18.41-38Zm-94.74,0v72.06H863.88V238.33Z" transform="translate(0 -14.91)" style="fill:url(#ab96bae1-ba83-4aa6-84bc-df82a27dd1dc)"/><path d="M770.69,266.12l-15.63-32.23H693.9v80.94h31.33V247.76c5.63,12.37,11,23.36,16.14,32.7,5.71,10.51,10.06,18.32,12.93,23.21s5.43,7.94,7.44,9.22a12.24,12.24,0,0,0,6.67,1.94H773a13.77,13.77,0,0,0,5.95-1.89c2.48-1.28,5.15-4.32,8.17-9.29C790,298.78,794.3,291,800,280.46c5.08-9.34,10.5-20.33,16.14-32.71v67.08h31.33V233.89H786.32Zm-72.35,44.27V238.33h22.45v72.06Zm144.71-72.06v72.06H820.6V238.33Zm-27.52,0-1.3,2.9c-6.36,14.22-12.45,26.7-18.11,37.11s-10,18.2-12.83,23c-3.33,5.48-5.45,7.14-6.41,7.64-2.5,1.29-3.62,1.39-3.91,1.39h-4.56a7.81,7.81,0,0,1-4.29-1.25c-.79-.5-2.63-2.18-6-7.73-2.83-4.83-7.15-12.59-12.85-23.07s-11.76-22.9-18.11-37.1l-1.3-2.91h26.42l18.41,38,18.41-38Z" transform="translate(0 -14.91)" style="fill:url(#bef48020-2ff4-4573-84ba-3b88b171df61)"/><path d="M478.74,314.83h31.33V278.44H478.74Zm26.89-31.95v27.51H483.18V282.88Z" transform="translate(0 -14.91)" style="fill:url(#a1454ad1-a75d-4220-9206-47ad7bba8356)"/><path d="M615.51,233.89H573.2l-46,52.22a16.82,16.82,0,0,0-4.08,7.57,30.43,30.43,0,0,0-1.31,7.89v13.26H638.66V278.44h-62.2Zm-9.8,4.44-39,44.55h67.55v27.51h-108v-8.82a26.34,26.34,0,0,1,1.15-6.7,12.6,12.6,0,0,1,3-5.67l44.85-50.87Z" transform="translate(0 -14.91)" style="fill:url(#abd18551-4462-44c5-b25c-0241844b72f9)"/><path d="M437.78,233.89H341.54v80.94h31.34V266.74h25.9l68.85,98.72h38.9l-80-115.27ZM470,361l-67.86-97.29-1-1.43H368.43v48.09H346V238.33h83.33l-8.2,11.86L498,361Z" transform="translate(0 -14.91)" style="fill:url(#a8730546-3ea0-4315-aeba-97507cc722a3)"/><path d="M739.29,201.36a30,30,0,0,0-8.54-10.77,25.79,25.79,0,0,0-11.24-5.28l-8,0a15.85,15.85,0,0,0-6.93,1.5,19.89,19.89,0,0,0-5.5,3.89,18,18,0,0,0-3.78,5.53,15.36,15.36,0,0,0-1.35,6.14v19.33h55.25Zm-27.83-11.63H719a21.58,21.58,0,0,1,9,4.36,25.48,25.48,0,0,1,7.28,9.2l6.77,14H698.34V202.35a10.94,10.94,0,0,1,1-4.37,13.38,13.38,0,0,1,2.84-4.16,15.25,15.25,0,0,1,4.27-3A11.52,11.52,0,0,1,711.46,189.73Z" transform="translate(0 -14.91)" style="fill:url(#bdd153e5-e0e5-4d92-8978-1f9028af88c0)"/><path d="M650.61,221.68H682.2V185.29H650.61Zm27.15-32v27.51H655.05V189.73Z" transform="translate(0 -14.91)" style="fill:url(#f1deb6d2-0e17-4d70-87af-1369eda725e6)"/><path d="M471.34,185.29H432.45L407,221.68h39.24Zm-55.84,32,19.26-27.51h28.11l-19,27.51Z" transform="translate(0 -14.91)" style="fill:url(#e2a89767-4c1e-49a8-9c76-a197049e9837)"/><path d="M842.1,190.68a19.14,19.14,0,0,0-5.64-3.9,16.21,16.21,0,0,0-6.79-1.49h-7.84l-.2,0a24.91,24.91,0,0,0-11.13,5.28,30.54,30.54,0,0,0-8.41,10.77l-9.85,20.32h55.25V202.35a14.45,14.45,0,0,0-1.5-6.18A19.9,19.9,0,0,0,842.1,190.68Zm-12.43-1a11.84,11.84,0,0,1,4.94,1.09,14.87,14.87,0,0,1,4.35,3,15.41,15.41,0,0,1,3,4.26,10,10,0,0,1,1.07,4.27v14.89H799.33l6.77-14a26.2,26.2,0,0,1,7.17-9.22,20.88,20.88,0,0,1,8.87-4.33Z" transform="translate(0 -14.91)" style="fill:url(#b810296e-b99e-4026-a295-3e30583e8139)"/><path d="M1007.65,190.68a19.27,19.27,0,0,0-5.64-3.9,16.24,16.24,0,0,0-6.79-1.49h-7.85l-.2,0a24.88,24.88,0,0,0-11.12,5.28,30.54,30.54,0,0,0-8.41,10.77l-9.85,20.32H1013V202.35a14.32,14.32,0,0,0-1.51-6.18A19.87,19.87,0,0,0,1007.65,190.68Zm-.13,7.4a10,10,0,0,1,1.07,4.27v14.89H964.87l6.77-14a26.22,26.22,0,0,1,7.18-9.22,20.88,20.88,0,0,1,8.87-4.33h7.53a11.84,11.84,0,0,1,4.94,1.09,15,15,0,0,1,4.35,3A15.38,15.38,0,0,1,1007.52,198.08Z" transform="translate(0 -14.91)" style="fill:url(#b2d88202-d907-4fc2-8d57-541ebf4ddde1)"/><path d="M904.84,201.36a29.87,29.87,0,0,0-8.55-10.77,25.74,25.74,0,0,0-11.24-5.28l-8,0a15.92,15.92,0,0,0-6.94,1.5,19.84,19.84,0,0,0-5.49,3.89,17.79,17.79,0,0,0-3.78,5.53,15.34,15.34,0,0,0-1.36,6.14v19.33h55.25Zm-4,1.93,6.76,14H863.88V202.35a11,11,0,0,1,1-4.37,13.41,13.41,0,0,1,2.85-4.16,15.25,15.25,0,0,1,4.27-3,11.52,11.52,0,0,1,5-1.07h7.53a21.64,21.64,0,0,1,9,4.36A25.48,25.48,0,0,1,900.84,203.29Z" transform="translate(0 -14.91)" style="fill:url(#a7df1c07-f171-45b2-8000-6e7f8aac2390)"/><path d="M521.77,221.68H626.21l6.06-6.91a18.48,18.48,0,0,0,4.69-8.16,31.09,31.09,0,0,0,1.7-9.07V185.29H521.77Zm107.46-10.15-5,5.71h-98V189.73h108v7.81a26.86,26.86,0,0,1-1.49,7.72A14.26,14.26,0,0,1,629.23,211.53Z" transform="translate(0 -14.91)" style="fill:url(#abd18551-4462-44c5-b25c-0241844b72f9)"/><path d="M372.88,185.29H341.54v36.39h31.34Zm-4.45,4.44v27.51H346V189.73Z" transform="translate(0 -14.91)" style="fill:url(#bd3caff8-90a2-48b8-b5b5-107fc9d2ba2e)"/><path d="M1039.67,186.4a10.94,10.94,0,0,0-5.7,1.77,19.57,19.57,0,0,0-5.19,4.68,28.36,28.36,0,0,0-3.8,6.59,19.36,19.36,0,0,0-1.52,7.46v13.67h123.79V186.4Z" transform="translate(0 -14.91)" style="fill:url(#bd0d252a-332d-451c-922f-9e67dbfb1345)"/><path d="M1141.93,241a19.4,19.4,0,0,0-5.19-4.68A12.75,12.75,0,0,0,1134,235H1023.46v10.13a19.36,19.36,0,0,0,1.52,7.46,27.89,27.89,0,0,0,3.8,6.58,19.27,19.27,0,0,0,5.19,4.69,10.94,10.94,0,0,0,5.7,1.77h78.47v13.92h-93.08v34.17h106a10.84,10.84,0,0,0,5.69-1.77,19.4,19.4,0,0,0,5.19-4.68,27.75,27.75,0,0,0,3.8-6.58,19.45,19.45,0,0,0,1.52-7.47V255a19.45,19.45,0,0,0-1.52-7.47A27.94,27.94,0,0,0,1141.93,241Z" transform="translate(0 -14.91)" style="fill:url(#a83e448f-8db6-450c-b51d-3988447f8dc4)"/><path d="M1136.74,236.27A12.75,12.75,0,0,0,1134,235H1023.46v10.13a17.69,17.69,0,0,0,.26,2.91l.29.38c20.11-12.16,52.38-5.85,73.19-4.44s39.52-6.07,48.17,5.73c-.13-1.36-.27-2.65-.42-3.9a27.4,27.4,0,0,0-3-4.86A19.4,19.4,0,0,0,1136.74,236.27Z" transform="translate(0 -14.91)" style="fill:url(#ac45b066-f10f-4c91-bc91-9a57a21b8258)"/><path d="M1039.67,185.29a12.1,12.1,0,0,0-6.28,1.93,20.63,20.63,0,0,0-5.48,4.95,28.71,28.71,0,0,0-4,6.84,20.47,20.47,0,0,0-1.61,7.89v14.78h126V185.29Zm-4,5.73a7.69,7.69,0,0,1,4-1.29h104.24v27.51H1026.8V206.9a16.12,16.12,0,0,1,1.26-6.19,24.69,24.69,0,0,1,3.34-5.8A16,16,0,0,1,1035.7,191Z" transform="translate(0 -14.91)" style="fill:url(#ff4507ed-7cff-4555-92a9-882239d788bd)"/><path d="M1142.8,240.26a20.76,20.76,0,0,0-5.48-4.94,14,14,0,0,0-3-1.37l-.17-.06H1022.35v11.24A20.47,20.47,0,0,0,1024,253a28.71,28.71,0,0,0,4,6.84,20.46,20.46,0,0,0,5.48,4.95,12.07,12.07,0,0,0,6.28,1.93H1117v11.7H1024v36.4h107.1a12.11,12.11,0,0,0,6.27-1.94,20.59,20.59,0,0,0,5.48-4.94,28.58,28.58,0,0,0,4-6.85,20.39,20.39,0,0,0,1.61-7.89V255a20.43,20.43,0,0,0-1.61-7.89A29,29,0,0,0,1142.8,240.26ZM1135,309.11a7.76,7.76,0,0,1-4,1.28H1028.39V282.88h93.08V262.3h-81.8a7.66,7.66,0,0,1-4-1.29,16,16,0,0,1-4.3-3.89,24.69,24.69,0,0,1-3.34-5.8,16.12,16.12,0,0,1-1.26-6.19v-6.8h106.64a10.91,10.91,0,0,1,1.57.78,16.38,16.38,0,0,1,4.3,3.89,25.11,25.11,0,0,1,3.34,5.8,16.17,16.17,0,0,1,1.26,6.2v38.22a16.17,16.17,0,0,1-1.26,6.2,24.9,24.9,0,0,1-3.34,5.8A16.38,16.38,0,0,1,1135,309.11Z" transform="translate(0 -14.91)" style="fill:url(#ff4507ed-7cff-4555-92a9-882239d788bd)"/></g></g></svg>