<svg width="800" height="568" viewBox="0 0 800 568" fill="none" xmlns="http://www.w3.org/2000/svg">
<g clip-path="url(#clip0)">
<path d="M671.151 219.388C678.466 158.666 680.641 87.7876 610.731 30.7885C540.82 -26.2106 395.698 7.10877 305.978 41.5323C216.257 75.9558 224.764 162.002 219.665 216.882C214.565 271.761 192.476 256.681 124.603 258.366C56.7308 260.05 60.1546 322.304 69.4191 362.176C78.6836 402.048 141.183 566.509 141.183 566.509H714.114C714.114 566.509 756.989 544.989 775.268 445.612C793.547 346.234 663.82 280.119 671.151 219.388ZM748.57 479.721C741.4 497.831 724.732 518.086 711.472 509.123C698.212 500.16 717.022 488.627 715.057 472.789C712.511 452.382 724.555 431.491 736.558 440.808C748.562 450.125 755.732 461.618 748.57 479.729V479.721Z" fill="white"/>
<path opacity="0.1" d="M671.151 219.388C678.466 158.666 680.641 87.7876 610.731 30.7885C540.82 -26.2106 395.698 7.10877 305.978 41.5323C216.257 75.9558 224.764 162.002 219.665 216.882C214.565 271.761 192.476 256.681 124.603 258.366C56.7308 260.05 60.1546 322.304 69.4191 362.176C78.6836 402.048 141.183 566.509 141.183 566.509H714.114C714.114 566.509 756.989 544.989 775.268 445.612C793.547 346.234 663.82 280.119 671.151 219.388ZM748.57 479.721C741.4 497.831 724.732 518.086 711.472 509.123C698.212 500.16 717.022 488.627 715.057 472.789C712.511 452.382 724.555 431.491 736.558 440.808C748.562 450.125 755.732 461.618 748.57 479.729V479.721Z" fill="url(#paint0_linear)"/>
<path d="M612.511 369.769C612.511 369.769 556.602 389.507 537.96 461.538C519.319 533.568 580.657 482.493 580.657 482.493C580.657 482.493 615.025 452.309 612.511 369.769Z" fill="url(#paint1_linear)"/>
<path opacity="0.1" d="M598.002 396.962L612.326 391.248L599.251 394.649C603.73 386.391 608.15 378.097 612.511 369.769C608.897 375.679 605.322 381.59 601.788 387.5L597.575 377.377L600.645 389.467C598.179 393.61 595.725 397.755 593.281 401.903L592.693 402.895L582.744 388.21L592.065 403.966L588.52 409.971L584.339 417.225L573.544 397.446L583.332 418.966L574.833 433.683L561.138 411.575L573.689 435.754C570.601 441.085 567.55 446.431 564.537 451.793L551.502 426.913L563.119 454.147C560.745 458.381 558.374 462.618 556.006 466.857L551.599 474.917L542.552 446.643L549.851 478.117L547.023 483.291C545.525 486.024 544.083 488.796 542.609 491.545C541.134 494.293 539.684 497.057 538.258 499.83L539.12 500.322C540.732 497.67 542.343 495.002 543.954 492.326C545.565 489.65 547.176 486.991 548.788 484.267L558.253 468.147L560.823 463.666L597.575 456.992L562.459 460.877C565.273 455.966 568.068 451.052 570.845 446.135L605.011 437.1L572.408 443.443C573.874 440.827 575.335 438.199 576.79 435.561L580.504 428.887L608.523 422.794L582.196 425.849L585.886 419.2L589.374 412.905L611.27 405.03L590.776 410.366L594.892 402.79C595.924 400.85 596.96 398.908 598.002 396.962Z" fill="white"/>
<path d="M587.779 557.74C587.779 557.74 591.227 558.723 595.448 560.045C604.454 555.779 612.964 550.535 620.825 544.409L603.102 533.931L628.551 538.05C636.698 530.936 644.275 523.193 651.212 514.894L635.479 512.218L654.66 510.687C658.511 505.899 662.394 500.717 666.293 495.083C666.293 495.083 650.818 490.368 627.818 492.536L610.771 504.005L617.546 493.914C607.067 495.756 596.843 498.832 587.086 503.078L563.723 527.258L567.985 513.137C562.383 516.652 557.002 520.509 551.873 524.687C494.135 571.595 573.794 566.928 573.794 566.928C573.794 566.928 579.505 566.436 588.963 562.793L587.779 557.74Z" fill="url(#paint2_linear)"/>
<g style="mix-blend-mode:multiply" opacity="0.5">
<path style="mix-blend-mode:multiply" opacity="0.5" d="M612.116 502.127L617.578 494.003L616.773 494.156L610.827 503.022L612.116 502.127Z" fill="url(#paint3_linear)"/>
<path style="mix-blend-mode:multiply" opacity="0.5" d="M564.215 525.718L568.009 513.169L567.607 513.435L563.748 526.21L564.215 525.718Z" fill="url(#paint4_linear)"/>
<path style="mix-blend-mode:multiply" opacity="0.5" d="M573.802 565.888C573.802 565.888 531.797 568.306 530.911 551.719C530.009 569.523 573.802 566.96 573.802 566.96C573.802 566.96 579.513 566.469 588.971 562.826L588.737 561.842C579.425 565.397 573.802 565.888 573.802 565.888Z" fill="url(#paint5_linear)"/>
<path style="mix-blend-mode:multiply" opacity="0.5" d="M595.448 558.997C591.227 557.667 587.779 556.692 587.779 556.692L588.053 557.845C588.931 558.094 591.912 558.965 595.448 560.069C604.454 555.803 612.964 550.559 620.825 544.433L620.019 543.958C612.386 549.83 604.149 554.871 595.448 558.997Z" fill="url(#paint6_linear)"/>
<path style="mix-blend-mode:multiply" opacity="0.5" d="M654.693 509.663L635.511 511.194L639.821 511.92L654.693 510.735C658.543 505.947 662.426 500.765 666.326 495.131L665.689 494.954C662.005 500.23 658.339 505.133 654.693 509.663Z" fill="url(#paint7_linear)"/>
<path style="mix-blend-mode:multiply" opacity="0.5" d="M628.583 537.026L603.134 532.908L605.647 534.391L628.583 538.098C636.73 530.984 644.307 523.242 651.245 514.942L650.439 514.805C643.723 522.752 636.417 530.18 628.583 537.026Z" fill="url(#paint8_linear)"/>
</g>
<g opacity="0.15">
<path opacity="0.15" d="M536.035 555.781L535.447 554.975C536.075 554.524 598.51 509.671 666.213 494.648L666.43 495.615C598.92 510.598 536.655 555.322 536.035 555.781Z" fill="white"/>
</g>
<path d="M583.574 514.015C594.401 512.516 603.19 514.426 610.159 517.747C614.491 513.273 618.357 508.369 621.695 503.11C613.51 504.908 605.47 504.263 605.011 495.051C604.35 481.905 620.865 482.09 631.25 483.485C633.251 477.837 634.792 472.037 635.858 466.14C628.8 469.694 617.224 474.2 618.392 464.528C619.56 454.856 630.42 458.177 636.679 461.022C638.991 444.137 637.05 431.733 637.05 431.733C630.273 432.606 623.55 433.852 616.91 435.464C617.047 438.688 616.587 442.718 613.389 442.718C610.497 442.718 610.352 439.752 610.811 437.076C605.893 438.486 601.053 440.154 596.31 442.073C598.937 446.667 601.506 455.009 591.912 462.32C582.019 469.872 583.195 456.226 584.766 447.417C552.155 464.584 543.841 488.143 543.841 488.143L541.44 550.486C554.168 548.504 566.584 544.876 578.377 539.694C568.614 529.53 563.925 516.748 583.574 514.015Z" fill="url(#paint9_linear)"/>
<g style="mix-blend-mode:multiply" opacity="0.5">
<path style="mix-blend-mode:multiply" opacity="0.5" d="M583.687 456.097C583.827 453.168 584.169 450.251 584.71 447.369L584.323 447.578C583.856 450.393 583.643 453.244 583.687 456.097Z" fill="url(#paint10_linear)"/>
<path style="mix-blend-mode:multiply" opacity="0.5" d="M597.164 441.678L596.254 442.033C597.551 444.225 598.357 446.672 598.614 449.206C598.777 446.615 598.278 444.024 597.164 441.678Z" fill="url(#paint11_linear)"/>
<path style="mix-blend-mode:multiply" opacity="0.5" d="M610.787 437.028L610.594 437.092C610.598 437.381 610.62 437.669 610.658 437.955C610.69 437.649 610.731 437.334 610.787 437.028Z" fill="url(#paint12_linear)"/>
<path style="mix-blend-mode:multiply" opacity="0.5" d="M610.151 515.595C603.19 512.274 594.401 510.364 583.566 511.871C572.932 513.346 569.435 517.771 569.999 523.155C570.531 518.795 574.398 515.329 583.566 514.048C594.393 512.548 603.182 514.459 610.151 517.779C614.483 513.305 618.349 508.401 621.687 503.143C621.139 503.264 620.599 503.368 620.076 503.465C617.117 507.782 613.797 511.84 610.151 515.595Z" fill="url(#paint13_linear)"/>
<path style="mix-blend-mode:multiply" opacity="0.5" d="M541.521 548.286L541.44 550.454C554.168 548.472 566.584 544.844 578.378 539.662C577.889 539.151 577.413 538.635 576.952 538.114C565.605 542.952 553.705 546.368 541.521 548.286Z" fill="url(#paint14_linear)"/>
<path style="mix-blend-mode:multiply" opacity="0.5" d="M636.671 458.814C630.412 455.968 619.568 452.551 618.384 462.32C618.288 463.085 618.288 463.859 618.384 464.625C618.384 464.568 618.384 464.52 618.384 464.472C619.568 454.703 630.412 458.12 636.671 460.966C637.468 455.108 637.845 449.201 637.799 443.29C637.751 448.483 637.375 453.668 636.671 458.814Z" fill="url(#paint15_linear)"/>
<path style="mix-blend-mode:multiply" opacity="0.5" d="M631.241 481.309C620.857 479.914 604.342 479.697 605.003 492.874C605.003 492.995 605.003 493.092 605.003 493.205C605.921 481.921 621.333 482.131 631.209 483.461C633.211 477.813 634.752 472.012 635.817 466.116L635.358 466.35C634.338 471.426 632.962 476.425 631.241 481.309Z" fill="url(#paint16_linear)"/>
</g>
<path opacity="0.15" d="M555.756 521.656C561.395 514.644 567.252 507.833 573.222 501.111C579.191 494.39 585.306 487.805 591.332 481.147L600.419 471.193L609.587 461.312C615.666 454.708 621.821 448.164 628.051 441.678C622.267 448.561 616.437 455.402 610.561 462.199L601.788 472.386L592.927 482.509C586.973 489.247 581.1 496.042 575.074 502.707C569.049 509.373 562.926 515.958 556.546 522.325L555.756 521.656Z" fill="white"/>
<path d="M90.1555 317.557C90.1555 317.557 57.4559 367.044 86.0146 435.746C114.573 504.448 132.74 426.711 132.74 426.711C132.74 426.711 141.916 381.874 90.1555 317.557Z" fill="url(#paint17_linear)"/>
<path opacity="0.1" d="M94.981 347.991L102.957 334.797L94.5782 345.396C93.1684 336.103 91.7183 326.818 90.1554 317.541C90.8268 324.429 91.5438 331.307 92.3064 338.174L82.8405 332.645L92.5561 340.415C93.0932 345.202 93.6303 349.99 94.1674 354.777L94.2963 355.922L77.5074 350.215L94.4252 357.155L95.2308 364.078L96.2619 372.38L75.727 363.119L96.5036 374.403L98.6063 391.272L74.3414 381.891L98.9124 393.585C99.6589 399.705 100.448 405.812 101.281 411.905L75.8801 399.92L101.66 414.638C102.309 419.474 102.97 424.283 103.641 429.065L104.987 438.148L80.7218 421.053L105.534 441.759L106.396 447.586C106.848 450.673 107.371 453.752 107.855 456.839C108.338 459.926 108.837 462.997 109.377 466.076L110.36 465.947C110.078 462.835 109.756 459.732 109.418 456.629C109.079 453.526 108.781 450.415 108.419 447.32L106.235 428.726L105.583 423.6L130.831 396.14L105.156 420.425C104.436 414.815 103.703 409.211 102.957 403.612L124.708 375.805L102.546 400.573C102.132 397.591 101.716 394.612 101.297 391.635L100.226 384.075L118.908 362.313L99.7422 380.633L98.6868 373.105L97.6717 365.916L110.368 346.452L97.2448 363.071L95.9558 354.544C95.6497 352.359 95.3033 350.175 94.981 347.991Z" fill="white"/>
<path d="M185.209 470.025C185.209 470.025 188.544 468.719 192.709 467.236C197.326 458.399 200.954 449.079 203.529 439.446L183.123 441.783L205.897 429.693C208.107 419.101 209.484 408.351 210.014 397.543L195.851 404.901L210.263 392.135C210.449 385.993 210.425 379.513 210.135 372.67C210.135 372.67 194.949 378.239 177.91 393.843L171.224 413.284L170.547 401.146C163.298 408.938 156.994 417.56 151.768 426.832L147.66 460.216L142.592 446.377C140.229 452.564 138.254 458.893 136.679 465.326C118.9 537.574 179.634 485.79 179.634 485.79C179.634 485.79 183.896 481.945 189.237 473.337L185.209 470.025Z" fill="url(#paint18_linear)"/>
<g style="mix-blend-mode:multiply" opacity="0.5">
<path style="mix-blend-mode:multiply" opacity="0.5" d="M171.063 410.922L170.515 401.146C170.321 401.347 170.136 401.565 169.951 401.766L170.539 412.429L171.063 410.922Z" fill="url(#paint19_linear)"/>
<path style="mix-blend-mode:multiply" opacity="0.5" d="M147.096 458.677L142.592 446.377L142.423 446.829L147.047 459.354L147.096 458.677Z" fill="url(#paint20_linear)"/>
<path style="mix-blend-mode:multiply" opacity="0.5" d="M178.958 484.927C178.958 484.927 146.927 512.234 136.204 499.508C146.21 514.249 179.602 485.806 179.602 485.806C179.602 485.806 183.864 481.961 189.205 473.353L188.399 472.709C183.147 481.172 178.958 484.927 178.958 484.927Z" fill="url(#paint21_linear)"/>
<path style="mix-blend-mode:multiply" opacity="0.5" d="M192.065 466.374C187.9 467.865 184.557 469.162 184.557 469.162L185.467 469.92C186.329 469.59 189.221 468.477 192.717 467.236C197.334 458.399 200.962 449.079 203.537 439.446L202.61 439.551C200.058 448.841 196.523 457.833 192.065 466.374Z" fill="url(#paint22_linear)"/>
<path style="mix-blend-mode:multiply" opacity="0.5" d="M209.587 391.272L195.207 404.071L199.082 402.048L210.263 392.135C210.449 385.993 210.425 379.513 210.135 372.67C210.135 372.67 209.917 372.743 209.522 372.904C209.753 379.346 209.775 385.469 209.587 391.272Z" fill="url(#paint23_linear)"/>
<path style="mix-blend-mode:multiply" opacity="0.5" d="M205.244 428.855L182.47 440.945L185.362 440.606L205.897 429.734C208.107 419.141 209.484 408.391 210.014 397.583L209.289 397.962C208.726 408.347 207.374 418.675 205.244 428.855Z" fill="url(#paint24_linear)"/>
</g>
<g opacity="0.15">
<path opacity="0.15" d="M142.737 499.661L141.779 499.363C142.004 498.629 164.771 425.212 209.724 372.34L210.481 372.993C165.665 425.672 142.955 498.903 142.737 499.661Z" fill="white"/>
</g>
<path d="M121.792 443.863C117.49 433.82 111.319 427.275 104.874 423.028C106.46 417.006 108.658 411.162 111.432 405.586C114.13 413.525 118.835 420.094 126.972 415.702C138.564 409.463 129.872 395.415 123.306 387.25C127.101 382.621 131.267 378.308 135.761 374.355C136.373 382.237 138.532 394.464 146.234 388.459C153.935 382.455 145.428 374.879 139.789 370.986C153.033 360.274 164.658 355.527 164.658 355.527C167.43 361.787 169.85 368.196 171.908 374.725C169.113 376.257 165.866 378.755 167.518 381.488C169.016 383.97 171.626 382.552 173.681 380.786C175.017 385.734 176.093 390.749 176.903 395.81C171.618 395.939 163.151 398.051 161.846 410.044C160.501 422.423 171.578 414.364 178.297 408.432C180.464 445.241 164.602 464.536 164.602 464.536L112.455 498.774C107.572 486.85 104.26 474.341 102.602 461.562C116.249 464.705 129.614 462.11 121.792 443.863Z" fill="url(#paint25_linear)"/>
<g style="mix-blend-mode:multiply" opacity="0.5">
<path style="mix-blend-mode:multiply" opacity="0.5" d="M171.304 413.832C173.736 412.194 176.054 410.393 178.241 408.44C178.241 408.593 178.241 408.738 178.241 408.883C176.082 410.738 173.761 412.395 171.304 413.832Z" fill="url(#paint26_linear)"/>
<path style="mix-blend-mode:multiply" opacity="0.5" d="M176.678 394.827C176.734 395.149 176.798 395.479 176.847 395.794C174.3 395.819 171.789 396.394 169.484 397.478C171.622 396.005 174.095 395.093 176.678 394.827Z" fill="url(#paint27_linear)"/>
<path style="mix-blend-mode:multiply" opacity="0.5" d="M173.608 380.77L173.657 380.964C173.399 381.109 173.141 381.246 172.851 381.359L173.608 380.77Z" fill="url(#paint28_linear)"/>
<path style="mix-blend-mode:multiply" opacity="0.5" d="M106.711 421.916C113.156 426.163 119.326 432.708 123.628 442.75C127.858 452.624 125.884 457.911 121.01 460.192C124.474 457.484 125.433 452.374 121.816 443.863C117.514 433.82 111.343 427.275 104.898 423.028C106.485 417.006 108.682 411.162 111.456 405.586C111.633 406.118 111.826 406.634 112.028 407.15C109.837 411.911 108.058 416.851 106.711 421.916Z" fill="url(#paint29_linear)"/>
<path style="mix-blend-mode:multiply" opacity="0.5" d="M114.211 497.597L112.398 498.782C107.516 486.858 104.204 474.349 102.546 461.57C103.23 461.731 103.915 461.868 104.6 461.997C106.328 474.214 109.556 486.171 114.211 497.597Z" fill="url(#paint30_linear)"/>
<path style="mix-blend-mode:multiply" opacity="0.5" d="M141.585 369.857C147.225 373.75 155.788 381.27 148.03 387.331C147.435 387.817 146.776 388.221 146.073 388.532L146.194 388.443C153.943 382.382 145.388 374.862 139.749 370.97C144.348 367.254 149.211 363.876 154.298 360.863C149.874 363.588 145.628 366.592 141.585 369.857Z" fill="url(#paint31_linear)"/>
<path style="mix-blend-mode:multiply" opacity="0.5" d="M125.143 386.138C131.709 394.303 140.401 408.351 128.817 414.589L128.51 414.726C137.702 408.101 129.55 395.02 123.306 387.25C127.101 382.621 131.267 378.308 135.761 374.355L135.809 374.862C131.993 378.365 128.429 382.133 125.143 386.138Z" fill="url(#paint32_linear)"/>
</g>
<path opacity="0.15" d="M129.638 471.637C132.724 463.19 135.527 454.647 138.194 446.063C140.86 437.479 143.342 428.847 145.911 420.231L149.73 407.335L153.452 394.375C155.949 385.746 158.366 377.09 160.702 368.407C157.802 376.918 154.964 385.448 152.187 393.996L148.022 406.812L143.946 419.667C141.263 428.243 138.484 436.794 135.89 445.394C133.296 453.994 130.831 462.642 128.639 471.379L129.638 471.637Z" fill="white"/>
<path d="M117.087 181.548C107.162 185.432 103.706 197.925 119.955 205.316C136.204 212.707 173.479 221.218 184.468 198.312C195.456 175.406 199.774 147.342 184.468 140.096C169.161 132.85 156.288 166.169 117.087 181.548Z" fill="white"/>
<path opacity="0.1" d="M117.087 181.548C107.162 185.432 103.706 197.925 119.955 205.316C136.204 212.707 173.479 221.218 184.468 198.312C195.456 175.406 199.774 147.342 184.468 140.096C169.161 132.85 156.288 166.169 117.087 181.548Z" fill="url(#paint33_linear)"/>
<path d="M724.37 194.379C699.508 192.799 691.759 229.705 708.934 262.75C726.11 295.796 748.361 291.266 750.157 265.168C751.954 239.071 770.966 197.337 724.37 194.379Z" fill="white"/>
<path opacity="0.1" d="M724.37 194.379C699.508 192.799 691.759 229.705 708.934 262.75C726.11 295.796 748.361 291.266 750.157 265.168C751.954 239.071 770.966 197.337 724.37 194.379Z" fill="url(#paint34_linear)"/>
<path d="M563.748 566.509H301.41V117.44L563.748 93.9695V566.509Z" fill="#DEDAEA"/>
<g style="mix-blend-mode:multiply" opacity="0.2">
<path d="M554.338 125.669V94.8077L301.41 117.44V148.293L554.338 125.669Z" fill="#765285"/>
</g>
<path d="M546.459 119.342L283.123 142.901V98.3299L546.459 74.771V119.342Z" fill="#765285"/>
<g style="mix-blend-mode:multiply" opacity="0.2">
<g style="mix-blend-mode:multiply" opacity="0.2">
<path d="M328.599 236.233L401.748 229.689V156.506L328.599 163.05V236.233Z" fill="#765285"/>
</g>
<g style="mix-blend-mode:multiply" opacity="0.2">
<path d="M418.376 155.015V170.538L541.175 159.552V144.029L418.376 155.015Z" fill="#765285"/>
</g>
<g style="mix-blend-mode:multiply" opacity="0.2">
<path d="M418.376 228.198L541.175 217.212V168.426L418.376 179.412V228.198Z" fill="#765285"/>
</g>
<g style="mix-blend-mode:multiply" opacity="0.2">
<path d="M328.599 332.363L401.748 325.818V252.635L328.599 259.18V332.363Z" fill="#765285"/>
</g>
<g style="mix-blend-mode:multiply" opacity="0.2">
<path d="M418.376 266.675L541.175 255.69V240.167L418.376 251.152V266.675Z" fill="#765285"/>
</g>
<g style="mix-blend-mode:multiply" opacity="0.2">
<path d="M418.376 324.335L541.175 313.35V264.564L418.376 275.549V324.335Z" fill="#765285"/>
</g>
</g>
<path d="M537.59 155.619L414.791 166.605V151.081L537.59 140.096V155.619Z" fill="#9568A8"/>
<path d="M537.59 213.279L414.791 224.265V175.479L537.59 164.493V213.279Z" fill="#4A4E69" fill-opacity="0.7"/>
<path d="M398.163 435.359L325.014 441.904V368.721L398.163 362.176V435.359Z" fill="#D2B4EF"/>
<path d="M398.163 225.748L325.014 232.292V159.109L398.163 152.572V225.748Z" fill="#765285"/>
<g style="mix-blend-mode:multiply" opacity="0.1">
<path d="M301.41 242.762L343.535 238.99V167.87L301.41 171.634V242.762Z" fill="#765285"/>
</g>
<path d="M487.94 427.332L414.791 433.876V360.693L487.94 354.149V427.332Z" fill="#D2B4EF"/>
<path d="M537.59 422.883L504.56 425.841V352.658L537.59 349.708V422.883Z" fill="#D2B4EF"/>
<path d="M398.163 321.885L325.014 328.43V255.247L398.163 248.702V321.885Z" fill="#765285"/>
<path d="M537.59 251.757L414.791 262.742V247.219L537.59 236.233V251.757Z" fill="#9568A8"/>
<path d="M537.59 309.409L414.791 320.394V271.608L537.59 260.622V309.409Z" fill="#4A4E69" fill-opacity="0.7"/>
<path d="M452.026 100.74L377.548 107.397V116.932L452.026 110.275V100.74Z" fill="#9568A8"/>
<path d="M537.59 340.568V435.045" stroke="#765285" stroke-width="2.29" stroke-miterlimit="10"/>
<path d="M325.014 359.589V454.058" stroke="#765285" stroke-width="2.29" stroke-miterlimit="10"/>
<path d="M537.59 455.445L325.014 474.458V566.509H537.59V455.445Z" fill="#4A4E69" fill-opacity="0.7"/>
<path d="M592.049 97.4352V157.819V171.795L604.689 156.691L677.83 150.146V89.7623L592.049 97.4352Z" fill="#9568A8"/>
<path d="M668.742 103.617L602.248 109.565V106.567L668.742 100.619V103.617Z" fill="#4A4E69" fill-opacity="0.7"/>
<path d="M668.742 114.038L602.248 119.987V116.996L668.742 111.048V114.038Z" fill="#4A4E69" fill-opacity="0.7"/>
<path d="M668.742 124.46L602.248 130.408V127.418L668.742 121.47V124.46Z" fill="#765285"/>
<path d="M668.742 134.881L602.248 140.837V137.839L668.742 131.891V134.881Z" fill="#765285"/>
<path d="M319.56 220.412L232.45 228.206V172.319L319.56 164.525V220.412Z" fill="#9568A8"/>
<g style="mix-blend-mode:multiply" opacity="0.3">
<path d="M232.45 224.547L315.653 217.107V174.447L232.45 181.886V224.547Z" fill="#9568A8"/>
</g>
<path d="M312.253 214.456L211.174 223.499V180.838L312.253 171.795V214.456Z" fill="#4A4E69" fill-opacity="0.7"/>
<path d="M306.566 210.224L256.344 214.714V212.344L306.566 207.855V210.224Z" fill="#765285"/>
<path d="M251.841 215.117L216.539 218.276V216.608L251.841 213.456V215.117Z" fill="#765285"/>
<path d="M306.566 185.255L216.539 193.315V190.945L306.566 182.885V185.255Z" fill="#765285"/>
<path d="M306.566 178.702L216.539 186.754V184.385L306.566 176.333V178.702Z" fill="#4A4E69"/>
<path d="M306.566 191.735L216.539 199.787V197.417L306.566 189.366V191.735Z" fill="#4A4E69"/>
<path d="M306.566 197.901L216.539 205.953V203.583L306.566 195.531V197.901Z" fill="#4A4E69"/>
<path d="M306.566 204.059L216.539 212.118V209.749L306.566 201.689V204.059Z" fill="#4A4E69"/>
<path d="M313.389 100.079L403.633 92.2769" stroke="white" stroke-width="1.24" stroke-miterlimit="10"/>
<path d="M289.608 116.932V102.134L308.241 100.522" stroke="white" stroke-width="1.24" stroke-miterlimit="10"/>
<path d="M276.009 232.993V249.484L365.174 242.762V201.689" stroke="#9568A8" stroke-width="1.24" stroke-miterlimit="10"/>
<path d="M273.391 233.13C273.391 232.612 273.544 232.106 273.832 231.675C274.12 231.244 274.529 230.909 275.007 230.71C275.485 230.512 276.012 230.46 276.52 230.561C277.028 230.662 277.494 230.912 277.86 231.278C278.227 231.645 278.476 232.111 278.577 232.619C278.678 233.128 278.626 233.654 278.428 234.133C278.23 234.611 277.894 235.021 277.464 235.308C277.033 235.596 276.527 235.75 276.009 235.75C275.315 235.75 274.649 235.474 274.158 234.983C273.667 234.491 273.391 233.825 273.391 233.13Z" fill="#9568A8"/>
<path d="M684.154 545.948V558.618L697.914 557.305L694.385 543.675L684.154 545.948Z" fill="url(#paint35_linear)"/>
<path d="M646.057 547.053L644.445 558.884L655.643 557.272L657.077 545.441L646.057 547.053Z" fill="url(#paint36_linear)"/>
<path d="M639.604 348.99C639.604 348.99 623.298 355.801 620.068 340.56C616.837 325.319 650.359 280.675 650.359 280.675C650.359 280.675 647.313 273.147 650.359 268.666C653.404 264.185 656.094 260.413 656.094 260.413L664.876 267.949V277.298C664.874 278.321 664.508 279.309 663.844 280.087L660.759 283.706L639.604 348.99Z" fill="url(#paint37_linear)"/>
<path d="M688.794 262.42C688.794 262.42 693.338 273.534 695.722 275.211C698.107 276.887 672.964 284.923 672.964 284.923L670.362 268.07L655.941 247.364L651.277 246.284C651.277 246.284 651.994 236.242 655.579 233.735C656.317 229.23 656.678 224.671 656.658 220.106L676.903 216.882L687.481 232.3L691.783 257.044L688.794 262.42Z" fill="url(#paint38_linear)"/>
<path style="mix-blend-mode:multiply" opacity="0.5" d="M651.873 266.482L651.559 266.933L655.313 272.462L654.661 275.928C654.661 275.928 655.555 278.975 658.004 279.756C660.453 280.538 637.276 300.43 628.196 326.729C619.117 353.028 638.355 333.419 638.355 333.419L646.049 329.139L660.759 283.706L663.845 280.127C664.508 279.35 664.874 278.361 664.876 277.339V267.989L663.136 266.49L651.873 266.482Z" fill="url(#paint39_linear)"/>
<path style="mix-blend-mode:multiply" opacity="0.5" d="M676.114 265.587C677.105 255.456 674.728 252.023 674.728 252.023C674.728 252.023 676.79 253.28 678.224 247.727C678.224 247.727 675.445 254.666 672.537 248.702C671.868 247.332 671.683 254.078 671.683 254.078C671.683 254.078 669.757 260.228 668.275 265.104L670.338 268.07L672.585 282.642C677.209 280.224 683.96 276.702 683.96 276.702C683.96 276.702 675.099 275.719 676.114 265.587Z" fill="url(#paint40_linear)"/>
<path d="M674.076 258.358C674.076 258.358 673.359 267.917 669.057 271.745C664.755 275.573 658.664 271.866 653.75 271.745C648.836 271.624 649.569 256.681 650.399 251.66C650.936 250.269 651.938 249.107 653.235 248.372C654.532 247.637 656.044 247.375 657.512 247.63C662.974 248.347 665.037 249.605 667.453 256.415C667.993 242.431 668.058 234.654 668.058 234.654L672.384 241.239L674.076 258.358Z" fill="url(#paint41_linear)"/>
<path d="M653.404 388.645C653.404 388.645 648.03 467.18 647.708 475.425C647.386 483.67 643.406 549.333 643.406 549.333C643.406 549.333 651.656 551.848 658.463 549.333C658.463 549.333 661.444 508.478 667.163 480.889C672.859 453.486 678.539 441.396 678.539 441.396C678.539 441.396 675.066 474.506 677.217 496.743C679.368 518.98 681.761 548.971 681.761 548.971C681.761 548.971 689.285 552.195 696.101 546.827C696.101 546.827 697.889 502.361 696.101 490.521C694.312 478.681 701.474 437.455 704.342 423.471C707.21 409.487 702.191 385.461 702.191 385.461L653.404 388.645Z" fill="url(#paint42_linear)"/>
<path d="M700.717 280.353C700.717 280.353 702.747 271.487 696.778 269.714L671.151 276.968V283.706L700.717 280.353Z" fill="url(#paint43_linear)"/>
<path style="mix-blend-mode:multiply" opacity="0.5" d="M639.652 348.934L641.859 342.115C637.992 338.98 628.68 332.162 626.005 336.739C624.176 339.867 621.759 338.891 619.906 337.312C619.817 338.409 619.879 339.512 620.092 340.592C623.209 355.35 638.621 349.458 639.571 349.039L639.652 348.934Z" fill="url(#paint44_linear)"/>
<path d="M633.868 326.068L627.238 324.738C627.238 324.738 620.793 334.136 624.015 341.664C627.238 349.192 640.127 351.336 640.127 351.336L646.757 347.749L644.969 338.787L633.868 326.068Z" fill="url(#paint45_linear)"/>
<path d="M674.551 278.435C661.661 281.038 654.959 286.092 644.921 301.865C634.883 317.638 628.196 330.074 628.196 330.074L631.459 338.231C632.734 341.43 635.226 343.992 638.387 345.355L642.294 347.048L651.374 339.399C651.374 339.399 654.483 380.504 648.03 386.735C648.674 388.467 649.764 389.999 651.19 391.173C652.616 392.348 654.328 393.125 656.151 393.424C662.596 394.617 682.196 390.797 692.476 391.99C702.755 393.182 707.323 387.678 707.323 387.678C707.323 387.678 700.628 343.212 713.059 321.942C717.087 298.987 708.991 285.6 702.062 279.386C692.016 277.484 682.857 276.766 674.551 278.435Z" fill="url(#paint46_linear)"/>
<path d="M616.966 565.308C616.966 565.308 616.604 561.278 620.551 560.408C624.499 559.537 635.245 558.135 640.619 555.386C645.992 552.638 648.747 556.192 656.272 554.435C659.019 556.346 657.077 565.308 657.077 565.308H616.966Z" fill="url(#paint47_linear)"/>
<path d="M680.883 555.153C679.095 557.184 677.113 560.529 674.277 561.488C673.445 561.789 672.704 562.298 672.124 562.966C671.545 563.635 671.146 564.441 670.966 565.308H699.38C699.38 565.308 700.596 557.305 699.041 555.153L696.778 553.71C694.859 554.789 692.714 555.404 690.515 555.506C688.316 555.608 686.124 555.194 684.113 554.298L680.883 555.153Z" fill="url(#paint48_linear)"/>
<path d="M663.2 224.531C655.313 223.451 646.355 218.083 648.03 211.143C649.706 204.204 660.211 197.877 675.51 206.122C690.808 214.367 695.94 215.326 697.495 222.733C699.049 230.14 697.374 258.954 692.234 262.895C687.094 266.837 681.842 266.482 681.479 261.582C681.117 256.681 678.257 247.727 678.257 247.727C678.257 247.727 685.161 238.055 680.859 234.831C676.557 231.607 672.432 241.279 672.432 241.279C672.432 241.279 665.866 237.249 668.614 228.972C669.057 227.642 663.2 224.531 663.2 224.531Z" fill="url(#paint49_linear)"/>
<g style="mix-blend-mode:multiply" opacity="0.5">
<path style="mix-blend-mode:multiply" opacity="0.5" d="M691.517 412.55C688.883 432.974 678.498 441.356 678.498 441.356C678.498 441.356 675.026 474.466 677.177 496.703C678.321 508.51 679.53 522.494 680.4 533.036C680.102 529.418 677.258 491.553 685.386 470.17C693.95 447.683 691.517 412.55 691.517 412.55Z" fill="url(#paint50_linear)"/>
</g>
<path style="mix-blend-mode:multiply" opacity="0.5" d="M651.374 339.399C651.374 339.399 651.986 347.548 652.107 357.131C660.67 345.903 669.532 320.056 669.532 320.056C665.23 330.074 651.374 339.399 651.374 339.399Z" fill="url(#paint51_linear)"/>
<path style="mix-blend-mode:multiply" opacity="0.5" d="M672.593 243.254C672.593 243.254 671.788 259.462 671.151 263.137C670.515 266.812 668.549 271.116 664.964 270.391C662.136 269.827 655.232 270.826 652.453 271.269C652.832 271.557 653.291 271.72 653.766 271.737C658.664 271.858 664.755 275.557 669.073 271.737C673.391 267.917 674.092 258.35 674.092 258.35L672.593 243.254Z" fill="url(#paint52_linear)"/>
<path style="mix-blend-mode:multiply" opacity="0.5" d="M695.738 254.763C695.188 254.874 694.648 255.036 694.127 255.247C689.108 257.278 681.946 251.064 683.944 244.011C685.942 236.959 680.811 234.807 680.811 234.807C685.112 238.031 678.208 247.703 678.208 247.703C678.208 247.703 681.109 256.657 681.431 261.557C681.753 266.458 687.07 266.82 692.186 262.871C693.668 261.799 694.836 258.72 695.738 254.763Z" fill="url(#paint53_linear)"/>
<path style="mix-blend-mode:multiply" opacity="0.5" d="M651.261 219.388C654.684 222.182 658.819 223.963 663.2 224.531C663.2 224.531 669.057 227.642 668.581 228.955C670.039 226.86 675.719 223.958 675.719 223.958C668.227 226.723 651.438 219.469 651.261 219.388Z" fill="url(#paint54_linear)"/>
<path style="mix-blend-mode:multiply" opacity="0.5" d="M656.272 554.435C652.01 555.451 649.287 554.742 646.741 554.435C647.152 556.62 647.482 560.359 645.517 562.084C643.164 564.147 623.765 564.994 616.958 565.235C616.96 565.26 616.96 565.284 616.958 565.308H657.101C657.101 565.308 658.987 556.346 656.272 554.435Z" fill="url(#paint55_linear)"/>
<path style="mix-blend-mode:multiply" opacity="0.5" d="M686.828 558.618C682.365 558.24 681.036 556.684 680.77 555.282C679.006 557.329 677.048 560.545 674.277 561.488C673.445 561.789 672.704 562.298 672.124 562.966C671.545 563.635 671.146 564.441 670.966 565.308H691.211C692.073 562.713 692.242 559.07 686.828 558.618Z" fill="url(#paint56_linear)"/>
<path d="M144.276 421.303H91.7989C86.8914 421.303 82.9131 425.283 82.9131 430.193V485.177C82.9131 490.087 86.8914 494.067 91.7989 494.067H144.276C149.184 494.067 153.162 490.087 153.162 485.177V430.193C153.162 425.283 149.184 421.303 144.276 421.303Z" fill="#765285"/>
<path d="M117.981 426.437H124.635" stroke="white" stroke-width="1.24" stroke-miterlimit="10"/>
<path d="M87.8756 450.972V434.046C87.8756 432.021 88.6791 430.079 90.1096 428.646C91.5401 427.213 93.4806 426.407 95.5047 426.405H113.228" stroke="white" stroke-width="1.24" stroke-miterlimit="10"/>
<path d="M140.148 457.896C140.148 454.948 136.474 452.154 130.841 450.421C132.141 444.652 131.563 440.062 129.018 438.592C128.431 438.248 127.745 438.085 126.996 438.085V440.107C127.411 440.107 127.745 440.189 128.025 440.343C129.252 441.051 129.785 443.745 129.37 447.21C129.27 448.063 129.108 448.961 128.909 449.877C127.14 449.441 125.208 449.106 123.177 448.888C121.958 447.21 120.695 445.686 119.422 444.353C122.365 441.604 125.127 440.098 127.005 440.098V438.075C124.522 438.075 121.272 439.853 117.986 442.938C114.701 439.872 111.451 438.112 108.968 438.112V440.135C110.837 440.135 113.608 441.631 116.551 444.362C115.287 445.695 114.024 447.21 112.823 448.888C110.783 449.106 108.851 449.441 107.082 449.886C106.874 448.979 106.72 448.099 106.612 447.255C106.188 443.79 106.711 441.096 107.93 440.379C108.201 440.216 108.553 440.144 108.968 440.144V438.121C108.21 438.121 107.524 438.284 106.928 438.629C104.391 440.098 103.823 444.679 105.132 450.43C99.5168 452.172 95.8608 454.957 95.8608 457.896C95.8608 460.844 99.5348 463.638 105.168 465.37C103.868 471.139 104.446 475.729 106.991 477.199C107.578 477.544 108.264 477.707 109.022 477.707C111.505 477.707 114.755 475.929 118.041 472.845C121.327 475.911 124.576 477.671 127.059 477.671C127.817 477.671 128.503 477.507 129.099 477.163C131.636 475.693 132.204 471.112 130.895 465.361C136.492 463.629 140.148 460.835 140.148 457.896ZM128.395 451.845C128.061 453.015 127.646 454.222 127.176 455.428C126.806 454.703 126.418 453.977 125.994 453.251C125.578 452.526 125.136 451.818 124.694 451.129C125.976 451.319 127.212 451.555 128.395 451.845ZM124.26 461.506C123.556 462.731 122.834 463.892 122.085 464.971C120.74 465.089 119.377 465.153 118.004 465.153C116.641 465.153 115.278 465.089 113.942 464.98C113.193 463.901 112.462 462.749 111.758 461.533C111.072 460.345 110.449 459.138 109.88 457.923C110.44 456.707 111.072 455.492 111.749 454.304C112.453 453.079 113.175 451.918 113.924 450.838C115.269 450.72 116.632 450.657 118.004 450.657C119.368 450.657 120.731 450.72 122.067 450.829C122.816 451.909 123.547 453.061 124.251 454.276C124.937 455.465 125.56 456.671 126.129 457.887C125.56 459.102 124.937 460.318 124.26 461.506ZM127.176 460.327C127.664 461.542 128.079 462.758 128.422 463.937C127.239 464.227 125.994 464.472 124.703 464.663C125.145 463.964 125.587 463.248 126.003 462.513C126.418 461.787 126.806 461.052 127.176 460.327ZM118.023 470.006C117.183 469.135 116.343 468.164 115.513 467.103C116.325 467.139 117.156 467.166 117.995 467.166C118.844 467.166 119.684 467.148 120.505 467.103C119.693 468.164 118.853 469.135 118.023 470.006ZM111.306 464.663C110.024 464.472 108.788 464.236 107.605 463.946C107.939 462.776 108.354 461.569 108.824 460.363C109.194 461.089 109.582 461.814 110.006 462.54C110.431 463.266 110.864 463.973 111.306 464.663ZM117.977 445.786C118.817 446.657 119.656 447.627 120.487 448.689C119.675 448.652 118.844 448.625 118.004 448.625C117.156 448.625 116.316 448.643 115.495 448.689C116.307 447.627 117.147 446.657 117.977 445.786ZM111.297 451.129C110.855 451.827 110.413 452.544 109.997 453.279C109.582 454.004 109.194 454.73 108.824 455.456C108.336 454.24 107.921 453.025 107.578 451.845C108.761 451.564 110.006 451.319 111.297 451.129ZM103.128 462.486C99.932 461.116 97.8648 459.32 97.8648 457.896C97.8648 456.472 99.932 454.666 103.128 453.306C103.904 452.97 104.753 452.671 105.628 452.39C106.143 454.167 106.82 456.018 107.659 457.914C106.829 459.801 106.161 461.642 105.655 463.411C104.762 463.13 103.913 462.821 103.128 462.486ZM107.984 475.448C106.757 474.741 106.224 472.047 106.639 468.581C106.739 467.729 106.901 466.831 107.1 465.915C108.869 466.35 110.801 466.686 112.832 466.903C114.051 468.581 115.314 470.105 116.587 471.439C113.644 474.187 110.882 475.693 109.004 475.693C108.598 475.684 108.255 475.602 107.984 475.448ZM129.397 468.536C129.821 472.001 129.298 474.695 128.079 475.412C127.808 475.575 127.456 475.648 127.041 475.648C125.172 475.648 122.401 474.151 119.458 471.421C120.722 470.087 121.985 468.572 123.186 466.894C125.226 466.676 127.158 466.341 128.927 465.896C129.135 466.813 129.298 467.692 129.397 468.536ZM132.872 462.486C132.096 462.821 131.247 463.121 130.372 463.402C129.857 461.624 129.18 459.773 128.341 457.878C129.171 455.991 129.839 454.149 130.345 452.38C131.238 452.662 132.087 452.97 132.881 453.306C136.077 454.675 138.144 456.472 138.144 457.896C138.135 459.32 136.068 461.125 132.872 462.486Z" fill="#B28AC3"/>
<path d="M117.995 462.041C120.274 462.041 122.121 460.185 122.121 457.896C122.121 455.606 120.274 453.75 117.995 453.75C115.717 453.75 113.87 455.606 113.87 457.896C113.87 460.185 115.717 462.041 117.995 462.041Z" fill="#B28AC3"/>
<g style="mix-blend-mode:multiply" opacity="0.15">
<path d="M82.9131 485.202C82.9131 487.553 83.8467 489.808 85.5086 491.471C87.1705 493.133 89.4245 494.067 91.7748 494.067H119.512V484.839C119.512 482.199 118.464 479.667 116.598 477.8C114.732 475.934 112.201 474.885 109.563 474.885H82.9131V485.202Z" fill="#9568A8"/>
</g>
<path d="M167.453 493.737H114.976C110.069 493.737 106.09 497.717 106.09 502.627V557.611C106.09 562.521 110.069 566.501 114.976 566.501H167.453C172.361 566.501 176.339 562.521 176.339 557.611V502.627C176.339 497.717 172.361 493.737 167.453 493.737Z" fill="#9568A8"/>
<g style="mix-blend-mode:multiply" opacity="0.25">
<path d="M128.317 557.224V496.534C128.317 495.585 128.171 494.641 127.882 493.737H114.992C112.642 493.737 110.388 494.671 108.726 496.334C107.064 497.996 106.131 500.251 106.131 502.603V557.587C106.131 559.938 107.064 562.193 108.726 563.856C110.388 565.519 112.642 566.453 114.992 566.453H119.061C121.508 566.446 123.854 565.473 125.588 563.745C127.321 562.016 128.302 559.673 128.317 557.224Z" fill="#A68EBF"/>
</g>
<path d="M55.4338 480.68C54.116 480.68 52.8111 480.94 51.5937 481.445C50.3763 481.949 49.2703 482.689 48.3388 483.622C47.4073 484.554 46.6687 485.662 46.1652 486.88C45.6616 488.098 45.4029 489.404 45.404 490.722V556.466C45.4029 557.785 45.6616 559.091 46.1652 560.309C46.6687 561.527 47.4073 562.634 48.3388 563.567C49.2703 564.5 50.3763 565.24 51.5937 565.744C52.8111 566.249 54.116 566.509 55.4338 566.509H103.222V480.68H55.4338Z" fill="#765285"/>
<path d="M49.0776 543.555V550.059" stroke="white" stroke-width="1.24" stroke-miterlimit="10"/>
<path d="M66.4867 484.396H59.1073C57.7895 484.396 56.4846 484.655 55.2672 485.16C54.0498 485.665 52.9438 486.405 52.0123 487.337C51.0809 488.27 50.3423 489.377 49.8387 490.596C49.3351 491.814 49.0765 493.12 49.0775 494.438V540.782" stroke="white" stroke-width="1.24" stroke-miterlimit="10"/>
<path d="M80.8265 484.355H73.4794" stroke="white" stroke-width="1.24" stroke-miterlimit="10"/>
<path d="M113.26 490.722C113.26 485.176 108.768 480.68 103.226 480.68C97.6849 480.68 93.1926 485.176 93.1926 490.722V556.458C93.1926 562.005 97.6849 566.501 103.226 566.501C108.768 566.501 113.26 562.005 113.26 556.458V490.722Z" fill="#765285"/>
<g style="mix-blend-mode:multiply" opacity="0.15">
<path d="M106.783 481.341C116.45 554.774 107.275 551.84 100.894 555.032C78.9656 566.38 56.6905 560.609 45.404 556.192V556.467C45.4029 557.785 45.6616 559.091 46.1652 560.309C46.6687 561.527 47.4073 562.635 48.3388 563.567C49.2703 564.5 50.3763 565.24 51.5937 565.744C52.8111 566.249 54.116 566.509 55.4338 566.509H103.222C105.885 566.509 108.438 565.451 110.32 563.568C112.203 561.684 113.26 559.13 113.26 556.467V490.723C113.259 488.686 112.638 486.698 111.482 485.023C110.325 483.347 108.686 482.063 106.783 481.341Z" fill="#9568A8"/>
</g>
<path d="M339.161 371.469L284.218 375.104C282.931 375.198 281.674 375.545 280.52 376.125C279.367 376.705 278.339 377.506 277.495 378.484C276.651 379.461 276.008 380.596 275.602 381.822C275.197 383.048 275.036 384.342 275.131 385.63L280.432 458.29C280.622 460.882 281.83 463.294 283.793 464.998C285.755 466.702 288.312 467.559 290.905 467.381L345.863 463.738L339.161 371.469Z" fill="#765285"/>
<path d="M349.691 380.562C349.296 375.146 344.588 371.076 339.174 371.471C333.76 371.865 329.692 376.576 330.086 381.992L335.381 454.652C335.776 460.069 340.485 464.139 345.899 463.744C351.312 463.349 355.381 458.639 354.986 453.222L349.691 380.562Z" fill="#9568A8"/>
<path d="M307.742 436.047C317.826 434.417 324.996 422.328 323.758 409.047C322.52 395.766 313.342 386.322 303.258 387.953C293.174 389.583 286.004 401.672 287.242 414.953C288.48 428.234 297.658 437.678 307.742 436.047Z" fill="#9568A8"/>
<path d="M296.667 426.891C293.623 423.759 291.759 419.227 291.331 414.636L307.115 430.724C303.484 431.139 299.711 430.023 296.667 426.891ZM310.294 429.692L291.306 410.153C291.949 401.592 297.043 394.382 303.756 393.296C308.533 392.524 312.949 394.916 315.959 399.09L314.229 401.613C311.67 398.058 307.946 396.071 304.073 396.697C299.039 397.511 295.175 402.451 294.051 408.674L310.72 425.826C314.306 423.521 316.75 418.81 317.178 413.563L310.981 414.565L310.664 411.165L319.701 409.703C320.525 418.545 316.446 426.799 310.294 429.692Z" fill="#D2B4EF"/>
<g style="mix-blend-mode:multiply" opacity="0.15">
<path d="M347.869 412.196V409.165C347.869 409.165 335.841 413.767 330.468 419.433C325.224 424.962 295.827 431.048 276.565 405.248L280.432 458.29C280.622 460.882 281.83 463.294 283.793 464.998C285.755 466.702 288.312 467.559 290.905 467.381L303.794 466.527C310.715 462.69 325.82 453.849 333.674 445.716C344.067 434.965 350.342 436.577 352.848 435.859C353.127 435.766 353.396 435.648 353.653 435.505L352.324 416.693L347.869 412.196Z" fill="#9568A8"/>
</g>
<path d="M290.139 550.414L289.414 558.143L305.978 557.555L302.723 547.593L290.139 550.414Z" fill="url(#paint57_linear)"/>
<path d="M204.777 563.64C211.705 563.64 215.29 565.308 220.084 559.336C224.877 553.363 252.582 512.242 252.582 512.242L289.382 504.585V552.388C289.382 552.388 300.137 553.106 303.722 550.236C308.024 512.468 316.861 483.074 304.914 475.901C292.967 468.727 258.801 468.494 258.801 468.494L223.669 481.389L205.204 536.784C204.735 538.196 203.742 539.373 202.43 540.072C201.118 540.771 199.587 540.939 198.155 540.54L165.995 531.57C164.974 531.283 163.888 531.328 162.894 531.697C161.9 532.066 161.048 532.741 160.461 533.625L159.051 535.753C158.718 536.25 158.494 536.812 158.395 537.402C158.295 537.992 158.323 538.597 158.475 539.176C158.628 539.754 158.902 540.294 159.279 540.758C159.656 541.223 160.127 541.602 160.662 541.87L204.777 563.64Z" fill="url(#paint58_linear)"/>
<path d="M262.845 353.988C262.845 353.988 265.931 357.066 266.696 363.998C267.462 370.929 270.547 371.703 270.547 371.703L268.267 373.976C268.267 373.976 269.806 384.76 265.963 387.073C263.646 388.449 260.929 388.992 258.261 388.613C257.348 390.528 257.066 392.684 257.456 394.77C258.261 397.849 234.359 394.77 234.359 394.77V390.918C234.359 390.918 240.522 388.613 241.287 385.534C242.053 382.455 241.287 368.608 241.287 368.608L248.989 358.59L262.845 353.988Z" fill="url(#paint59_linear)"/>
<g style="mix-blend-mode:multiply" opacity="0.5">
<path style="mix-blend-mode:multiply" opacity="0.5" d="M258.995 388.733C253.275 387.928 252.461 380.819 252.461 380.819C249.19 390.563 253.267 394.456 255.901 395.891C256.981 395.681 257.593 395.334 257.464 394.803C257.074 392.716 257.356 390.56 258.27 388.645C258.509 388.688 258.751 388.717 258.995 388.733Z" fill="url(#paint60_linear)"/>
</g>
<path d="M300.032 429.589C300.032 429.589 334.923 426.091 335.922 424.1C336.921 422.109 342.89 410.148 347.869 409.157C349.028 410.316 350.441 411.19 351.996 411.709C353.551 412.228 355.205 412.378 356.827 412.147C356.827 412.147 360.815 428.082 355.837 433.103C354.838 435.094 345.879 433.103 343.889 434.102C341.9 435.102 312.028 448.046 298.091 449.037L300.032 429.589Z" fill="url(#paint61_linear)"/>
<path d="M235.366 390.241C235.366 390.241 209.482 396.213 215.452 430.08C221.421 463.948 221.429 485.862 221.429 485.862C221.429 485.862 247.321 470.92 264.239 469.928C265.23 460.958 267.228 404.184 257.271 394.222C246.314 396.213 232.377 397.212 235.366 390.241Z" fill="url(#paint62_linear)"/>
<path style="mix-blend-mode:multiply" opacity="0.5" d="M300.959 434.546L299.388 436.037L298.075 449.005C310.159 448.142 334.327 438.261 341.73 435.029C317.409 441.848 300.959 434.546 300.959 434.546Z" fill="url(#paint63_linear)"/>
<path style="mix-blend-mode:multiply" opacity="0.5" d="M256.094 452.156C258.827 457.96 261.248 463.906 263.345 469.968L264.247 469.896C265.053 462.747 266.463 425.196 261.967 405.224L247.708 408.23C247.708 408.23 247.95 434.425 256.094 452.156Z" fill="url(#paint64_linear)"/>
<path d="M294.788 428.823C294.788 428.823 302.038 424.108 305.059 429.089C308.08 434.07 303.069 451.995 300.081 451.995C297.092 451.995 293.579 453.204 291.356 449.577C289.132 445.95 294.788 428.823 294.788 428.823Z" fill="url(#paint65_linear)"/>
<path d="M297.092 430.08C293.781 427.872 270.756 401.613 257.045 397.422C243.334 393.231 246.314 418.128 255.281 427.09C264.247 436.053 276.186 448.046 295.102 449.005C298.075 443.033 300.081 432.071 297.092 430.08Z" fill="url(#paint66_linear)"/>
<path d="M235.906 385.566C239.934 392.135 247.45 379.4 247.45 369.39C247.45 359.38 254.378 360.919 255.152 366.311C255.925 371.703 255.152 374.008 255.152 374.008C255.152 374.008 262.08 368.624 259.003 357.84C265.931 354.761 275.92 348.596 272.086 333.193C268.251 317.791 262.845 329.349 255.917 334.741C248.989 340.133 234.367 337.82 229.751 345.517C225.135 353.214 218.972 357.856 235.906 385.566Z" fill="url(#paint67_linear)"/>
<path d="M289.036 553.573C287.11 552.84 285.217 562.439 285.749 563.527C286.28 564.615 286.103 565.461 291.614 565.461C297.124 565.461 330.863 564.768 330.863 564.768C330.863 564.768 333.28 559.602 328.108 559.521C322.936 559.441 309.579 556.684 304.487 551.357C301.2 554.194 296.23 556.329 289.036 553.573Z" fill="url(#paint68_linear)"/>
<path style="mix-blend-mode:multiply" opacity="0.5" d="M234.625 504.352C234.625 504.352 236.72 528.531 219.665 559.811L220.076 559.336C224.853 553.355 252.566 512.242 252.566 512.242C252.566 512.242 235.237 511.34 234.625 504.352Z" fill="url(#paint69_linear)"/>
<path style="mix-blend-mode:multiply" opacity="0.5" d="M293.91 500.048L265.093 509.631L289.366 504.585V552.388C289.366 552.388 296.963 552.896 301.514 551.357C292.87 552.759 293.91 500.048 293.91 500.048Z" fill="url(#paint70_linear)"/>
<path style="mix-blend-mode:multiply" opacity="0.5" d="M204.922 563.64C195.787 558.707 183.63 546.577 171.087 539.968C165.029 536.744 161.121 536.172 158.608 536.615C158.246 537.592 158.258 538.668 158.644 539.636C159.029 540.604 159.76 541.394 160.694 541.854L204.777 563.616L204.922 563.64Z" fill="url(#paint71_linear)"/>
<path d="M166.293 534.987C166.619 533.943 166.648 532.828 166.378 531.768C166.108 530.708 165.549 529.743 164.763 528.983C162.725 527.008 159.768 524.816 157.109 525.388C155.858 525.691 154.679 526.242 153.643 527.007C152.607 527.773 151.734 528.737 151.075 529.845C150.748 530.383 150.564 530.996 150.544 531.626L149.674 557.232C149.615 559.021 150.086 560.788 151.027 562.31L152.558 564.776L177.532 565.026L175.961 561.383L163.538 555.008L166.293 534.987Z" fill="url(#paint72_linear)"/>
<path style="mix-blend-mode:multiply" opacity="0.5" d="M158.342 559.126C158.342 559.126 160.485 536.357 156.634 531.425C154.773 529.007 152.606 529.297 150.89 530.192C150.679 530.641 150.561 531.129 150.544 531.626L149.674 557.232C149.615 559.021 150.086 560.788 151.027 562.31L152.558 564.776L165.729 564.905C159.929 563.003 158.342 559.126 158.342 559.126Z" fill="url(#paint73_linear)"/>
<path style="mix-blend-mode:multiply" opacity="0.5" d="M301.877 553.186C298.735 554.927 294.538 555.677 289.044 553.573C287.118 552.84 285.225 562.439 285.757 563.527C286.289 564.615 286.111 565.461 291.622 565.461C293.66 565.461 299.581 565.365 306.227 565.252C305.065 564.262 303.751 563.464 302.336 562.89C295.875 560.11 301.877 553.186 301.877 553.186Z" fill="url(#paint74_linear)"/>
<path style="mix-blend-mode:multiply" opacity="0.5" d="M335.938 424.108C335.748 424.319 335.502 424.473 335.229 424.551C337.211 424.35 339.797 424.044 343.027 423.576C340.611 419.449 347.861 409.165 347.861 409.165C342.89 410.156 336.921 422.109 335.938 424.108Z" fill="url(#paint75_linear)"/>
<path d="M0 566.509H800" stroke="#9568A8" stroke-width="3.71" stroke-miterlimit="10"/>
</g>
<defs>
<linearGradient id="paint0_linear" x1="64.4727" y1="283.254" x2="777.04" y2="283.254" gradientUnits="userSpaceOnUse">
<stop stop-color="#5CDB95"/>
<stop offset="1" stop-color="#C6D8AF"/>
</linearGradient>
<linearGradient id="paint1_linear" x1="52418.1" y1="70676.3" x2="60010.6" y2="70676.3" gradientUnits="userSpaceOnUse">
<stop stop-color="#5CDB95"/>
<stop offset="1" stop-color="#C6D8AF"/>
</linearGradient>
<linearGradient id="paint2_linear" x1="89768.4" y1="49828.9" x2="112534" y2="49828.9" gradientUnits="userSpaceOnUse">
<stop stop-color="#5CDB95"/>
<stop offset="1" stop-color="#C6D8AF"/>
</linearGradient>
<linearGradient id="paint3_linear" x1="5729.35" y1="6071.86" x2="5786.13" y2="6071.86" gradientUnits="userSpaceOnUse">
<stop stop-color="#5CDB95"/>
<stop offset="1" stop-color="#C6D8AF"/>
</linearGradient>
<linearGradient id="paint4_linear" x1="3545.97" y1="8921.73" x2="3568.51" y2="8921.73" gradientUnits="userSpaceOnUse">
<stop stop-color="#5CDB95"/>
<stop offset="1" stop-color="#C6D8AF"/>
</linearGradient>
<linearGradient id="paint5_linear" x1="38802.1" y1="11218.9" x2="42988.1" y2="11218.9" gradientUnits="userSpaceOnUse">
<stop stop-color="#5CDB95"/>
<stop offset="1" stop-color="#C6D8AF"/>
</linearGradient>
<linearGradient id="paint6_linear" x1="24698.5" y1="11578.8" x2="26054" y2="11578.8" gradientUnits="userSpaceOnUse">
<stop stop-color="#5CDB95"/>
<stop offset="1" stop-color="#C6D8AF"/>
</linearGradient>
<linearGradient id="paint7_linear" x1="24943.8" y1="11092.4" x2="26122.5" y2="11092.4" gradientUnits="userSpaceOnUse">
<stop stop-color="#5CDB95"/>
<stop offset="1" stop-color="#C6D8AF"/>
</linearGradient>
<linearGradient id="paint8_linear" x1="36622.3" y1="15729.3" x2="39495.5" y2="15729.3" gradientUnits="userSpaceOnUse">
<stop stop-color="#5CDB95"/>
<stop offset="1" stop-color="#C6D8AF"/>
</linearGradient>
<linearGradient id="paint9_linear" x1="541.44" y1="491.061" x2="637.807" y2="491.061" gradientUnits="userSpaceOnUse">
<stop stop-color="#1B0C27"/>
<stop offset="1" stop-color="#765285"/>
</linearGradient>
<linearGradient id="paint10_linear" x1="1328.96" y1="5339.56" x2="1330.3" y2="5339.56" gradientUnits="userSpaceOnUse">
<stop stop-color="#5CDB95"/>
<stop offset="1" stop-color="#C6D8AF"/>
</linearGradient>
<linearGradient id="paint11_linear" x1="2365.45" y1="4602.04" x2="2372.57" y2="4602.04" gradientUnits="userSpaceOnUse">
<stop stop-color="#5CDB95"/>
<stop offset="1" stop-color="#C6D8AF"/>
</linearGradient>
<linearGradient id="paint12_linear" x1="757.1" y1="940.164" x2="757.147" y2="940.164" gradientUnits="userSpaceOnUse">
<stop stop-color="#5CDB95"/>
<stop offset="1" stop-color="#C6D8AF"/>
</linearGradient>
<linearGradient id="paint13_linear" x1="37178.8" y1="13243.7" x2="40501.9" y2="13243.7" gradientUnits="userSpaceOnUse">
<stop stop-color="#5CDB95"/>
<stop offset="1" stop-color="#C6D8AF"/>
</linearGradient>
<linearGradient id="paint14_linear" x1="25366.5" y1="8871.17" x2="27060" y2="8871.17" gradientUnits="userSpaceOnUse">
<stop stop-color="#5CDB95"/>
<stop offset="1" stop-color="#C6D8AF"/>
</linearGradient>
<linearGradient id="paint15_linear" x1="15577.8" y1="12459.4" x2="16049.7" y2="12459.4" gradientUnits="userSpaceOnUse">
<stop stop-color="#5CDB95"/>
<stop offset="1" stop-color="#C6D8AF"/>
</linearGradient>
<linearGradient id="paint16_linear" x1="23759.8" y1="16587.6" x2="24941.4" y2="16587.6" gradientUnits="userSpaceOnUse">
<stop stop-color="#5CDB95"/>
<stop offset="1" stop-color="#C6D8AF"/>
</linearGradient>
<linearGradient id="paint17_linear" x1="42273.4" y1="45092.3" x2="46848.2" y2="41635.3" gradientUnits="userSpaceOnUse">
<stop stop-color="#5CDB95"/>
<stop offset="1" stop-color="#C6D8AF"/>
</linearGradient>
<linearGradient id="paint18_linear" x1="48882.7" y1="49536.7" x2="59207.5" y2="41734.6" gradientUnits="userSpaceOnUse">
<stop stop-color="#5CDB95"/>
<stop offset="0.0001" stop-color="#5CDB95"/>
<stop offset="1" stop-color="#C6D8AF"/>
</linearGradient>
<linearGradient id="paint19_linear" x1="3660.35" y1="4637.06" x2="3667.81" y2="4631.42" gradientUnits="userSpaceOnUse">
<stop stop-color="#5CDB95"/>
<stop offset="1" stop-color="#C6D8AF"/>
</linearGradient>
<linearGradient id="paint20_linear" x1="4773.1" y1="5308.96" x2="4792.86" y2="5294.03" gradientUnits="userSpaceOnUse">
<stop stop-color="#5CDB95"/>
<stop offset="1" stop-color="#C6D8AF"/>
</linearGradient>
<linearGradient id="paint21_linear" x1="15771.9" y1="10511.7" x2="18820.3" y2="8208.05" gradientUnits="userSpaceOnUse">
<stop stop-color="#5CDB95"/>
<stop offset="1" stop-color="#C6D8AF"/>
</linearGradient>
<linearGradient id="paint22_linear" x1="13224.5" y1="11650.7" x2="13845.9" y2="11181.1" gradientUnits="userSpaceOnUse">
<stop stop-color="#5CDB95"/>
<stop offset="1" stop-color="#C6D8AF"/>
</linearGradient>
<linearGradient id="paint23_linear" x1="12496.4" y1="10385.6" x2="12959.6" y2="10035.6" gradientUnits="userSpaceOnUse">
<stop stop-color="#5CDB95"/>
<stop offset="1" stop-color="#C6D8AF"/>
</linearGradient>
<linearGradient id="paint24_linear" x1="18376.1" y1="14882.2" x2="19688.5" y2="13890.5" gradientUnits="userSpaceOnUse">
<stop stop-color="#5CDB95"/>
<stop offset="1" stop-color="#C6D8AF"/>
</linearGradient>
<linearGradient id="paint25_linear" x1="-76161.5" y1="29829.4" x2="-80885.8" y2="22019.8" gradientUnits="userSpaceOnUse">
<stop stop-color="#1B0C27"/>
<stop offset="1" stop-color="#351C4D"/>
</linearGradient>
<linearGradient id="paint26_linear" x1="-3052.99" y1="422.198" x2="-3057.68" y2="414.442" gradientUnits="userSpaceOnUse">
<stop stop-color="#C6D8AF"/>
<stop offset="1" stop-color="#5CDB95"/>
</linearGradient>
<linearGradient id="paint27_linear" x1="-1931.63" y1="-510.418" x2="-1943.05" y2="-529.293" gradientUnits="userSpaceOnUse">
<stop stop-color="#5CDB95"/>
<stop offset="1" stop-color="#C6D8AF"/>
</linearGradient>
<linearGradient id="paint28_linear" x1="-153.808" y1="374.963" x2="-153.909" y2="374.797" gradientUnits="userSpaceOnUse">
<stop stop-color="#5CDB95"/>
<stop offset="1" stop-color="#C6D8AF"/>
</linearGradient>
<linearGradient id="paint29_linear" x1="-29805.5" y1="13099.9" x2="-30508.8" y2="11937.3" gradientUnits="userSpaceOnUse">
<stop stop-color="#5CDB95"/>
<stop offset="1" stop-color="#C6D8AF"/>
</linearGradient>
<linearGradient id="paint30_linear" x1="-20997" y1="10734.1" x2="-21275.3" y2="10274" gradientUnits="userSpaceOnUse">
<stop stop-color="#5CDB95"/>
<stop offset="1" stop-color="white"/>
</linearGradient>
<linearGradient id="paint31_linear" x1="-14133.5" y1="4266.4" x2="-14316.8" y2="3963.41" gradientUnits="userSpaceOnUse">
<stop stop-color="#5CDB95"/>
<stop offset="1" stop-color="#C6D8AF"/>
</linearGradient>
<linearGradient id="paint32_linear" x1="-20445.9" y1="9031.44" x2="-20695.2" y2="8619.32" gradientUnits="userSpaceOnUse">
<stop stop-color="#5CDB95"/>
<stop offset="1" stop-color="#C6D8AF"/>
</linearGradient>
<linearGradient id="paint33_linear" x1="11670.8" y1="16332.9" x2="20785.6" y2="16332.9" gradientUnits="userSpaceOnUse">
<stop stop-color="#5CDB95"/>
<stop offset="1" stop-color="#C6D8AF"/>
</linearGradient>
<linearGradient id="paint34_linear" x1="49160.6" y1="27560.8" x2="53024.9" y2="27560.8" gradientUnits="userSpaceOnUse">
<stop stop-color="#5CDB95"/>
<stop offset="1" stop-color="#C6D8AF"/>
</linearGradient>
<linearGradient id="paint35_linear" x1="697.793" y1="540.717" x2="684.088" y2="562.804" gradientUnits="userSpaceOnUse">
<stop stop-color="#7A4747"/>
<stop offset="1" stop-color="#7A4747"/>
</linearGradient>
<linearGradient id="paint36_linear" x1="10959.8" y1="9566.76" x2="10725.2" y2="9922.15" gradientUnits="userSpaceOnUse">
<stop stop-color="#7A4747"/>
<stop offset="1" stop-color="#FFC5B2"/>
</linearGradient>
<linearGradient id="paint37_linear" x1="35264.7" y1="34408.9" x2="37781.3" y2="34408.9" gradientUnits="userSpaceOnUse">
<stop stop-color="#7A4747"/>
<stop offset="1" stop-color="#FFC5B2"/>
</linearGradient>
<linearGradient id="paint38_linear" x1="36709.8" y1="21398.1" x2="39179.6" y2="21398.1" gradientUnits="userSpaceOnUse">
<stop stop-color="#7A4747"/>
<stop offset="1" stop-color="#FFC5B2"/>
</linearGradient>
<linearGradient id="paint39_linear" x1="31007.9" y1="28115.2" x2="32906.9" y2="28115.2" gradientUnits="userSpaceOnUse">
<stop stop-color="#7A4747"/>
<stop offset="1" stop-color="#FFC5B2"/>
</linearGradient>
<linearGradient id="paint40_linear" x1="13679.6" y1="11735.5" x2="13985" y2="11735.5" gradientUnits="userSpaceOnUse">
<stop stop-color="#FFC5B2"/>
<stop offset="1" stop-color="#7A4747"/>
</linearGradient>
<linearGradient id="paint41_linear" x1="20232.1" y1="12472.3" x2="20963.1" y2="12472.3" gradientUnits="userSpaceOnUse">
<stop stop-color="#1E2225"/>
<stop offset="1" stop-color="#000A14"/>
</linearGradient>
<linearGradient id="paint42_linear" x1="55931.4" y1="95937.8" x2="49499.2" y2="96020.1" gradientUnits="userSpaceOnUse">
<stop stop-color="#1B0C27"/>
<stop offset="1" stop-color="#351C4D"/>
</linearGradient>
<linearGradient id="paint43_linear" x1="26913.3" y1="5059.68" x2="25511.2" y2="5161.49" gradientUnits="userSpaceOnUse">
<stop stop-color="#1B0C27"/>
<stop offset="1" stop-color="#765285"/>
</linearGradient>
<linearGradient id="paint44_linear" x1="17541.6" y1="6863.12" x2="18141.8" y2="6863.12" gradientUnits="userSpaceOnUse">
<stop stop-color="#7A4747"/>
<stop offset="1" stop-color="#FFC5B2"/>
</linearGradient>
<linearGradient id="paint45_linear" x1="19733.3" y1="11460.6" x2="18872" y2="11486.6" gradientUnits="userSpaceOnUse">
<stop stop-color="#1B0C27"/>
<stop offset="1" stop-color="#351C4D"/>
</linearGradient>
<linearGradient id="paint46_linear" x1="78755.7" y1="48343.6" x2="67115.3" y2="48637.5" gradientUnits="userSpaceOnUse">
<stop stop-color="#5CDB95"/>
<stop offset="1" stop-color="#C6D8AF"/>
</linearGradient>
<linearGradient id="paint47_linear" x1="32100.3" y1="8159.75" x2="33407.1" y2="9134.03" gradientUnits="userSpaceOnUse">
<stop stop-color="#5CDB95"/>
<stop offset="1" stop-color="#C6D8AF"/>
</linearGradient>
<linearGradient id="paint48_linear" x1="25957.5" y1="8601.39" x2="24653.7" y2="8712.08" gradientUnits="userSpaceOnUse">
<stop stop-color="#C6D8AF"/>
<stop offset="1" stop-color="#5CDB95"/>
</linearGradient>
<linearGradient id="paint49_linear" x1="41037.4" y1="18592" x2="44168.5" y2="18592" gradientUnits="userSpaceOnUse">
<stop stop-color="#1E2225"/>
<stop offset="1" stop-color="#000A14"/>
</linearGradient>
<linearGradient id="paint50_linear" x1="13576.2" y1="71091.1" x2="13869.2" y2="71091.1" gradientUnits="userSpaceOnUse">
<stop stop-color="#1B0C27"/>
<stop offset="1" stop-color="#351C4D"/>
</linearGradient>
<linearGradient id="paint51_linear" x1="15855" y1="14658.5" x2="14314.7" y2="15874.9" gradientUnits="userSpaceOnUse">
<stop stop-color="#5CDB95"/>
<stop offset="1" stop-color="#C6D8AF"/>
</linearGradient>
<linearGradient id="paint52_linear" x1="18948.7" y1="9197.66" x2="17868.4" y2="10445.3" gradientUnits="userSpaceOnUse">
<stop stop-color="#5CDB95"/>
<stop offset="1" stop-color="#C6D8AF"/>
</linearGradient>
<linearGradient id="paint53_linear" x1="15788.7" y1="9254.27" x2="15005.1" y2="9974.73" gradientUnits="userSpaceOnUse">
<stop stop-color="#5CDB95"/>
<stop offset="1" stop-color="#C6D8AF"/>
</linearGradient>
<linearGradient id="paint54_linear" x1="20902.3" y1="2782.96" x2="20859.7" y2="2958.25" gradientUnits="userSpaceOnUse">
<stop stop-color="#5CDB95"/>
<stop offset="1" stop-color="#C6D8AF"/>
</linearGradient>
<linearGradient id="paint55_linear" x1="34331.8" y1="8100.62" x2="31757.5" y2="8429.1" gradientUnits="userSpaceOnUse">
<stop stop-color="#5CDB95"/>
<stop offset="1" stop-color="#C6D8AF"/>
</linearGradient>
<linearGradient id="paint56_linear" x1="18550.2" y1="7521.24" x2="17880" y2="7568.51" gradientUnits="userSpaceOnUse">
<stop stop-color="#5CDB95"/>
<stop offset="1" stop-color="#C6D8AF"/>
</linearGradient>
<linearGradient id="paint57_linear" x1="6645.24" y1="7778.81" x2="6216.82" y2="7801.91" gradientUnits="userSpaceOnUse">
<stop stop-color="#FFC5B2"/>
<stop offset="1" stop-color="#7A4747"/>
</linearGradient>
<linearGradient id="paint58_linear" x1="65063.6" y1="61105.4" x2="28370.8" y2="63108.7" gradientUnits="userSpaceOnUse">
<stop stop-color="#000A14"/>
<stop offset="1" stop-color="#1E2225"/>
</linearGradient>
<linearGradient id="paint59_linear" x1="10435" y1="19969.8" x2="12483.2" y2="19969.8" gradientUnits="userSpaceOnUse">
<stop stop-color="#FFC5B2"/>
<stop offset="1" stop-color="#7A4747"/>
</linearGradient>
<linearGradient id="paint60_linear" x1="2707.81" y1="7578.86" x2="2677.16" y2="7749.37" gradientUnits="userSpaceOnUse">
<stop stop-color="#FFC5B2"/>
<stop offset="1" stop-color="#7A4747"/>
</linearGradient>
<linearGradient id="paint61_linear" x1="28028" y1="21559.5" x2="22281.6" y2="21855.8" gradientUnits="userSpaceOnUse">
<stop stop-color="#7A4747"/>
<stop offset="1" stop-color="#FFC5B2"/>
</linearGradient>
<linearGradient id="paint62_linear" x1="17470" y1="52171.3" x2="13523.6" y2="52242.4" gradientUnits="userSpaceOnUse">
<stop stop-color="#1B0C27"/>
<stop offset="1" stop-color="#351C4D"/>
</linearGradient>
<linearGradient id="paint63_linear" x1="17656.1" y1="8287.42" x2="17649.7" y2="8493.29" gradientUnits="userSpaceOnUse">
<stop stop-color="#7A4747"/>
<stop offset="1" stop-color="#FFC5B2"/>
</linearGradient>
<linearGradient id="paint64_linear" x1="5811.29" y1="34275.7" x2="4795.92" y2="37239.5" gradientUnits="userSpaceOnUse">
<stop stop-color="#1B0C27"/>
<stop offset="1" stop-color="#351C4D"/>
</linearGradient>
<linearGradient id="paint65_linear" x1="309.313" y1="439.132" x2="289.664" y2="439.8" gradientUnits="userSpaceOnUse">
<stop stop-color="#5CDB95"/>
<stop offset="1" stop-color="#C6D8AF"/>
</linearGradient>
<linearGradient id="paint66_linear" x1="308.209" y1="421.835" x2="245.275" y2="423.977" gradientUnits="userSpaceOnUse">
<stop stop-color="#351C4D"/>
<stop offset="1" stop-color="#765285"/>
</linearGradient>
<linearGradient id="paint67_linear" x1="17172.6" y1="27610.6" x2="13492.7" y2="27708.3" gradientUnits="userSpaceOnUse">
<stop stop-color="#FFC5B2"/>
<stop offset="1" stop-color="#7A4747"/>
</linearGradient>
<linearGradient id="paint68_linear" x1="19629" y1="10303.8" x2="16390.1" y2="10662.2" gradientUnits="userSpaceOnUse">
<stop stop-color="#1B0C27"/>
<stop offset="1" stop-color="#351C4D"/>
</linearGradient>
<linearGradient id="paint69_linear" x1="9621.45" y1="38589.6" x2="11202.7" y2="35424.9" gradientUnits="userSpaceOnUse">
<stop stop-color="#5CDB95"/>
<stop offset="1" stop-color="#C6D8AF"/>
</linearGradient>
<linearGradient id="paint70_linear" x1="12930.3" y1="35698.4" x2="14139.3" y2="32863.4" gradientUnits="userSpaceOnUse">
<stop stop-color="#5CDB95"/>
<stop offset="1" stop-color="#C6D8AF"/>
</linearGradient>
<linearGradient id="paint71_linear" x1="10597.7" y1="19208.2" x2="10676.2" y2="18752.8" gradientUnits="userSpaceOnUse">
<stop stop-color="#5CDB95"/>
<stop offset="1" stop-color="#C6D8AF"/>
</linearGradient>
<linearGradient id="paint72_linear" x1="6458.35" y1="27374.1" x2="5255.08" y2="27402.8" gradientUnits="userSpaceOnUse">
<stop stop-color="#1B0C27"/>
<stop offset="1" stop-color="#351C4D"/>
</linearGradient>
<linearGradient id="paint73_linear" x1="3504.89" y1="24527.7" x2="3107.66" y2="24533.9" gradientUnits="userSpaceOnUse">
<stop stop-color="#1B0C27"/>
<stop offset="1" stop-color="#351C4D"/>
</linearGradient>
<linearGradient id="paint74_linear" x1="8201.19" y1="9066.25" x2="7544.39" y2="9103.71" gradientUnits="userSpaceOnUse">
<stop stop-color="#1B0C27"/>
<stop offset="1" stop-color="#351C4D"/>
</linearGradient>
<linearGradient id="paint75_linear" x1="5835.41" y1="8360.92" x2="5575.09" y2="8368.19" gradientUnits="userSpaceOnUse">
<stop stop-color="#FFC5B2"/>
<stop offset="1" stop-color="#7A4747"/>
</linearGradient>
<clipPath id="clip0">
<rect width="800" height="568" fill="white"/>
</clipPath>
</defs>
</svg>
