<svg xmlns="http://www.w3.org/2000/svg" xmlns:xlink="http://www.w3.org/1999/xlink" viewBox="0 0 1256.37 1695.45"><defs><style>.cls-1{fill:#5cdb95;}.cls-2{fill:#001730;}.cls-3{fill:url(#linear-gradient);}.cls-4{fill:#ffc5b2;}.cls-5{fill:#fff;}.cls-6{fill:#ffe2de;}.cls-7{fill:#9b4e55;}.cls-8{fill:#474747;opacity:0.82;}.cls-9{fill:#c9c9c9;}.cls-10{fill:url(#New_Gradient_Swatch_copy);}.cls-11{fill:#6b6b6b;}.cls-12{fill:#e0978d;}.cls-13{fill:#be746d;}.cls-14{fill:url(#New_Gradient_Swatch_copy-2);}.cls-15{fill:url(#New_Gradient_Swatch_copy-3);}.cls-16{fill:url(#New_Gradient_Swatch_copy_2);}.cls-17{fill:url(#New_Gradient_Swatch_copy_2-2);}.cls-18{fill:url(#New_Gradient_Swatch_copy-4);}.cls-19{fill:url(#linear-gradient-2);}.cls-20{fill:#765285;}.cls-21{fill:#181844;}.cls-22{opacity:0.56;fill:url(#linear-gradient-3);}.cls-23{fill:url(#linear-gradient-4);}.cls-24{fill:#7a4747;}.cls-25{fill:url(#New_Gradient_Swatch_copy-5);}.cls-26{fill:url(#New_Gradient_Swatch_copy-6);}.cls-27{fill:url(#New_Gradient_Swatch_copy_2-3);}.cls-28{fill:url(#linear-gradient-5);}.cls-29{fill:url(#linear-gradient-6);}.cls-30{fill:#6b2f48;}.cls-31{fill:url(#linear-gradient-7);}.cls-32{fill:url(#linear-gradient-8);}.cls-33{fill:url(#linear-gradient-9);}.cls-34{fill:url(#linear-gradient-10);}.cls-35{fill:url(#linear-gradient-11);}.cls-36{fill:url(#linear-gradient-12);}.cls-37{fill:url(#linear-gradient-13);}.cls-38{fill:url(#linear-gradient-14);}.cls-39{fill:url(#linear-gradient-15);}.cls-40{fill:url(#linear-gradient-16);}.cls-41{fill:url(#linear-gradient-17);}.cls-42{fill:url(#linear-gradient-18);}.cls-43{fill:url(#linear-gradient-19);}.cls-44{fill:url(#linear-gradient-20);}.cls-45{fill:url(#linear-gradient-21);}.cls-46{fill:url(#linear-gradient-22);}.cls-47{fill:url(#linear-gradient-23);}.cls-48{fill:url(#linear-gradient-24);}.cls-49{fill:url(#linear-gradient-25);}.cls-50{fill:url(#linear-gradient-26);}.cls-51{fill:url(#linear-gradient-27);}.cls-52{fill:url(#linear-gradient-28);}.cls-53{fill:url(#linear-gradient-29);}.cls-54{fill:url(#linear-gradient-31);}.cls-55{fill:url(#linear-gradient-32);}.cls-56{fill:url(#linear-gradient-33);}.cls-57{fill:url(#linear-gradient-34);}.cls-58{fill:url(#linear-gradient-36);}.cls-59{fill:url(#linear-gradient-37);}.cls-60{fill:url(#linear-gradient-38);}.cls-61{fill:url(#linear-gradient-39);}.cls-62{fill:url(#linear-gradient-40);}</style><linearGradient id="linear-gradient" x1="646.07" y1="358.83" x2="646.07" y2="1371.89" gradientUnits="userSpaceOnUse"><stop offset="0" stop-color="#5cdb95"/><stop offset="1" stop-color="#790faa"/></linearGradient><linearGradient id="New_Gradient_Swatch_copy" x1="569.42" y1="417.58" x2="679.07" y2="417.58" gradientUnits="userSpaceOnUse"><stop offset="0" stop-color="#be746d"/><stop offset="1" stop-color="#e0978d"/></linearGradient><linearGradient id="New_Gradient_Swatch_copy-2" x1="630.88" y1="375.72" x2="617.86" y2="354.65" xlink:href="#New_Gradient_Swatch_copy"/><linearGradient id="New_Gradient_Swatch_copy-3" x1="785.26" y1="398.46" x2="670.25" y2="312.46" xlink:href="#New_Gradient_Swatch_copy"/><linearGradient id="New_Gradient_Swatch_copy_2" x1="573.66" y1="542.03" x2="572.46" y2="479.32" gradientUnits="userSpaceOnUse"><stop offset="0" stop-color="#be746d"/><stop offset="1" stop-color="#ffc5b2"/></linearGradient><linearGradient id="New_Gradient_Swatch_copy_2-2" x1="523.55" y1="415.87" x2="527.34" y2="323.62" xlink:href="#New_Gradient_Swatch_copy_2"/><linearGradient id="New_Gradient_Swatch_copy-4" x1="642.01" y1="285.92" x2="599.32" y2="216.87" xlink:href="#New_Gradient_Swatch_copy"/><linearGradient id="linear-gradient-2" x1="643.1" y1="1097.57" x2="596.07" y2="308.92" gradientUnits="userSpaceOnUse"><stop offset="0" stop-color="#351c4d"/><stop offset="1" stop-color="#765285"/></linearGradient><linearGradient id="linear-gradient-3" x1="628.41" y1="507.72" x2="628.41" y2="323.52" gradientUnits="userSpaceOnUse"><stop offset="0" stop-color="#7a4747"/><stop offset="1" stop-color="#7a4747" stop-opacity="0"/></linearGradient><linearGradient id="linear-gradient-4" x1="633.1" y1="437.29" x2="633.1" y2="419.49" xlink:href="#linear-gradient-3"/><linearGradient id="New_Gradient_Swatch_copy-5" x1="898.05" y1="945.57" x2="872.57" y2="904.35" xlink:href="#New_Gradient_Swatch_copy"/><linearGradient id="New_Gradient_Swatch_copy-6" x1="434.35" y1="1069.94" x2="399.71" y2="1013.92" xlink:href="#New_Gradient_Swatch_copy"/><linearGradient id="New_Gradient_Swatch_copy_2-3" x1="631.68" y1="410.2" x2="634.14" y2="434.27" xlink:href="#New_Gradient_Swatch_copy_2"/><linearGradient id="linear-gradient-5" x1="568.12" y1="275.12" x2="565.44" y2="260.88" gradientUnits="userSpaceOnUse"><stop offset="0" stop-color="#ff9d7b"/><stop offset="0.37" stop-color="#9f5252"/><stop offset="1" stop-color="#001730"/></linearGradient><linearGradient id="linear-gradient-6" x1="689.9" y1="272.07" x2="690.88" y2="261.48" xlink:href="#linear-gradient-5"/><linearGradient id="linear-gradient-7" x1="285.2" y1="1159.52" x2="285.2" y2="1184.51" xlink:href="#linear-gradient"/><linearGradient id="linear-gradient-8" x1="984.32" y1="1097.87" x2="984.32" y2="1143.5" gradientUnits="userSpaceOnUse"><stop offset="0" stop-color="#4a4e69"/><stop offset="0.69" stop-color="#fff"/></linearGradient><linearGradient id="linear-gradient-9" x1="914.78" y1="1158.68" x2="914.78" y2="1270.49" gradientUnits="userSpaceOnUse"><stop offset="0" stop-color="#351c4d"/><stop offset="0.36" stop-color="#790faa"/><stop offset="0.72" stop-color="#5cdb95"/><stop offset="1" stop-color="#fff"/></linearGradient><linearGradient id="linear-gradient-10" x1="535.74" y1="1158.68" x2="535.74" y2="1270.49" xlink:href="#linear-gradient-9"/><linearGradient id="linear-gradient-11" x1="682.23" y1="1158.68" x2="682.23" y2="1270.49" xlink:href="#linear-gradient-9"/><linearGradient id="linear-gradient-12" x1="294.13" y1="1158.68" x2="294.13" y2="1270.49" xlink:href="#linear-gradient-9"/><linearGradient id="linear-gradient-13" x1="414.67" y1="1158.68" x2="414.67" y2="1270.49" xlink:href="#linear-gradient-9"/><linearGradient id="linear-gradient-14" x1="194.57" y1="1158.68" x2="194.57" y2="1270.49" xlink:href="#linear-gradient-9"/><linearGradient id="linear-gradient-15" x1="612.7" y1="1097.87" x2="612.7" y2="1143.5" xlink:href="#linear-gradient-8"/><linearGradient id="linear-gradient-16" x1="535.74" y1="1097.87" x2="535.74" y2="1143.5" xlink:href="#linear-gradient-8"/><linearGradient id="linear-gradient-17" x1="216.53" y1="1097.87" x2="216.53" y2="1143.5" xlink:href="#linear-gradient-8"/><linearGradient id="linear-gradient-18" x1="751.77" y1="1097.87" x2="751.77" y2="1143.5" xlink:href="#linear-gradient-8"/><linearGradient id="linear-gradient-19" x1="845.24" y1="1097.87" x2="845.24" y2="1143.5" xlink:href="#linear-gradient-8"/><linearGradient id="linear-gradient-20" x1="414.67" y1="1097.87" x2="414.67" y2="1143.5" xlink:href="#linear-gradient-8"/><linearGradient id="linear-gradient-21" x1="101.41" y1="1097.87" x2="101.41" y2="1143.5" xlink:href="#linear-gradient-8"/><linearGradient id="linear-gradient-22" x1="624.32" y1="1190.61" x2="624.32" y2="1176.25" gradientUnits="userSpaceOnUse"><stop offset="0.06" stop-color="#001730" stop-opacity="0"/><stop offset="1" stop-color="#001730"/></linearGradient><linearGradient id="linear-gradient-23" x1="535.74" y1="1106.27" x2="535.74" y2="1395.41" gradientUnits="userSpaceOnUse"><stop offset="0" stop-color="#fff"/><stop offset="0.22" stop-color="#005caf"/><stop offset="0.23" stop-color="#001730"/><stop offset="0.32" stop-color="#5cdb95"/><stop offset="0.42" stop-color="#005caf"/><stop offset="0.53" stop-color="#5cdb95"/><stop offset="0.63" stop-color="#001730"/><stop offset="0.7" stop-color="#005caf"/><stop offset="0.78" stop-color="#fff"/><stop offset="0.87" stop-color="#005caf"/><stop offset="1" stop-color="#001730"/></linearGradient><linearGradient id="linear-gradient-24" x1="914.78" y1="1106.27" x2="914.78" y2="1395.41" xlink:href="#linear-gradient-23"/><linearGradient id="linear-gradient-25" x1="682.23" y1="1106.27" x2="682.23" y2="1395.41" xlink:href="#linear-gradient-23"/><linearGradient id="linear-gradient-26" x1="294.13" y1="1106.27" x2="294.13" y2="1395.41" xlink:href="#linear-gradient-23"/><linearGradient id="linear-gradient-27" x1="414.67" y1="1106.27" x2="414.67" y2="1395.41" xlink:href="#linear-gradient-23"/><linearGradient id="linear-gradient-28" x1="195.28" y1="1106.27" x2="195.28" y2="1395.41" xlink:href="#linear-gradient-23"/><linearGradient id="linear-gradient-29" x1="613.16" y1="1106.27" x2="613.16" y2="1395.41" xlink:href="#linear-gradient-23"/><linearGradient id="linear-gradient-31" x1="216.51" y1="1106.27" x2="216.51" y2="1395.41" xlink:href="#linear-gradient-23"/><linearGradient id="linear-gradient-32" x1="751.31" y1="1106.27" x2="751.31" y2="1395.41" xlink:href="#linear-gradient-23"/><linearGradient id="linear-gradient-33" x1="983.86" y1="1106.27" x2="983.86" y2="1395.41" xlink:href="#linear-gradient-23"/><linearGradient id="linear-gradient-34" x1="845.71" y1="1106.27" x2="845.71" y2="1395.41" xlink:href="#linear-gradient-23"/><linearGradient id="linear-gradient-36" x1="101.41" y1="1106.27" x2="101.41" y2="1395.41" xlink:href="#linear-gradient-23"/><linearGradient id="linear-gradient-37" x1="1124.25" y1="1098.33" x2="1124.25" y2="1136.72" gradientUnits="userSpaceOnUse"><stop offset="0" stop-color="#4a4e69"/><stop offset="0.77" stop-color="#fff"/></linearGradient><linearGradient id="linear-gradient-38" x1="1124.16" y1="1165.72" x2="1124.68" y2="1275.09" xlink:href="#linear-gradient-9"/><linearGradient id="linear-gradient-39" x1="1122.35" y1="1191.1" x2="1123.02" y2="1171.78" xlink:href="#linear-gradient-22"/><linearGradient id="linear-gradient-40" x1="1124.25" y1="1103.4" x2="1124.25" y2="1391.16" xlink:href="#linear-gradient-23"/></defs><g id="Layer_2" data-name="Layer 2"><g id="Layer_5" data-name="Layer 5"><g id="logo_avatar-w-text"><g id="border"><path class="cls-1" d="M1183.31,347.5,28.75,529.78l645,1125,553.3-1314.16ZM672.2,1628.85,47,538.55,1208.46,355.19ZM0,516,676.27,1695.45l580.1-1377.79ZM674.69,1669.55l-31.4-54.76-625-1090L1237.74,332.25,1216,384Z"/></g><polygon id="bg-triangle" class="cls-2" points="67.95 548.57 1187.16 371.87 670.39 1599.24 67.95 548.57"/><g id="starburst"><path class="cls-1" d="M1027.43,503.69,716,821.74,892,442.82l-4.38.69L691.81,803.88l64-339.55-9,1.43L664.5,794.91,648.26,481.3,638,482.93l-1.68,312.63L546.87,497.31l-10.17,1.61,72.71,306.87L433.59,515.2l-8.45,1.33,161,308.22L279.61,539.51l-2.19.34L568.21,850.92,185.53,670,557.2,882.18l-288-31,6.54,11.41L554,916,336.37,968.34l8.29,14.44,214.1-33.16L387.81,1058l8.64,15.08,174.76-92.79L435,1140.31l8.66,15.09,146.65-149.76-104.08,224,8.33,14.52,119.92-220.67L537,1317.38l6.74,11.76,98-296.66L664.45,1510,670,1031.82l88.66,295.78,6.85-16.27L696.86,1021.6l112.41,185.79,8-18.9-97.05-185.86,126,117.23,8.07-19.17L738.07,976.46l140.46,66.43,8.07-19.16L749.07,945.2l163.19,17.59,8-19.13-168-32.27,202.05-48.6,7.69-18.25L747.51,877.77l273.6-173.53,4.92-11.68-291,154.5ZM753.09,440.4h0l7.45-1.18Zm151.14-23.86-2.11.33h0l2.11-.33ZM539.9,474.05l-8.76,1.39,8.76-1.39Z"/></g><g id="avatar-w-text_border"><path class="cls-3" d="M1231.46,1057.36h-138c7.92-28.2,14-57.66,16.8-82.34,4.3-37.62,4.39-59.39,3.47-71.65,4.45-14.07,8.4-32.79,5.37-49.41v-.2l-.44-2c-.4-1.81-.91-3.95-1.5-6.47-3.13-13.31-8.8-37.37-9-60.06a56.25,56.25,0,0,0-3.21-56.76c-6.52-41.09-25-66.39-48.5-94.38-7.75-15-22.82-27.59-42.06-35.15-11.07-9.19-25.09-14-40.79-14-1.51,0-3,0-4.55.14l-9.56-3.77c-5.08-2-9.45-4.19-13.66-6.31C935.21,569.7,922,563.07,903,563.07l-1.63,0c-21.14-11.81-49.79-18-70.41-21.06a47.53,47.53,0,0,0-11-13.59c-15.71-42.43-25.79-59-41-65.36l.32-5.19a215.8,215.8,0,0,0,10.31-22.43,54.69,54.69,0,0,0,22.33-29.39c3.54-4.78,9.91-16.16,19.4-48.15,4.95-16.68,10.78-39.6,11.88-50.52,2.55-25-6.8-46.13-25-56.51-.26-11.39-.55-23.48-.79-32.76l.91-.94,3.9-4.06.93-5.55.7-4.27c.76-4.52,4.14-28.36-4-51.24l-.13-.38-.15-.37-.48-1.16-.15-.38-.18-.38c-21.84-47.26-66.26-90.28-97-106.76-16.07-8.63-35-15.32-50.95-20.08L670.53,0l-22.1,5.15-16,3.72c-.9.08-3.19.25-7.24.25-5.52,0-15.31-.32-30.57-1.84-4.8-.48-9.47-.73-13.89-.73-46.19,0-64.56,26.14-74,48.16-20.1,15.34-29.59,30.16-33.94,41.8l-7.42,4.33-.33,10-.19,5.62-4.93.87L461.47,134l.8,8.81c-.78,3.26-2.18,8.72-2.87,11.4-2.17,8.49-4.88,19-7.37,30.26l-.08.35-.07.34-.19,1.06-.06.34-.05.34c-2.74,19.23-1.88,57.42-1,80.85a51.43,51.43,0,0,0-4.23,3.59c-16.13,15.32-18.16,36.54-15,50.06a50.15,50.15,0,0,0,7.74,17.3c2.18,36.64,3,42.09,3.3,43.93,1.42,9.31,5.28,17.62,8.68,25,.93,2,2.48,5.35,2.85,6.46a44.3,44.3,0,0,0,16.58,23.12c3,8.81,5.47,18.1,5.49,18.2l6.66,25a43.66,43.66,0,0,0-8.37,15.23c-.69,2-1.62,4.8-2.77,8.34-1.85,5.71-4.37,13.64-7.48,23.57-1.5,4.78-3,9.57-4.36,14-10.57,4.73-19.11,9.56-26.83,13.92-10.62,6-16.29,9.09-21.55,9.8-4.52-.3-8.15-.45-11.33-.45-9.34,0-16,1.32-22,4.39-33.46,14-45.74,19.84-50.82,22.49a42.32,42.32,0,0,0-10.4-2.2c-1.27-.11-2.61-.16-4-.16-9.35,0-19.11,2.49-26.09,6.68-9.45,5.67-25.59,26.26-34.36,40.42a70.61,70.61,0,0,0-5.86,4c-13.28,10-40.62,51.46-57,90.72a56.3,56.3,0,0,0-28.14,37.66,63.77,63.77,0,0,0,6.22,44.48c-.41,5.76-1,13.53-1.77,23C144.19,856.6,141.58,886.05,147,909c-.81,27.27-2.48,97.43.1,148.4H42.53v304.91H160.28V1323l66,94.63,5.59,8,5.42,7.76h127.8v-71.11H655.24v-5.49a54.15,54.15,0,0,0,23.79,5.49h6.41c7.74,0,15.54-2,23.79-6v6H887.78v-5.49a54.23,54.23,0,0,0,23.8,5.49H918c7.75,0,15.55-2,23.8-6v6h246.65a53.21,53.21,0,0,0,28-8.09,65.57,65.57,0,0,0,17.57-15.72,77.77,77.77,0,0,0,10.59-18.25,65.5,65.5,0,0,0,5-25.17V1057.36Z"/><path class="cls-2" d="M1101,855.76h0c-.39-1.75-.87-3.82-1.45-6.26-3.57-15.19-10.08-42.83-9.45-69.07l1.59-2.78c6.12-10.63,7.22-28-4-42.12-5.26-39.52-22.63-63.08-46.51-91.42-4.51-9.89-16.11-22.2-36.22-29.29-13-12.36-29.7-12.36-38.53-11.25-2.83-1.13-7.12-2.83-13.54-5.36-5.83-2.3-10.76-4.77-15.13-7-11.19-5.61-22.73-11.39-40.93-9.74-23-15-62.71-21-79.2-23-1.07-7.33-5.58-14-12.9-18.93-19.35-53.18-27.39-58.86-36.57-61a82,82,0,0,0-8.29-1.35l1.51-24.54a193.79,193.79,0,0,0,13.55-30c11.93-5,18.35-16,20.54-25.3l.83-.95c10.09-11.14,27.22-75.14,28.82-90.9,1.8-17.8-4.27-32.41-16.24-39.07a28.34,28.34,0,0,0-8.62-3.09c-.37-17.65-1-41.08-1.24-52.4l6.16-6.41.71-4.26c.38-2.32,3.57-23.15-3.22-42.16l-.47-1.16c-19.46-42.1-60.57-83.08-89.08-98.39-20-10.74-45.57-18.38-60.41-22.28l-.1-13.52-16.89,3.93c-.89.14-11.6,1.7-42.81-1.42-46-4.6-61.79,16.56-71.19,40.94-25,17.82-31.74,33.92-33.5,42.31l-4.94,2.88-.26,7.71a43.9,43.9,0,0,0,1.5,12.28l-4.91.87,1.05,11.6c-.47,2.53-2.33,9.76-3.61,14.76-2.15,8.35-4.81,18.73-7.25,29.69l-.19,1.05c-3.06,21.46-1.18,70.87-.37,88.51a31.9,31.9,0,0,0-10.33,6.54c-9.88,9.38-12.06,23.22-9.83,32.77a33.45,33.45,0,0,0,7.85,14.69c1,16.69,2.54,41.95,3.45,47.92,1,6.75,4.17,13.52,7.21,20.06a92.87,92.87,0,0,1,3.69,8.62,25.79,25.79,0,0,0,12.93,15.68c.39.2.8.39,1.21.56.33.89.67,1.82,1,2.77,3.69,10.28,7,22.57,7.15,23.09l8,29.89,6.39-9.58,1,1v12.8a28.75,28.75,0,0,0-8.79,4.33c-5.57,3.43-7.43,8.81-8.67,12.41-.67,1.93-1.58,4.68-2.66,8-1.83,5.65-4.32,13.52-7.41,23.39-2.48,7.9-4.93,15.8-6.85,22-13.32,5.33-23.58,11.13-32.74,16.3-12.19,6.89-20.33,11.48-30.21,12.22-14.6-1.06-20.95-.55-25.89,2.15-17.2,7.22-46.34,19.63-52.36,23.4q-2.28,1.43-4.86,3.35c-5.12-3.07-9.05-4.45-13.25-4.8-6.37-.54-14.46,1.14-19.22,4-5.85,3.51-23.1,24.81-30.6,38.37a47.83,47.83,0,0,0-8.06,5c-9.59,7.18-38.11,49.2-53.74,89.57-12.7,4.91-21.74,15.16-24.59,28.17a45.87,45.87,0,0,0,7,36.14c-.46,7-1.41,19.44-2.79,36.44-21.31,15.71-23.25,42.39-18,61.87-.78,25.31-3.73,135.8,2.83,182.74,11.5,82.27,26.5,170.32,50.6,199.61,12.09,14.69,31.14,22.14,56.63,22.14a171.21,171.21,0,0,0,37.69-4.65c22.75.61,287.17,7.79,339.46,10.29,4.93.23,9.71.35,14.23.35,21.53,0,38.66-2.79,51-8.3,208.27-1.37,241.55-11.35,244.67-12.48l8.38-3.06,6.45-76a155.05,155.05,0,0,0,22.35-17.86c59.49-57.65,86.71-173.56,92.8-226.79,4.76-41.66,4.13-62.28,3.08-71.68C1099.18,890,1104.29,870.79,1101,855.76Z"/></g><g id="avatar-w-text"><path class="cls-4" d="M528.45,526.61V454.92s-26.39-21.78-29.47-50c-12.78-4.14-14.07-14.12-14.07-14.12s-6.44-56.05-7.92-65.6c-8.36-13.63-14.84-30.79,16.11-35.63,9.87-39.58,3.57-56.73,3.57-56.73s6.91-47.51,19.13-79.18S538,102.24,538,102.24,613.34,51.58,675.8,80.61,772.37,162.89,780,189.25s0,94.91,0,94.91,25.3-10.68,28.59,9.51S795.43,370,781.8,387.18C773.91,407.9,759,406.25,759,406.25l-13.73,40.31L741.46,507s13.06,65.28-28.06,104.91S605,620.79,605,620.79Z"/><path class="cls-5" d="M658.66,267.88c8.53-7,20.13-11,34.63-9.33s20.14,10.91,20.14,10.91l-2.55,2.23s-6.59,4.65-19.07,1.68C678.39,270.07,660.52,269.25,658.66,267.88Z"/><path class="cls-6" d="M622.24,336s-3.24-27.6-15-24.79C607.25,311.24,605.17,334.67,622.24,336Z"/><path class="cls-7" d="M670.61,269.86c-5.93-2.8-1.84-8.29.41-9a30.19,30.19,0,0,0-12.36,6.47S665.76,270.44,670.61,269.86Z"/><path class="cls-8" d="M663.5,269.14c11.46-7.22,26.39-9.65,40.23-1,3.59,3.29,1.94,5.24,1.94,5.24s9.11-1.18,7.76-3.91-3.21-4.11-3.21-4.48-11.62-8.44-29.93-6.4-21.16,8.92-21.16,8.92Z"/><path class="cls-9" d="M582.31,396.58c11.39-5.15,47.61-4.23,64.43-3.67s24.54,2.46,24.54,2.46l-1,3.51s-29.76,18.42-46.44,16.51S582.9,405.23,582.31,396.58Z"/><path class="cls-10" d="M661.8,444.86c-14.93-5.88-56.75.73-56.75.73-13.22-14.33-35.63-51.24-35.63-51.24l7-4.78s7.92,23.09,22.05,35.52c0,0,36.55,12.87,60,2.27,21.12-10.79,20.57-14.46,20.57-14.46s-2.57,15.49-4,17.94S661.8,444.86,661.8,444.86Z"/><path class="cls-11" d="M599.19,395.49C601.93,404,622,407.24,622,407.24s25.62-.08,25.89-.48,7.61-11.69,7.61-11.69,15.91-.84,17.84,0,0,3.66,0,3.66-8,4.52-23.68,8.51-36,1.86-47.67,0-17.6-5.79-18.27-6.06-3-2.84-2.74-3S599.19,395.49,599.19,395.49Z"/><path class="cls-12" d="M654.42,302.35c15.48,25.11,21,36.43,21,36.43-10,17.57-23.41,6.58-23.41,6.58S660.61,319.21,654.42,302.35Z"/><path class="cls-13" d="M633.1,346.55c6.76,2.27,3.15,12.65-4.69,12.59,15.37,13.79,40.4,13.65,40.09,11.91s-14.83-21.62-9.52-31.27C649.51,338.87,644.85,336.16,633.1,346.55Z"/><path class="cls-14" d="M601.35,379.56c13.92-6.24,19.73-1.27,27.06-.81s18.71-8.21,30.09,0c-3.41-18-9.31-24.78-9.31-24.78l-7.88-2.08s-11.74,8.65-15,7.28-13.5-6.29-13.5-6.29Z"/><path class="cls-15" d="M708.12,103.22c24.42,76.88,0,121,0,121s17.18,14.69,5.76,35.76l-.47,9.88s23.24,16,15.68,73.86-23.59,52.87-23.59,52.87l-14.67-16.31-11.47-1.56s20.54,10,19.17,22.73-22.78,5.76-22.78,5.76,1.63,19.16-23.76,23.6c20,21-10.68,67.32-10.68,67.32l29-5.27L653.78,537.7l67.28-24L722.88,458s33-16.71,40.68-61.36S776,184,771.81,175.94,708.12,103.22,708.12,103.22Z"/><path class="cls-16" d="M540.75,470.36s.14,64.84,1,62.69,43.65,29.57,43.65,29.57l21.45,37.17c-30.33-86.42-44.4-113.7-44.4-113.7Z"/><path class="cls-17" d="M546.67,462.25c-47.31-52.79-37.38-147.78-37.38-147.78-19.66,67.14-.86,119.12-.86,119.12S522.54,457.32,546.67,462.25Z"/><path class="cls-18" d="M665.15,270.44l-6.21-4.88s-2.79-12.49,4.93-16c11.07-16.48,27-18.74,27-18.74s-26.9-5.52-33.79-5.5c-1.62.65-14.23,21-14.23,21l-3.25,62.09s4.22,8.41,3.9,17.14-38.49,19.08-33-15.85c1.29-58.53,1.62-66.61,1.62-66.61L593.23,223.3s-15.74,7.18-17,6.53-25.54,1-25.54,1,28.93,7.06,37.45,16.25l8.52,9.19s1.16,10.35-.54,13.24l-.46-1.51a15,15,0,0,1-2.73,2.24l-1.09,0,.09.62c-6.62,3.75-16,4.28-16,4.28,5.48,7.83,12.72,7.82,17.65,6.55l4.61,31s-11.31,12.94-7.56,23.61c3.46,9.86,15.88,9.66,23.23,8-1.49-.26-2.64-.44-2.64-.44s-7.57-5.68-5.92-18.61c0,0,2.53,10.78,15.51,20.67a11.8,11.8,0,0,0-3.35-.95c11.48,6.06,22.62-1.11,22.62-1.11s10.56,7.34,19-4-.33-28.14-2.27-30.08c3.76-14.1,6.38-23.33,8.09-29.11,7.71,1.24,14.91-3.08,14.91-3.08-9.87-5.42-13.36-7.26-13.36-7.26Zm-69,61.05c-3.31-.83-2.81-9.41,5.61-19C608,308.81,599.4,332.31,596.1,331.49Z"/><path class="cls-19" d="M208.66,1114.48c-23.25-53.46-22.14-66.32-23.64-67s-.87-141.06,0-145.42c-7.71-20.62,3.63-39.74,15-45.89,3.82-47.3,3.34-51.09,3.34-51.09s-21.28-39.73,12.3-45.41c18.45-53,57.24-93.66,57.24-93.66h6.15s17.8-36.43,28.86-39.74,22.23,9.46,22.23,9.46,47.2-35.2,73.32-34.53c29.6-.68,84.21-33.11,84.21-33.11l23.18-63.18,17.5-6.77v26.43l53.93,34.09s33.16,55.85,47.85,66.19c17-23.18,30.2-22.23,30.2-22.23s3.62-6.08-14.28-44c4.35-27,20.57-27.42,31.85-24.37,38.72-17.77,60.56-24.39,60.56-24.39l3.23-17,24.52,5.27,27,51L799.43,561l-2.6,8,60.78,18.54S878,591.76,894,600.27c22.24,1.9,25.55,2.37,25.55,2.37l44,19.87s19.78-9.72,37.8,14.77c22.94,6.35,26.54,18.34,26.54,18.34s38,41.64,43,86.57c12.29,6.15,3.31,26,0,29.33,3.31,36.9,11.82,80.89,13.24,89.88s-4.35,31.22-4.35,31.22-3.69,69.06-6.06,88.93-44.46,170.77-82.31,194-53,32.64-53,32.64-16.56,16.56-16.08,19.87-7.57,38.32-7.1,39.74-146.64,2.36-148.06,1.89-46.2,15.61-46.2,15.61-15.83,18.22-60.24,13.24c-63.39-2.36-328.77-9.23-328.77-9.23l-7.57-5s-50.61,18.45-81.36,1-46.36-115.9-49.2-145.23C190.61,1116.37,208.66,1114.48,208.66,1114.48Z"/><path class="cls-1" d="M793.24,549.17l-27-51-24.52-5.27L738.85,508a33.88,33.88,0,0,0,12.34,2.6s9,45.51,37.48,45.56c10.76,4.87,8.16,12.91,8.16,12.91l2.6-8Zm291,312.23c-1.42-9-9.93-53-13.24-89.88,3.31-3.31,12.29-23.18,0-29.33-5.09-44.93-43-86.57-43-86.57s-3.6-12-26.54-18.34c-18-24.49-37.8-14.77-37.8-14.77l-44-19.87s-3.31-.47-25.55-2.37c-16.08-8.51-36.42-12.68-36.42-12.68l-60.78-18.54L784.72,581.2l5.62,12.23h20.11S990,649.92,1000.39,656.31s-5.21,34-5.21,34-6,6.7-3,6,34.26,9.68,36.5,9.68,20.37,43.71,20.24,59.1c6.06-28.87,2.46-41-.37-45.84,5.22,6.71,16.81,25.11,13,52.64a56.25,56.25,0,0,1-9,16l17,98.18c-20.7,21-20.57,25.35-20.57,25.35s16.33,67.82,14.59,111.66c5.86-20.26,9.6-35.95,10.26-41.48,2.37-19.87,6.06-88.93,6.06-88.93S1085.62,870.38,1084.2,861.4Z"/><path class="cls-20" d="M821.24,608.08l-3.33,4.19L786.4,651.94s60.91-21.18,69.05-38.94"/><path class="cls-20" d="M307.83,1081.36c-13.87,6.35-25.17,18.94-25.17,18.94l-1.25,5.7s12.67-1.61,13.21-1.87,83.87-12.48,108.44-8.55c31.46,9.33,58.39,31,58.39,31l15.33-12.29s-47.67-28-65.85-35.88S307.83,1081.36,307.83,1081.36Z"/><path class="cls-1" d="M357,665.4c4.4-1.63,37-14.65,44.09-22.89s43.07-18,43.92-20.74,45.62-27.2,45.62-27.2l16.13,27.2S505,555.91,528.37,514.19c-2.1-5.3-3.76-10-5.1-14.06l-12.4,4.8-23.18,63.18s-54.61,32.43-84.21,33.11c-26.12-.67-73.32,34.53-73.32,34.53S319,623,307.93,626.29,279.07,666,279.07,666h-6.15s-38.79,40.68-57.24,93.66c-33.58,5.68-12.3,45.41-12.3,45.41s.48,3.79-3.34,51.09c-11.39,6.15-22.73,25.27-15,45.89-.87,4.36-1.5,144.75,0,145.42s.39,13.52,23.64,67c0,0-13.58,1.43-15,17.27,20.19,15.73,39.57,30.62,39.57,30.62-32.56-149.58-28.16-278-28.16-278l21.1-20.85,7.06-33.9L240.34,784s21.37-19.51,23.41-26.63,19.33-27.32,18.31-41.13,7.87-34,7.87-34l17.9,19.13,16.54-45.11,18.75,7.5S352.63,667,357,665.4Z"/><path class="cls-21" d="M274.22,1179.91c43.34,23.69,85.39,17.7,85.39,17.7s-36.46-12.8-42.69-25.22c40.06,20.7,113.79-34.18,131.49-44-49.33,66-34.23,71.85-79.39,92.93,0,0,31.38-3.39,57.84-37.26,83.66-5.27,101.35-6.63,101.35-6.63s-9.28,19.88-45.1,21.35c-43.72,4.47-87.75,35-86.62,35.72s48.17-5.28,91.83-14.31,102.75-36.88,102.75-36.88-10.68,27-60.29,43.41c51-17,99.42-10.87,120.87-.42,18.44-.47,20.32-3.1,20.32-3.1-45.91-26.72-64-50.81-64-50.81l98.6,41s3.57,25.62-1.5,42.91-114,14.3-114,14.3l-44,22.58L351,1287.55l-28.6-1.5s-64,21.45-89.19-8.28-38.76-130.22-38.76-130.22v-57.2s-11.4-44.78-11.91-46.29,0-85,0-85l36.37,63.6s-4.52-17.31-4.52-18.44-31.85-80.54-31.85-80.54L185,907.07l30.08,65.14s4.89,102,14.3,141.47,14.67,69.25,14.67,69.25l30.15-3"/><path class="cls-21" d="M289.93,1106.65c47.59-27.29,115.47-11.07,115.47-11.07C357.82,1145.84,289.93,1106.65,289.93,1106.65Z"/><path class="cls-21" d="M228.39,911.89c72.15,79.74,106.33,123.42,106.33,123.42l19-2.86L318.9,985c36.71,14.21,70.61,50.29,70.61,50.29s-55.13,3.16-99.58,0c-.15,33.54,0,38,0,38l63.15-15.19c-84.18,33.55-103.8,98.7-103.8,98.7S217.63,983.41,228.39,911.89Z"/><path class="cls-21" d="M377.4,1002.32S328.92,966.15,298.82,954c28.6-5.29,42.35,0,42.35,0s-28.88-73.69-40.35-87.64c57,23.65,52.27,40.74,52.27,40.74Z"/><path class="cls-21" d="M397.26,1002.32c-14.66-86.29-14.66-93.4-14.66-93.4s-7.12-15.23-13-20.46-14.07-5.76-14.07-5.76-24-119.62-31.12-147.56c20.45,62.67,31.5,73.71,31.5,73.71l28.95,72.07C391.93,820.47,427,792,427,792L414.89,896.12,484.82,980l23,7.6-24.35-88.49S505.27,909,515,927s35.12,68.36,35.12,68.36-47.34-18.42-56.75-18.2-23.7,31.34-23.7,31.34Z"/><path class="cls-21" d="M203.25,871.81s2.91,4.36-3.21,2.48c23.6-22.65,30.89-50.1,30.89-50.1l-13.09-33.65,15.28,5.79s28-106.72,51.93-125.25c17.07,17.8,23.91,24.12,22.33,23.07s-8.56-35.29-8.56-35.29,19.77-27.46,25.55-25.28,22.27,20.76,22.27,20.76l5.51-18.13S390.08,613,409,616.2s57.29-31.61,83.42-34.24L514,641.86,507,661s-34.77-43.72-55.31-34.77-82.22,144.16-82.22,144.16l-17.31-14.58S340,683.9,342.3,682.41c-16,23.33-17.93,42.82-17.93,42.82s-25.94-23.18-30.68-23.18-43.6,89.72-9.16,126.77C259.3,821.3,251,813.09,251,813.09s10,53.78,24.23,70.66c-37.92,1.6-49.09-3.14-49.09-3.14L211,907.07l2.64,36.74Z"/><path class="cls-21" d="M467.16,652.27C452.11,678.61,445,715.49,445,715.49c26.64,55.7,37.17,64.73,37.17,64.73C473.18,683.13,467.16,652.27,467.16,652.27Z"/><path class="cls-21" d="M547.35,633.07c.19-13.89,22.9-70.51,25.86-74.39s5.66-2.17,5.66-2.17,6.76.2,14.74,24.82c-15.36,3.17-12,26.75-12,26.75S609,633,610.42,682.26c-1.89,32.17-6.76,46.61-6.76,46.61S568.12,673.64,556,662.35"/><path class="cls-21" d="M653.78,661.39c11.19-21.29,13.92,0,13.92,0s-2.37,69.43-5.45,122.62c42.47-113.36,103.82-175.19,103.2-185.66s-21.4,15-21.4,15l-34.44,15s11-75.92-32.78-84.81c17.48,36.81,2.44,44,2.44,44l-19.09,43.73-24.25,15.9S650.85,640,653.78,661.39Z"/><path class="cls-21" d="M802.17,591.75c-38.55,52.44-72,127-72,127,63.75-80.2,90.48-101.27,90.48-101.27,68.89.51,115.67,26.21,115.67,26.21s-23.13,25.2-30.33,58.1c26.73-50.38,74.15-52.64,73.83-40.46s-20.27,40.76-20.27,40.76l6.08,16.66s32.15-19.81,50.77-13.5c15.54,27.9,9.89,61.31-7.59,74.68,22.62,1.54,40.1-12.85,40.1-14.91s0-53.47-20-83.8c-22.11-7.19-26.22,4.69-26.22,4.69s5.66-27.82-2.06-37.07-29.81-19.54-47.29-15.43c-91.51-32.9-146.05-48.84-146.05-48.84Z"/><path class="cls-21" d="M875.48,753c-37.61,93.74-37.61,105.82-37.61,105.82S769.32,805.13,875.48,753Z"/><path class="cls-21" d="M779.41,981.37s22.43-84.13,76-94.44c-26.4,44.32-31.94,84-31.94,84S787.63,985.94,779.41,981.37Z"/><path class="cls-21" d="M1019.57,1043c-81.62,70.92-105.9,89.06-105.9,89.06-32.93,44.86-74.74,59.46-74.74,59.46l-21,4-38.5-12s-22.1,47.19-40.56,49.38c15.79,26.22,24.48,26.22,27.83,26.89s66.23,2.68,77.6,2.68,94.37-54.54,120.79-70.75,55.17-39.87,72-91.23c.52-62.81,0-86.23,0-86.23s9.88-15.76,11.22-18.92,0,75.22,0,75.22l13.19-40.7V925.28L1045,911.37s-49.31,69.44-87.54,78.14C966.7,1059.76,1019.57,1043,1019.57,1043Z"/><path class="cls-21" d="M1025.58,902.51c39.24-24,41.14-36.18,41.14-36.18s-11.39-49.26-8.23-63.19c-20.25,40.51-26,66.8-30.38,67.9,15.82-7.14,20.83-12.22,20.83-12.22Z"/><path class="cls-21" d="M878.25,881.82c50.65-72,80-85.91,98.82-87.4-44.7,56.61-52.64,64.4-52.64,64.4s1.53-3.32-6.19-3.32S878.25,881.82,878.25,881.82Z"/><path class="cls-20" d="M307.83,853.25c3.07-.1,51.63,27,51.63,27C346.85,835.49,314.85,840.16,307.83,853.25Z"/><path class="cls-20" d="M472.75,1002.32c.49-.93,104.47,18.89,104.47,18.89s26.4-11.85,40.57-10.11C490.7,982,484.82,980,484.82,980S468.75,993.74,472.75,1002.32Z"/><path class="cls-20" d="M363.83,893.09c-20.21,24.93,25.68,72.08,25.68,72.08l-19.62-69Z"/><path class="cls-20" d="M617.79,1004c-32.16,10.46-40.57,17.23-40.57,17.23l-16.34,37.11s15.19-27.53,62.44-37.11c20.26-1.71,25.88-2.27,25.88-2.27s-56.26,21.53-69.76,34.4c97.89-33.84,214.9-59.15,232.91-57.46,21.94,60.19,58.7,68.75,58.7,68.75s-29.82-42.39-31.88-64c35.06-9.24,78.08,11,79.07,12.7C915.86,997,893.36,988,893.36,988s19.12-7.59,39.37-5.76c0,0,31.51-39.25,34.88-42.06a283.3,283.3,0,0,0-27,15.75l-6.75,8S926,957.62,912.48,961s-19.12,15.19-19.12,15.19L868,970.92l-40.51,14.83-3.3-19L781.4,988.56,760,985s-98.45,24.92-100.14,26.05S617.79,1004,617.79,1004Z"/><path class="cls-21" d="M731.41,1042.11c-56.92,33.9-60.12,35.82-60.12,35.82l-98.49,9s19.83,17.37,73.55,23.06,144.54-5.83,147.09-6.47,49.25,5.84,55,8c-48.6-42.58-90.17-34-92.09-36,33.9-35.33,42.85-47.48,39.65-48.12S731.41,1042.11,731.41,1042.11Z"/><path class="cls-20" d="M448.41,1128.39c-41.74,25.33-52.87,31.23-52.87,31.23S411.33,1118.24,448.41,1128.39Z"/><path class="cls-20" d="M445,715.49l37.17,64.73S426.11,772.72,445,715.49Z"/><path class="cls-20" d="M606.94,794.42c-1.3,8.9,14-115.2,26.15-140.37s27.09-22.73,27.09-22.73,16.79-29,15.5-35.51-24.88-52.38-5.84-62.76c-16.86,1.06-30.18,22.81-16.06,43.11,10.87,17.06,3.74,31.92,3.74,31.92s-39.73,18.86-47.1,65.55"/><path class="cls-20" d="M867,1078.32c16.61,12.84,25.68,22.41,25.68,22.41C864.48,1102.24,863.47,1085.12,867,1078.32Z"/><path class="cls-20" d="M878.25,881.82c4.29-6.89,18.53-19.85,18.53-19.85,36.1-62.23,31.4-115.93,26.7-131.37-43.63,108.75-57.06,151.22-57.06,151.22S866.15,891.27,878.25,881.82Z"/><path class="cls-20" d="M660.21,794.88l-42.42,139.2s25.49-21.12,36-75.26C644,967.21,660.21,985,660.21,985Z"/><path class="cls-1" d="M738.85,508c-21,9.32-37.08,10.1-37.08,10.1s44.08,2.84,51.39,0,0-10.1,0-10.1Z"/><path class="cls-21" d="M491.78,1027.38c-17.39,25.06-15,50.94-15,50.94l15-16.1c29.88,10.33,39,16.1,39,16.1C512.42,1034.51,491.78,1027.38,491.78,1027.38Z"/><path class="cls-4" d="M384.72,1034.34c1.15-2.72,7.57-18.37,7.57-18.37l80.46-13.65s-25.93,76.3-12.2,100.68c-49.62-24.63-58.17-24.68-58.17-24.68l-2.95-2.8Z"/><path class="cls-4" d="M825,970.92c-.07-.37,2.07-16.3,2.07-16.3s18-24.52,24.41-40.25,15.8-24.51,15-24.76,33.7-29.07,43.66-30.79,11.24,0,12.79,0h1.56l-19.35,30.27s48.49-24.88,60.87-22.76c11.09,4.7,5.91,24.82,1.66,28.69,12.27-4.64,15.88-.26,15.88-.26s5.41,16.51-2.46,21.93-23.58,12.9-23.58,12.9l3.08,10.59s-15.73,17.78-17,17.52-7.63,3.82-7.63,3.82-20.4-4-30.63,2.39-15.93,13.25-16.18,11.39-7.86-8.46-9.6-8.52-14.89,4.14-14.89,4.14l-32.34,14.64Z"/><path class="cls-22" d="M490.49,343.75l21.39,35h2.92v5.91l3.89-2.6s19.47,2.5,21.42,9.69a44.82,44.82,0,0,1,1.62,11.08l2.59-8.44s12.15,1.05,16.62-9.37c-3.16,9.55-1.69,11.6-1.69,11.6l25.64-20.4c-12.92,15.76-11,36.67-11,36.67h-5.47l7.75,9.73c-1.63,16.88,21.41,36.42,26.28,39.63a17,17,0,0,0,1.16,6.66l4.68-4.43s8.76,5.2,11.68,5.85c2.92,4.86,20.12,3.24,28.88,0a18.35,18.35,0,0,0,8.11-8.08l6.17,3.21-4.54-5.84S692,429.89,691,408.57c6.16,5.62,6.16,7.24,6.16,5.62s-10.92-26.29-13.57-29.86,3.84-5.58,3.84-5.58l14.6,6.7s6.49,9.17,8.11,11.17c3.57-4.82,6.17-13.26,6.17-13.26s3.89,7.46,3.57,6.49,25.31-17.52,27.25-22.06c1,7.46,1.63,11,1.63,11l3.56-12.91c12.8-17.5,14-31.15,14-31.15s1,59.05-7.15,85.34-26.61,44.13-26.61,44.13-33.1,58.73-34.07,58.41-38,12.33-38,12.33l-15.57,12.33s-58.74-9.09-68.79-16.22c-39.39-52.69-47.76-66.53-47.76-66.53s-26.5-43-31.23-53.77-4.68-12.42-4.68-12.42Z"/><path class="cls-23" d="M595.89,424c8.34,14.7,10.05,15.44,10.05,15.44l4.66-2s1,4,1.71,3.48,7.6-3.24,7.6-3.24,3.08,2.4,12.57,3.29,20.27-4.27,20.27-4.27l2.2,2,1-3.92s13.77-6.12,14.36-14.21C646.29,439.17,611.09,430.86,595.89,424Z"/><path class="cls-24" d="M630.15,343.21c7.69-4.63,7.56-11.7,7.56-11.7,9.68-7.83,4.15-17,4.15-17,9.3,7.76,7.85,21.22,7.85,21.22a6.78,6.78,0,0,0,7.67-2.17c-.94,9.08-16,8.23-17.17,7.66C635.35,347.05,630.15,343.21,630.15,343.21Z"/><path class="cls-24" d="M613.73,345c-6.79-4.25-7.6-9-7.6-9l-7.06,4.48C605.11,345.06,613.73,345,613.73,345Z"/><path class="cls-12" d="M659.6,266.07c-6.14,1.2-6.86,3.58-6.86,3.58,4.77,7.15,11.08,2.3,10.76-.51-5.3-.76-4.56-3.58-4.56-3.58"/><path class="cls-13" d="M713.41,269.89c-16,7.27-22.58,6.2-22.58,6.2,13.88,9.17,26,4.52,26,4.52-1.08,3.1-5.84,6.08-5.84,6.08,14.18-2.62,19.9-7.27,19.9-7.27-14.54-8.22-15.26-10.37-15.26-10.37Z"/><path class="cls-13" d="M662.56,258.35c11.72-7.05,33.61-5.14,33.61-5.14-7.58-6.93-17.19-6.67-18.66-7.41S667.35,248,662.56,258.35Z"/><path class="cls-13" d="M586.83,245.82l15.29,16.46C608.9,253,599.67,241.67,586.83,245.82Z"/><path class="cls-24" d="M544.35,270s3.06,5.4,21,7.09c0,0-24.59,7.54-32.44,1.66,0,0,5.28-6.15,7.7-7.24"/><path class="cls-24" d="M551.74,253.61c-5.93,5-5.88,12.95-5.88,12.95l-10.44,8.89C535.3,265.88,537.41,261.7,551.74,253.61Z"/><path class="cls-25" d="M824.23,966.78c10.5-44.91,42.19-68.28,42.19-68.28s32.32-2,30.13-2.38c-33.48,17-38.11,23-38.11,23L842.06,955s41.28-22.1,58.12-29.71c-22.91,12.28-29,21.79-29,21.79s9.89-2.17,25.61-6.89,71.12-27.8,73.4-28.81c-3.39,8.54-16,14.68-16,14.68l-5.4,8s12.4,1.75,11.78,6.1-8.64,8.54-8.64,8.54l-16,12.8s-26.81-4.14-34.67,5.26l-7.85,9.41-17.88-8.53-46,17.9-7.33-18.14"/><path class="cls-26" d="M412.35,1011.1c-22.84,24.21,21.48,52.09,43,37.81,1.46,52.46,7.15,57.09,7.15,57.09s-56.07-25.61-56.55-26.88l-16.47-43.81,7.75-33Z"/><path class="cls-24" d="M556.62,252.53c11.27-3.68,35.91,2.22,42.45,8.81C584.28,248,574.43,246,574.43,246Z"/><path class="cls-13" d="M535.42,234.39c-17.55,11-20.67,22.83-20.67,22.83l-2.67,11.87c19.28-12.34,32.58-15.42,32.58-15.42-13.88-6.94-21.78-3.67-21.78-3.67S528.87,238.44,535.42,234.39Z"/><path class="cls-24" d="M609.71,371.05c-.27.83-10.64,17.31-10.64,17.31L579,396.62c-11-1.13-17.57,2.16-17.57,2.16S590.5,371.6,609.71,371.05Z"/><path class="cls-24" d="M647.87,368.58c11.19,12.94,9.51,19.78,9.51,19.78,18.78,5.11,21.24,6.58,21.24,6.58l-.24,2.84-2.63,9.46c11.38-6.81,17.42-19.33,17.42-19.33Z"/><path class="cls-12" d="M528.37,121.61c-2,80.56,7,99.94,7,99.94s-15.45,16.2-20.67,35.67-24.26,72.24-24.26,72.24-1.39-125.78,9.84-148.1S528.37,121.61,528.37,121.61Z"/><path class="cls-1" d="M721.06,516.08l1.41-45.72,13-24.25s21.05-49.17,18-140.28-5.18-99.91-5.18-99.91l10.87-19.16s15.11,71.47,14.21,73.25,0,36.5,0,36.5l-3.9,8.28s-.88,85-10.35,110.78-17,35.72-17,35.72v64.79Z"/><path class="cls-24" d="M578.38,394.58l34.08-8.65c7.34-1.87,15.34-.33,21.7,1.42s10.19-2.56,15.34-2.43,34.09,8.68,34.09,8.68-8,2.52-8.34,2.3-26.36-1.87-33.94-1.21-18-1.53-22.71-1.75-35.07,4.38-35.07,4.38S578.6,396.66,578.38,394.58Z"/><path class="cls-27" d="M583.7,401.18c29.35,7.05,50.67,6,67.4,1.25s19.2-6.94,19.2-6.94h10.79s-4.23,15.58-12.46,21.78-39,13.9-58.92,5.4c-26.42-9.3-30.12-23.89-30.12-23.89A3,3,0,0,1,583.7,401.18Z"/><path class="cls-24" d="M579.59,398.78c5.29,10.69,32.47,22.69,32.47,22.69-8.82-10.41-6.73-11.42-6.37-11.34A133.8,133.8,0,0,0,637,411a60.31,60.31,0,0,0,26.9-9.48c3.67,4.68-1.22,15.58-1.22,15.58,10.16-5.75,15.87-19.89,14.61-21.57h-6s-19.71,7.44-35.51,10-51.09-3.22-53.38-7.26C580.84,395.39,579.59,398.78,579.59,398.78Z"/><path class="cls-4" d="M609.71,414.69c5.74,7.84,25.4,8.31,25.4,8.31C627.5,413.4,612.31,414.36,609.71,414.69Z"/><path class="cls-11" d="M597.5,400c22.16-5.12,30-4.33,30-4.33l-5.72-2.84L597,395.37"/><path class="cls-5" d="M542.88,270c9.88-13.24,28-14.58,37.06-12s15.41,7.45,16.06,8.62a1.39,1.39,0,0,1-.38,1.88s-1.47-1.75-14.34,2.06-27.32,8.34-36.62,1.75C537,270.19,542.88,270,542.88,270Z"/><path class="cls-7" d="M585.16,259c2.8,2.05,4.72,9.19.93,10.2,8.47-1.85,10.13-.37,10.13-.37a4.27,4.27,0,0,0,.38-2.6C596.28,265.06,589.53,259.81,585.16,259Z"/><path class="cls-8" d="M550.78,274.93c4.34-12.15,26.37-13.76,34.51-11.34s8.87,5.69,8.68,5.19.54-1.84.45-2.22-4-7.36-15.18-9.34-26.71,2.35-33.86,11.1c-3.93,4.2-2.68,3.84-2.68,3.84"/><path class="cls-2" d="M572.11,273.13A12.45,12.45,0,0,0,577.26,263a12.69,12.69,0,0,0-1.41-5.84h-.08c-5.84.44-15.28,1.59-22.34,4.62,0,.4-.06.81-.06,1.22a12.25,12.25,0,0,0,9.59,12.1A84.57,84.57,0,0,0,572.11,273.13Z"/><path class="cls-28" d="M575.62,263.63a10.52,10.52,0,0,0-.74-3.86c-4.76.4-12.54,1.4-18.58,3.77v.09a10,10,0,0,0,7.5,9.78,78.34,78.34,0,0,0,7.85-1.68A10.17,10.17,0,0,0,575.62,263.63Z"/><path class="cls-2" d="M680.57,258.1c-3.26,5-.36,11.83,1.91,13.38,9.3,3.15,13.69,2.63,13.69,2.63s3.92-1.23,5.78-6.61a19.08,19.08,0,0,0,.93-6.61S685.47,255.73,680.57,258.1Z"/><path class="cls-29" d="M699.93,267.1a16.31,16.31,0,0,0,.82-4.72c-3-.82-11.17-2.94-16.4-2.94a9.11,9.11,0,0,0-2.68.3c-2.21,4,.05,9.09,1.52,10.33,6.56,2.19,10.44,2.43,11.82,2.43h.44C696.07,272.23,698.59,271,699.93,267.1Z"/><circle class="cls-2" cx="566.77" cy="264.1" r="5.31"/><circle class="cls-2" cx="689.68" cy="263.7" r="4.88"/><circle class="cls-5" cx="571.07" cy="264.72" r="2.02"/><circle class="cls-5" cx="566.56" cy="262.7" r="1.25"/><ellipse class="cls-5" cx="693.2" cy="264.93" rx="2.02" ry="1.97"/><ellipse class="cls-5" cx="688.68" cy="262.97" rx="1.25" ry="1.21"/><path class="cls-6" d="M513.19,190.32c-12.74,141-24.05,232.73,27.56,271.93-37-16.9-52.61-57.44-49.76-104.58s3.07-112.74,3.07-112.74S501.41,192.2,513.19,190.32Z"/><path class="cls-6" d="M495.13,297.72c-21.48-5-20.79,13.15-14.68,16.75,3.06,6.89,2.59,3.37,2.59,3.37s4.89,62.24,11,69.76c-4.2,14.09-6.08,14.5-6.08,14.5s-14-63.32-13.13-80.61C459.32,307.74,470.57,280,495.13,297.72Z"/><path class="cls-13" d="M471.27,296c15.47-2.89,21.47,23,21.19,30.25.94-32.9,0-39.77,0-39.77Z"/><path class="cls-24" d="M790.27,283.64C778.93,295.06,780,307,780,307c11.79-11.8,24.1-18.28,26.09-6.53s-12,49.93-13.06,48.92,3.61-39.16-1.24-43.9-14.8,4-14,22.33c1.26,30.61-10.79,39.14-10.79,39.14s.76-62,1.26-63.23S773.24,283.61,790.27,283.64Z"/><path class="cls-2" d="M766.51,370.2c18,.54,12.82,29-.28,25.29C768.19,375.21,766.51,370.2,766.51,370.2Z"/><path class="cls-1" d="M759,398.92c21.69-18.91,35.47-81.53,36.45-103.57-5.21-11.71-14.63-3.19-14.63-3.19s18.42-26.54,25.42,2.49a172.8,172.8,0,0,1-6.44,52.64l-24.94,51.63s-3.89,5.29-8,5.79S755.88,409.07,759,398.92Z"/><path class="cls-2" d="M585.4,1174.77l5.67,2.66A61.5,61.5,0,0,0,585.4,1174.77Z"/><path class="cls-2" d="M691.52,1023.79l62.79-8.41s-83.53,60.55-83.53,62.79c0,0,33.07,5.61,126.69-51,0,0,9.53-6.72,15.14-31.39C812.61,995.76,766.09,989.7,691.52,1023.79Z"/><path class="cls-2" d="M720.66,269.24a13.2,13.2,0,0,1,.6,1.64,5.39,5.39,0,0,0,.27-2.08c.36-.18.72-.37,1.11-.6l-1.19-.44a19.58,19.58,0,0,0-2.75-7.34c-13.1-14.21-40.5-15.49-40.5-15.49s-13.44-.77-26.21,15.49c9.69-7.47,23.32-17.11,44.59-10.13,14.1,4.62,20.35,12.16,23,16.72-3.23-1.28-8.74-3.59-15.53-6.88h0a32.91,32.91,0,0,0-3.74-1.64c-10-3.7-25.1-4.36-42.81,8.06h-.92a1.77,1.77,0,0,0,.82,1.34h0c5.92,3.92,14.89,1.3,24.73,3.89,0,0-4.19-3-12.36-3.08-5.09,0-7.06-1-7.82-1.68,10.42-5.94,21.79-10.7,35.89-5.91,7.38,2.5,10.9,5.79,12.6,8.43-2.88,3.45-8.29,5.14-8.29,5.14a39.4,39.4,0,0,0,9.74-1.6,5.32,5.32,0,0,1,.1,1c-1.31-.31,1.84,1.39,10.91.94-2-1.46-3.74-3-5.46-4.55A15.79,15.79,0,0,0,720.66,269.24Z"/><path class="cls-2" d="M742.11,254.1a27.49,27.49,0,0,0-9.91-1.9S736.86,256.28,742.11,254.1Z"/><path class="cls-2" d="M678.1,367.33c3.78,4.87,5.82,7.22,5.82,7.22S657.83,357.43,649.19,354,639,352.4,639,352.4s-2.05,7.79-1.57,12.77c-4.71-1.53-4.32-2.4-4.32-2.4-3.23,5.66,7.46,13,7.46,13v-5s27.18,15.09,29.23,18.23l.47-6.44s18.7,6.28,22.62,18.85a14,14,0,0,0,0-8s4.4,10.69,15.25,13.83c-4.56-20.59-9.43-30-9.43-30S680.78,368.9,678.1,367.33Z"/><path class="cls-2" d="M655.09,393.38c-22.58-.23-16,2.31-30.46-.81s-24,3.82-45.52,2.2c-2.55-1.39-2.55,4.74,5.68,6.71-1.74-2.43,8.45-4.86,34.05-7.41,16.79,3.36,17,2.2,29.3,1.74s30.24,2,30.24,2l5.21-4.4S677.68,393.61,655.09,393.38Z"/><path class="cls-2" d="M1087.29,858.79c-.38-1.72-.86-3.76-1.41-6.09-4.1-17.42-11.63-49.48-9.5-79.52,1-.61,1.64-1,1.76-1.07l.86-.54.51-.88c3.1-5.39,5.8-18.2-5.26-29.15-4.13-38.79-19.92-60.14-45.27-90.11-2.83-8.4-14.32-19.1-31.77-24.42-10.77-12.48-27.34-10.11-32.44-9l-1.61-.66c-2.66-1.06-7.34-2.92-15.47-6.13-6.42-2.52-11.64-5.14-16.26-7.46-11.74-5.88-21.1-10.57-38.35-7.67-21.61-17.51-73.91-23.36-81.42-24.12a57.71,57.71,0,0,0-10.5-4.07c2.24-2.5,2.4-3.49,2.53-4.35,1.21-7.8-6.67-12.56-10.45-14.37-19.62-54.91-26.14-56.41-28.3-56.91-4.64-1.07-14.07-1.88-19.92-2.31l2.53-41.31a178.57,178.57,0,0,0,16.33-37.33c12.45-1.61,17.4-12.58,18.27-19l0-.17c.18-.44.93-2,3.69-5,6.33-7,23.5-65.43,25.27-82.93,1.23-12.07-2.18-21.58-9.12-25.44-3.34-1.86-8.46-3-15.52.13-.29-20.05-1.67-73.32-1.67-73.32L792,198s3.17-19-2.59-35.16c-17.58-38-55.62-77.24-83-91.93s-67.72-23.64-67.72-23.64V40.4s-9.8,2.59-47.27-1.15-49.28,10.66-58.21,36c-31.42,21-31.7,38.33-31.7,38.33a11.37,11.37,0,0,1-4.61,6.05c-.29,8.65,4.61,17.58,4.61,17.58s-2,5.76-6.92,6.63c.29,3.17-6.05,24.21-11.24,47.55-3.46,24.21,0,91.07,0,91.07a31.84,31.84,0,0,1-2.83,7.1,19,19,0,0,0-12.09,5c-6.23,5.92-6.91,14.88-5.84,19.46,1.34,5.71,5.42,9.63,7.88,11.55.51,9.08,2.63,45.6,3.63,52.13.73,4.78,3.44,10.62,6.06,16.26a98.77,98.77,0,0,1,4.36,10.34,11.7,11.7,0,0,0,5.83,7.37,10.89,10.89,0,0,0,4.87,1.11h.33c.9,2.06,2.21,5.18,3.94,10C503.54,434.07,507,447,507,447l1.73-2.6c1.26,1.26,5.64,6.25,10.7,12.09,1.53,5.84,1.21,7.36,1.21,7.36s.79.77,2.2,2.1V496.7c-8.93.31-12.76,2.18-15,4-1.63.76-2.3,2.69-3.2,5.3-.65,1.87-1.53,4.53-2.57,7.73-1.82,5.62-4.3,13.44-7.38,23.26-3.46,11.06-6.89,22.13-8.84,28.45-15.46,5.55-27,12-37.2,17.82-13.19,7.45-23.63,13.34-37.17,14.05-13.84-1-17.88-.47-19.51.67-7.39,3.09-45.47,19.11-51.25,22.73a90.48,90.48,0,0,0-11.44,9c-9.59-7.13-12.83-8.15-15.24-8.35-3.74-.31-8.82.83-10.87,2-2.44,1.47-21.27,23.26-27.12,36.23l-.54,1.2,0,.11a26.18,26.18,0,0,0-9.82,5c-7.66,5.74-37.3,49.53-51.46,89.85-7.43,1.32-18.72,6.53-21.6,19.69a31.88,31.88,0,0,0,7.6,28.66c-.22,5.73-1.83,26.37-3.68,49-22.77,12-21.49,38.65-17.34,52-.37,11.64-4.12,134.17,2.63,182.55,6.8,48.62,22.7,162.48,47.55,192.68,10.88,13.21,28.75,17,45.84,17a158.9,158.9,0,0,0,36.23-4.7c15.28.41,288.48,7.82,341.59,10.34q7.11.35,13.56.34,32,0,47.74-8.27c214.76-1.31,243.11-11.66,243.11-11.66l6.28-74h0a144.54,144.54,0,0,0,26-19.8c56.64-54.9,82.75-166.84,88.63-218.35,5.54-48.41,3.54-66.6,2.65-71.54C1083,894.53,1090.42,872.89,1087.29,858.79ZM807.27,579a91.3,91.3,0,0,0-7.29,8.63l-13.58-6.42c3-2.47,5.47-4.57,7.51-6.36A44.3,44.3,0,0,1,807.27,579ZM768.09,391.49c1-10.87,1.66-17.48,2-21.36,0,0,0,0,0,0,.15-.88.31-2.6.46-4.89v0h0c1-15.08,1.85-55.6,1.85-55.6s.26-6.25,10.2-19.93l.59.77c6.18-4.77,11.44-6.37,14.79-4.51,3.86,2.15,5.8,9,4.94,17.43-1.91,18.84-19.21,73.52-23.18,78.25-3.76,4.15-5.67,7.38-5.8,9.83-.25,1.58-1.64,8.14-7.68,10.78A86.59,86.59,0,0,0,768.09,391.49Zm-277.8-3.82a41.41,41.41,0,0,0-1.59,5.2c-.35-.77-.7-1.53-1.07-2.32-2.37-5.12-4.83-10.41-5.38-14-.85-5.55-2.77-37.31-3.67-53.34l-.12-2.2-1.9-1.11c-.05,0-4.84-2.95-5.94-7.65-.5-2.14-.31-8,3.49-11.64,3-2.86,7.72-3.56,14-2.13a13.66,13.66,0,0,1,2.21,6.52C491.44,316.77,487.12,366.34,490.29,387.67Zm27.31,53.86c-9.34-12.34-18.49-30.27-20.68-49.83-3.46-30.83-4-87.9-.29-105.47s3.17-45.83,7.2-65.71c3.75-3.75,15.28-15,16.72-36.6s2.3-29.4,2.3-29.4l-6.63,4.32s2.89-4.61,25.37-34.87c4.61,1.73,14.12-.28,14.12-.28a8.94,8.94,0,0,1-5.77-6.06c14.7,3.75,52.45-22.48,91.65-9.8.57-1.15,10.08-4.61,10.08-4.61s-1.15,4,3.75,5.19c3.46-6,38-9.22,48.13,17.87s38.62,45.25,38.62,45.25l.28,10.08,8.36,15.56-8.36-10.37s.58,15.27,1.73,22.48c.87,5.76,20.75,26.22,20.75,26.22l-4.32-4s1.15,19.88,3.75,36.89c4.21,41.21.25,91.75-1.39,109.25h0s-6.81,32.74-16.52,49.11S730.92,445,730.92,445l.83,3.33-3.88-2.5s-16.68,16.76-41.37,10.38a99.32,99.32,0,0,1-36.86,20.14l-3.33,4.71-.28-4.16s-18,13.32-26.35.28a86.08,86.08,0,0,1-2.22,8.88l-5.55-13.87s-27.47-9.71-30.8-18.31c-11.09,9.15-12.76,15.25-12.76,15.25l.84-9.15S542,466,517.6,441.53Zm133.62,136c5.29,8.16,9.52,14.67,4.33,24.61-9.27,2.87-17.88,9.7-25.29,18.79-10.82-8.19-21.8-29.07-29.37-43.47-4.37-8.3-7.82-14.86-10.52-17.93-6.7-7.62-12.16-9.21-14.89-9.47l-44.42-26V473.43c9.31,8.17,23.67,19.92,38.13,28.47,24.41,14.42,80.72,20.25,107.08,8.88s39.94-23,57.7-43c1.53-1.73,3-3.6,4.51-5.53L735.8,506l-56.68,20.17c-5.41-1.24-23.59-3.4-33.68,19.81C639.53,559.55,645.74,569.12,651.22,577.57Zm-138.3-70.4c1.8-1.54,6.1-2.09,9.92-2.24v23.93l45.54,26.61c-6.12,9.27-20.53,34.44-20.9,66.3l-47.88-32.4-7.14-17.53C499.56,548.78,510.64,513.3,512.92,507.17ZM187.44,904.8l0-.73-.22-.69c-.39-1.19-8.35-26.47,8.45-39.85-.32,14,.57,21.87,1.73,26.37,2.56,66,5.9,132.19,11.24,191-7.2-12.65-15.69-31.69-22.33-58.71C185.41,967.51,187.41,905.7,187.44,904.8Zm48.29,370.43c-14.74-17.91-26.65-70.81-35-118.44a438.42,438.42,0,0,0,26.81,54.28c.65,2.72,1.3,5.4,2,8,14.13,54.24,43.75,66.85,84.75,64.49C300.4,1287.33,254.24,1297.74,235.73,1275.23Zm484.2,3.47c-2.92,7.11-15.44,18.67-66.5,16.24-41.26-2-215-6.86-297.94-9.15,17-2.54,38.52-6.2,61-11.17,54.95,1.59,251.78,7,273.48,3.57,25.25-4,17.94-43.67,17.94-43.67s-5.32,22.41-65.11,19.09c-45.44-2.53-114-3.52-144.34-3.85,16.07-6.43,31.57-13.45,45.58-20.27,54.31-17,77.57-10,77.77-10,0,0-12.75-12.65-45.32-6.68,18.44-10,26.11-24.31,26.11-24.31-.63.39-63.79,39.11-129.18,61.87-28.84,2.31-112.22,9.07-115.51,10.21h0c20.5-7.41,38.28-18.4,55.09-29.67,30.31-20.33,69.73-32,70.12-32.16,0,0-18.9-7.66-74.7,25.33l-5,3c-.09.05-90.24,49.75-126-11.34-1.41-2.41-2.78-5.1-4.12-8,31.91,3.57,60.2-9.73,60.2-9.73-35.5-4.51-58.59-16.34-72.49-26.49C237.75,1083.15,229.55,927,229.55,927l47.79,38.95c-42.47-63.11-45.13-143.5-45.13-143.5A252.63,252.63,0,0,0,203.06,874c.62-7.41,1.34-16,2-24.6,1.1-13.48,1.94-24.25,2.51-32,1.21-16.57,1.24-17-.86-18.37a23.1,23.1,0,0,1-6.09-21.78,16.51,16.51,0,0,1,10.54-12,120.63,120.63,0,0,0-4,18.84l-.28,2.32,1.85,1.43q6.34,5.43,12.31,10h0l0,0c39.5,30.12,65.69,32.3,65.69,32.3-36.25-20.05-48.44-55.55-18.31-134.57,0,0-31.53,46.55-45,93.08-3.44-2.56-6.14-4.6-7.81-5.87,6.5-43.7,48-105,55-110.19,6.34-4.76,16.86-1,25.5,1.58,0,0-9.72-12.72-11.6-13.09,5.88-11.3,20.32-28,23-30.63a16.74,16.74,0,0,1,5.79-.85c1.67.14,8.22,3.54,33.31,24.77,0,0-6.4-16.05-10.76-19.5a77,77,0,0,1,9.16-7.12c4.15-2.59,32.7-14.85,50.88-22.45l.14-.06c.84-.14,4.2-.46,15,.36l.25,0h.26c15.61-.74,27.4-7.41,41.06-15.12,9-5.11,19.14-10.81,32.07-15.81L492,592.37c-4.29,29.44-3.47,38.17-3.47,38.17S519,710.65,538.87,741.08c-28-73-25.23-113.22-25.23-113.22s49.13,32.66,61.66,60a102.72,102.72,0,0,0,0-51s-13.75-15.23-18.09-31a117.6,117.6,0,0,1,5.38-20.11c31.51,35.69,40.8,52.32,40.9,52.48,0,0-3-22.33-37.46-61a122,122,0,0,1,10.12-18.47c1.64.63,4.45,2.23,8,6.32,2.06,2.34,5.64,9.13,9.42,16.33C602,597.2,613,618.1,625.36,627.54c-12.55,18.45-20.63,43.29-20.85,64.17-.14,14-1.61,66.48-3.49,124.68-1.85,59.42-28.7,149.11-28.7,149.11s-3.65-14.08-26.58-58.38-20.85-56.3-41.7-58.38L566,992.44l-8.1-1.94c-42.89-10.25-67.54-15.9-75.36-12.68l-.22.09c-3.61,1.74-8.23,8.7-12.72,19-9.94-3.48-43.33-18.92-68.46-74.68,0,0-.94,17.26,3.73,57.18,0,0-7.46-6.64-13.57-26.79-.49-3-1-6-1.54-9-10.16-57.39,11.44-132,36.33-149.09,0,0-39.32,16.83-46.89,106.81-1.75-4.37-3.57-7.61-5.43-9.24-3.88-3.4-8.42-7.4-12.67-11.18-18.32-45.13-39.71-174.31-42.44-211.46,0,0-12.35,53.73,29.71,200.14-1.19-1-45.35-19.86-45.38-19.89s54.39,39,65.36,48.58c9.09,7.94,21.89,95.65,21.11,106.38-.33,4.65-2.48,11.51-4.46,17l-5.78-22.3-.34-.54c-58.59-44.91-80-44.91-80-44.91,58.07,36.2,70.53,46.9,72.82,49.11l7.46,28.78c-10.06.5-37.93,1.26-101.76-.32,0,0,15.72,9.18,66.48,9.18,24.14,0,35.12-.56,39.1-.84,1.8,6,5.41,16.6,12.56,33.84-86.19-2.78-106.7,16.24-106.7,16.24,39.21-12,110-9.14,121.51-6.5,8.06,1.84,39.76,19.09,58.44,29.6-18.45,8.32-34.24,31.32-49.63,53.77-6.9,10.06-13.41,19.56-20,27.59-24.49,29.73-70.72,40.37-71.19,40.48,0,0,51.23-3.31,77.53-35.25,6.85-8.31,13.46-18,20.46-28.17,9.55-13.93,19.26-28.11,29.35-38.36,36,2.91,71.64,32.85,71.64,32.85a125.83,125.83,0,0,1,58.53,8.8c-72.71-34.25-101.43-50.23-110.26-55.42a25,25,0,0,1,9.45-1.28c9,4.08,18.6,8.57,22.35,10.45l.2,1.62,7,0,0-.14c7-.1,25.17.74,35,11.06.19,1.07.39,2.13.63,3.15l1.63-.38a22.33,22.33,0,0,1,2.66,5l.63,1.67,1.65.68c12.22,5,29.24,13,49,22.29,34,16,76.57,36,114.42,49.84C721.22,1247.73,721.66,1274.48,719.93,1278.7ZM364.84,1276Zm117.23-166.16c-.7,0-1.4.05-2.1.12-2.87-1.64-9.16-5.22-16.89-9.5-7.94-50.4,15.42-111,22.68-115.11,6.15-2.19,41.64,6.3,70.2,13.13,4.63,1.11,9.33,2.23,14.06,3.34h0c10,2.37,20.21,4.73,30.06,6.86-7.43,2-15.55,5.17-22.36,9.93l-.34.26c-9.61,8.35-23.81,47.42-28.24,83.55l-73.56-16S477,1100.53,482.07,1109.86Zm-27.94-14.28c-16.33-8.87-35.13-18.57-42-20.14a67.6,67.6,0,0,0-7.44-1c-11.35-27-14.44-38.42-15.17-41.63,1-2.43,3.32-8.2,5.23-14.35,10.49-.76,47-3.57,69.47-7.33C456.54,1034.37,450.88,1066.29,454.13,1095.58Zm274.06,149.79c-.18-4.52.18-15.79,0-19.07q6.54,2.27,12.82,4.24C737.91,1232.9,733.12,1242.92,728.19,1245.37Zm350.38-367.11a130.18,130.18,0,0,1-5.68,19.73l-.48,1.31.34,1.3c0,.14,3.71,14.79-2.58,69.83-4.91,42.92-24,128.46-63.38,185.9-9.2,3.54-17.71,6.57-25.58,9.18,47-51.13,75.09-144.18,80.77-207.24,5.49-66.69,16.59-80,16.59-80s-54.25,47.78-68.38,47c18,25.92,32.17,17.57,32.17,17.57s-9.09,32.78-22.67,72.95c-37.9,39.69-84.17,62.52-84.17,62.52l-49.74-52.83c7.36,90,27.89,106.6,27.89,106.6,37.64-18.54,64.8-38.1,82.63-53.12-9.35,22.73-19.36,43.81-29.26,59-36.88,56.5-224.4,59.63-329.54-14.12,146.72,4.71,205.57,19.62,205.57,19.62-39.23-47.87-62.77-43.16-62.77-43.16L563,1112.05c75.95,47.37,145.11,78.16,210,91.37a261.13,261.13,0,0,0,94,28.44c-33.84,4.3-68.34,3.24-97.26-2.35-43.79-8.46-111.44-40.27-160.84-63.49-19-8.92-35.46-16.67-47.72-21.79a31.14,31.14,0,0,0-4.2-6.9c-5.73-38.06,15.53-102.81,25.7-112.09,14.44-10,36.64-11.86,39.64-12.07,8.12,1.47,15.69,2.63,22.43,3.34-13.14,4.72-35.86,22.27-35.86,22.27,68.67-27.19,144.52-49.21,152.33-49.21h.13c8.35.33,18.47,0,18.9,0h.53l42.54-12.85.53,2.06,1.78,11.16.91-1.58c19.83,68.94,52.08,87.51,52.08,87.51-22.93-27.78-37-66.52-43.7-88.42,17-6.21,32.32-12.27,36.58-14l24.11,5.17,1.57-1.45c19.59-18.11,37.17-11.75,37.89-11.48l2.15.85,28.86-22,6.87-15.55-8.58,6.52a11.73,11.73,0,0,0-2-2.82,10,10,0,0,0-1.08-1c4.74-2.28,9-4.36,12.17-6.06,11.68-6.19,17.67-20.37,15.24-28.91-1.5-5.24-5.78-8.13-11.57-7.75-.42,0-.89.09-1.38.16a26.35,26.35,0,0,0,2.49-14.35c-.55-4.65-2.74-10.5-7.12-11.67-4.67-1.24-12.88,1.08-25.89,5-1.74.52-3.5,1.05-5.26,1.56-4.16,1.22-13.45,5.85-24.19,11.68L955.36,823l-31.14,29.42c-10.65-5.78-19,1.67-40.21,20.83q-3.24,2.93-6.57,6.14h0c50.63-139.9,64.06-189.78,64.06-189.78-55,69.07-108,245.55-106.65,243.21h0c-6.63,11.74-11.32,23.57-12.68,34.58l-.07.58.07.45-42.76,12.92c-2.2.06-10.78.27-17.78,0h-.25c-4.88,0-23,4.67-47.29,12.07,2.84-8.23,9.86-27.74,21.5-55.58-24.67,10.68-72.75,64-72.75,64h0c.51-54.89-1.06-298.06-1.06-298.06.26,41.84-6.3,271.82-7.26,305.23a202.5,202.5,0,0,1-25.84-3,76.82,76.82,0,0,1,2.25-7.82c6-2.14,13.22-12.16,4.69-18.76,1.92,3.19,4.27,10.87-3.2,14.07s-17.9-2.14-14.92-12.58c-7.24,13.22,5.76,18.54,5.76,18.54s.16,3,.29,5.64c-6.94-1.27-14.29-2.77-21.85-4.41,3.44-43.18,10.7-276.81,11-308.87s21.19-75.7,46.59-82.13l1.66-.42.87-1.48c8.95-15.12,1.92-26-3.73-34.66-5-7.69-9.29-14.32-5.14-23.88,8.62-19.82,23.32-15.46,24.94-14.91l1.38.49,54.51-19.39a93,93,0,0,1,12.58,3.25l-45.55,12.77s6.9,12.42,11,12.76,28-12.76,28-12.76,9.28-1,33.09,23.46c1.73,1-18.29-46.93-18.29-46.93H743.91l.6-9.8a177.77,177.77,0,0,1,18.12,2c4.06,3.6,15.24,30.27,23.46,53.43l.64,1.79,1.77.68c2.55,1,6.82,3.63,7.07,5.78-1.65,2.29-8.09,7.9-17.46,15.49l-5.37,4.31c-15.7,12.48-37.39,28.93-58.81,44.73a115.6,115.6,0,0,0,.75-30.85,142.6,142.6,0,0,0-5.29-25.8v0h0c-12.62-35.35-32.55-26.09-32.55-26.09,11.67.55,19.67,12.54,24.55,27.83h0C706.08,593.17,686,616.52,649,632.4l-.38.18c-16,8.88-19.2,36.63-19.2,36.63s.79-1.8,2.17-4.43c.17,11.71,11.79,16.35,19.76,11.18,7-4.56,6.89-20.12,1.45-27.66,14.67-14.26,34.38-12.24,34.38-12.24l-4.49,39.36s91.19-75.74,93.68-77.23c1.81-1.09,9.85,1.74,14.17,3.39-12.77,20.77-23.08,44.47-23.75,46,0,0,31.79-52.54,50.53-66.69,16.44,2.14,56.34,8.61,71.8,22.6l1.53,1.38,2-.39c15.8-3.07,23.05.57,35.08,6.59,4.77,2.39,10.17,5.1,16.92,7.76l7.12,2.81-.48.14,11.63,4.36a4.37,4.37,0,0,0,4.28-.29c4.53-.87,16.94-2.22,24.39,7.26l.82,1,1.28.37c18.09,5.17,26.54,15.85,27.61,19.93l.24.9.6.71c27.28,32.22,40.52,51.38,44.07,87.79l.15,1.59,1.19,1.07c9,8.06,6.43,16.45,5.22,19.2a169.63,169.63,0,0,1-32.86,14.88s21.56.48,28-2.8c-1.08,29.67,6,59.91,10,76.76.53,2.29,1,4.3,1.39,6C1080.38,865.6,1079.77,872.09,1078.57,878.26Zm-139.75,55c-12.9,6-25.09,11.68-31.86,15.37-10.58,5.77-18.88,15.13-22.27,19.31l-14-3-1.17.47c-.1,0-5.69,2.29-14.1,5.54l2.73-4.34c11.29-18,13.33-21.23,19.42-25.08,7.72-4.87,85.68-43.16,100.11-44.25,2.32-.16,2.77.76,3.07,1.81,1.35,4.7-2.76,14.92-11.18,19.39C962.63,922.15,950.53,927.78,938.82,933.22Zm18.63,7.59-21.74,16.53c-5.78-1.49-21.52-3.69-38.93,9.44a63.45,63.45,0,0,1,14.12-11c6.54-3.57,19.17-9.45,31.39-15.13l7.88-3.67c2.2-.16,4.85,0,6.21,1.38A4.31,4.31,0,0,1,957.45,940.81ZM970.06,880c-.5,4.15-2.69,10-10.24,14.1-29.44,11.06-80.7,36.77-86.6,40.5-7.68,4.84-10.15,8.77-22,27.66-2.4,3.83-5.23,8.34-8.57,13.59-3.22,1.21-6.61,2.47-10.07,3.73-.12-.42-.22-.8-.33-1.19,13.32-23.17,32.88-55.94,36.34-59.07,5.53-5,62.5-38.39,73.69-41.67,1.77-.51,3.55-1.05,5.31-1.57,7.53-2.25,17.7-5.29,21-5C969.32,872.1,970.59,875.55,970.06,880Zm-107,33.22c-4.46,4-21.72,33.12-32,50.74,5.74-27.14,32.88-61.49,58.42-84.52,21.28-19.19,26-22,30.35-20l-19,30.33C883.43,899.67,866.42,910.14,863.07,913.17ZM650.3,651a17.14,17.14,0,0,1,3,14.45c0-14.26-14.94-14.72-14.94-14.72,2.54-4.16,6.41-4.26,9.63-1.93Z"/><path class="cls-2" d="M645.18,248.65s5.88-13,18-18.19L660.05,235s6.54-3.17,12.09-3.28c17.05,8.61,40.63,7.05,40.63,7.05l-2.57,2.58a106.57,106.57,0,0,1,15,.87,36.55,36.55,0,0,0-8.25,2.08s9-.58,16.6,1.75c-2.77.43-6.7,3.2-6.7,3.2s5.24-1.31,15.29,2.91l-5.19-9.64h0c-2-3.94-7.61-11.88-21-16.24-18.23-5.94-57.08-7.73-57.08-7.73l-6,3.77v-3.77s-1.58,3.77-2.77,6.74c.2-4.16-4-6.74-4-6.74s1,5.16-1,15.46a7.37,7.37,0,0,0,1.76.28c-8,10.63-7.37,12.73-7.37,12.73v45.1C643.13,257.68,645.18,248.65,645.18,248.65Z"/><path class="cls-2" d="M536.72,266.56a61.48,61.48,0,0,1,46.74-19.17l15.31,11.23c-10.21-11.35-12.59-13.5-12.59-13.5S552.15,241.49,536.72,266.56Z"/><path class="cls-2" d="M572.71,391.05c-5.26,6.49-4.65,7.35-4.65,7.35s11.14-7.84,19.1-14.45l-3.06,5.63S596,383,603.81,379.66a69.23,69.23,0,0,0,14.2-8.32s-1.59,4.9-1.1,4.53,7.84-5.51,6.86-12.86a5.6,5.6,0,0,0-2.82,1s-6.61-10.77-9.79-12.36C594.14,360.56,589,369,589,369l4.4-9.3s-12.24,9.06-20.2,16.4-9.43,11.39-9.43,11,4.17-9.67,5.76-11.51c-6.49,3.55-9.92,12.12-9.92,12.12a36,36,0,0,0-2,18.13S569.16,393.62,572.71,391.05Z"/><path class="cls-2" d="M645.3,337.77c-9.38,7.82-25.93,11.07-38,1.56C618.33,354.45,635.14,352.36,645.3,337.77Z"/><path class="cls-2" d="M547.42,272.5a19.84,19.84,0,0,1,2.45-5.07c2.64-2.79,7.11-6.09,14.53-8.3,15.11-4.51,30.87,5.82,29.65,8.44a8,8,0,0,1-4.16,3.67s8.59-.53,8.22-4.23-14.73-12.95-29.65-11.82S540.7,267.56,537.78,268c.56,2.27,3.11,1.32,3.11,1.32l-5.47,6.42a12.14,12.14,0,0,0,8.22-1.29c2.22.78,7,1.72,16.42,1.08C554.15,275.56,547.42,272.5,547.42,272.5Z"/><path class="cls-2" d="M527.82,246.13s20.16-9.38,39.93-11.22,32.41.85,32.41.85l-2.62-5.24a28.27,28.27,0,0,0,2.8,1.41l3.09,2.27-.89-1.38h0a61.52,61.52,0,0,0-3.94-5.47,34.85,34.85,0,0,1-3.37-8.75,7,7,0,0,0-2,4.71c-6.14-.73-46.48-5.29-57.81-1.75,0,0-16.26,14.07-22.23,24.16,5.54-5,6.25-5.83,6.25-5.83s-6.39,10.52-4.69,17.34c19.61-11.23,23.16-12.29,23.16-12.29Z"/><path class="cls-2" d="M623.69,808.22c-6,11.09,8.73,18.76,8.73,18.76-.63,11.09,0,14.71,0,14.71s4.27-5.76,4.27-16.73c7.89-3.09,4-13.11,4-13.11C641,821.65,624.75,822.29,623.69,808.22Z"/><path class="cls-2" d="M526.56,553.77c-3.21,16.79-9.64,41.09,12.69,54.31,0,0-9.83-14.29,2.32-49.4,7.15,3.48,16.43-2.41,16.43-2.41L520.49,537.7S516.56,547,526.56,553.77Z"/><path class="cls-2" d="M392.16,723.35c-19.77,5.07-34,22.82-34,22.82,4.56-50.2-15.21-34.59-13.69-75.09-17.24,77.62,13.18,142,13.18,142C367.82,759.35,392.16,723.35,392.16,723.35Z"/><path class="cls-2" d="M977.87,697.51S986.68,683.74,981,659c0,0-50.55,101.38-51.1,103.58,0,0,44.08-52.89,86.5-57.3C1016.43,705.23,1004.86,690.9,977.87,697.51Z"/><path class="cls-1" d="M706.13,479.28c11.08-16.11,16.15-24.46,16.15-24.46v7.43c12.53-12.5,18.73-21.14,18.73-21.14l-4.15,16S713.55,478.39,706.13,479.28Z"/><path class="cls-1" d="M746,438.86c0-.8,1.19-8.13,1.19-8.13l3.9-4.3S749.22,437.26,746,438.86Z"/><path class="cls-1" d="M703.61,471.91l-5.23,16.74C693.15,482.37,694.72,473.92,703.61,471.91Z"/><path class="cls-30" d="M544.85,109c-9.6-19.77,8.51-40.08,8.51-40.08-9.05,3-15.92,16.19-15.92,16.19C542.93,55.21,563,47.8,575.6,45.6s31,16.2,31,16.2c-21.41-10.16-40.08-10.43-49.69,25.53,9.34-23.88,27.73-24.71,28.83-24.71-15.37,7.14-3.84,42.28-3.84,42.28-14.83-8.24-13.73-22.24-13.73-22.24C558.58,96.12,562.7,106,562.7,106c-14.83-8.79-8.79-23.61-8.79-23.61C542.49,91.47,544.85,109,544.85,109Z"/><path class="cls-30" d="M582.37,90C581,72.11,596,64.75,596,64.75,593.33,75.72,582.37,90,582.37,90Z"/><path class="cls-30" d="M586.91,92.16c7.42-22.4,31-28.35,31-28.35a61.91,61.91,0,0,1-6.42,8.46c15.5-7,22.86-4.23,22.86-4.23C622.3,77.91,604,87.46,604,87.46c.63-8.77,3.44-13.78,3.44-13.78A161.14,161.14,0,0,0,586.91,92.16Z"/><path class="cls-30" d="M618.62,86.55C629.9,69,655.37,70,655.37,70c-3.83,1.27-8.5,6.79-8.5,6.79s19.54-6.07,44.82,2.6c22.95,7.81,36.12,40.32,43.34,42.44-25.49-11.26-36.33-32.75-59.48-28.27,13-8.69,20.6-3.6,20.6-3.6S675.34,78.23,659,93.54c.21-7.42,12.11-14.17,12.11-14.17-12.54,1-22.31,15.46-22.31,21.62C643.26,91,652,81.24,652,81.24A33.56,33.56,0,0,0,633.7,89.1a12.72,12.72,0,0,1,4.67-9.73C629.24,80,618.62,86.55,618.62,86.55Z"/><path class="cls-1" d="M684.74,98c18.79,5.17,23.72,24.67,35.94,31.71-13.39-5.63-18-9.39-18-9.39s14.21,25.84,37.7,39.93C726.78,142.88,724,138.88,724,138.88s25.13,13.39,38.52,31c-9.63-25.6-26.78-32.51-43.22-48.08S705.41,99.89,684.74,98Z"/><path class="cls-1" d="M744.49,136c25.39,18.27,28.72,50.31,28.72,50.31a33.7,33.7,0,0,0,4.27-15.19c4.27,7.12,5,17.57,5,17.57,5-23.26-4.47-31.71-10.88-38.11,3.8,7.59,2.34,13.66,2.34,13.66C763.71,140.3,744.49,136,744.49,136Z"/><path class="cls-30" d="M591.33,46.36c28.56-.93,56.18,18.39,56.18,18.39C642.12,46.13,618.25,41.45,591.33,46.36Z"/><path class="cls-12" d="M531.11,87.84c-2.94,20.53,2,30.2,2,30.2-7.33-5-9.38-9-9.38-9a37,37,0,0,0-8.07,19.87c-9.82-10.55,4-30.49,4-30.49l4.69,4.82S524.77,90.55,531.11,87.84Z"/><path class="cls-1" d="M742.11,109.68c27.82,27.56,29.38,32.26,29.38,32.26C743.75,130.6,742.11,109.68,742.11,109.68Z"/><path class="cls-1" d="M734,121.32c-7.42-4.56-20.41-34.49-42.31-41.95a86.82,86.82,0,0,0-17.49-4c17.5,4,32.14,18.93,33.14,20.56a79.92,79.92,0,0,0-15-3.73s25.51,15.8,37.76,27.26c1.26.66,2.56,1.3,3.89,1.92Z"/><path class="cls-1" d="M779.92,200.65l-1.68,27.1s-10.08-27.26-8.94-27.1c3.91.56,6.81,9.34,6.81,9.34S773.21,201.21,779.92,200.65Z"/><path class="cls-12" d="M569.33,54.65c-8,.13-17.34,10.1-17.34,10.1A42.53,42.53,0,0,1,575.63,45.6h0c-12.63,2.2-32.67,9.61-38.16,39.53,0,0,6.87-13.17,15.92-16.19,0,0-11.53,13-11.3,28.23a45.32,45.32,0,0,0,.72,6,.07.07,0,0,1,0,0C546.57,73.19,569.33,54.65,569.33,54.65Z"/><path class="cls-12" d="M505.18,149.62l-12.3,30.68C513.48,170.35,503.11,149.62,505.18,149.62Z"/><path class="cls-31" d="M273.7,1189.21l17.54-25.4,5.46-7.9v33.3Z"/><path class="cls-2" d="M1212.75,1075.52H1060.07a35.39,35.39,0,0,0-18.54,5.44,47.17,47.17,0,0,0-11.27,9.71c-.63-.72-1.26-1.43-1.94-2.11a45.75,45.75,0,0,0-13.35-9.24,41.25,41.25,0,0,0-17.34-3.8H985.75l-.86.08-.28,0-.82.08-.81.14a53.62,53.62,0,0,0-24,11.23,61.47,61.47,0,0,0-17,21.63l-13.81,28.49-3.2,6.6h0l-5.12,10.55-5.11,10.54-.39-.81h0l-8-16.58-1.79-3.7h0l-3.2-6.6-13.85-28.55a60.52,60.52,0,0,0-17.31-21.71,54.83,54.83,0,0,0-24-11.08l-1.65-.3h-1.67l-11.3,0h0a41,41,0,0,0-17.81,3.93,46.61,46.61,0,0,0-12.89,9.12c-.89.89-1.73,1.83-2.54,2.78-.82-1-1.67-1.89-2.57-2.79a45.7,45.7,0,0,0-13.34-9.24,41.32,41.32,0,0,0-17.34-3.8H753.2l-.86.08-.28,0-.82.08-.81.14a53.58,53.58,0,0,0-24,11.23,61.35,61.35,0,0,0-17,21.63l-13.82,28.49-3.2,6.6h0l-1.64,3.38-8.19,16.9h0l-.4.81-5.11-10.54L672,1143.79h0l-3.2-6.6L655,1108.64a60.54,60.54,0,0,0-17.32-21.71,54.78,54.78,0,0,0-24-11.08l-1.65-.3h-1.67l-11.3,0h0a41,41,0,0,0-17.81,3.93,47.5,47.5,0,0,0-4.58,2.56v-6.49H313.85v130.85H253.41v24.92l-14.84-21.39,3.26-4.72,35.29-51.12,20.27-29.35v-49.19h-100l-5.59,8L156,1134.62l-6.41,9.17h-7.43v-68.27H60.68v268.6h81.45v-67.56H150l91.13,130.66,5.59,8H346.93V1366l-15.22-21.92H637.08v-35.4q3.49,6.21,6,10.47l.07.12.07.11c6,9.84,10.88,15.53,16.43,19a36,36,0,0,0,19.39,5.65h6.41c5.31,0,10.71-1.52,17-4.77,6.69-3.46,12.69-9.8,18.85-19.94l.07-.12.08-.13c1.65-2.83,3.65-6.31,6-10.45v35.41H869.63v-35.4c2.33,4.14,4.33,7.64,6,10.47l.07.12.07.11c6,9.84,10.88,15.53,16.43,19a36,36,0,0,0,19.39,5.65H918c5.32,0,10.72-1.52,17-4.77,6.7-3.46,12.69-9.8,18.85-19.94l.08-.12.08-.13q2.47-4.25,6-10.45v35.41h228.5a35.26,35.26,0,0,0,18.54-5.45,47.55,47.55,0,0,0,12.72-11.4,59.63,59.63,0,0,0,8.1-14,47.3,47.3,0,0,0,3.67-18.23V1075.52ZM493.8,1206.37l1-1.18v1.18Zm-158.95,7.18v-.29h.26Z"/><path class="cls-32" d="M1014,1102.9a25.46,25.46,0,0,0-7.47-5.15,21.16,21.16,0,0,0-8.89-2h-11a33.33,33.33,0,0,0-14.93,7.11,41.09,41.09,0,0,0-11.38,14.58l-12.76,26.31h73.56v-25.6a18.56,18.56,0,0,0-2-8A26.42,26.42,0,0,0,1014,1102.9Z"/><path class="cls-33" d="M914.78,1211.36l-22.93-47.3H808.46v110.59h40.89v-99.92Q862.87,1205,875,1227.18t18.13,32.53q6,10,10,12.45a15.56,15.56,0,0,0,8.53,2.49H918q2.85,0,7.65-2.49t10.84-12.45q6-10.31,18.14-32.53t25.6-52.45v99.92h40.89V1164.06H937.71Z"/><rect class="cls-34" x="515.11" y="1164.06" width="41.25" height="110.59"/><path class="cls-35" d="M682.23,1211.36l-22.93-47.3H575.92v110.59h40.89v-99.92q13.5,30.23,25.6,52.45t18.13,32.53q6,10,10,12.45a15.58,15.58,0,0,0,8.53,2.49h6.4q2.85,0,7.65-2.49t10.85-12.45q6-10.31,18.13-32.53t25.6-52.45v99.92h40.89V1164.06H705.16Z"/><rect class="cls-36" x="273.68" y="1226.65" width="40.89" height="48"/><path class="cls-37" d="M460.81,1164.06h-55.3L341.24,1237a22.13,22.13,0,0,0-5.33,10,41.23,41.23,0,0,0-1.78,10.67v17.07H495.21v-48H406Z"/><polygon class="cls-38" points="211.61 1164.06 80.96 1164.06 80.96 1274.65 121.85 1274.65 121.85 1207.09 160.61 1207.09 257.33 1345.77 308.18 1345.77 196.88 1185.4 211.61 1164.06"/><path class="cls-39" d="M625.16,1102.9a34.65,34.65,0,0,0-15.11-7.11H599a20.79,20.79,0,0,0-9.07,2,26.27,26.27,0,0,0-7.29,5.15,23.75,23.75,0,0,0-5,7.29,20.09,20.09,0,0,0-1.77,8v25.6h73.56l-12.76-26.31A40.33,40.33,0,0,0,625.16,1102.9Z"/><rect class="cls-40" x="515.11" y="1095.79" width="41.25" height="48"/><polygon class="cls-41" points="174.3 1143.8 225.61 1143.8 258.75 1095.79 207.9 1095.79 174.3 1143.8"/><path class="cls-42" d="M781.44,1102.9a25.33,25.33,0,0,0-7.47-5.15,21.16,21.16,0,0,0-8.89-2h-11a33.43,33.43,0,0,0-14.93,7.11,41.09,41.09,0,0,0-11.38,14.58L715,1143.79h73.56v-25.6a18.54,18.54,0,0,0-1.95-8A26.45,26.45,0,0,0,781.44,1102.9Z"/><path class="cls-43" d="M857.71,1102.9a34.65,34.65,0,0,0-15.11-7.11h-11a20.76,20.76,0,0,0-9.07,2,26.12,26.12,0,0,0-7.29,5.15,23.58,23.58,0,0,0-5,7.29,19.94,19.94,0,0,0-1.78,8v25.6H882l-12.76-26.31A40.43,40.43,0,0,0,857.71,1102.9Z"/><path class="cls-44" d="M334.13,1143.79H478.57l8.1-9.24q3.91-3.55,6.23-10.85a41.93,41.93,0,0,0,2.31-12.26v-15.65H334.13Z"/><rect class="cls-45" x="80.96" y="1095.79" width="40.89" height="48"/><path class="cls-46" d="M515.11,1188s3.19-13.22,25.91-12.88a21.74,21.74,0,0,1,15.34,6.49v-17.51H515.11Zm132.52-12.21a33.65,33.65,0,0,1,14.79-5.26l-3.12-6.43H575.92v27.07c1-2.07,7.33-13.73,31.94-18.82,27.07-5.59,34.42,12.13,44.45,8.45s16.71,1,20.38,11.7c0-.21.06-.39.1-.59l-6.4-13.19C662.13,1177.25,654.08,1175,647.63,1175.75Zm232.94-3.68a71.89,71.89,0,0,1,15.34.35l-4.06-8.36H808.46v24.48s14-18.74,44.7-18.44,52.47,22.69,52.47,22.69l-5.69-12S888.25,1173.74,880.57,1172.07Zm44.13,18.84c7-5.76,20.37-15.14,33.73-15.83,19.19-1,12.43,19.83,12.28,20.26q4.66-9.79,9.5-20.61v13.73s9-20.4,34-12.38a47.4,47.4,0,0,1,6.85,2.78v-14.8H937.71Zm-540.26-3h0s16.22-13.88,38.94-14.22c11.19-.16,17.51,4.37,21.05,9l16.38-18.69h-55.3Zm308.86.58s27-17.9,59-15.51,36.25,31.12,36.25,31.12v-14s-2.9-11.7-12.92-15.38a33.11,33.11,0,0,1,12.92,5.45v-16.13H705.16Zm474.39-24.48h-55.3l-16.86,19.13,2.93-1.09s24.07-10,40.11-8.69c10.59.88,11.56,7.15,11,11.32Zm-963.25,10.38,7.17-10.38H81v29.82c18.28-23.64,89.55-30.14,128.55,9.72l-6.31-9.09v0l0,0s-13.39-16-26.43-19.56C184.86,1171.15,194.9,1171.92,204.44,1174.44Z"/><path class="cls-47" d="M513.56,1276.21h44.36V1162.5H513.56Zm38.12-107.47V1270H519.79V1168.74Z"/><path class="cls-48" d="M914.78,1207.78l-21.95-45.28H806.9v113.71h44V1182c7.92,17.39,15.53,32.82,22.68,45.94,8,14.77,14.13,25.73,18.17,32.6,4.2,6.92,7.62,11.16,10.45,13a17.21,17.21,0,0,0,9.37,2.73H918c2.17,0,4.91-.87,8.36-2.67s7.24-6.06,11.48-13c4-6.85,10.12-17.81,18.16-32.58,7.14-13.12,14.75-28.55,22.67-45.94v94.23h44V1162.5H936.73Zm101.64-39V1270H984.89V1168.74Zm-38.66,0-1.82,4.08c-8.92,20-17.48,37.49-25.44,52.12s-14.06,25.58-18,32.34c-4.67,7.7-7.64,10-9,10.73-3.51,1.82-5.09,2-5.49,2h-6.4a11,11,0,0,1-6-1.76c-1.11-.71-3.69-3.06-8.42-10.86-4-6.81-10.08-17.72-18.06-32.41s-16.52-32.15-25.44-52.12l-1.83-4.08h37.12l25.86,53.34,25.86-53.34Zm-133.08,0V1270H813.14V1168.74Z"/><path class="cls-49" d="M682.23,1207.78l-22-45.28H574.36v113.71h44V1182c7.91,17.39,15.53,32.82,22.67,45.94,8,14.77,14.14,25.73,18.17,32.6,4.2,6.92,7.62,11.16,10.45,13a17.21,17.21,0,0,0,9.37,2.73h6.41c2.17,0,4.9-.87,8.36-2.67s7.23-6.06,11.47-13c4-6.85,10.13-17.81,18.16-32.58,7.14-13.12,14.75-28.55,22.67-45.94v94.23h44V1162.5H704.19ZM580.59,1270V1168.74h31.54V1270Zm203.28-101.23V1270H752.34V1168.74Zm-38.66,0-1.82,4.08c-8.93,20-17.49,37.5-25.44,52.12s-14.06,25.58-18,32.34c-4.68,7.7-7.65,10-9,10.73-3.5,1.82-5.08,2-5.48,2H679a10.93,10.93,0,0,1-6-1.76c-1.12-.71-3.7-3.06-8.43-10.86-4-6.78-10.06-17.68-18.06-32.41s-16.52-32.16-25.44-52.12l-1.82-4.08h37.11l25.86,53.34,25.87-53.34Z"/><path class="cls-50" d="M272.12,1276.21h44v-51.12h-44Zm37.77-44.89V1270H278.36v-38.65Z"/><path class="cls-51" d="M464.25,1162.5H404.81l-64.67,73.35a23.86,23.86,0,0,0-5.73,10.64,42.87,42.87,0,0,0-1.84,11.09v18.63h164.2v-51.12H409.4Zm-13.76,6.24-54.86,62.58h94.9V1270H338.81v-12.39a36.91,36.91,0,0,1,1.61-9.42,17.77,17.77,0,0,1,4.2-8l63-71.46Z"/><path class="cls-52" d="M214.58,1162.5H79.4v113.71h44v-67.56H159.8l96.71,138.67h54.65L198.78,1185.4Zm45.19,178.59-95.32-136.68-1.4-2H117.17V1270H85.64V1168.74H202.69l-11.5,16.66,108,155.69Z"/><path class="cls-53" d="M638.13,1116.81a42.24,42.24,0,0,0-12-15.14,36.3,36.3,0,0,0-15.79-7.41l-11.3,0a22.38,22.38,0,0,0-9.74,2.11,28,28,0,0,0-7.72,5.46,25.22,25.22,0,0,0-5.31,7.77,21.65,21.65,0,0,0-1.9,8.62v27.16H652ZM599,1100.47h10.58a30.43,30.43,0,0,1,12.67,6.12,35.81,35.81,0,0,1,10.23,12.93l9.5,19.6H580.59v-20.93a15.45,15.45,0,0,1,1.39-6.13,19,19,0,0,1,4-5.85,22,22,0,0,1,6-4.24A16.13,16.13,0,0,1,599,1100.47Z"/><path class="cls-47" d="M513.56,1145.35h44.36v-51.12H513.56Zm38.12-44.88v38.65H519.79v-38.65Z"/><path class="cls-54" d="M261.72,1094.23H207.09l-35.78,51.12h55.11Zm-78.43,44.89,27.05-38.65h39.49l-26.68,38.65Z"/><path class="cls-55" d="M782.54,1101.8a27.12,27.12,0,0,0-7.92-5.47,22.79,22.79,0,0,0-9.53-2.1h-11l-.28,0a35.16,35.16,0,0,0-15.63,7.42,42.8,42.8,0,0,0-11.8,15.12l-13.85,28.55h77.61v-27.16a20.18,20.18,0,0,0-2.11-8.67A27.8,27.8,0,0,0,782.54,1101.8Zm-17.45-1.33A16.64,16.64,0,0,1,772,1102a21,21,0,0,1,6.11,4.21,21.79,21.79,0,0,1,4.24,6,14,14,0,0,1,1.5,6v20.93H722.46l9.51-19.61a36.56,36.56,0,0,1,10.08-13,29.15,29.15,0,0,1,12.45-6.09Z"/><path class="cls-56" d="M1015.09,1101.8a27.25,27.25,0,0,0-7.92-5.47,22.8,22.8,0,0,0-9.54-2.1h-11l-.28,0a35.11,35.11,0,0,0-15.63,7.42,42.94,42.94,0,0,0-11.81,15.12l-13.84,28.55h77.61v-27.16a20.18,20.18,0,0,0-2.11-8.67A28,28,0,0,0,1015.09,1101.8Zm-.17,10.4a14,14,0,0,1,1.5,6v20.93H955l9.5-19.61a36.7,36.7,0,0,1,10.09-13,29.15,29.15,0,0,1,12.45-6.09h10.58a16.65,16.65,0,0,1,6.94,1.53,21.12,21.12,0,0,1,6.11,4.21A21.79,21.79,0,0,1,1014.92,1112.2Z"/><path class="cls-57" d="M870.67,1116.81a42.11,42.11,0,0,0-12-15.14,36.3,36.3,0,0,0-15.79-7.41l-11.3,0a22.42,22.42,0,0,0-9.75,2.11,27.9,27.9,0,0,0-7.71,5.46,25.16,25.16,0,0,0-5.31,7.77,21.46,21.46,0,0,0-1.91,8.62v27.16h77.62Zm-5.61,2.71,9.5,19.6H813.14v-20.93a15.41,15.41,0,0,1,1.39-6.13,19,19,0,0,1,4-5.85,21.94,21.94,0,0,1,6-4.24,16.21,16.21,0,0,1,7.06-1.5h10.58a30.49,30.49,0,0,1,12.67,6.12A36,36,0,0,1,865.06,1119.52Z"/><path class="cls-51" d="M332.57,1145.35H479.28l8.51-9.71c2.76-2.54,5-6.39,6.59-11.46a43.51,43.51,0,0,0,2.39-12.74v-17.21H332.57Zm151-14.26-7.08,8H338.81v-38.65H490.53v11a37.68,37.68,0,0,1-2.09,10.85C487.15,1126.34,485.5,1129.3,483.53,1131.09Z"/><path class="cls-58" d="M123.41,1094.23h-44v51.12h44Zm-6.24,6.24v38.65H85.64v-38.65Z"/><path class="cls-59" d="M1060.07,1095.79a15.42,15.42,0,0,0-8,2.49,27.25,27.25,0,0,0-7.29,6.58,39.51,39.51,0,0,0-5.34,9.24,27.28,27.28,0,0,0-2.13,10.49v19.2h173.88v-48Z"/><path class="cls-60" d="M1203.72,1172.42a27.4,27.4,0,0,0-7.29-6.58,18.92,18.92,0,0,0-3.82-1.78h-155.3v14.23a27.28,27.28,0,0,0,2.13,10.49,39.11,39.11,0,0,0,5.34,9.24,27.08,27.08,0,0,0,7.29,6.58,15.32,15.32,0,0,0,8,2.49H1170.3v19.56H1039.56v48h148.87a15.35,15.35,0,0,0,8-2.49,27.23,27.23,0,0,0,7.29-6.58,38.74,38.74,0,0,0,5.33-9.24,27.11,27.11,0,0,0,2.14-10.49v-53.7a27.11,27.11,0,0,0-2.14-10.49A39.13,39.13,0,0,0,1203.72,1172.42Z"/><path class="cls-61" d="M1196.43,1165.84a18.92,18.92,0,0,0-3.82-1.78h-155.3v14.23a26.9,26.9,0,0,0,.35,4.1c.14.17.27.35.42.52,28.25-17.08,73.58-8.21,102.81-6.24s55.51-8.51,67.67,8.06c-.19-1.91-.39-3.73-.59-5.48a38.3,38.3,0,0,0-4.25-6.83A27.4,27.4,0,0,0,1196.43,1165.84Z"/><path class="cls-62" d="M1060.07,1094.23a17,17,0,0,0-8.82,2.72,29,29,0,0,0-7.7,7,41,41,0,0,0-5.55,9.61,29,29,0,0,0-2.25,11.08v20.76h177v-51.12Zm-5.57,8a10.85,10.85,0,0,1,5.57-1.81h146.44v38.65H1042v-14.53a22.72,22.72,0,0,1,1.78-8.7,34.63,34.63,0,0,1,4.69-8.14A22.83,22.83,0,0,1,1054.5,1102.28Z"/><path class="cls-62" d="M1205,1171.46a28.89,28.89,0,0,0-7.71-7,20.08,20.08,0,0,0-4.14-1.93l-.24-.08H1035.75v15.79a28.87,28.87,0,0,0,2.25,11.08,40.59,40.59,0,0,0,5.55,9.61,28.82,28.82,0,0,0,7.7,7,17,17,0,0,0,8.82,2.72h108.67v16.44H1038v51.12h150.43a16.87,16.87,0,0,0,8.81-2.72,28.72,28.72,0,0,0,7.71-7,40.41,40.41,0,0,0,5.54-9.61,28.7,28.7,0,0,0,2.26-11.08v-53.7a28.77,28.77,0,0,0-2.26-11.08A40.61,40.61,0,0,0,1205,1171.46Zm-11,96.7a10.85,10.85,0,0,1-5.57,1.81h-144.2v-38.65H1175v-28.91H1060.07a10.89,10.89,0,0,1-5.58-1.81,22.61,22.61,0,0,1-6-5.47,34.3,34.3,0,0,1-4.69-8.15,22.59,22.59,0,0,1-1.78-8.69v-9.55H1191.8a15.05,15.05,0,0,1,2.2,1.1,23,23,0,0,1,6,5.46,34.9,34.9,0,0,1,4.69,8.15,22.72,22.72,0,0,1,1.78,8.7v53.7a22.68,22.68,0,0,1-1.78,8.7,34.7,34.7,0,0,1-4.69,8.15A22.62,22.62,0,0,1,1194,1268.16Z"/></g></g></g></g></svg>