<svg xmlns="http://www.w3.org/2000/svg" xmlns:xlink="http://www.w3.org/1999/xlink" viewBox="0 0 1256.37 1681.21"><defs><style>.cls-1{fill:none;}.cls-2{fill:#5cdb95;}.cls-3{fill:#001730;}.cls-4{clip-path:url(#clip-path);}.cls-5{fill:#ffc5b2;}.cls-6{fill:#fff;}.cls-7{fill:#ffe2de;}.cls-8{fill:#9b4e55;}.cls-9{fill:#474747;opacity:0.82;}.cls-10{fill:#c9c9c9;}.cls-11{fill:url(#New_Gradient_Swatch_copy);}.cls-12{fill:#6b6b6b;}.cls-13{fill:#e0978d;}.cls-14{fill:#be746d;}.cls-15{fill:url(#New_Gradient_Swatch_copy-2);}.cls-16{fill:url(#New_Gradient_Swatch_copy-3);}.cls-17{fill:url(#New_Gradient_Swatch_copy_2);}.cls-18{fill:url(#New_Gradient_Swatch_copy_2-2);}.cls-19{fill:url(#New_Gradient_Swatch_copy-4);}.cls-20{fill:url(#linear-gradient);}.cls-21{fill:#765285;}.cls-22{fill:#181844;}.cls-23{opacity:0.56;fill:url(#linear-gradient-2);}.cls-24{fill:url(#linear-gradient-3);}.cls-25{fill:#7a4747;}.cls-26{fill:url(#New_Gradient_Swatch_copy-5);}.cls-27{fill:url(#New_Gradient_Swatch_copy-6);}.cls-28{fill:url(#New_Gradient_Swatch_copy_2-3);}.cls-29{fill:url(#linear-gradient-4);}.cls-30{fill:url(#linear-gradient-5);}.cls-31{fill:#6b2f48;}</style><clipPath id="clip-path" transform="translate(0 -43.92)"><path class="cls-1" d="M887.09,448.92c10.73-29.83,18-51.43,18-53.51,0-7.38,40.51-224.75-72.88-342.9s-466.55,0-466.55,0L443.41,519,68,578.25,670.39,1628.93,1187.16,401.55Z"/></clipPath><linearGradient id="New_Gradient_Swatch_copy" x1="568.47" y1="438.68" x2="678.11" y2="438.68" gradientUnits="userSpaceOnUse"><stop offset="0" stop-color="#be746d"/><stop offset="1" stop-color="#e0978d"/></linearGradient><linearGradient id="New_Gradient_Swatch_copy-2" x1="629.93" y1="396.81" x2="616.91" y2="375.75" xlink:href="#New_Gradient_Swatch_copy"/><linearGradient id="New_Gradient_Swatch_copy-3" x1="784.3" y1="419.56" x2="669.29" y2="333.55" xlink:href="#New_Gradient_Swatch_copy"/><linearGradient id="New_Gradient_Swatch_copy_2" x1="572.71" y1="563.12" x2="571.5" y2="500.42" gradientUnits="userSpaceOnUse"><stop offset="0" stop-color="#be746d"/><stop offset="1" stop-color="#ffc5b2"/></linearGradient><linearGradient id="New_Gradient_Swatch_copy_2-2" x1="522.6" y1="436.96" x2="526.38" y2="344.72" xlink:href="#New_Gradient_Swatch_copy_2"/><linearGradient id="New_Gradient_Swatch_copy-4" x1="641.05" y1="307.02" x2="598.37" y2="237.97" xlink:href="#New_Gradient_Swatch_copy"/><linearGradient id="linear-gradient" x1="642.15" y1="1118.67" x2="595.12" y2="330.01" gradientUnits="userSpaceOnUse"><stop offset="0" stop-color="#351c4d"/><stop offset="1" stop-color="#765285"/></linearGradient><linearGradient id="linear-gradient-2" x1="627.45" y1="528.82" x2="627.45" y2="344.62" gradientUnits="userSpaceOnUse"><stop offset="0" stop-color="#7a4747"/><stop offset="1" stop-color="#7a4747" stop-opacity="0"/></linearGradient><linearGradient id="linear-gradient-3" x1="632.14" y1="458.39" x2="632.14" y2="440.58" xlink:href="#linear-gradient-2"/><linearGradient id="New_Gradient_Swatch_copy-5" x1="897.1" y1="966.66" x2="871.62" y2="925.44" xlink:href="#New_Gradient_Swatch_copy"/><linearGradient id="New_Gradient_Swatch_copy-6" x1="433.39" y1="1091.04" x2="398.76" y2="1035.02" xlink:href="#New_Gradient_Swatch_copy"/><linearGradient id="New_Gradient_Swatch_copy_2-3" x1="630.72" y1="431.3" x2="633.19" y2="455.36" xlink:href="#New_Gradient_Swatch_copy_2"/><linearGradient id="linear-gradient-4" x1="567.16" y1="296.21" x2="564.48" y2="281.97" gradientUnits="userSpaceOnUse"><stop offset="0" stop-color="#ff9d7b"/><stop offset="0.37" stop-color="#9f5252"/><stop offset="1" stop-color="#001730"/></linearGradient><linearGradient id="linear-gradient-5" x1="688.94" y1="293.16" x2="689.93" y2="282.57" xlink:href="#linear-gradient-4"/></defs><g id="Layer_2" data-name="Layer 2"><g id="Layer_5" data-name="Layer 5"><g id="logo_avatar"><g id="border"><path class="cls-2" d="M1183.31,377.19,28.75,559.47l645,1125,553.3-1314.15ZM672.2,1658.53,47,568.23,1208.46,384.87ZM0,545.69,676.27,1725.13l580.1-1377.79ZM674.69,1699.23l-31.4-54.76-625-1090L1237.74,361.94,1216,413.67Z" transform="translate(0 -43.92)"/></g><polygon id="bg-triange" class="cls-3" points="67.95 534.33 1187.16 357.63 670.39 1585.01 67.95 534.33"/><g id="starburst"><path class="cls-2" d="M1027.43,533.37,716,851.42,892,472.51l-4.38.69L691.81,833.56l64-339.55-9,1.43L664.5,824.59,648.26,511,638,512.62l-1.68,312.62L546.87,527l-10.17,1.6,72.71,306.87L433.59,544.88l-8.45,1.33,161,308.23L279.61,569.19l-2.19.35L568.21,880.61l-382.68-181L557.2,911.87l-288-31,6.54,11.41L554,945.68,336.37,998l8.29,14.45,214.1-33.17L387.81,1087.72l8.64,15.08L571.21,1010,435,1170l8.66,15.09,146.65-149.76-104.08,224,8.33,14.52,119.92-220.68L537,1347.06l6.74,11.76,98-296.66,22.68,477.49L670,1061.51l88.66,295.78,6.85-16.27-68.65-289.74,112.41,185.79,8-18.9-97.05-185.85,126,117.22,8.07-19.16L738.07,1006.14l140.46,66.43,8.07-19.15L749.07,974.89l163.19,17.58,8-19.13-168-32.26,202.05-48.61,7.69-18.25L747.51,907.45l273.6-173.52,4.92-11.68-291,154.49ZM753.09,470.08h0l7.45-1.18Zm151.14-23.86-2.11.33h0l2.11-.33ZM539.9,503.74l-8.76,1.38,8.76-1.38Z" transform="translate(0 -43.92)"/></g><g id="avatar"><g class="cls-4"><path class="cls-3" d="M1100,876.86h0c-.39-1.74-.88-3.82-1.45-6.26-3.58-15.18-10.09-42.82-9.46-69.06l1.6-2.78c6.11-10.64,7.22-28-4-42.13-5.25-39.51-22.63-63.07-46.51-91.41-4.5-9.89-16.11-22.21-36.22-29.29-13-12.37-29.7-12.37-38.52-11.26l-13.54-5.35c-5.83-2.3-10.77-4.78-15.14-7-11.19-5.6-22.73-11.39-40.92-9.73-23-15-62.72-21-79.21-23-1.06-7.33-5.58-14-12.89-18.94-19.35-53.18-27.39-58.86-36.57-61-2.08-.48-4.83-.92-8.29-1.35l1.5-24.54a192.75,192.75,0,0,0,13.55-30c11.94-5,18.36-16,20.55-25.3.22-.27.49-.59.83-1,10.08-11.14,27.21-75.13,28.81-90.89,1.81-17.81-4.26-32.42-16.24-39.07a28.08,28.08,0,0,0-8.62-3.09c-.37-17.65-1-41.09-1.24-52.4l6.16-6.41.71-4.27c.39-2.31,3.57-23.15-3.22-42.16l-.47-1.16C781.73,136,740.61,95,712.1,79.73c-20-10.75-45.56-18.38-60.41-22.28l-.1-13.53L634.7,47.86c-.88.14-11.59,1.69-42.81-1.43-46-4.59-61.79,16.57-71.18,40.95-25,17.81-31.75,33.91-33.51,42.3l-4.93,2.88-.26,7.72a43.42,43.42,0,0,0,1.49,12.27l-4.91.87,1.05,11.6c-.47,2.53-2.33,9.77-3.61,14.77-2.14,8.34-4.8,18.72-7.24,29.68l-.19,1.06c-3.07,21.46-1.19,70.86-.38,88.51a31.7,31.7,0,0,0-10.33,6.53c-9.88,9.38-12.05,23.22-9.83,32.77A33.5,33.5,0,0,0,455.91,353c1,16.69,2.54,42,3.45,47.92,1,6.76,4.18,13.52,7.21,20.07a86.67,86.67,0,0,1,3.69,8.62,25.79,25.79,0,0,0,12.93,15.68c.4.2.8.38,1.21.56.34.89.67,1.81,1,2.76,3.69,10.28,7,22.58,7.14,23.09l8,29.9,6.39-9.59,1,1v12.8a29.09,29.09,0,0,0-8.79,4.33c-5.56,3.44-7.42,8.81-8.67,12.41-.67,1.93-1.58,4.69-2.65,8-1.83,5.65-4.33,13.52-7.42,23.39-2.48,7.91-4.93,15.81-6.84,22-13.32,5.33-23.59,11.12-32.74,16.29-12.2,6.89-20.33,11.49-30.22,12.22-14.59-1.06-20.94-.54-25.89,2.16-17.2,7.21-46.33,19.63-52.36,23.39q-2.28,1.43-4.85,3.36c-5.13-3.08-9.05-4.46-13.25-4.81-6.38-.54-14.46,1.15-19.23,4-5.85,3.52-23.09,24.82-30.6,38.38a48.14,48.14,0,0,0-8.06,5c-9.58,7.19-38.1,49.2-53.74,89.58-12.69,4.91-21.74,15.16-24.58,28.16a45.78,45.78,0,0,0,7,36.14c-.47,7-1.42,19.45-2.79,36.45-21.32,15.7-23.25,42.38-18,61.86-.79,25.32-3.73,135.8,2.83,182.74,11.49,82.27,26.49,170.32,50.59,199.61,12.09,14.7,31.15,22.15,56.63,22.15a171.06,171.06,0,0,0,37.69-4.66c22.75.62,287.17,7.8,339.47,10.29,4.92.23,9.71.35,14.22.35,21.53,0,38.67-2.79,51-8.29,208.26-1.37,241.54-11.35,244.66-12.49l8.38-3.06,6.45-76a155.84,155.84,0,0,0,22.36-17.86c59.48-57.66,86.71-173.57,92.79-226.8,4.76-41.66,4.13-62.28,3.08-71.67C1098.22,911.06,1103.34,891.88,1100,876.86Z" transform="translate(0 -43.92)"/><path class="cls-5" d="M527.49,547.7V476S501.1,454.23,498,426C485.24,421.83,484,411.86,484,411.86s-6.44-56.05-7.92-65.6c-8.35-13.64-14.84-30.79,16.11-35.63,9.87-39.58,3.57-56.74,3.57-56.74s6.92-47.5,19.13-79.17,22.23-51.39,22.23-51.39,75.31-50.66,137.77-21.63S771.41,184,779.08,210.34s0,94.92,0,94.92,25.31-10.69,28.59,9.51-13.19,76.35-26.83,93.5C773,429,758.06,427.35,758.06,427.35l-13.72,40.3-3.84,60.44s13.06,65.27-28.06,104.9S604,641.88,604,641.88Z" transform="translate(0 -43.92)"/><path class="cls-6" d="M657.7,289c8.53-7,20.14-11,34.63-9.33s20.14,10.92,20.14,10.92l-2.54,2.22s-6.6,4.65-19.08,1.69C677.43,291.16,659.57,290.35,657.7,289Z" transform="translate(0 -43.92)"/><path class="cls-7" d="M621.29,357.13s-3.24-27.61-15-24.8C606.29,332.33,604.21,355.77,621.29,357.13Z" transform="translate(0 -43.92)"/><path class="cls-8" d="M669.65,291c-5.93-2.81-1.84-8.29.41-9a30.43,30.43,0,0,0-12.36,6.47S664.81,291.54,669.65,291Z" transform="translate(0 -43.92)"/><path class="cls-9" d="M662.54,290.23c11.47-7.22,26.39-9.65,40.23-1,3.6,3.28,2,5.24,2,5.24s9.11-1.19,7.75-3.91-3.2-4.12-3.2-4.49-11.63-8.43-29.94-6.4-21.16,8.92-21.16,8.92Z" transform="translate(0 -43.92)"/><path class="cls-10" d="M581.35,417.67c11.39-5.15,47.62-4.22,64.43-3.67s24.55,2.47,24.55,2.47l-1,3.5s-29.75,18.43-46.44,16.51S581.94,426.32,581.35,417.67Z" transform="translate(0 -43.92)"/><path class="cls-11" d="M660.85,466c-14.94-5.87-56.75.73-56.75.73-13.23-14.32-35.63-51.24-35.63-51.24l7-4.77s7.91,23.09,22,35.51c0,0,36.55,12.88,60,2.27C678.66,437.67,678.11,434,678.11,434s-2.57,15.5-4,17.94S660.85,466,660.85,466Z" transform="translate(0 -43.92)"/><path class="cls-12" d="M598.23,416.58c2.75,8.51,22.8,11.75,22.8,11.75s25.61-.08,25.89-.48,7.61-11.69,7.61-11.69,15.91-.83,17.84,0,0,3.67,0,3.67-8,4.52-23.69,8.5-36,1.87-47.67,0-17.6-5.78-18.26-6.05-3-2.85-2.75-3S598.23,416.58,598.23,416.58Z" transform="translate(0 -43.92)"/><path class="cls-13" d="M653.47,323.45c15.47,25.1,21,36.42,21,36.42-10,17.57-23.4,6.58-23.4,6.58S659.66,340.3,653.47,323.45Z" transform="translate(0 -43.92)"/><path class="cls-14" d="M632.14,367.65c6.77,2.26,3.15,12.65-4.69,12.58,15.38,13.8,40.4,13.65,40.1,11.92s-14.84-21.63-9.53-31.28C648.56,360,643.9,357.26,632.14,367.65Z" transform="translate(0 -43.92)"/><path class="cls-15" d="M600.4,400.66c13.92-6.25,19.73-1.28,27.05-.82s18.71-8.2,30.09,0c-3.41-18-9.31-24.78-9.31-24.78L640.35,373s-11.74,8.64-15,7.27S611.81,374,611.81,374Z" transform="translate(0 -43.92)"/><path class="cls-16" d="M707.16,124.32c24.42,76.88,0,121,0,121s17.19,14.68,5.76,35.75l-.47,9.88s23.25,16,15.69,73.87-23.6,52.86-23.6,52.86L689.88,401.4l-11.47-1.56s20.54,10,19.17,22.74-22.79,5.75-22.79,5.75,1.63,19.16-23.75,23.6c20,20.95-10.69,67.32-10.69,67.32l29-5.26-16.52,44.8,67.28-24,1.82-55.69s33-16.7,40.68-61.36S775.05,205.12,770.86,197,707.16,124.32,707.16,124.32Z" transform="translate(0 -43.92)"/><path class="cls-17" d="M539.8,491.45s.14,64.85,1,62.69,43.66,29.57,43.66,29.57l21.45,37.17c-30.34-86.42-44.41-113.7-44.41-113.7Z" transform="translate(0 -43.92)"/><path class="cls-18" d="M545.71,483.34c-47.31-52.79-37.37-147.78-37.37-147.78-19.66,67.14-.87,119.12-.87,119.12S521.58,478.42,545.71,483.34Z" transform="translate(0 -43.92)"/><path class="cls-19" d="M664.19,291.53,658,286.65s-2.78-12.49,4.94-16c11.06-16.47,27-18.73,27-18.73s-26.9-5.53-33.8-5.5c-1.62.64-14.23,21-14.23,21l-3.24,62.08s4.21,8.41,3.89,17.14-38.48,19.08-33-15.84c1.29-58.53,1.61-66.62,1.61-66.62l-18.85-19.79s-15.75,7.18-17,6.54-25.55,1-25.55,1,28.94,7,37.46,16.24l8.52,9.19s1.15,10.35-.55,13.24l-.46-1.51a14.56,14.56,0,0,1-2.72,2.24l-1.1,0,.1.62c-6.63,3.75-16,4.28-16,4.28,5.49,7.83,12.72,7.82,17.65,6.55l4.61,31s-11.31,12.93-7.56,23.6c3.46,9.87,15.88,9.67,23.23,8l-2.63-.43s-7.58-5.68-5.93-18.62c0,0,2.54,10.78,15.52,20.68a11.68,11.68,0,0,0-3.36-1c11.48,6.06,22.62-1.11,22.62-1.11s10.56,7.34,19-4-.32-28.13-2.26-30.07c3.76-14.1,6.38-23.34,8.08-29.12,7.71,1.25,14.92-3.07,14.92-3.07-9.88-5.43-13.36-7.26-13.36-7.26Zm-69.05,61.05c-3.3-.82-2.81-9.41,5.61-19C607,329.9,598.44,353.41,595.14,352.58Z" transform="translate(0 -43.92)"/><path class="cls-20" d="M207.71,1135.57c-23.26-53.45-22.15-66.31-23.65-67s-.86-141.06,0-145.42c-7.71-20.62,3.64-39.73,15-45.88,3.82-47.31,3.35-51.09,3.35-51.09s-21.29-39.74,12.3-45.41c18.45-53,57.24-93.67,57.24-93.67h6.15s17.8-36.42,28.85-39.73,22.24,9.46,22.24,9.46,47.19-35.2,73.32-34.54c29.59-.67,84.2-33.11,84.2-33.11L509.91,526l17.5-6.77v26.43l53.93,34.09s33.16,55.86,47.85,66.2c17-23.18,30.2-22.24,30.2-22.24s3.62-6.08-14.27-44c4.34-27,20.57-27.41,31.85-24.36C715.69,537.64,737.52,531,737.52,531l3.24-17,24.52,5.26,27,51,6.18,11.84-2.59,8,60.77,18.53s20.35,4.17,36.43,12.69c22.23,1.89,25.54,2.36,25.54,2.36l44,19.87s19.78-9.72,37.8,14.77c22.94,6.36,26.53,18.34,26.53,18.34s38,41.64,43,86.57c12.3,6.15,3.31,26,0,29.33,3.31,36.9,11.83,80.89,13.24,89.88s-4.34,31.22-4.34,31.22-3.7,69.07-6.06,88.94-44.47,170.77-82.31,193.94-53,32.65-53,32.65-16.56,16.55-16.09,19.86-7.57,38.32-7.09,39.74-146.65,2.36-148.07,1.89-46.2,15.61-46.2,15.61-15.82,18.22-60.23,13.25c-63.39-2.37-328.77-9.23-328.77-9.23l-7.57-5s-50.62,18.44-81.37.94S195.81,1190.45,193,1161.12C189.66,1137.46,207.71,1135.57,207.71,1135.57Z" transform="translate(0 -43.92)"/><path class="cls-2" d="M792.29,570.27l-27-51L740.76,514l-2.87,15.08a33.67,33.67,0,0,0,12.35,2.6s9,45.52,37.47,45.56c10.76,4.88,8.17,12.92,8.17,12.92l2.59-8Zm291,312.22c-1.41-9-9.93-53-13.24-89.88,3.31-3.31,12.3-23.18,0-29.33-5.08-44.93-43-86.57-43-86.57s-3.59-12-26.53-18.34c-18-24.49-37.8-14.77-37.8-14.77l-44-19.87s-3.31-.47-25.54-2.36c-16.08-8.52-36.43-12.69-36.43-12.69l-60.77-18.53-12.11,12.14,5.61,12.23h20.11S989,671,999.44,677.4s-5.22,34-5.22,34-6,6.71-3,6,34.27,9.69,36.5,9.69,20.37,43.71,20.24,59.09c6.06-28.86,2.47-41-.37-45.84,5.23,6.71,16.81,25.11,13,52.65a56.41,56.41,0,0,1-9,16l17,98.18c-20.7,21-20.57,25.35-20.57,25.35s16.33,67.82,14.59,111.66c5.87-20.25,9.61-35.94,10.27-41.47,2.36-19.87,6.06-88.94,6.06-88.94S1084.66,891.48,1083.24,882.49Z" transform="translate(0 -43.92)"/><path class="cls-21" d="M820.29,629.17,817,633.36,785.44,673s60.91-21.18,69-38.94" transform="translate(0 -43.92)"/><path class="cls-21" d="M306.88,1102.46c-13.87,6.35-25.17,18.94-25.17,18.94l-1.26,5.69s12.68-1.6,13.21-1.87,83.88-12.48,108.45-8.55c31.45,9.34,58.39,31,58.39,31l15.33-12.29s-47.67-28-65.86-35.87S306.88,1102.46,306.88,1102.46Z" transform="translate(0 -43.92)"/><path class="cls-2" d="M356.08,686.49c4.4-1.63,37-14.64,44.08-22.89s43.07-18,43.92-20.73,45.62-27.2,45.62-27.2l16.14,27.2S504.07,577,527.41,535.28c-2.09-5.3-3.76-10-5.1-14.06l-12.4,4.8L486.73,589.2s-54.61,32.44-84.2,33.11c-26.13-.66-73.32,34.54-73.32,34.54S318,644.07,307,647.39s-28.85,39.73-28.85,39.73H272s-38.79,40.68-57.24,93.67c-33.59,5.67-12.3,45.41-12.3,45.41s.47,3.78-3.35,51.09c-11.38,6.15-22.73,25.26-15,45.88-.86,4.36-1.5,144.76,0,145.42s.39,13.53,23.65,67c0,0-13.59,1.44-15,17.27,20.19,15.73,39.57,30.62,39.57,30.62-32.56-149.58-28.16-278-28.16-278l21.1-20.85,7.06-33.9,7.13-45.62s21.37-19.5,23.4-26.62,19.33-27.33,18.32-41.14,7.86-34,7.86-34l17.91,19.13,16.54-45.11,18.74,7.51S351.68,688.13,356.08,686.49Z" transform="translate(0 -43.92)"/><path class="cls-22" d="M273.27,1201c43.33,23.69,85.38,17.7,85.38,17.7s-36.46-12.79-42.69-25.21c40.06,20.69,113.8-34.19,131.5-44-49.34,66-34.24,71.85-79.4,92.92,0,0,31.38-3.39,57.84-37.26,83.67-5.27,101.35-6.63,101.35-6.63s-9.27,19.89-45.09,21.35c-43.72,4.48-87.75,35-86.62,35.73s48.17-5.29,91.82-14.32,102.75-36.88,102.75-36.88-10.68,27-60.29,43.41c51-17,99.42-10.87,120.87-.42,18.44-.46,20.32-3.1,20.32-3.1-45.91-26.72-64-50.8-64-50.8l98.6,41s3.56,25.61-1.51,42.9-114,14.3-114,14.3l-44,22.58L350,1308.65l-28.6-1.51s-64,21.45-89.2-8.28-38.76-130.21-38.76-130.21v-57.21s-11.39-44.78-11.91-46.28,0-85.06,0-85.06l36.37,63.6s-4.51-17.31-4.51-18.44-31.86-80.53-31.86-80.53l2.53-16.56,30.08,65.13s4.89,102,14.3,141.48S243.12,1204,243.12,1204l30.15-3" transform="translate(0 -43.92)"/><path class="cls-22" d="M289,1127.74c47.59-27.29,115.48-11.07,115.48-11.07C356.86,1166.93,289,1127.74,289,1127.74Z" transform="translate(0 -43.92)"/><path class="cls-22" d="M227.44,933c72.15,79.75,106.33,123.42,106.33,123.42l19-2.85-34.81-47.44c36.71,14.21,70.61,50.29,70.61,50.29s-55.13,3.16-99.58,0c-.14,33.54,0,38,0,38l63.15-15.19c-84.18,33.55-103.8,98.71-103.8,98.71S216.68,1004.5,227.44,933Z" transform="translate(0 -43.92)"/><path class="cls-22" d="M376.44,1023.42S328,987.24,297.87,975.07c28.59-5.3,42.35,0,42.35,0s-28.89-73.7-40.35-87.64c57,23.65,52.27,40.74,52.27,40.74Z" transform="translate(0 -43.92)"/><path class="cls-22" d="M396.31,1023.42C381.64,937.12,381.64,930,381.64,930s-7.12-15.23-13-20.46-14.08-5.76-14.08-5.76-24-119.62-31.11-147.56c20.44,62.67,31.49,73.71,31.49,73.71L383.86,902c7.12-60.44,42.23-88.89,42.23-88.89l-12.15,104.1,69.93,83.91,23,7.6-24.35-88.49s21.78,9.89,31.56,27.83,35.11,68.37,35.11,68.37S501.87,998,492.46,998.23s-23.71,31.34-23.71,31.34Z" transform="translate(0 -43.92)"/><path class="cls-22" d="M202.29,892.9s2.92,4.37-3.21,2.48c23.6-22.65,30.9-50.09,30.9-50.09l-13.09-33.66,15.27,5.8s28-106.72,51.93-125.26C301.16,710,308,716.3,306.43,715.24S297.87,680,297.87,680s19.76-27.45,25.55-25.28,22.27,20.77,22.27,20.77l5.51-18.14s37.92-23.17,56.88-20,57.29-31.6,83.43-34.24L513.07,663l-7,19.1s-34.76-43.72-55.3-34.76-82.23,144.16-82.23,144.16l-17.3-14.59s-12.17-71.88-9.88-73.36c-15.95,23.32-17.92,42.81-17.92,42.81s-25.95-23.18-30.69-23.18-43.6,89.73-9.16,126.77c-25.22-7.51-33.5-15.72-33.5-15.72s10,53.78,24.23,70.65c-37.93,1.6-49.1-3.14-49.1-3.14L210,928.17l2.63,36.74Z" transform="translate(0 -43.92)"/><path class="cls-22" d="M466.21,673.36c-15.06,26.35-22.13,63.23-22.13,63.23,26.64,55.69,37.18,64.73,37.18,64.73C472.23,704.22,466.21,673.36,466.21,673.36Z" transform="translate(0 -43.92)"/><path class="cls-22" d="M546.39,654.16c.2-13.89,22.91-70.51,25.86-74.39s5.66-2.16,5.66-2.16,6.76.2,14.74,24.81c-15.35,3.17-12,26.75-12,26.75s27.44,24.94,28.83,74.19c-1.9,32.17-6.77,46.61-6.77,46.61S567.17,694.74,555,683.44" transform="translate(0 -43.92)"/><path class="cls-22" d="M652.82,682.49c11.19-21.3,13.92,0,13.92,0s-2.37,69.42-5.44,122.61c42.46-113.36,103.81-175.19,103.19-185.66s-21.4,15-21.4,15l-34.43,15s11.05-75.92-32.79-84.81c17.48,36.8,2.44,44,2.44,44l-19.09,43.73L635,668.31S649.89,661.09,652.82,682.49Z" transform="translate(0 -43.92)"/><path class="cls-22" d="M801.22,612.85c-38.56,52.43-72,127-72,127,63.74-80.2,90.48-101.28,90.48-101.28,68.88.51,115.67,26.22,115.67,26.22S912.26,690,905.06,722.86c26.74-50.38,74.15-52.63,73.84-40.45s-20.28,40.76-20.28,40.76l6.08,16.66s32.16-19.81,50.78-13.51c15.54,27.9,9.88,61.32-7.6,74.68,22.62,1.55,40.1-12.85,40.1-14.91s0-53.46-20-83.79c-22.1-7.2-26.22,4.68-26.22,4.68s5.66-27.82-2.05-37.07-29.82-19.54-47.3-15.42c-91.51-32.9-146.05-48.84-146.05-48.84Z" transform="translate(0 -43.92)"/><path class="cls-22" d="M874.52,774.09c-37.6,93.75-37.6,105.83-37.6,105.83S768.36,826.22,874.52,774.09Z" transform="translate(0 -43.92)"/><path class="cls-22" d="M778.45,1002.47s22.43-84.13,76-94.45c-26.4,44.33-31.94,84-31.94,84S786.68,1007,778.45,1002.47Z" transform="translate(0 -43.92)"/><path class="cls-22" d="M1018.61,1064.12c-81.62,70.92-105.9,89.06-105.9,89.06C879.78,1198,838,1212.64,838,1212.64l-21,4-38.51-12s-22.1,47.18-40.56,49.38c15.79,26.21,24.49,26.21,27.83,26.88s66.24,2.68,77.61,2.68,94.36-54.53,120.78-70.75,55.18-39.87,72.05-91.23c.51-62.81,0-86.22,0-86.22s9.88-15.76,11.22-18.92,0,75.21,0,75.21l13.18-40.69V946.38L1044,932.46s-49.3,69.45-87.54,78.14C965.74,1080.85,1018.61,1064.12,1018.61,1064.12Z" transform="translate(0 -43.92)"/><path class="cls-22" d="M1024.62,923.61c39.24-24.06,41.14-36.18,41.14-36.18s-11.39-49.27-8.22-63.19c-20.26,40.5-26,66.8-30.38,67.89C1043,885,1048,879.92,1048,879.92Z" transform="translate(0 -43.92)"/><path class="cls-22" d="M877.29,902.91c50.65-72,80-85.9,98.82-87.39-44.69,56.61-52.64,64.4-52.64,64.4s1.53-3.33-6.18-3.33S877.29,902.91,877.29,902.91Z" transform="translate(0 -43.92)"/><path class="cls-21" d="M306.88,874.34c3.06-.09,51.63,27,51.63,27C345.89,856.59,313.89,861.26,306.88,874.34Z" transform="translate(0 -43.92)"/><path class="cls-21" d="M471.8,1023.42c.48-.93,104.46,18.88,104.46,18.88s26.41-11.85,40.57-10.11c-127.09-29.12-133-31.06-133-31.06S467.79,1014.84,471.8,1023.42Z" transform="translate(0 -43.92)"/><path class="cls-21" d="M362.87,914.18c-20.21,24.93,25.68,72.09,25.68,72.09l-19.62-69Z" transform="translate(0 -43.92)"/><path class="cls-21" d="M616.83,1025.08c-32.16,10.46-40.57,17.22-40.57,17.22l-16.34,37.12s15.19-27.54,62.45-37.12c20.25-1.7,25.87-2.26,25.87-2.26s-56.25,21.53-69.75,34.39c97.88-33.83,214.9-59.15,232.9-57.46,21.94,60.2,58.71,68.75,58.71,68.75s-29.82-42.39-31.89-64c35.06-9.24,78.08,11,79.08,12.7-2.39-16.31-24.89-25.32-24.89-25.32s19.13-7.59,39.38-5.76c0,0,31.5-39.24,34.88-42.05a280.23,280.23,0,0,0-27,15.75l-6.75,8s-7.87-6.29-21.37-2.92-19.13,15.19-19.13,15.19L867.08,992l-40.5,14.82-3.31-19-42.82,21.78-21.38-3.55s-98.45,24.92-100.14,26.05S616.83,1025.08,616.83,1025.08Z" transform="translate(0 -43.92)"/><path class="cls-22" d="M730.45,1063.21c-56.91,33.89-60.11,35.81-60.11,35.81l-98.49,9s19.82,17.38,73.55,23.06,144.53-5.83,147.09-6.47,49.24,5.85,55,8c-48.61-42.57-90.18-34-92.09-36,33.89-35.32,42.84-47.47,39.65-48.11S730.45,1063.21,730.45,1063.21Z" transform="translate(0 -43.92)"/><path class="cls-21" d="M447.46,1149.49c-41.75,25.32-52.88,31.22-52.88,31.22S410.38,1139.33,447.46,1149.49Z" transform="translate(0 -43.92)"/><path class="cls-21" d="M444.08,736.59l37.18,64.73S425.16,793.82,444.08,736.59Z" transform="translate(0 -43.92)"/><path class="cls-21" d="M606,815.52c-1.29,8.9,14-115.21,26.15-140.37s27.09-22.74,27.09-22.74,16.8-29,15.5-35.5-24.88-52.39-5.84-62.77C652,555.21,638.7,577,652.82,597.26c10.88,17,3.74,31.91,3.74,31.91S616.84,648,609.47,694.72" transform="translate(0 -43.92)"/><path class="cls-21" d="M866,1099.42c16.62,12.84,25.68,22.41,25.68,22.41C863.52,1123.34,862.52,1106.21,866,1099.42Z" transform="translate(0 -43.92)"/><path class="cls-21" d="M877.29,902.91c4.29-6.89,18.53-19.85,18.53-19.85,36.11-62.22,31.41-115.93,26.71-131.37-43.64,108.75-57.06,151.22-57.06,151.22S865.19,912.36,877.29,902.91Z" transform="translate(0 -43.92)"/><path class="cls-21" d="M659.25,816l-42.42,139.2s25.49-21.12,36-75.25c-9.81,108.38,6.43,126.19,6.43,126.19Z" transform="translate(0 -43.92)"/><path class="cls-2" d="M737.89,529.07c-21,9.33-37.07,10.11-37.07,10.11s44.07,2.84,51.39,0,0-10.11,0-10.11Z" transform="translate(0 -43.92)"/><path class="cls-22" d="M490.82,1048.48c-17.39,25.06-15,50.94-15,50.94l15-16.1c29.89,10.32,39,16.1,39,16.1C511.47,1055.6,490.82,1048.48,490.82,1048.48Z" transform="translate(0 -43.92)"/><path class="cls-5" d="M383.76,1055.43c1.16-2.71,7.57-18.37,7.57-18.37l80.47-13.64s-25.94,76.29-12.21,100.68c-49.62-24.63-58.17-24.68-58.17-24.68l-2.94-2.81Z" transform="translate(0 -43.92)"/><path class="cls-5" d="M824,992c-.06-.38,2.07-16.31,2.07-16.31s18-24.51,24.41-40.25,15.81-24.5,15-24.76,33.7-29.06,43.65-30.78,11.24,0,12.8,0h1.55l-19.35,30.26S952.61,885.3,965,887.43c11.09,4.7,5.91,24.82,1.67,28.69,12.26-4.65,15.87-.26,15.87-.26s5.41,16.51-2.45,21.92-23.59,12.9-23.59,12.9l3.09,10.6s-15.74,17.77-17,17.51-7.63,3.83-7.63,3.83-20.4-4-30.63,2.39-15.93,13.24-16.17,11.38-7.87-8.46-9.6-8.51-14.9,4.14-14.9,4.14l-32.33,14.63Z" transform="translate(0 -43.92)"/><path class="cls-23" d="M489.53,364.85l21.39,35h2.92v5.91l3.89-2.59s19.47,2.49,21.42,9.68a44.87,44.87,0,0,1,1.62,11.08l2.6-8.43s12.14,1.05,16.62-9.37c-3.16,9.54-1.69,11.59-1.69,11.59l25.63-20.39C571,413.07,572.9,434,572.9,434h-5.48l7.75,9.74c-1.62,16.87,21.42,36.41,26.28,39.62a17,17,0,0,0,1.16,6.67l4.68-4.43s8.77,5.19,11.69,5.84c2.92,4.87,20.11,3.24,28.88,0a18.3,18.3,0,0,0,8.11-8.08l6.16,3.21-4.54-5.84S691,451,690,429.67c6.17,5.61,6.17,7.23,6.17,5.61S685.29,409,682.63,405.43s3.84-5.59,3.84-5.59l14.6,6.7s6.49,9.17,8.11,11.17c3.57-4.82,6.17-13.25,6.17-13.25s3.89,7.46,3.57,6.49,25.31-17.53,27.26-22.07c1,7.46,1.62,11,1.62,11l3.57-12.91c12.8-17.49,14-31.15,14-31.15s1,59.06-7.16,85.34-26.61,44.13-26.61,44.13S698.48,544,697.5,543.66s-38,12.33-38,12.33L644,568.32s-58.73-9.08-68.79-16.22c-39.38-52.69-47.76-66.52-47.76-66.52s-26.5-43-31.23-53.78-4.67-12.42-4.67-12.42Z" transform="translate(0 -43.92)"/><path class="cls-24" d="M594.94,445.09c8.33,14.71,10,15.44,10,15.44l4.65-2s1,4,1.72,3.48,7.59-3.23,7.59-3.23,3.09,2.4,12.57,3.28,20.27-4.26,20.27-4.26l2.21,2,1-3.92s13.78-6.13,14.36-14.22C645.34,460.26,610.13,452,594.94,445.09Z" transform="translate(0 -43.92)"/><path class="cls-25" d="M629.19,364.31c7.7-4.63,7.56-11.71,7.56-11.71,9.69-7.83,4.16-17,4.16-17,9.29,7.77,7.84,21.22,7.84,21.22a6.78,6.78,0,0,0,7.67-2.17c-.93,9.08-15.95,8.23-17.16,7.66C634.4,368.14,629.19,364.31,629.19,364.31Z" transform="translate(0 -43.92)"/><path class="cls-25" d="M612.78,366.08c-6.8-4.26-7.6-8.95-7.6-8.95l-7.07,4.47C604.16,366.15,612.78,366.08,612.78,366.08Z" transform="translate(0 -43.92)"/><path class="cls-13" d="M658.64,287.17c-6.14,1.19-6.85,3.57-6.85,3.57,4.77,7.15,11.07,2.3,10.75-.51-5.29-.75-4.56-3.58-4.56-3.58" transform="translate(0 -43.92)"/><path class="cls-14" d="M712.45,291c-16,7.27-22.57,6.2-22.57,6.2,13.87,9.18,26,4.53,26,4.53-1.07,3.1-5.84,6.08-5.84,6.08,14.18-2.63,19.9-7.27,19.9-7.27-14.54-8.23-15.25-10.37-15.25-10.37Z" transform="translate(0 -43.92)"/><path class="cls-14" d="M661.61,279.45c11.72-7.06,33.6-5.14,33.6-5.14-7.57-6.94-17.19-6.67-18.65-7.42S666.39,269,661.61,279.45Z" transform="translate(0 -43.92)"/><path class="cls-14" d="M585.88,266.91l15.28,16.46C607.94,274.08,598.71,262.76,585.88,266.91Z" transform="translate(0 -43.92)"/><path class="cls-25" d="M543.39,291.05s3.07,5.39,21,7.09c0,0-24.59,7.54-32.43,1.65,0,0,5.28-6.14,7.69-7.24" transform="translate(0 -43.92)"/><path class="cls-25" d="M550.79,274.7c-5.93,5-5.89,12.95-5.89,12.95l-10.44,8.89C534.34,287,536.45,282.79,550.79,274.7Z" transform="translate(0 -43.92)"/><path class="cls-26" d="M823.27,987.88c10.51-44.92,42.2-68.28,42.2-68.28s32.31-2,30.12-2.38c-33.48,17-38.1,22.95-38.1,22.95L841.1,976.09s41.29-22.11,58.13-29.71c-22.91,12.27-29,21.78-29,21.78s9.89-2.17,25.6-6.88,71.13-27.81,73.41-28.82c-3.4,8.54-16,14.69-16,14.69l-5.4,8s12.39,1.76,11.78,6.11-8.64,8.53-8.64,8.53l-16,12.81s-26.81-4.15-34.66,5.26l-7.86,9.4-17.88-8.53-46,17.9-7.34-18.14" transform="translate(0 -43.92)"/><path class="cls-27" d="M411.39,1032.19c-22.84,24.21,21.48,52.1,43,37.82,1.45,52.46,7.14,57.08,7.14,57.08s-56.07-25.6-56.55-26.88l-16.47-43.81,7.76-33Z" transform="translate(0 -43.92)"/><path class="cls-25" d="M555.66,273.63c11.27-3.69,35.92,2.21,42.45,8.81-14.78-13.35-24.64-15.34-24.64-15.34Z" transform="translate(0 -43.92)"/><path class="cls-14" d="M534.46,255.48c-17.55,11-20.67,22.83-20.67,22.83l-2.66,11.87c19.27-12.33,32.58-15.41,32.58-15.41-13.88-6.95-21.79-3.67-21.79-3.67S527.91,259.53,534.46,255.48Z" transform="translate(0 -43.92)"/><path class="cls-25" d="M608.76,392.15c-.28.82-10.65,17.3-10.65,17.3L578,417.71c-11-1.13-17.57,2.17-17.57,2.17S589.54,392.7,608.76,392.15Z" transform="translate(0 -43.92)"/><path class="cls-25" d="M646.92,389.68c11.19,12.93,9.5,19.77,9.5,19.77,18.78,5.12,21.25,6.58,21.25,6.58l-.25,2.84-2.63,9.46c11.39-6.81,17.43-19.33,17.43-19.33Z" transform="translate(0 -43.92)"/><path class="cls-13" d="M527.42,142.71c-2.06,80.55,7,99.93,7,99.93s-15.45,16.2-20.67,35.67-24.26,72.24-24.26,72.24-1.38-125.77,9.84-148.1S527.42,142.71,527.42,142.71Z" transform="translate(0 -43.92)"/><path class="cls-2" d="M720.1,537.18l1.42-45.73,13.05-24.24s21-49.18,17.94-140.29S747.33,227,747.33,227l10.87-19.15s15.12,71.46,14.21,73.24,0,36.5,0,36.5l-3.89,8.28s-.88,85-10.36,110.79-17.05,35.71-17.05,35.71v64.8Z" transform="translate(0 -43.92)"/><path class="cls-25" d="M577.42,415.68,611.5,407c7.35-1.86,15.35-.33,21.7,1.42s10.19-2.56,15.34-2.43,34.09,8.68,34.09,8.68-8,2.52-8.34,2.3-26.35-1.86-33.94-1.2-18-1.54-22.71-1.76-35.07,4.39-35.07,4.39S577.64,417.76,577.42,415.68Z" transform="translate(0 -43.92)"/><path class="cls-28" d="M582.75,422.28c29.34,7.05,50.66,6,67.39,1.25s19.2-6.95,19.2-6.95h10.8s-4.23,15.58-12.46,21.79-39,13.89-58.92,5.39c-26.42-9.29-30.12-23.88-30.12-23.88A3,3,0,0,1,582.75,422.28Z" transform="translate(0 -43.92)"/><path class="cls-25" d="M578.64,419.88c5.28,10.68,32.46,22.68,32.46,22.68-8.81-10.4-6.73-11.42-6.36-11.34a133.13,133.13,0,0,0,31.26.83,60.3,60.3,0,0,0,26.89-9.47c3.68,4.68-1.22,15.58-1.22,15.58,10.16-5.76,15.87-19.89,14.61-21.58h-6s-19.7,7.44-35.5,10-51.1-3.22-53.39-7.26C579.88,416.48,578.64,419.88,578.64,419.88Z" transform="translate(0 -43.92)"/><path class="cls-5" d="M608.76,435.78c5.73,7.84,25.4,8.31,25.4,8.31C626.55,434.49,611.36,435.45,608.76,435.78Z" transform="translate(0 -43.92)"/><path class="cls-12" d="M596.54,421.08c22.16-5.13,30.06-4.34,30.06-4.34l-5.72-2.84L596,416.46" transform="translate(0 -43.92)"/><path class="cls-6" d="M541.92,291.05c9.88-13.25,28-14.59,37.06-12s15.41,7.44,16.07,8.61a1.41,1.41,0,0,1-.39,1.89s-1.47-1.75-14.34,2.06-27.31,8.34-36.61,1.75C536.05,291.29,541.92,291.05,541.92,291.05Z" transform="translate(0 -43.92)"/><path class="cls-8" d="M584.21,280.09c2.8,2.05,4.71,9.2.92,10.2,8.47-1.84,10.13-.37,10.13-.37a4.3,4.3,0,0,0,.39-2.59C595.32,286.16,588.57,280.9,584.21,280.09Z" transform="translate(0 -43.92)"/><path class="cls-9" d="M549.82,296c4.34-12.14,26.38-13.75,34.52-11.34s8.87,5.69,8.68,5.19.53-1.84.44-2.22-4-7.36-15.18-9.34-26.71,2.35-33.85,11.1c-3.93,4.2-2.68,3.84-2.68,3.84" transform="translate(0 -43.92)"/><path class="cls-3" d="M571.16,294.22a12.45,12.45,0,0,0,5.15-10.15,12.65,12.65,0,0,0-1.42-5.83h-.07c-5.85.44-15.28,1.6-22.34,4.63a12.1,12.1,0,0,0-.06,1.21A12.26,12.26,0,0,0,562,296.18,84.81,84.81,0,0,0,571.16,294.22Z" transform="translate(0 -43.92)"/><path class="cls-29" d="M574.66,284.72a10.39,10.39,0,0,0-.74-3.86c-4.76.41-12.53,1.4-18.58,3.78v.08a10,10,0,0,0,7.5,9.79,76,76,0,0,0,7.86-1.69A10.16,10.16,0,0,0,574.66,284.72Z" transform="translate(0 -43.92)"/><path class="cls-3" d="M679.61,279.2c-3.25,5-.36,11.83,1.91,13.37,9.3,3.16,13.69,2.64,13.69,2.64s3.93-1.24,5.79-6.61a19.38,19.38,0,0,0,.93-6.61S684.52,276.82,679.61,279.2Z" transform="translate(0 -43.92)"/><path class="cls-30" d="M699,288.19a16.67,16.67,0,0,0,.83-4.71c-3-.83-11.18-3-16.41-3a9.21,9.21,0,0,0-2.68.3c-2.2,4,.06,9.1,1.53,10.33,6.56,2.2,10.44,2.44,11.81,2.44h.45C695.12,293.33,697.64,292.06,699,288.19Z" transform="translate(0 -43.92)"/><circle class="cls-3" cx="565.81" cy="241.27" r="5.31"/><circle class="cls-3" cx="688.72" cy="240.88" r="4.88"/><circle class="cls-6" cx="570.12" cy="241.9" r="2.02"/><circle class="cls-6" cx="565.61" cy="239.88" r="1.25"/><ellipse class="cls-6" cx="692.24" cy="242.1" rx="2.02" ry="1.97"/><ellipse class="cls-6" cx="687.73" cy="240.14" rx="1.25" ry="1.21"/><path class="cls-7" d="M512.23,211.41c-12.74,141-24.05,232.73,27.57,271.93-37-16.9-52.62-57.43-49.76-104.58S493.1,266,493.1,266,500.46,213.3,512.23,211.41Z" transform="translate(0 -43.92)"/><path class="cls-7" d="M494.18,318.81c-21.49-5-20.79,13.15-14.68,16.75,3.06,6.89,2.59,3.37,2.59,3.37s4.88,62.25,11,69.76c-4.2,14.1-6.08,14.5-6.08,14.5s-14-63.32-13.12-80.6C458.37,328.83,469.62,301.05,494.18,318.81Z" transform="translate(0 -43.92)"/><path class="cls-14" d="M470.31,317.13c15.48-2.9,21.48,23,21.2,30.25.93-32.9,0-39.78,0-39.78Z" transform="translate(0 -43.92)"/><path class="cls-25" d="M789.31,304.74C778,316.16,779,328.07,779,328.07c11.8-11.79,24.11-18.28,26.1-6.52s-12,49.92-13.06,48.92,3.6-39.16-1.24-43.91-14.81,4-14.05,22.33C778,379.5,766,388,766,388s.75-62,1.25-63.22S772.28,304.71,789.31,304.74Z" transform="translate(0 -43.92)"/><path class="cls-3" d="M765.56,391.3c18,.53,12.82,29-.28,25.28C767.23,396.31,765.56,391.3,765.56,391.3Z" transform="translate(0 -43.92)"/><path class="cls-2" d="M758.07,420c21.69-18.91,35.48-81.53,36.46-103.58-5.22-11.7-14.63-3.19-14.63-3.19s18.41-26.54,25.41,2.5a172.5,172.5,0,0,1-6.44,52.64L773.94,420s-3.9,5.28-8,5.79S754.92,430.16,758.07,420Z" transform="translate(0 -43.92)"/><path class="cls-3" d="M584.45,1195.86l5.66,2.66S588.12,1197.41,584.45,1195.86Z" transform="translate(0 -43.92)"/><path class="cls-3" d="M690.56,1044.89l62.79-8.41s-83.53,60.54-83.53,62.78c0,0,33.08,5.61,126.7-51,0,0,9.53-6.73,15.13-31.39C811.65,1016.86,765.13,1010.8,690.56,1044.89Z" transform="translate(0 -43.92)"/><path class="cls-3" d="M719.7,290.34a12.81,12.81,0,0,1,.6,1.63,5.4,5.4,0,0,0,.28-2.07l1.1-.6s-.42-.15-1.18-.45a19.76,19.76,0,0,0-2.75-7.34C704.64,267.31,677.24,266,677.24,266s-13.44-.77-26.2,15.48c9.68-7.46,23.31-17.1,44.58-10.13,14.1,4.63,20.35,12.17,23,16.72-3.22-1.28-8.74-3.59-15.53-6.87h0a34.61,34.61,0,0,0-3.73-1.64c-10.05-3.7-25.11-4.36-42.81,8.06h-.93a1.75,1.75,0,0,0,.83,1.34h0c5.93,3.93,14.89,1.31,24.73,3.89,0,0-4.19-3-12.36-3.07-5.08-.05-7-1-7.82-1.68,10.42-5.95,21.79-10.7,35.9-5.92,7.37,2.51,10.9,5.79,12.59,8.43-2.87,3.45-8.29,5.15-8.29,5.15a39.89,39.89,0,0,0,9.75-1.61,5.32,5.32,0,0,1,.1,1c-1.31-.31,1.83,1.39,10.9.95-2-1.47-3.74-3-5.45-4.56A16.22,16.22,0,0,0,719.7,290.34Z" transform="translate(0 -43.92)"/><path class="cls-3" d="M741.15,275.19a27.59,27.59,0,0,0-9.9-1.89S735.91,277.37,741.15,275.19Z" transform="translate(0 -43.92)"/><path class="cls-3" d="M677.15,388.42c3.77,4.87,5.81,7.23,5.81,7.23s-26.08-17.13-34.73-20.59S638,373.49,638,373.49s-2,7.79-1.57,12.77c-4.71-1.52-4.32-2.4-4.32-2.4-3.22,5.66,7.46,13.05,7.46,13.05v-5S666.78,407,668.82,410.1l.47-6.44S688,410,691.92,422.52a14,14,0,0,0,0-8s4.4,10.69,15.24,13.83c-4.56-20.58-9.43-30-9.43-30S679.82,390,677.15,388.42Z" transform="translate(0 -43.92)"/><path class="cls-3" d="M654.14,414.47c-22.59-.22-16,2.32-30.46-.81s-24,3.82-45.53,2.2c-2.54-1.39-2.54,4.75,5.68,6.72-1.74-2.43,8.45-4.87,34-7.41,16.8,3.35,17,2.2,29.31,1.73s30.23,2,30.23,2l5.21-4.4S676.73,414.7,654.14,414.47Z" transform="translate(0 -43.92)"/><path class="cls-3" d="M1086.34,879.89c-.39-1.72-.87-3.77-1.42-6.1-4.1-17.41-11.62-49.48-9.5-79.52,1-.6,1.64-1,1.76-1.06l.86-.54.51-.89c3.1-5.39,5.81-18.19-5.25-29.14-4.13-38.8-19.92-60.15-45.27-90.12-2.84-8.4-14.32-19.09-31.77-24.41-10.78-12.49-27.35-10.12-32.45-9l-1.61-.65c-2.65-1.07-7.34-2.93-15.47-6.13-6.41-2.53-11.64-5.15-16.25-7.46-11.74-5.88-21.1-10.57-38.36-7.68-21.61-17.51-73.9-23.35-81.42-24.11A57.71,57.71,0,0,0,800.2,589c2.24-2.51,2.41-3.5,2.54-4.36,1.2-7.79-6.67-12.55-10.45-14.36-19.62-54.91-26.15-56.42-28.3-56.92-4.65-1.07-14.07-1.88-19.93-2.31l2.53-41.31a177.3,177.3,0,0,0,16.33-37.33c12.45-1.61,17.4-12.57,18.27-19l0-.18c.17-.43.92-2,3.69-5,6.33-7,23.49-65.44,25.27-82.93,1.22-12.08-2.19-21.59-9.13-25.45-3.34-1.85-8.46-2.95-15.51.14-.3-20.05-1.68-73.32-1.68-73.32l7.21-7.5s3.17-19-2.6-35.16c-17.58-38-55.62-77.23-83-91.93s-67.72-23.63-67.72-23.63V61.49s-9.8,2.6-47.26-1.15-49.28,10.66-58.22,36c-31.41,21-31.7,38.33-31.7,38.33a11.28,11.28,0,0,1-4.61,6.05c-.29,8.65,4.61,17.58,4.61,17.58s-2,5.77-6.92,6.63c.29,3.17-6,24.21-11.24,47.55-3.45,24.21,0,91.07,0,91.07a31,31,0,0,1-2.83,7.1,19,19,0,0,0-12.08,5c-6.24,5.93-6.91,14.89-5.84,19.47,1.33,5.71,5.42,9.63,7.87,11.54.52,9.09,2.63,45.6,3.63,52.14.73,4.78,3.44,10.61,6.06,16.26a94.65,94.65,0,0,1,4.36,10.34,11.68,11.68,0,0,0,5.84,7.36,10.82,10.82,0,0,0,4.86,1.11h.33c.91,2.07,2.21,5.18,3.94,10,4,11.24,7.5,24.21,7.5,24.21l1.73-2.59c1.25,1.25,5.63,6.24,10.7,12.08,1.53,5.85,1.2,7.37,1.2,7.37l2.2,2.09v30.71c-8.92.32-12.75,2.19-15,4-1.63.77-2.3,2.7-3.2,5.31-.65,1.86-1.53,4.53-2.56,7.72-1.83,5.62-4.31,13.45-7.38,23.26-3.47,11.07-6.89,22.13-8.84,28.45-15.47,5.55-27,12.06-37.21,17.82-13.19,7.45-23.62,13.35-37.16,14.06-13.85-1-17.89-.47-19.52.66-7.39,3.1-45.46,19.12-51.25,22.73a90.32,90.32,0,0,0-11.43,9c-9.6-7.13-12.84-8.16-15.25-8.36-3.74-.31-8.82.83-10.87,2.06-2.44,1.46-21.26,23.26-27.11,36.22l-.54,1.21,0,.1a26.59,26.59,0,0,0-9.83,5c-7.66,5.75-37.3,49.54-51.46,89.85-7.43,1.33-18.72,6.54-21.59,19.7a31.8,31.8,0,0,0,7.6,28.65c-.23,5.73-1.83,26.37-3.69,49-22.76,12-21.49,38.65-17.33,52-.38,11.63-4.13,134.17,2.63,182.54,6.79,48.62,22.7,162.48,47.54,192.68,10.88,13.22,28.76,17,45.84,17a159,159,0,0,0,36.24-4.7c15.28.41,288.48,7.82,341.59,10.35q7.1.33,13.55.34,32,0,47.74-8.28c214.76-1.31,243.11-11.66,243.11-11.66l6.28-74h0a144.37,144.37,0,0,0,26-19.8c56.65-54.9,82.75-166.83,88.64-218.35,5.53-48.4,3.53-66.6,2.65-71.54C1082,915.62,1089.47,894,1086.34,879.89Zm-280-279.83a91.11,91.11,0,0,0-7.29,8.62l-13.58-6.42c3-2.47,5.48-4.57,7.52-6.36A44.47,44.47,0,0,1,806.31,600.06ZM767.13,412.58c1-10.87,1.66-17.48,2-21.36v0c.16-.87.31-2.59.46-4.89v0h0c1-15.08,1.85-55.6,1.85-55.6s.26-6.24,10.2-19.92l.59.77c6.19-4.78,11.44-6.38,14.8-4.51,3.85,2.14,5.79,9,4.94,17.43-1.91,18.84-19.22,73.51-23.19,78.24-3.75,4.15-5.66,7.38-5.8,9.84-.25,1.57-1.64,8.14-7.67,10.77A87.74,87.74,0,0,0,767.13,412.58Zm-277.8-3.82a41.49,41.49,0,0,0-1.58,5.21c-.35-.77-.71-1.54-1.07-2.32-2.38-5.13-4.84-10.42-5.39-14-.85-5.54-2.77-37.31-3.66-53.33l-.13-2.2L475.6,341c-.05,0-4.84-2.95-5.94-7.65-.49-2.13-.3-8,3.5-11.63,3-2.87,7.72-3.57,14-2.14a13.63,13.63,0,0,1,2.21,6.52C490.48,337.87,486.16,387.44,489.33,408.76Zm27.31,53.86c-9.34-12.34-18.49-30.27-20.68-49.82-3.46-30.84-4-87.9-.29-105.48s3.17-45.82,7.21-65.71c3.74-3.74,15.27-15,16.71-36.6s2.31-29.39,2.31-29.39l-6.63,4.32s2.88-4.61,25.36-34.87c4.61,1.73,14.12-.29,14.12-.29a8.9,8.9,0,0,1-5.76-6.05c14.69,3.74,52.45-22.48,91.64-9.8.58-1.15,10.09-4.61,10.09-4.61s-1.15,4,3.74,5.19c3.46-6.06,38-9.23,48.13,17.86s38.62,45.25,38.62,45.25l.29,10.09,8.36,15.56-8.36-10.38s.57,15.28,1.73,22.48c.86,5.77,20.75,26.23,20.75,26.23l-4.33-4s1.16,19.89,3.75,36.89c4.22,41.21.25,91.75-1.39,109.25h0s-6.8,32.75-16.51,49.11S730,466.12,730,466.12l.83,3.33L726.91,467s-16.68,16.76-41.37,10.38a99.38,99.38,0,0,1-36.86,20.13l-3.33,4.72-.28-4.16s-18,13.31-26.35.27a86.08,86.08,0,0,1-2.22,8.88L611,493.31S583.49,483.6,580.16,475c-11.1,9.15-12.76,15.26-12.76,15.26l.83-9.16S541.05,487.12,516.64,462.62Zm133.63,136c5.28,8.15,9.51,14.67,4.33,24.6-9.28,2.87-17.89,9.7-25.3,18.79-10.82-8.19-21.8-29.06-29.37-43.46-4.36-8.3-7.81-14.86-10.52-17.94-6.7-7.61-12.16-9.2-14.88-9.47l-44.43-26V494.53c9.31,8.16,23.67,19.92,38.13,28.46,24.41,14.43,80.73,20.25,107.08,8.88s40-23,57.7-43c1.54-1.73,3-3.6,4.51-5.53l-2.68,43.73-56.67,20.17c-5.42-1.24-23.59-3.4-33.68,19.8C638.57,580.64,644.79,590.22,650.27,598.67ZM512,528.26c1.79-1.54,6.09-2.08,9.91-2.24V550l45.54,26.6c-6.11,9.27-20.53,34.44-20.9,66.31l-47.87-32.41-7.14-17.53C498.61,569.87,509.68,534.39,512,528.26ZM186.49,925.89l0-.73-.23-.69c-.38-1.18-8.35-26.46,8.45-39.85-.32,14,.57,21.88,1.73,26.37,2.56,66,5.91,132.19,11.25,191-7.21-12.64-15.7-31.68-22.33-58.71C184.45,988.61,186.46,926.79,186.49,925.89Zm48.28,370.44c-14.74-17.92-26.65-70.82-35-118.44a442.73,442.73,0,0,0,26.81,54.28c.65,2.72,1.31,5.39,2,8,14.14,54.25,43.75,66.85,84.76,64.49C299.45,1308.42,253.29,1318.83,234.77,1296.33ZM719,1299.8c-2.91,7.11-15.43,18.67-66.49,16.24-41.27-2-215-6.87-298-9.16,17-2.54,38.53-6.2,61-11.17,55,1.59,251.79,7,273.48,3.57,25.25-4,17.94-43.67,17.94-43.67s-5.31,22.41-65.11,19.09c-45.44-2.52-114-3.51-144.33-3.84,16.06-6.44,31.56-13.46,45.57-20.27,54.31-17,77.57-10,77.77-10,0,0-12.75-12.64-45.31-6.68,18.44-10,26.11-24.3,26.11-24.3-.63.39-63.79,39.1-129.19,61.86-28.84,2.31-112.22,9.08-115.5,10.22h0c20.5-7.42,38.27-18.41,55.08-29.68,30.31-20.33,69.73-32,70.13-32.16,0,0-18.91-7.65-74.71,25.33l-5,3c-.1.06-90.25,49.75-126.06-11.34a89.7,89.7,0,0,1-4.11-8c31.9,3.56,60.2-9.74,60.2-9.74-35.5-4.51-58.59-16.33-72.49-26.49-23.18-88.37-31.39-244.54-31.39-244.54l47.79,39c-42.47-63.12-45.13-143.51-45.13-143.51a253.25,253.25,0,0,0-29.14,51.59c.62-7.41,1.33-16,2-24.6,1.1-13.48,1.94-24.24,2.5-32,1.21-16.57,1.24-17-.86-18.36a23.14,23.14,0,0,1-6.08-21.79,16.47,16.47,0,0,1,10.53-12,120.32,120.32,0,0,0-4,18.84l-.28,2.32,1.85,1.43c4.23,3.62,8.33,6.92,12.3,10h0l0,0c39.51,30.12,65.7,32.3,65.7,32.3-36.26-20.05-48.44-55.55-18.32-134.56,0,0-31.52,46.54-45,93.07-3.44-2.55-6.14-4.6-7.81-5.86,6.5-43.71,48-105,55-110.2,6.34-4.76,16.86-1,25.5,1.59,0,0-9.72-12.73-11.6-13.1,5.88-11.3,20.32-28,23-30.63a17,17,0,0,1,5.79-.85c1.67.14,8.23,3.55,33.32,24.78,0,0-6.41-16.06-10.77-19.51a76.29,76.29,0,0,1,9.17-7.11c4.15-2.6,32.69-14.85,50.87-22.46l.14-.06c.84-.13,4.21-.45,15,.37l.26,0,.25,0c15.61-.74,27.41-7.4,41.06-15.12,9.05-5.1,19.14-10.81,32.08-15.81L491,613.47c-4.3,29.44-3.47,38.16-3.47,38.16s30.5,80.11,50.38,110.54C509.9,689.23,512.69,649,512.69,649s49.13,32.67,61.66,60a102.89,102.89,0,0,0,0-51s-13.75-15.23-18.09-31a118,118,0,0,1,5.37-20.11c31.52,35.69,40.81,52.31,40.9,52.48,0,0-3-22.33-37.46-61a122.67,122.67,0,0,1,10.13-18.47c1.63.63,4.44,2.23,8,6.32,2.06,2.34,5.63,9.14,9.41,16.33,8.35,15.87,19.34,36.77,31.76,46.21-12.56,18.46-20.64,43.3-20.85,64.17-.15,14-1.61,66.48-3.5,124.68-1.84,59.43-28.69,149.11-28.69,149.11s-3.65-14.07-26.59-58.38-20.85-56.3-41.7-58.38L565,1013.53l-8.09-1.93c-42.89-10.25-67.54-15.9-75.37-12.69l-.22.1c-3.61,1.73-8.22,8.69-12.71,19-9.94-3.49-43.33-18.92-68.47-74.69,0,0-.93,17.26,3.73,57.18,0,0-7.46-6.63-13.56-26.79-.49-3-1-6-1.54-9-10.17-57.4,11.43-132,36.33-149.1,0,0-39.33,16.83-46.89,106.82-1.75-4.38-3.57-7.62-5.44-9.25-3.87-3.39-8.41-7.4-12.67-11.17-18.31-45.14-39.71-174.31-42.43-211.47,0,0-12.36,53.74,29.7,200.15C346.2,889.67,302,870.87,302,870.84s54.4,39,65.37,48.57c9.08,8,21.88,95.65,21.11,106.39-.34,4.64-2.49,11.5-4.47,17l-5.78-22.3-.34-.53c-58.58-44.91-80-44.91-80-44.91,58.06,36.19,70.53,46.9,72.82,49.11l7.46,28.78c-10.06.49-37.94,1.26-101.77-.33,0,0,15.73,9.18,66.48,9.18,24.15,0,35.12-.55,39.1-.83,1.81,6,5.41,16.59,12.56,33.83-86.19-2.78-106.69,16.24-106.69,16.24,39.2-12,110-9.13,121.5-6.5,8.06,1.84,39.76,19.1,58.44,29.6-18.44,8.32-34.24,31.33-49.63,53.78-6.89,10.06-13.41,19.56-20,27.59-24.48,29.73-70.72,40.37-71.18,40.47,0,0,51.22-3.3,77.53-35.25,6.84-8.31,13.45-18,20.45-28.17,9.55-13.93,19.26-28.11,29.35-38.36,36,2.92,71.65,32.85,71.65,32.85a125.85,125.85,0,0,1,58.53,8.8c-72.72-34.24-101.44-50.22-110.27-55.41a25,25,0,0,1,9.45-1.29c9,4.08,18.6,8.57,22.35,10.45l.21,1.62h7l0-.15c7-.1,25.18.74,35,11.07.2,1.06.4,2.12.63,3.14l1.64-.38a22.94,22.94,0,0,1,2.65,5l.63,1.67,1.65.68c12.22,5,29.24,13,48.95,22.3,34,16,76.57,36,114.42,49.84C720.27,1268.82,720.71,1295.58,719,1299.8Zm-355.09-2.68h0ZM481.12,1131c-.71,0-1.41,0-2.11.12-2.87-1.64-9.16-5.22-16.89-9.49-7.94-50.4,15.43-111,22.69-115.12,6.15-2.18,41.64,6.31,70.2,13.13l14.06,3.35h0c10,2.38,20.21,4.74,30.07,6.87-7.44,2-15.56,5.16-22.37,9.92l-.33.27c-9.62,8.35-23.82,47.41-28.24,83.55l-73.56-16S476,1121.62,481.12,1131Zm-27.95-14.28c-16.33-8.86-35.13-18.56-42-20.13a65,65,0,0,0-7.43-1c-11.36-27-14.44-38.43-15.18-41.63,1-2.44,3.32-8.21,5.23-14.36,10.49-.76,47-3.57,69.47-7.33C455.59,1055.46,449.92,1087.38,453.17,1116.67Zm274.07,149.8c-.19-4.52.18-15.79,0-19.08,4.35,1.51,8.64,2.94,12.81,4.24C737,1254,732.17,1264,727.24,1266.47Zm350.37-367.12a128.45,128.45,0,0,1-5.68,19.73l-.48,1.31.35,1.31c0,.14,3.7,14.78-2.59,69.83-4.9,42.91-24,128.45-63.37,185.9-9.21,3.53-17.72,6.56-25.58,9.18,47-51.14,75.09-144.19,80.76-207.25,5.49-66.69,16.59-80,16.59-80s-54.25,47.78-68.37,47c18,25.92,32.17,17.56,32.17,17.56s-9.1,32.78-22.68,73c-37.9,39.69-84.17,62.52-84.17,62.52l-49.74-52.83c7.37,90,27.89,106.59,27.89,106.59,37.65-18.54,64.8-38.1,82.63-53.11-9.35,22.72-19.36,43.8-29.26,59-36.87,56.49-224.4,59.63-329.54-14.13,146.73,4.71,205.57,19.62,205.57,19.62-39.23-47.86-62.76-43.15-62.76-43.15L562,1133.14c76,47.38,145.1,78.16,210,91.38A261.14,261.14,0,0,0,866,1253c-33.83,4.3-68.34,3.25-97.25-2.34-43.8-8.47-111.45-40.27-160.84-63.5-19-8.92-35.47-16.67-47.73-21.79a30.92,30.92,0,0,0-4.2-6.89c-5.73-38.06,15.54-102.81,25.71-112.09,14.43-10,36.63-11.87,39.64-12.08,8.11,1.48,15.69,2.64,22.42,3.35-13.13,4.71-35.86,22.27-35.86,22.27,68.68-27.2,144.52-49.21,152.34-49.21h.12c8.35.34,18.47,0,18.9,0l.54,0,42.53-12.85c.16.62.34,1.33.54,2.06l1.78,11.17.91-1.59c19.82,68.94,52.07,87.52,52.07,87.52-22.93-27.78-37-66.53-43.7-88.43,17.05-6.21,32.32-12.26,36.58-14l24.11,5.16,1.57-1.44c19.6-18.12,37.17-11.76,37.89-11.49l2.15.85,28.86-21.95L972,950.14l-8.58,6.53a11.32,11.32,0,0,0-2-2.83,12.56,12.56,0,0,0-1.08-1c4.75-2.27,9-4.35,12.18-6.05,11.67-6.2,17.67-20.38,15.23-28.91-1.5-5.25-5.77-8.14-11.57-7.76-.41,0-.88.09-1.37.17A26.57,26.57,0,0,0,977.28,896c-.55-4.66-2.75-10.51-7.13-11.67-4.66-1.25-12.87,1.07-25.88,5L939,890.81c-4.15,1.21-13.44,5.85-24.19,11.68l39.59-58.37-31.14,29.42c-10.64-5.77-19,1.67-40.21,20.84-2.15,1.94-4.35,4-6.57,6.14h0c50.63-139.89,64.06-189.77,64.06-189.77-55,69.06-108,245.55-106.66,243.2h0c-6.62,11.74-11.31,23.57-12.68,34.58l-.07.58.07.46-42.76,12.92c-2.2.06-10.77.27-17.77,0h-.26c-4.87,0-23,4.68-47.29,12.08,2.85-8.23,9.86-27.75,21.5-55.59-24.66,10.68-72.75,64-72.75,64h0c.51-54.89-1.06-298.05-1.06-298.05.27,41.84-6.3,271.81-7.26,305.22a202.36,202.36,0,0,1-25.83-3,74.93,74.93,0,0,1,2.25-7.82c6-2.13,13.21-12.15,4.69-18.76,1.92,3.2,4.26,10.87-3.21,14.07s-17.9-2.13-14.91-12.58c-7.25,13.22,5.75,18.55,5.75,18.55s.17,3,.29,5.63c-6.93-1.26-14.28-2.76-21.84-4.4,3.43-43.19,10.7-276.82,11-308.87s21.19-75.71,46.58-82.14l1.66-.42.87-1.47c9-15.12,1.92-26-3.73-34.67-5-7.68-9.29-14.32-5.13-23.87,8.61-19.82,23.32-15.47,24.94-14.91l1.38.49,54.51-19.4a93.14,93.14,0,0,1,12.57,3.25l-45.55,12.78s6.9,12.41,11,12.76,28-12.76,28-12.76,9.27-1,33.08,23.46c1.73,1-18.29-46.94-18.29-46.94H743l.6-9.8a178.42,178.42,0,0,1,18.12,2c4.05,3.61,15.23,30.28,23.46,53.44l.63,1.79,1.78.67c2.54,1,6.81,3.63,7.07,5.79-1.66,2.29-8.09,7.9-17.47,15.49l-5.37,4.3c-15.7,12.49-37.39,28.94-58.81,44.74a115.18,115.18,0,0,0,.76-30.86,143.86,143.86,0,0,0-5.3-25.8v0h0c-12.62-35.34-32.55-26.08-32.55-26.08,11.67.54,19.67,12.54,24.56,27.82h0c4.72,21.72-15.33,45.07-52.35,61l-.37.18c-16,8.88-19.21,36.63-19.21,36.63s.79-1.79,2.17-4.42c.17,11.7,11.8,16.34,19.76,11.18,7-4.57,6.89-20.13,1.45-27.67,14.68-14.25,34.38-12.24,34.38-12.24l-4.48,39.36s91.18-75.74,93.68-77.23c1.8-1.08,9.84,1.74,14.16,3.39-12.77,20.77-23.07,44.48-23.74,46,0,0,31.79-52.54,50.53-66.69,16.44,2.14,56.33,8.61,71.79,22.6L889.7,626l2-.39c15.79-3.07,23,.57,35.07,6.6,4.77,2.39,10.17,5.09,16.92,7.76l7.12,2.81-.47.13L962,647.26a4.35,4.35,0,0,0,4.27-.28c4.54-.88,17-2.23,24.39,7.25l.83,1,1.28.36c18.09,5.17,26.53,15.86,27.61,19.94l.23.9.6.71c27.29,32.21,40.53,51.37,44.07,87.78l.15,1.59,1.19,1.07c9,8.07,6.43,16.45,5.23,19.21A170.65,170.65,0,0,1,1039,801.71s21.57.48,28-2.79c-1.09,29.66,6,59.9,10,76.76.54,2.29,1,4.3,1.39,6C1079.43,886.69,1078.82,893.19,1077.61,899.35Zm-139.74,55c-12.91,6-25.1,11.67-31.87,15.36-10.58,5.78-18.87,15.13-22.27,19.32l-14-3-1.17.47c-.11,0-5.7,2.3-14.11,5.55l2.73-4.34c11.3-18,13.33-21.24,19.43-25.08,7.72-4.88,85.67-43.17,100.1-44.26,2.32-.15,2.78.77,3.08,1.81,1.34,4.71-2.76,14.92-11.19,19.4C961.68,943.24,949.57,948.87,937.87,954.32Zm18.62,7.58-21.73,16.53c-5.79-1.48-21.52-3.69-38.94,9.45a63.94,63.94,0,0,1,14.12-11c6.54-3.56,19.18-9.44,31.39-15.13l7.88-3.67c2.2-.16,4.85,0,6.21,1.39A4.25,4.25,0,0,1,956.49,961.9Zm12.61-60.85c-.5,4.15-2.69,10-10.23,14.1-29.45,11.05-80.7,36.77-86.61,40.49-7.68,4.85-10.14,8.78-22,27.66-2.41,3.83-5.24,8.34-8.57,13.59-3.23,1.22-6.62,2.47-10.08,3.73-.11-.41-.22-.8-.32-1.19,13.31-23.16,32.87-55.94,36.33-59.06,5.53-5,62.51-38.4,73.69-41.67l5.31-1.58c7.54-2.25,17.7-5.29,21-5C968.36,893.19,969.63,896.64,969.1,901.05Zm-107,33.22c-4.45,4-21.72,33.12-32,50.74,5.74-27.14,32.88-61.5,58.43-84.53,21.28-19.18,26-22.05,30.35-20l-19,30.34C882.48,920.76,865.46,931.24,862.11,934.27ZM649.34,672a17.18,17.18,0,0,1,3,14.45c0-14.26-15-14.71-15-14.71,2.54-4.17,6.41-4.27,9.64-1.94Z" transform="translate(0 -43.92)"/><path class="cls-3" d="M644.23,269.75s5.87-13,18-18.2l-3.11,4.59s6.54-3.17,12.09-3.28c17.05,8.61,40.64,7,40.64,7l-2.58,2.58a104.75,104.75,0,0,1,15,.88,36.49,36.49,0,0,0-8.25,2.07s9-.58,16.6,1.75c-2.77.44-6.7,3.21-6.7,3.21s5.24-1.32,15.29,2.91L736,263.66h0c-2-4-7.62-11.89-21-16.24-18.24-5.95-57.09-7.73-57.09-7.73L652,243.45v-3.76s-1.59,3.76-2.78,6.74c.2-4.17-4-6.74-4-6.74s1,5.15-1,15.46a7.21,7.21,0,0,0,1.75.27c-8,10.64-7.36,12.73-7.36,12.73v45.1C642.17,278.78,644.23,269.75,644.23,269.75Z" transform="translate(0 -43.92)"/><path class="cls-3" d="M535.76,287.65a61.53,61.53,0,0,1,46.74-19.17l15.32,11.23c-10.21-11.34-12.6-13.5-12.6-13.5S551.19,262.58,535.76,287.65Z" transform="translate(0 -43.92)"/><path class="cls-3" d="M571.76,412.14c-5.27,6.49-4.66,7.35-4.66,7.35s11.15-7.84,19.1-14.45l-3.06,5.64s11.88-6.62,19.72-9.92a69.87,69.87,0,0,0,14.2-8.33s-1.59,4.9-1.1,4.53,7.83-5.51,6.85-12.85a5.46,5.46,0,0,0-2.81,1s-6.62-10.78-9.8-12.37c-17,8.94-22.16,17.39-22.16,17.39l4.41-9.31s-12.25,9.06-20.2,16.41-9.43,11.38-9.43,11,4.16-9.68,5.75-11.51c-6.49,3.55-9.91,12.12-9.91,12.12a35.8,35.8,0,0,0-2,18.12S568.21,414.72,571.76,412.14Z" transform="translate(0 -43.92)"/><path class="cls-3" d="M644.34,358.86c-9.38,7.82-25.93,11.08-38.05,1.57C617.37,375.54,634.18,373.46,644.34,358.86Z" transform="translate(0 -43.92)"/><path class="cls-3" d="M546.47,293.6a19.3,19.3,0,0,1,2.44-5.07c2.64-2.79,7.11-6.09,14.54-8.31,15.1-4.5,30.87,5.82,29.64,8.45a7.94,7.94,0,0,1-4.15,3.66s8.59-.52,8.21-4.22-14.73-13-29.65-11.83-27.75,12.37-30.68,12.84c.57,2.27,3.12,1.33,3.12,1.33l-5.48,6.42a12.22,12.22,0,0,0,8.23-1.3c2.21.79,6.95,1.73,16.41,1.08C553.19,296.65,546.47,293.6,546.47,293.6Z" transform="translate(0 -43.92)"/><path class="cls-3" d="M526.87,267.23S547,257.85,566.79,256s32.41.85,32.41.85l-2.62-5.24a29.41,29.41,0,0,0,2.8,1.41l3.09,2.27c-.3-.49-.59-.93-.88-1.38h0a59.17,59.17,0,0,0-3.94-5.46,35,35,0,0,1-3.36-8.75,7,7,0,0,0-2,4.7c-6.15-.72-46.48-5.29-57.82-1.75,0,0-16.26,14.07-22.23,24.16,5.54-5,6.25-5.83,6.25-5.83s-6.39,10.52-4.69,17.34C533.41,267.08,537,266,537,266Z" transform="translate(0 -43.92)"/><path class="cls-3" d="M622.73,829.32c-6,11.08,8.73,18.76,8.73,18.76-.63,11.08,0,14.7,0,14.7s4.27-5.75,4.27-16.73c7.89-3.09,4-13.11,4-13.11C640,842.75,623.8,843.39,622.73,829.32Z" transform="translate(0 -43.92)"/><path class="cls-3" d="M525.61,574.87c-3.22,16.79-9.65,41.08,12.68,54.3,0,0-9.82-14.29,2.32-49.4,7.15,3.48,16.44-2.4,16.44-2.4l-37.51-18.58S515.61,568.08,525.61,574.87Z" transform="translate(0 -43.92)"/><path class="cls-3" d="M391.2,744.45c-19.77,5.07-34,22.81-34,22.81,4.56-50.19-15.21-34.59-13.69-75.09-17.24,77.63,13.18,142,13.18,142C366.87,780.44,391.2,744.45,391.2,744.45Z" transform="translate(0 -43.92)"/><path class="cls-3" d="M976.91,718.61s8.82-13.78,3.17-38.57c0,0-50.55,101.38-51.1,103.58,0,0,44.07-52.89,86.5-57.3C1015.48,726.32,1003.91,712,976.91,718.61Z" transform="translate(0 -43.92)"/><path class="cls-2" d="M705.18,500.38c11.07-16.11,16.14-24.47,16.14-24.47v7.43c12.53-12.5,18.73-21.14,18.73-21.14l-4.15,16S712.6,499.48,705.18,500.38Z" transform="translate(0 -43.92)"/><path class="cls-2" d="M745.08,460c0-.8,1.2-8.13,1.2-8.13l3.9-4.29S748.27,458.36,745.08,460Z" transform="translate(0 -43.92)"/><path class="cls-2" d="M702.66,493l-5.23,16.74C692.2,503.46,693.76,495,702.66,493Z" transform="translate(0 -43.92)"/><path class="cls-31" d="M543.9,130.11C534.29,110.35,552.41,90,552.41,90c-9.06,3-15.92,16.2-15.92,16.2C542,76.3,562,68.89,574.65,66.7s31,16.19,31,16.19C584.25,72.74,565.59,72.46,556,108.42c9.33-23.88,27.73-24.7,28.82-24.7C569.43,90.85,581,126,581,126c-14.82-8.24-13.73-22.24-13.73-22.24-9.6,13.45-5.49,23.33-5.49,23.33-14.82-8.78-8.78-23.61-8.78-23.61C541.54,112.56,543.9,130.11,543.9,130.11Z" transform="translate(0 -43.92)"/><path class="cls-31" d="M581.41,111.06C580,93.21,595,85.85,595,85.85,592.38,96.81,581.41,111.06,581.41,111.06Z" transform="translate(0 -43.92)"/><path class="cls-31" d="M586,113.25c7.42-22.4,31-28.34,31-28.34a62.61,62.61,0,0,1-6.42,8.46c15.5-7.05,22.86-4.23,22.86-4.23C621.34,99,603,108.55,603,108.55c.63-8.76,3.45-13.78,3.45-13.78A160.29,160.29,0,0,0,586,113.25Z" transform="translate(0 -43.92)"/><path class="cls-31" d="M617.66,107.64c11.28-17.58,36.75-16.57,36.75-16.57-3.82,1.28-8.49,6.8-8.49,6.8s19.54-6.07,44.82,2.59c22.94,7.82,36.11,40.32,43.33,42.44-25.49-11.26-36.32-32.74-59.48-28.27,13-8.69,20.61-3.59,20.61-3.59S674.38,99.32,658,114.63c.22-7.41,12.11-14.17,12.11-14.17-12.53,1-22.3,15.46-22.3,21.63-5.53-10,3.18-19.76,3.18-19.76a33.61,33.61,0,0,0-18.27,7.86,12.75,12.75,0,0,1,4.68-9.73C628.28,101.05,617.66,107.64,617.66,107.64Z" transform="translate(0 -43.92)"/><path class="cls-2" d="M683.78,119.11c18.79,5.16,23.73,24.66,35.94,31.71-13.39-5.64-18-9.4-18-9.4s14.21,25.84,37.7,39.93C725.83,164,723,160,723,160s25.13,13.39,38.52,31c-9.63-25.6-26.78-32.5-43.22-48.08S704.45,121,683.78,119.11Z" transform="translate(0 -43.92)"/><path class="cls-2" d="M743.53,157.12c25.4,18.27,28.72,50.32,28.72,50.32a33.7,33.7,0,0,0,4.27-15.19c4.28,7.12,5,17.56,5,17.56,5-23.26-4.48-31.7-10.88-38.11,3.79,7.6,2.33,13.66,2.33,13.66C762.76,161.39,743.53,157.12,743.53,157.12Z" transform="translate(0 -43.92)"/><path class="cls-31" d="M590.37,67.46c28.56-.94,56.18,18.39,56.18,18.39C641.17,67.22,617.29,62.54,590.37,67.46Z" transform="translate(0 -43.92)"/><path class="cls-13" d="M530.15,108.93c-2.93,20.53,2.05,30.21,2.05,30.21-7.33-5-9.38-9-9.38-9A37.1,37.1,0,0,0,514.75,150c-9.82-10.56,4-30.5,4-30.5l4.69,4.83S523.82,111.64,530.15,108.93Z" transform="translate(0 -43.92)"/><path class="cls-2" d="M741.15,130.78C769,158.34,770.54,163,770.54,163,742.8,151.69,741.15,130.78,741.15,130.78Z" transform="translate(0 -43.92)"/><path class="cls-2" d="M733.05,142.41c-7.42-4.56-20.41-34.49-42.31-41.95a86,86,0,0,0-17.5-4c17.5,4,32.14,18.92,33.14,20.55a79.92,79.92,0,0,0-15-3.73s25.51,15.8,37.76,27.27c1.26.66,2.56,1.3,3.9,1.91Z" transform="translate(0 -43.92)"/><path class="cls-2" d="M779,221.75l-1.67,27.09s-10.08-27.25-8.94-27.09c3.91.56,6.81,9.34,6.81,9.34S772.26,222.31,779,221.75Z" transform="translate(0 -43.92)"/><path class="cls-13" d="M568.37,75.74c-8,.13-17.34,10.11-17.34,10.11a42.59,42.59,0,0,1,23.65-19.16h0C562,68.89,542,76.3,536.49,106.23c0,0,6.86-13.18,15.92-16.2,0,0-11.54,13-11.3,28.23a43.71,43.71,0,0,0,.72,6,.09.09,0,0,0,0,0C545.61,94.28,568.37,75.74,568.37,75.74Z" transform="translate(0 -43.92)"/><path class="cls-13" d="M504.23,170.71l-12.3,30.69C512.52,191.45,502.15,170.71,504.23,170.71Z" transform="translate(0 -43.92)"/></g></g><polygon id="bottom-triangle" class="cls-3" points="487.37 1265.8 670.39 1585.01 810.91 1251.27 759.55 1271.94 579.72 1277.74 487.37 1265.8"/></g></g></g></svg>