<svg xmlns="http://www.w3.org/2000/svg" xmlns:xlink="http://www.w3.org/1999/xlink" viewBox="0 0 1402.51 435.3"><defs><style>.cls-1{fill:url(#linear-gradient);}.cls-2{fill:#001730;}.cls-3{fill:url(#linear-gradient-2);}.cls-4{fill:url(#linear-gradient-3);}.cls-5{fill:url(#linear-gradient-4);}.cls-6{fill:url(#linear-gradient-5);}.cls-7{fill:url(#linear-gradient-6);}.cls-8{fill:url(#linear-gradient-7);}.cls-9{fill:url(#linear-gradient-8);}.cls-10{fill:url(#linear-gradient-9);}.cls-11{fill:url(#linear-gradient-10);}.cls-12{fill:url(#linear-gradient-11);}.cls-13{fill:url(#linear-gradient-12);}.cls-14{fill:url(#linear-gradient-13);}.cls-15{fill:url(#linear-gradient-14);}.cls-16{fill:url(#linear-gradient-15);}.cls-17{fill:url(#linear-gradient-16);}.cls-18{fill:url(#linear-gradient-17);}.cls-19{fill:url(#linear-gradient-18);}.cls-20{fill:url(#linear-gradient-19);}.cls-21{fill:url(#linear-gradient-20);}.cls-22{fill:url(#linear-gradient-21);}.cls-23{fill:url(#linear-gradient-22);}.cls-24{fill:url(#linear-gradient-23);}.cls-25{fill:url(#linear-gradient-25);}.cls-26{fill:url(#linear-gradient-26);}.cls-27{fill:url(#linear-gradient-27);}.cls-28{fill:url(#linear-gradient-28);}.cls-29{fill:url(#linear-gradient-30);}.cls-30{fill:url(#linear-gradient-31);}.cls-31{fill:url(#linear-gradient-32);}.cls-32{fill:url(#linear-gradient-33);}.cls-33{fill:url(#linear-gradient-34);}</style><linearGradient id="linear-gradient" x1="701.25" y1="47.24" x2="701.25" y2="373.77" gradientUnits="userSpaceOnUse"><stop offset="0" stop-color="#5cdb95"/><stop offset="1" stop-color="#790faa"/></linearGradient><linearGradient id="linear-gradient-2" x1="1094.91" y1="45.98" x2="1094.91" y2="99.09" gradientUnits="userSpaceOnUse"><stop offset="0" stop-color="#4a4e69"/><stop offset="0.69" stop-color="#fff"/></linearGradient><linearGradient id="linear-gradient-3" x1="1013.98" y1="116.76" x2="1013.98" y2="246.88" gradientUnits="userSpaceOnUse"><stop offset="0" stop-color="#351c4d"/><stop offset="0.36" stop-color="#790faa"/><stop offset="0.72" stop-color="#5cdb95"/><stop offset="1" stop-color="#fff"/></linearGradient><linearGradient id="linear-gradient-4" x1="572.84" y1="116.76" x2="572.84" y2="246.88" xlink:href="#linear-gradient-3"/><linearGradient id="linear-gradient-5" x1="743.34" y1="116.76" x2="743.34" y2="246.88" xlink:href="#linear-gradient-3"/><linearGradient id="linear-gradient-6" x1="291.65" y1="116.76" x2="291.65" y2="246.88" xlink:href="#linear-gradient-3"/><linearGradient id="linear-gradient-7" x1="431.94" y1="116.76" x2="431.94" y2="246.88" xlink:href="#linear-gradient-3"/><linearGradient id="linear-gradient-8" x1="175.78" y1="116.76" x2="175.78" y2="246.88" xlink:href="#linear-gradient-3"/><linearGradient id="linear-gradient-9" x1="662.41" y1="45.98" x2="662.41" y2="99.09" xlink:href="#linear-gradient-2"/><linearGradient id="linear-gradient-10" x1="572.84" y1="45.98" x2="572.84" y2="99.09" xlink:href="#linear-gradient-2"/><linearGradient id="linear-gradient-11" x1="201.34" y1="45.98" x2="201.34" y2="99.09" xlink:href="#linear-gradient-2"/><linearGradient id="linear-gradient-12" x1="824.27" y1="45.98" x2="824.27" y2="99.09" xlink:href="#linear-gradient-2"/><linearGradient id="linear-gradient-13" x1="933.05" y1="45.98" x2="933.05" y2="99.09" xlink:href="#linear-gradient-2"/><linearGradient id="linear-gradient-14" x1="431.94" y1="45.98" x2="431.94" y2="99.09" xlink:href="#linear-gradient-2"/><linearGradient id="linear-gradient-15" x1="67.36" y1="45.98" x2="67.36" y2="99.09" xlink:href="#linear-gradient-2"/><linearGradient id="linear-gradient-16" x1="675.94" y1="153.92" x2="675.94" y2="137.2" gradientUnits="userSpaceOnUse"><stop offset="0.06" stop-color="#001730" stop-opacity="0"/><stop offset="1" stop-color="#001730"/></linearGradient><linearGradient id="linear-gradient-17" x1="572.84" y1="55.76" x2="572.84" y2="392.26" gradientUnits="userSpaceOnUse"><stop offset="0" stop-color="#fff"/><stop offset="0.22" stop-color="#005caf"/><stop offset="0.23" stop-color="#001730"/><stop offset="0.32" stop-color="#5cdb95"/><stop offset="0.42" stop-color="#005caf"/><stop offset="0.53" stop-color="#5cdb95"/><stop offset="0.63" stop-color="#001730"/><stop offset="0.7" stop-color="#005caf"/><stop offset="0.78" stop-color="#fff"/><stop offset="0.87" stop-color="#005caf"/><stop offset="1" stop-color="#001730"/></linearGradient><linearGradient id="linear-gradient-18" x1="1013.98" y1="55.76" x2="1013.98" y2="392.26" xlink:href="#linear-gradient-17"/><linearGradient id="linear-gradient-19" x1="743.34" y1="55.76" x2="743.34" y2="392.26" xlink:href="#linear-gradient-17"/><linearGradient id="linear-gradient-20" x1="291.65" y1="55.76" x2="291.65" y2="392.26" xlink:href="#linear-gradient-17"/><linearGradient id="linear-gradient-21" x1="431.94" y1="55.76" x2="431.94" y2="392.26" xlink:href="#linear-gradient-17"/><linearGradient id="linear-gradient-22" x1="176.61" y1="55.76" x2="176.61" y2="392.26" xlink:href="#linear-gradient-17"/><linearGradient id="linear-gradient-23" x1="662.95" y1="55.76" x2="662.95" y2="392.26" xlink:href="#linear-gradient-17"/><linearGradient id="linear-gradient-25" x1="201.32" y1="55.76" x2="201.32" y2="392.26" xlink:href="#linear-gradient-17"/><linearGradient id="linear-gradient-26" x1="823.73" y1="55.76" x2="823.73" y2="392.26" xlink:href="#linear-gradient-17"/><linearGradient id="linear-gradient-27" x1="1094.37" y1="55.76" x2="1094.37" y2="392.26" xlink:href="#linear-gradient-17"/><linearGradient id="linear-gradient-28" x1="933.59" y1="55.76" x2="933.59" y2="392.26" xlink:href="#linear-gradient-17"/><linearGradient id="linear-gradient-30" x1="67.36" y1="55.76" x2="67.36" y2="392.26" xlink:href="#linear-gradient-17"/><linearGradient id="linear-gradient-31" x1="1257.76" y1="46.52" x2="1257.76" y2="91.19" gradientUnits="userSpaceOnUse"><stop offset="0" stop-color="#4a4e69"/><stop offset="0.77" stop-color="#fff"/></linearGradient><linearGradient id="linear-gradient-32" x1="1257.65" y1="124.95" x2="1258.26" y2="252.24" xlink:href="#linear-gradient-3"/><linearGradient id="linear-gradient-33" x1="1255.55" y1="154.48" x2="1256.34" y2="132" xlink:href="#linear-gradient-16"/><linearGradient id="linear-gradient-34" x1="1257.76" y1="52.42" x2="1257.76" y2="387.32" xlink:href="#linear-gradient-17"/></defs><g id="Layer_2" data-name="Layer 2"><g id="Layer_5" data-name="Layer 5"><path class="cls-1" d="M1382.54,0H1183.07a60.86,60.86,0,0,0-32,9.24c-1,.63-2.06,1.29-3.07,2a76.66,76.66,0,0,0-9.14-5A68.11,68.11,0,0,0,1110.4,0h-14.75l-.91.08-1,.1-.34,0-.94.08-.88.09-.86.15-1,.17A82.23,82.23,0,0,0,1053,17.81a91.42,91.42,0,0,0-25.3,32.13L1014,78.2l-13.77-28.39A90.18,90.18,0,0,0,974.4,17.52,83.65,83.65,0,0,0,937.79.71L935.87.36,934.12,0h-3.73L917.24,0h-.1a67.51,67.51,0,0,0-29.32,6.53,75.56,75.56,0,0,0-9.4,5.36,73.62,73.62,0,0,0-10.15-5.65A68.11,68.11,0,0,0,839.76,0H825l-.92.08-1,.1-.32,0-1,.09-.87.08-.87.15-.94.17a82.19,82.19,0,0,0-36.78,17.11A91.33,91.33,0,0,0,757,49.94L743.34,78.2,729.57,49.81a90.1,90.1,0,0,0-25.82-32.29A83.62,83.62,0,0,0,667.15.71L665.23.36,663.48,0h-3.73L646.6,0h-.1q-3.07,0-6.09.26V0H168.62l-6,8.52-6.5,9.29L134.72,48.43V0H0V352.53H134.72V304.29l78.91,113.14,6.5,9.33,6,8.54h147V352.53H710.76v-7.11a61.91,61.91,0,0,0,28.85,7.11h7.45c9.36,0,18.79-2.53,28.86-7.73v7.73H981.4v-7.11a61.92,61.92,0,0,0,28.86,7.11h7.45c9.35,0,18.79-2.53,28.85-7.73v7.73h285.9a60.79,60.79,0,0,0,32-9.25,75.41,75.41,0,0,0,20.14-18,89.33,89.33,0,0,0,12.16-21,75.05,75.05,0,0,0,5.79-28.85V0ZM267.88,152.29l20.41-29.57,6.35-9.19v38.76Z"/><path class="cls-2" d="M1360.76,20H1183.07a41.15,41.15,0,0,0-21.57,6.33,55.18,55.18,0,0,0-13.13,11.3c-.73-.83-1.46-1.66-2.25-2.45a53.18,53.18,0,0,0-15.53-10.76A48.19,48.19,0,0,0,1110.4,20h-13.83l-1,.09-.33,0-1,.09-.94.17a62.37,62.37,0,0,0-27.89,13.06,71.49,71.49,0,0,0-19.78,25.18l-16.07,33.15-3.72,7.68h0l-6,12.28L1014,124l-.45-.94h0l-9.36-19.29-2.09-4.32h0l-3.72-7.68L982.25,58.52A70.66,70.66,0,0,0,962.1,33.25a63.86,63.86,0,0,0-27.89-12.9L932.29,20h-1.94l-13.16,0h-.05a47.7,47.7,0,0,0-20.72,4.58,54.26,54.26,0,0,0-15,10.6c-1,1.05-2,2.14-2.95,3.25-1-1.12-2-2.21-3-3.25a53.36,53.36,0,0,0-15.54-10.76A48.11,48.11,0,0,0,839.76,20H825.93l-1,.09-.33,0-1,.09-.94.17a62.37,62.37,0,0,0-27.89,13.06A71.27,71.27,0,0,0,775,58.59L759,91.74l-3.72,7.68h0l-1.91,3.93L743.79,123h0l-.45.94-6-12.27-5.95-12.28h0l-3.73-7.68-16.1-33.22a70.57,70.57,0,0,0-20.16-25.27,63.8,63.8,0,0,0-27.89-12.9L661.65,20h-1.94l-13.16,0h0a47.63,47.63,0,0,0-20.72,4.58,55.51,55.51,0,0,0-5.34,3V20H314.61V172.26H244.26v29L227,176.37l3.79-5.5,41.08-59.49,23.59-34.16V20H179l-6.51,9.29L130.87,88.75,123.4,99.42h-8.65V20H20v312.6h94.78V253.94H124L230,406l6.5,9.32H353.1V358.08l-17.71-25.51h355.4v-41.2q4.05,7.23,7,12.19l.08.13.08.14c7,11.45,12.67,18.08,19.12,22.17a42,42,0,0,0,22.57,6.57h7.45c6.19,0,12.47-1.77,19.77-5.55,7.79-4,14.77-11.41,21.93-23.2l.09-.15.09-.15q2.89-4.92,6.95-12.16v41.21H961.43v-41.2q4.07,7.23,7,12.19l.08.13.08.14c7,11.45,12.67,18.08,19.13,22.17a42,42,0,0,0,22.57,6.57h7.45c6.18,0,12.47-1.77,19.76-5.55,7.79-4,14.77-11.41,21.93-23.2l.1-.15.08-.15q2.89-4.92,7-12.16v41.21h265.93a41.1,41.1,0,0,0,21.58-6.34A55.16,55.16,0,0,0,1368.83,313a69.53,69.53,0,0,0,9.44-16.3,55.27,55.27,0,0,0,4.27-21.22V20ZM524,172.26l1.2-1.38v1.38Zm-185,8.36v-.34h.29Z"/><path class="cls-3" d="M1129.44,51.84a29.7,29.7,0,0,0-8.69-6,24.67,24.67,0,0,0-10.35-2.27h-12.82a38.83,38.83,0,0,0-17.39,8.27,47.94,47.94,0,0,0-13.24,17L1052.1,99.43h85.62V69.64a21.57,21.57,0,0,0-2.28-9.31A30.7,30.7,0,0,0,1129.44,51.84Z"/><path class="cls-4" d="M1014,178.06,987.3,123h-97v128.7h47.59V135.44q15.72,35.17,29.79,61t21.11,37.86q7,11.6,11.58,14.49a18.17,18.17,0,0,0,9.94,2.89h7.45c2.2,0,5.17-1,8.89-2.89s7.93-6.76,12.63-14.49q7-12,21.1-37.86t29.8-61V251.72h47.59V123h-97Z"/><rect class="cls-5" x="548.84" y="123.02" width="48" height="128.7"/><path class="cls-6" d="M743.34,178.06l-26.69-55h-97v128.7h47.59V135.44q15.72,35.17,29.8,61t21.1,37.86q7,11.6,11.59,14.49a18.14,18.14,0,0,0,9.93,2.89h7.45q3.32,0,8.9-2.89t12.62-14.49q7-12,21.11-37.86t29.79-61V251.72h47.59V123H770Z"/><rect class="cls-7" x="267.86" y="195.86" width="47.59" height="55.87"/><path class="cls-8" d="M485.64,123H421.28l-74.79,84.84q-4.15,4.14-6.21,11.58a47.74,47.74,0,0,0-2.07,12.42v19.86H525.67V195.86H421.8Z"/><polygon class="cls-9" points="195.62 123.02 43.56 123.02 43.56 251.72 91.16 251.72 91.16 173.09 136.26 173.09 248.82 334.49 308 334.49 178.47 147.85 195.62 123.02"/><path class="cls-10" d="M676.92,51.84a40.26,40.26,0,0,0-17.59-8.27H646.5A24.23,24.23,0,0,0,636,45.84a30.5,30.5,0,0,0-8.48,6,27.23,27.23,0,0,0-5.8,8.49,23.21,23.21,0,0,0-2.07,9.31V99.43h85.62L690.37,68.81A47,47,0,0,0,676.92,51.84Z"/><rect class="cls-11" x="548.84" y="43.57" width="48" height="55.87"/><polygon class="cls-12" points="152.2 99.43 211.91 99.43 250.48 43.56 191.3 43.56 152.2 99.43"/><path class="cls-13" d="M858.8,51.84a29.83,29.83,0,0,0-8.69-6,24.7,24.7,0,0,0-10.35-2.27H826.93a38.84,38.84,0,0,0-17.38,8.27,47.94,47.94,0,0,0-13.24,17L781.46,99.43h85.61V69.64a21.55,21.55,0,0,0-2.27-9.31A30.7,30.7,0,0,0,858.8,51.84Z"/><path class="cls-14" d="M947.56,51.84A40.26,40.26,0,0,0,930,43.57H917.14a24.23,24.23,0,0,0-10.55,2.27,30.65,30.65,0,0,0-8.48,6,27.4,27.4,0,0,0-5.8,8.49,23.19,23.19,0,0,0-2.06,9.31V99.43h85.61L961,68.81A47,47,0,0,0,947.56,51.84Z"/><path class="cls-15" d="M338.21,99.43h168.1l9.43-10.76q4.54-4.12,7.24-12.62a48.94,48.94,0,0,0,2.69-14.28V43.57H338.21Z"/><rect class="cls-16" x="43.56" y="43.57" width="47.59" height="55.87"/><path class="cls-17" d="M548.84,150.83s3.7-15.38,30.15-15a25.37,25.37,0,0,1,17.86,7.55V123h-48Zm154.22-14.21a39.36,39.36,0,0,1,17.22-6.12L716.65,123h-97v31.5c1.11-2.41,8.54-16,37.18-21.9,31.5-6.51,40.06,14.11,51.73,9.83s19.45,1.17,23.73,13.61c0-.24.06-.44.1-.68L724.9,140C720,138.37,710.57,135.73,703.06,136.62Zm271.1-4.28a83.19,83.19,0,0,1,17.85.41L987.3,123h-97v28.49s16.23-21.81,52-21.46,61.06,26.4,61.06,26.4l-6.62-14S983.11,134.28,974.16,132.34Zm51.36,21.92c8.16-6.7,23.71-17.62,39.26-18.42,22.33-1.16,14.46,23.07,14.29,23.58q5.43-11.4,11.06-24v16s10.44-23.75,39.61-14.41a54.77,54.77,0,0,1,8,3.23V123h-97Zm-628.76-3.43h0s18.87-16.16,45.32-16.55c13-.19,20.37,5.08,24.5,10.49L485.64,123H421.28Zm359.45.68s31.4-20.83,68.67-18.06,42.19,36.23,42.19,36.23V153.34s-3.37-13.61-15-17.89a38.49,38.49,0,0,1,15,6.34V123H770ZM1308.32,123H1244l-19.62,22.26,3.41-1.27s28-11.67,46.68-10.12c12.32,1,13.46,8.33,12.81,13.18Zm-1121,12.08L195.62,123H43.56v34.7C64.84,130.21,147.78,122.64,193.18,169l-7.35-10.59,0,0v0S170.21,139.73,155,135.65C164.49,131.27,176.16,132.16,187.28,135.1Z"/><path class="cls-18" d="M547,253.54h51.63V121.2H547ZM591.4,128.46V246.28H554.29V128.46Z"/><path class="cls-19" d="M1014,173.9l-25.55-52.7h-100V253.54h51.22V143.87c9.21,20.24,18.07,38.2,26.39,53.47,9.34,17.19,16.45,29.94,21.15,37.94,4.88,8.05,8.86,13,12.16,15.08a20,20,0,0,0,10.91,3.18h7.45c2.52,0,5.71-1,9.73-3.1s8.41-7.06,13.35-15.18c4.67-8,11.78-20.73,21.14-37.92,8.3-15.27,17.16-33.23,26.38-53.47V253.54h51.22V121.2h-100Zm118.29-45.44V246.28h-36.7V128.46Zm-45,0-2.12,4.75c-10.39,23.22-20.35,43.63-29.61,60.66s-16.36,29.77-21,37.64c-5.44,9-8.9,11.67-10.48,12.48-4.08,2.12-5.92,2.29-6.38,2.29h-7.45a12.7,12.7,0,0,1-7-2.05c-1.3-.82-4.29-3.56-9.81-12.64-4.65-7.93-11.72-20.62-21-37.72s-19.22-37.42-29.6-60.66l-2.12-4.75h43.19l30.1,62.08,30.1-62.08Zm-154.89,0V246.28h-36.7V128.46Z"/><path class="cls-20" d="M743.34,173.9l-25.55-52.7h-100V253.54H669V143.87c9.21,20.24,18.07,38.2,26.39,53.47,9.34,17.19,16.45,29.94,21.14,37.94,4.89,8.05,8.87,13,12.17,15.08a20,20,0,0,0,10.9,3.18h7.45c2.53,0,5.71-1,9.73-3.1s8.42-7.06,13.36-15.18c4.67-8,11.78-20.73,21.13-37.92,8.31-15.27,17.17-33.23,26.39-53.47V253.54h51.22V121.2h-100ZM625.05,246.28V128.46h36.7V246.28ZM861.63,128.46V246.28h-36.7V128.46Zm-45,0-2.13,4.75c-10.39,23.23-20.35,43.64-29.6,60.66s-16.37,29.77-21,37.64c-5.45,9-8.9,11.67-10.48,12.48-4.08,2.12-5.92,2.29-6.39,2.29h-7.45a12.67,12.67,0,0,1-7-2.05c-1.3-.83-4.3-3.57-9.81-12.64-4.63-7.89-11.7-20.58-21-37.72s-19.22-37.43-29.6-60.66L670,128.46h43.2l30.1,62.08,30.1-62.08Z"/><path class="cls-21" d="M266,253.54h51.22V194H266Zm44-52.24v45H273.3v-45Z"/><path class="cls-22" d="M489.64,121.2H420.46L345.2,206.57A27.63,27.63,0,0,0,338.53,219a49.85,49.85,0,0,0-2.14,12.91v21.68h191.1V194H425.81Zm-16,7.26L409.79,201.3H520.23v45H343.65V231.86a43.13,43.13,0,0,1,1.87-11,20.58,20.58,0,0,1,4.9-9.27l73.32-83.17Z"/><path class="cls-23" d="M199.08,121.2H41.75V253.54H93V174.91h42.34L247.88,336.3h63.59L180.68,147.85ZM251.67,329,140.73,170l-1.63-2.33H85.71v78.63H49V128.46H185.24l-13.39,19.4L297.59,329Z"/><path class="cls-24" d="M692,68a49,49,0,0,0-14-17.61,42.28,42.28,0,0,0-18.37-8.63l-13.16,0a26.15,26.15,0,0,0-11.33,2.45,32.46,32.46,0,0,0-9,6.36,29.12,29.12,0,0,0-6.17,9,25,25,0,0,0-2.22,10v31.61h90.32ZM646.5,49h12.32a35.48,35.48,0,0,1,14.75,7.12,41.92,41.92,0,0,1,11.9,15.06l11,22.8H625.05V69.64a17.79,17.79,0,0,1,1.62-7.14,22,22,0,0,1,4.65-6.81,25.41,25.41,0,0,1,7-4.94A19,19,0,0,1,646.5,49Z"/><path class="cls-18" d="M547,101.25h51.63V41.75H547ZM591.4,49V94H554.29V49Z"/><path class="cls-25" d="M253.94,41.75H190.36l-41.65,59.5h64.15ZM162.65,94l31.49-45h46l-31,45Z"/><path class="cls-26" d="M860.08,50.56a31.5,31.5,0,0,0-9.22-6.37,26.49,26.49,0,0,0-11.1-2.44H826.93l-.32,0a40.82,40.82,0,0,0-18.19,8.64A49.77,49.77,0,0,0,794.68,68l-16.12,33.23h90.33V69.64a23.49,23.49,0,0,0-2.46-10.1A32.3,32.3,0,0,0,860.08,50.56ZM839.76,49a19.35,19.35,0,0,1,8.08,1.78,24.42,24.42,0,0,1,7.11,4.9,25.59,25.59,0,0,1,4.93,7,16.29,16.29,0,0,1,1.75,7V94H790.15l11.07-22.82A42.74,42.74,0,0,1,813,56.09,34.07,34.07,0,0,1,827.45,49Z"/><path class="cls-27" d="M1130.72,50.56a31.5,31.5,0,0,0-9.22-6.37,26.49,26.49,0,0,0-11.1-2.44h-12.83l-.32,0a40.82,40.82,0,0,0-18.19,8.64A49.77,49.77,0,0,0,1065.32,68l-16.11,33.23h90.32V69.64a23.47,23.47,0,0,0-2.45-10.1A32.54,32.54,0,0,0,1130.72,50.56Zm-.2,12.11a16.29,16.29,0,0,1,1.75,7V94H1060.8l11.06-22.82a42.66,42.66,0,0,1,11.74-15.08A34,34,0,0,1,1098.09,49h12.31a19.35,19.35,0,0,1,8.08,1.78,24.29,24.29,0,0,1,7.11,4.9A25.17,25.17,0,0,1,1130.52,62.67Z"/><path class="cls-28" d="M962.65,68a49.09,49.09,0,0,0-14-17.61,42.31,42.31,0,0,0-18.38-8.63l-13.16,0a26.18,26.18,0,0,0-11.33,2.45,32.46,32.46,0,0,0-9,6.36,29.24,29.24,0,0,0-6.17,9,25.14,25.14,0,0,0-2.22,10v31.61h90.33Zm-6.54,3.17L967.17,94H895.69V69.64a18,18,0,0,1,1.62-7.14A22,22,0,0,1,902,55.69a25.41,25.41,0,0,1,7-4.94,19,19,0,0,1,8.2-1.74h12.32a35.48,35.48,0,0,1,14.75,7.12A41.82,41.82,0,0,1,956.11,71.19Z"/><path class="cls-22" d="M336.39,101.25H507.13L517,90c3.22-3,5.8-7.45,7.67-13.35a51,51,0,0,0,2.78-14.83v-20H336.39Zm175.69-16.6L503.84,94H343.65V49H520.23V61.77a43.81,43.81,0,0,1-2.44,12.63C516.3,79.11,514.37,82.56,512.08,84.65Z"/><path class="cls-29" d="M93,41.75H41.75v59.5H93ZM85.71,49V94H49V49Z"/><path class="cls-30" d="M1183.07,43.56a17.83,17.83,0,0,0-9.31,2.9,31.78,31.78,0,0,0-8.49,7.66,45.92,45.92,0,0,0-6.21,10.76,31.76,31.76,0,0,0-2.48,12.21V99.43h202.36V43.56Z"/><path class="cls-31" d="M1350.25,132.74a31.85,31.85,0,0,0-8.48-7.65,21.33,21.33,0,0,0-4.45-2.07H1156.58v16.55a31.73,31.73,0,0,0,2.48,12.21,45.92,45.92,0,0,0,6.21,10.76,31.45,31.45,0,0,0,8.49,7.66,17.82,17.82,0,0,0,9.31,2.89h128.28v22.76H1159.2v55.87h173.26a17.87,17.87,0,0,0,9.31-2.89,31.73,31.73,0,0,0,8.48-7.66,45.23,45.23,0,0,0,6.21-10.76,31.58,31.58,0,0,0,2.48-12.21V155.71a31.62,31.62,0,0,0-2.48-12.21A45.63,45.63,0,0,0,1350.25,132.74Z"/><path class="cls-32" d="M1341.77,125.09a21.33,21.33,0,0,0-4.45-2.07H1156.58v16.55a30.41,30.41,0,0,0,.41,4.77l.49.62c32.88-19.88,85.63-9.56,119.65-7.27s64.61-9.91,78.75,9.38q-.32-3.33-.69-6.37a44.17,44.17,0,0,0-4.94-8A31.85,31.85,0,0,0,1341.77,125.09Z"/><path class="cls-33" d="M1183.07,41.75a19.72,19.72,0,0,0-10.26,3.16,33.87,33.87,0,0,0-9,8.09,47.88,47.88,0,0,0-6.45,11.18,33.66,33.66,0,0,0-2.62,12.91v24.16h206V41.75Zm-6.49,9.36a12.74,12.74,0,0,1,6.49-2.1H1353.5V94H1162V77.09A26.3,26.3,0,0,1,1164.1,67a40.08,40.08,0,0,1,5.46-9.48A26.43,26.43,0,0,1,1176.58,51.11Z"/><path class="cls-33" d="M1351.68,131.62a33.7,33.7,0,0,0-9-8.08,23.25,23.25,0,0,0-4.82-2.24l-.28-.1H1154.77v18.37a33.5,33.5,0,0,0,2.62,12.9,47.35,47.35,0,0,0,6.45,11.19,33.68,33.68,0,0,0,9,8.09,19.67,19.67,0,0,0,10.26,3.16h126.47V194H1157.38v59.5h175.08a19.76,19.76,0,0,0,10.25-3.16,33.57,33.57,0,0,0,9-8.09,47.23,47.23,0,0,0,6.46-11.19,33.5,33.5,0,0,0,2.62-12.9V155.71a33.65,33.65,0,0,0-2.62-12.9A47.63,47.63,0,0,0,1351.68,131.62Zm-12.74,112.55a12.6,12.6,0,0,1-6.48,2.11H1164.64v-45H1316.8V167.65H1183.07a12.61,12.61,0,0,1-6.49-2.11,26.22,26.22,0,0,1-7-6.36,40.08,40.08,0,0,1-5.46-9.48,26.26,26.26,0,0,1-2.07-10.13V128.46h174.35a17.37,17.37,0,0,1,2.55,1.28,26.63,26.63,0,0,1,7,6.36,40.38,40.38,0,0,1,5.47,9.49,26.44,26.44,0,0,1,2.07,10.12V218.2a26.45,26.45,0,0,1-2.07,10.13,40.11,40.11,0,0,1-5.47,9.48A26.25,26.25,0,0,1,1338.94,244.17Z"/></g></g></svg>